<svg xmlns="http://www.w3.org/2000/svg" xmlns:xlink="http://www.w3.org/1999/xlink" viewBox="0 0 382.82 305.67"><style><![CDATA[.B{fill:#F8CA41}.D{fill:#fff}.E{fill:#504431}.F{fill:#463019}.G{fill:#B35629}.H{fill:#493219}.I{fill:#98451E}.J{fill:#FFFCF1}.K{fill:#893D1A}.L{fill:#FDE5AC}.M{fill:#A28F7B}.N{fill:#A84A23}.O{fill:#9E988A}.Q{fill:#998574}.R{fill:#D2A17F}.S{fill:#C09474}.U{fill:#B8A790}]]></style><circle cx="131.33" cy="91.51" r="60.69" fill="#ffecb0"/><path class="B" d="M195.9 98.8l-1.64 6.26c.04-.3-.46-4.38-.46-4.38l-3.93 15.78 4-21.47.53 7.2 1.5-3.38z"/><path d="M176.26 104.5c-.98-1.42-2.6-2.28-4.32-2.28 0 0-8.15-9.68-14.08-7.98 0 0-7.2-5-10.2-1.5a5.33 5.33 0 0 0-3.7-.68c-1.93.46 1.5 1.82.9 1.6-.57-.22-4.33-1.93-4 0s1.24 2.63-1.37 2.4 2.06 4.9 2.06 4.9 3.2 1.25 3.53.46c.34-.8 4.1 4.45 7.62 2.05 0 0 4.9 4 6.95 3.76s3-.3 3-.3 4.64 2.78 7.5 2.84c0 0 3.87 4.94 7.98 5.46s3.95-2.8 3.95-2.8 3 3.85 6.4 2.5c0 0 3.2 5.33 6.4 5.6 3.2.26 0-5.6 0-5.6s2.96 1.84 4.44 2.08c1.48.23.7-2.08.7-2.08s5 1.74 4.66-2.03-7.62-7.5-7.62-7.5-1.47-.4-.68 1.1-7.9-6.92-11.7-6.58c0 0-9.03-5-11.88-3.87s8.2 9.67 8.2 9.67-3.87-2.04-4.72-1.24z" fill="#61594e"/><path class="D" d="M272.1 111.6s3.1-1.02 4.53 5.18-3.58 11.86-3.58 11.86-1.93 2.1-4 1.22c0 0 1.1.3 2.63-1 2.62-2.43 4.13-5.83 4.17-9.4-.01-4.57-.43-6.14-3.76-7.85z"/><path class="E" d="M252.08 191.76c-.18-.3-2.72-4.22-5.76-4.4 0 0-4.8-2.9-8.98-1.86l-13.45-6.07s-2.9-9.97-12.82-14.68c-9.92-4.7-27.37-11.43-27.37-11.43s-10.38-2.55-19.02 2.34l-18.8-6.27-9.03-21.67a4.55 4.55 0 0 0-2.32-2.76c-1.8-.96-8.18-4.57-8.18-4.57s-3.7.1-4.57 2.76-4.25 17.63-4.25 17.63-2.55-2.33-4.9-.2-4.04 6.48-4.04 6.48-2.04 4.8 8.78 13c0 0-89.54-33.2-77.7-22.5l2.96 1.86s-6.82-.6.25 2.8c7.07 3.42 65.8 35.33 65.8 35.33s-4 3.42.12 5.97l8.04 5a19.44 19.44 0 0 0 3.31 3.29c1.46.97 10.97 6.1 12.3 5.72s2.8 1.7 2.8 1.7l2.67-.37s6.58 5 9.14 3.2c2.56-1.8-7.2-7.92-7.2-7.92l-1.1-1.83s21.08 13.64 32.53 17.05l10.72 5c2.2.1 4.4-.22 6.46-.97l25.34 13.76s1.7 4.5 4.75 5.73 6.2 2.67 10.24 1.95l11.58 4.38a12.45 12.45 0 0 0 6.95 1.46l1.46 2.56s4.75.97 5.48 1.7 4.14 4.14 7.56 2.4 4.26-.73 4.26-.73l4.38 1.83 2.56.25 5.72 3.65s2.07-.5 2.07-1.1-2.07-4.63-4-5.5c-1.92-.85 28.63 8.3 28.63 8.3s-4.7-3.73-.6-2.55c.85.24 10.6 2.8 5.48-1.34-5.12-4.14-37.28-21.2-37.28-21.2s-.37-3.9-1.6-4.63c-1.34-.67-2.72-1.24-4.14-1.7 0 0 8.05-17.06-.6-24.37-8.63-7.3-14.66-6.48-14.66-6.48z"/><path class="F" d="M219.6 176.96l-15.3-6.26s-4.8-10.72-11.94-13.9c.01 0 24.32 8.26 27.25 20.15zm-29.34-18.16s5.73 4.13 5.6 8.2l-12.7-4.87c.01 0 1.75-2.9 7.1-3.32zm-1.23-.8l-5.6-2.77c-3.22.12-6.3 1.4-8.62 3.63l6.53 2.83c0 .01 3.92-4 7.68-3.7zm-8.73-3.4s-5.98 1.6-7.03 3.76l-5-1.9c.01.01 7.2-3.26 12.02-1.85zm-32 20.54s-39-25.12-39.7-28.3c0 0-4.15 1.67 8.34 13.33.01-.01 28.57 14.12 31.35 14.98zm-13.48-38.87s-1.87-7.32-5.97-8.1-4 5.64-4 5.64 1.54 6.16 5.84 7.12c4.3.97 4.12-4.67 4.12-4.67z"/><path class="B" d="M131.55 134.92s-3.27-2.05-4.56-1.54 4.04 2.63 4.04 2.63.65.4.52-1.1zm30.3 25.43s-3.27-2.05-4.55-1.53 4.04 2.63 4.04 2.63.64.38.5-1.1zm-1.1 1.5s-3.27-2.05-4.55-1.54 4.04 2.63 4.04 2.63.65.38.5-1.1zm-30.6-25.55s-1.16-.73-1.6-.54c-.44.18 1.43.93 1.43.93s.22.13.17-.4z"/><path class="F" d="M137.73 191.68s-3.88-4.97-2.02-8.85L42.2 139.5s-7.04-1.5-.84 2.52 66.1 35.7 66.1 35.7-3.57 4.34-1.25 5.74 10.18 5.15 10.18 5.15.7-2.98 2.55-1.9 13.5 7.9 13.5 8.38-.46 2.53-.46 2.53 11.1 7.35 14.63 4.5-8.9-10.44-8.9-10.44zm76.84 20.27l-17.83-9.43s-4.8 8.92-8.26 10.84l25.34 13.76s-2-10.7.75-15.17z"/><path class="G" d="M188.48 213.4s8.18-5.2 8.65-13-1.32-7.9-3.48-9.3-8.64-3.66-8.64-3.66-3.3-.47-5.54 1.13-11.47 10.1-8.18 20.82c0 0 9.23 4.8 10.72 5 2.22.34 4.47 0 6.47-.98z"/><path class="H" d="M188.62 211.04s-4.7 2.15-4.94-1.92.87-9.18 5.4-12.38c4.53-3.2 6.4.4 6.4.4s2.56 8.9-6.86 13.9z"/><path class="I" d="M192.87 201.04s0-.08-.08-.22c-.3-.8-1.6-3.27-4.56.75-3.48 4.7-.34 6.18-.34 6.18s1.64.73 3.62-2.17 1.36-4.54 1.36-4.54z"/><path class="J" d="M192.97 205.77s1.52-2.4.65-4.1-3.4 1.6-3.4 1.6-1.6 2.5-.2 3.86c1.4 1.36 2.95-1.36 2.95-1.36z"/><path class="F" d="M134.42 168.7s26.94 18.57 10.2 19.77l-12.6-1.47.5-2.16s8.38 2.22 10.17-2.16-17.37-18.36-17.37-18.36l9.1 4.38z"/><path class="K" d="M181.18 201.34s-8.5 4.98-9.13-2.88c0 0-2.68 4-.74 10.88l10.5 4.92c-.01-.01-4.8-5.06-.64-12.92z"/><path class="J" d="M181.92 191.6s-11.46 12.02-6.1 19.82l-2.63-1.13s-4.14-8.73 5.82-19.16a9.88 9.88 0 0 1 7.98-3.19l2.72 1.13c.01-.01-5.53.37-7.78 2.53z"/><path class="F" d="M118.22 136.26s11.47 8.83 18.94 10.56l-20.06-5.93 1.12-4.63z"/><path class="L" d="M214.1 204.4s-3.27-2.06-4.56-1.54 4.05 2.63 4.05 2.63.64.4.5-1.1zm-1.13 1.5s-3.27-2.05-4.56-1.54 4.04 2.63 4.04 2.63.65.4.52-1.1z"/><path class="M" d="M224.7 185.78l-.12-1.64-1.3 1.15-1.6-.7.63 1.52-1.5 1.27 1.97-.08.62 1.44.87-1.73 1.97-.32zm-7.13-3.28l-.13-1.64-1.3 1.15-1.6-.7.6 1.52-1.48 1.28 1.98-.1.6 1.45.86-1.73 1.98-.33zm-6.9-2.84l-.12-1.65-1.3 1.15-1.6-.7.62 1.52-1.48 1.27 1.97-.08.6 1.43.88-1.72 1.97-.33z"/><image width="432" height="432" xlink:href="EAFDD800.png" transform="matrix(.1916 0 0 .1916 129.936096 132.058701)" overflow="visible"/><circle class="B" cx="171.29" cy="173.18" r="9.25"/><circle class="D" cx="171.33" cy="173.37" r="5.37"/><path class="F" d="M185.02 187.4s-30.43-12.92-36.3-12.3c0 0 21.2 13.08 21.38 17.28s-21.36-4.65-21.36-4.65l-12.6-4.97s-2.32 5.34 2.02 8.85c4.34 3.5 27.15 16.47 33.14 17.76-1.6-5.24-.55-10.93 2.82-15.24 5.73-7.25 7.43-6.74 10.9-6.72z"/><path class="B" d="M162.7 170.2l-46.32-21.94 45.83 23.4zm-65-12.04s8.67 2.98 9.45 6.08-11.74-4.73-11.74-4.73-.42-1.54 2.3-1.35z"/><path class="F" d="M304.84 251.5s6.07 3.74-2.54 2.13-25.48-7.86-25.48-7.86 3.93 2.32 4.42 4.1-.33 2.33-7.32-.1l-11.02-3.7 7.8-7.56 34.14 13z"/><path class="N" d="M267.17 248.45s8.18-5.2 8.65-13c.47-7.8-1.32-7.9-3.47-9.3-2.16-1.4-8.65-3.66-8.65-3.66s-3.28-.47-5.54 1.13-11.47 10.1-8.18 20.83c0 0 9.23 4.8 10.72 5 2.2.33 4.46-.01 6.47-1z"/><path class="K" d="M259.88 236.43s-8.5 5-9.13-2.87c0 0-2.7 4-.75 10.88l10.48 4.9c.01 0-4.76-5.04-.6-12.9z"/><path class="J" d="M260.6 226.7s-11.46 12.02-6.1 19.82l-2.63-1.13s-4.14-8.74 5.82-19.16a9.87 9.87 0 0 1 7.98-3.19l2.73 1.13s-5.54.4-7.8 2.53z"/><path class="H" d="M267.3 246.13s-4.7 2.15-4.94-1.92c-.23-4.06.88-9.2 5.4-12.4s6.4.4 6.4.4 2.56 8.9-6.86 13.9z"/><path class="I" d="M271.56 236.14s0-.1-.07-.22c-.3-.8-1.6-3.28-4.57.74-3.48 4.7-.34 6.2-.34 6.2s1.64.73 3.62-2.18 1.36-4.53 1.36-4.53z"/><path class="J" d="M271.65 240.86s1.52-2.4.66-4.1c-.85-1.7-3.4 1.6-3.4 1.6s-1.6 2.48-.2 3.85c1.4 1.36 2.94-1.35 2.94-1.35z"/><path class="N" d="M255.5 240.9s16.2-10.33 17.13-25.76-2.6-15.62-6.87-18.4-17.12-7.28-17.12-7.28-6.5-.93-10.97 2.24c-4.46 3.16-22.7 19.96-16.2 41.24 0 0 18.28 9.5 21.23 9.9a21.7 21.7 0 0 0 12.79-1.92z"/><path class="H" d="M255.78 236.3s-9.33 4.26-9.78-3.8c-.46-8.06 1.72-18.2 10.7-24.52 8.98-6.33 12.66.8 12.66.8s5.06 17.62-13.6 27.52z"/><path class="I" d="M264.2 216.5l-.14-.42c-.6-1.6-3.13-6.48-9.04 1.48-6.9 9.28-.67 12.25-.67 12.25s3.25 1.44 7.2-4.3c3.93-5.75 2.66-9 2.66-9z"/><path class="J" d="M264.4 225.9s3-4.8 1.3-8.14-6.72 3.1-6.72 3.1-3.1 4.92-.4 7.63c2.7 2.72 5.83-2.6 5.83-2.6z"/><path class="K" d="M241.04 217.1s-16.82 9.87-18.07-5.7c0 0-5.33 7.93-1.5 21.56l20.83 9.72c.01 0-9.47-10-1.27-25.58z"/><path class="J" d="M242.52 197.84s-22.7 23.8-12.1 39.25l-5.2-2.24s-8.18-17.3 11.5-37.94c0 0 5.2-6.7 15.8-6.32l5.4 2.24c0-.01-10.95.74-15.4 5z"/><path class="O" d="M270.73 191.38s11.25.1 9.05 21.86-24.75 34.7-24.75 34.7-8.6 4.73-14.37-.42c0 0 3.27 2.2 9.68-.42s19.16-11.03 24.07-25.96 5.26-20.5-3.68-29.75zm7.6 31.32s5.98.06 4.8 11.62S270 252.76 270 252.76s-4.57 2.5-7.65-.22c0 0 1.73 1.17 5.14-.22 3.4-1.4 10.16-5.86 12.77-13.8 2.6-7.95 2.8-10.9-1.92-15.82z"/><path class="B" d="M149.24 201.83l.14-3.5s.8-.63 1.05 1.2a6.91 6.91 0 0 1 .14 2.31l8.52-4.4-3.58 3.47c.8-.36 1.66-.65 2.5-.88-.1.18-2.4 3.14-2.4 3.14l7.2 1.94c1.1.1-3.25.84-3.25.84l10.08 3.1c.62.12-7.2.22-5.5.65 1.68.44 25.97 16.3 25.97 16.3l-15.67-8s9.52 7.2 8.78 7.1-12.75-4.53-12.75-4.53l34.33 26.07-44.37-31.34 14.63 4.63c-.32-.24-3.9-3.35-4.56-3.67s-7.83-4.24-7.83-4.24l2.08 4-7.06-5.68.5 2.8s-4.48-5.03-4.72-4.7-1.76 3.35-1.76 3.35l-.8-3.2-.32 4.7-1.52-8.47-7.75 3.92 6.8-5.44-.56-1.52 1.7.05z"/><path class="L" d="M155.98 218.64l5.97 4.97c-.64-.07-5.7-2-5.48-1.85s14.86 11.66 14.86 11.66l-20.6-14.64c.36.07 7.74 3.27 7.54 2.84-.2-.42-2.28-2.98-2.28-2.98z"/><path class="B" d="M126.72 206.74c.38-.16-6.97 5.7 1.77 4.48s-5.54 1.38-5.54 1.38-6.26-1.66 3.77-5.86zm155.35 44.4c.05-.14 1.54-8.83 1.54-2.24 0 .1 0 2.7.74 1.9a9.68 9.68 0 0 1 3.63-1.91c.23.1-.93 1.72-.93 1.72s2.15-.6 1.92-.33l-1.5 1.96 5.13 1.3-2.33.98 7.4 2.47h-4.15c.14 0 20.22 12.8 19.9 12.72-.32-.1-20.76-10.48-20.76-10.48s2.56 3.87 1.92 3.35l-5.6-4.65.28 2.14-3.68-3.68-2.48 3.54-.74-6.43-6.48 3.35 5.5-4.47-.2-1.12.85-.13z"/><path class="L" d="M261.4 254.32c-.42.24-4.47 3.4-3.44 4.43s5.87-.14 5.87-.14-4.6-.05-4.43-1.2c.18-1.17 2-3.08 2-3.08zm14.73 9.18l4.06 3.68-3.5-1.03a8516.221 8516.221 0 0 1 11.14 8.73l-15.97-11.38 5.3 1.8-1.04-1.8z"/><use xlink:href="#B" fill="#ad9c84"/><use xlink:href="#C" class="Q"/><use xlink:href="#D" class="Q"/><use xlink:href="#E" class="Q"/><use xlink:href="#F" class="Q"/><use xlink:href="#G" class="Q"/><use xlink:href="#H" class="L"/><use xlink:href="#I" class="L"/><use xlink:href="#J" class="Q"/><use xlink:href="#K" class="Q"/><use xlink:href="#L" class="R"/><use xlink:href="#M" class="S"/><use xlink:href="#N" fill="#c99a7a"/><use xlink:href="#O" class="Q"/><use xlink:href="#P" class="S"/><use xlink:href="#Q" class="L"/><circle class="U" cx="233.74" cy="111.68" r="4.45"/><circle class="L" cx="233.73" cy="111.64" r="3.31"/><circle class="D" cx="233.75" cy="111.7" r="1.92"/><use xlink:href="#R" class="M"/><use xlink:href="#S" class="R"/><use xlink:href="#T" class="S"/><use xlink:href="#U" fill="#c6c2bb"/><use xlink:href="#V" class="L"/><use xlink:href="#B" class="E"/><use xlink:href="#C" class="F"/><use xlink:href="#D" class="F"/><use xlink:href="#E" class="F"/><use xlink:href="#F" class="F"/><use xlink:href="#G" class="F"/><use xlink:href="#H" class="B"/><use xlink:href="#I" class="B"/><use xlink:href="#J" class="F"/><use xlink:href="#K" class="F"/><use xlink:href="#L" class="G"/><use xlink:href="#M" class="H"/><use xlink:href="#N" class="I"/><path class="J" d="M243.5 121.66s.37-.96-.04-1.5-1.1.8-1.1.8-.38.97.18 1.37c.57.4.95-.68.95-.68z"/><use xlink:href="#O" class="F"/><use xlink:href="#P" class="K"/><path class="J" d="M238.67 117.4s-3.2 4.98-.8 7.36l-1-.22s-2.03-2.8.8-7.1a3.51 3.51 0 0 1 2.59-1.65l1.03.22c.01-.01-1.97.5-2.62 1.4z"/><use xlink:href="#Q" class="B"/><path class="L" d="M250.52 120.38s-1.3-.5-1.7-.25 1.6.66 1.6.66.24.1.1-.4z"/><path class="M" d="M253.32 112.54l-.15-.58-.38.5-.62-.15.32.5-.43.54.7-.16.3.47.18-.66.67-.25zm-2.72-.7l-.15-.57-.38.5-.6-.13.3.5-.43.54.7-.16.3.47.2-.67.67-.24zm-2.62-.52l-.15-.58-.4.5-.6-.15.3.5-.43.54.68-.16.32.47.2-.66.66-.25z"/><circle class="U" cx="233.74" cy="111.68" r="4.45"/><circle class="B" cx="233.73" cy="111.64" r="3.31"/><circle class="D" cx="233.75" cy="111.7" r="1.92"/><use xlink:href="#R" class="F"/><path class="L" d="M230.5 111.16l-17.72-4.64 17.64 5.2zm-18.64-.4s3.24.47 3.72 1.5-4.45-.88-4.45-.88-.24-.52.73-.63z"/><use xlink:href="#S" class="N"/><use xlink:href="#T" class="H"/><path class="J" d="M260.36 115.6s-6.4 9.86-1.65 14.58l-1.97-.44s-4-5.53 1.54-14.08c1.12-1.8 3-3.02 5.13-3.27l2.06.42c0-.01-3.82 1-5.1 2.8zm-49.56-1.2s1.5-2.2-8.9-5.7 2.4.44 2.4.44 8.6 2.5 9 5.48c0 0-.42 1.78-7 .67.03.02 3.8.04 4.5-.88z"/><use xlink:href="#U" class="O"/><use xlink:href="#V" class="B"/><path class="L" d="M225.26 125.9c.12-.1-2.07 2.45.92 1.45s-1.86.8-1.86.8-2.3-.12.94-2.25z"/><path class="I" d="M270.84 121.28s-1.2-2.87-3.45.53.9 4.6 1.65 4.5c.76-.1 2.5-4.5 1.8-5.03z"/><path class="D" d="M270.26 125.7s1.96-2.83 1.5-3.9-2.24-.06-2.95 1.73c-.72 1.8.66 2.44 1.46 2.16z"/><path class="B" d="M204.67 121.63l6.7 8.56c-.38-.37-6.32-3.85-6.32-3.85l17.13 21.33-24.7-27.2 10.1 6.6-2.94-5.42zm12.98 12.1s2.83 4.28-.5 3.2-2.78-4.6-2.78-4.6 3.1-.07 3.3 1.42zm-33.8-14.27c-.3.13-5.45 5.07-5.33 4.34s2.98-4.52 2-3.78-11.84 10.3-11.84 10.3l15.17-14.64-2.54 4.73 2.55-.94z"/><path class="L" d="M162.04 95.3c-.16.06-2.73 2.53-2.67 2.16s1.5-2.26 1-1.88-5.92 5.14-5.92 5.14l7.6-7.32-1.28 2.4 1.28-.5z"/><path class="B" d="M171.2 123c.13-.43 1.8-1.54-.37-1.42s-.8 1.68-.8 1.68l1.17-.26zm71.2 2.9l101.82 29.33v2.3l-108.77-32.17z"/><path class="J" d="M91.15 165.04s5.37-3.76-15.48-20.85 5.2 3.14 5.2 3.14 17.63 13.25 15.92 20.4c0 0-2.53 3.73-16.7-4.55.01-.01 8.65 3.3 11.04 1.86z"/><defs ><path id="B" d="M263.32 112.8c-.1-.1-1.24-1.3-2.32-1.17-1.05-.4-2.2-.4-3.27-.06l-5.13-1.25c-1.2-2.1-3.15-3.64-5.47-4.3-3.8-1-10.38-2.2-10.38-2.2s-3.82-.2-6.52 2.08l-7.02-.96-4.6-7c-.22-.4-.58-.68-1-.8-.7-.22-3.2-1.07-3.2-1.07s-1.3.3-1.42 1.28-.33 6.47-.33 6.47a1.31 1.31 0 0 0-1.72.25c-.5.78-.82 1.64-1 2.55 0 0-.4 1.8 3.94 4 0 0-33.64-5.74-28.74-2.77l1.17.46s-2.4.24.27.97 25.44 8.06 25.44 8.06-1.18 1.46.44 2.1l3.2 1.22a6.62 6.62 0 0 0 1.37.93c.57.25 4.26 1.42 4.7 1.2s1.1.42 1.1.42l.92-.3s2.64 1.32 3.42.5-3.05-2.3-3.05-2.3l-.5-.57s8.3 3.4 12.55 3.84l4.1 1.05a5.95 5.95 0 0 0 2.2-.8l9.8 3.2s.9 1.48 2.04 1.7a6.37 6.37 0 0 0 3.72 0l4.36.8c.82.26 1.7.28 2.53.06l.7.8a7.8 7.8 0 0 1 2.04.24c.3.2 1.73 1.18 2.82.36s1.4-.57 1.4-.57l1.66.35.92-.08 2.25.9s.7-.3.65-.52c-.4-.73-1.02-1.3-1.77-1.66-.74-.17 10.6 1.02 10.6 1.02s-1.9-1-.38-.86c.3 0 3.9.3 1.84-.8-2.07-1.1-14.5-4.98-14.5-4.98s-.38-1.35-.86-1.52c-.52-.15-1.06-.26-1.6-.33 0 0 1.7-6.5-1.82-8.5s-5.53-1.38-5.53-1.38z"/><path id="C" d="M250.94 109.78l-5.8-1.2s-2.4-3.45-5.1-4.1c0 0 9.08 1.3 10.9 5.28z"/><path id="D" d="M239.44 105.34s2.28 1.07 2.5 2.5l-4.8-.87a3.19 3.19 0 0 1 2.28-1.64z"/><path id="E" d="M238.95 105.14l-2.15-.6c-1.13.26-2.12.93-2.8 1.88l2.48.56s1.13-1.7 2.46-1.83z"/><path id="F" d="M235.66 104.52s-2 .96-2.22 1.8l-1.88-.34s2.32-1.62 4.1-1.45z"/><path id="G" d="M225.92 113.78s-15.35-6.24-15.8-7.32c0 0-1.35.86 3.8 4.13l12 3.2z"/><path id="H" d="M229.54 107.76s-1.3-.5-1.7-.24 1.6.66 1.6.66.27.1.1-.42z"/><path id="I" d="M229.27 108.35s-1.3-.5-1.7-.24c-.42.26 1.6.65 1.6.65s.25.1.1-.4z"/><path id="J" d="M223.3 120.3s-1.68-1.5-1.3-2.98l-35.7-9.04s-2.57-.06-.13.94c2.44 1 25.55 8.17 25.55 8.17s-.97 1.76-.06 2.1c.9.34 3.9 1.14 3.9 1.14s0-1.1.8-.8 5.27 1.88 5.3 2.04 0 .92 0 .92 4.38 1.85 5.43.62c1.06-1.22-3.8-3.1-3.8-3.1z"/><path id="K" d="M251.48 122.38l-6.88-2.13s-1.1 3.45-2.2 4.35l9.8 3.2c.01.01-1.4-3.64-.74-5.4z"/><path id="L" d="M242.4 124.6s2.53-2.4 2.18-5.14-.98-2.68-1.84-3.03a21.67 21.67 0 0 0-3.27-.71 3.13 3.13 0 0 0-1.88.8c-.7.7-3.36 4.3-1.5 7.86a35.7 35.7 0 0 0 4.1 1.05c.8-.05 1.57-.34 2.2-.83z"/><path id="M" d="M242.32 123.8s-1.5 1.07-1.86-.34c-.5-1.65-.08-3.44 1.08-4.7 1.38-1.42 2.28-.28 2.28-.28.83 1.9.2 4.13-1.5 5.33z"/><path id="N" d="M243.12 120c-.01-.03-.02-.05-.04-.07-.16-.26-.8-1.05-1.55.57-.92 1.88.3 2.2.3 2.2s.62.14 1.13-1c.5-1.16.17-1.7.17-1.7z"/><path id="O" d="M220.62 112.42s10.7 4.74 4.9 6.27L221 119v-.8s3.1.22 3.43-1.44-7.3-5.3-7.3-5.3l3.5.94z"/><path id="P" d="M239.05 120.87s-2.65 2.32-3.4-.4c-.4 1.3-.23 2.7.46 3.87l4 1.03c0 .01-2-1.45-1.06-4.5z"/><path id="Q" d="M250.8 119.78s-1.3-.5-1.7-.24c-.42.27 1.6.65 1.6.65s.25.1.1-.4z"/><path id="R" d="M239.48 115.72s-11.54-2.53-13.57-1.94c0 0 8.3 3.2 8.65 4.65s-7.8-.22-7.8-.22l-4.8-.9c-.26 1.17.26 2.37 1.3 2.98 1.76.94 10.6 4 12.77 4.05a6.02 6.02 0 0 1 0-5.54c1.6-2.92 2.23-2.85 3.45-3.08z"/><path id="S" d="M267.77 129.86s5-4.7 4.32-10.18-1.95-5.3-3.63-6-6.5-1.4-6.5-1.4c-1.36.08-2.65.6-3.68 1.5-1.36 1.4-6.65 8.52-2.96 15.55 0 0 7.05 2.13 8.1 2.07a7.71 7.71 0 0 0 4.33-1.53z"/><path id="T" d="M267.56 128.23s-3 2.12-3.7-.7c-.7-2.8-.6-6.5 2.15-9.32s4.5-.55 4.5-.55 2.95 5.85-2.95 10.56z"/><path id="U" d="M269.85 111.46s4-.7 4.62 7.08-6.4 13.8-6.4 13.8-2.7 2.24-5.1.8c0 0 1.3.56 3.37-.8 3.62-2.5 6.06-6.36 6.74-10.7.76-5.54.5-7.52-3.25-10.18z"/><path id="V" d="M227.88 123.18l-.18-1.24s.23-.27.45.35c.1.25.18.52.2.8l2.7-2.1-1.02 1.45c.25-.18.52-.33.8-.47 0 .07-.64 1.26-.64 1.26l2.66.2c.4-.04-1.1.5-1.1.5l3.74.42c.23-.01-2.5.55-1.9.6s10.2 4 10.2 4l-6-1.8a39.3 39.3 0 0 1 3.56 1.92c-.26 0-4.8-.76-4.8-.76l13.75 6.9-17.64-8.06 5.45.66c-.14-.06-1.6-.92-1.84-1l-3.03-.97 1 1.26-2.82-1.56.35.95c-.6-.5-1.27-.95-1.96-1.34-.06.13-.4 1.3-.4 1.3l-.5-1.07.2 1.68-1.1-2.87-2.46 1.9 2.03-2.36-.3-.5.57-.04z"/></defs></svg>