<svg xmlns="http://www.w3.org/2000/svg" viewBox="0 0 849.98 599.97"><radialGradient id="A" cx="425.002" cy="300.008" r="432.707" gradientTransform="matrix(1 0 0 0.8437 0 46.8794)" gradientUnits="userSpaceOnUse"><stop offset="0" stop-color="#252958"/><stop offset="1" stop-color="#16152E"/></radialGradient><path d="M-108.35 0h1066.7v600.02h-1066.7z" fill="url(#A)"/><linearGradient id="B" gradientUnits="userSpaceOnUse" x1="214.353" y1="631.494" x2="-64.924" y2="406.188"><stop offset="0" stop-color="#1F244A"/><stop offset=".19" stop-color="#2C2751"/><stop offset=".54" stop-color="#502F65"/><stop offset="1" stop-color="#883B84"/></linearGradient><path d="M.03 351.04c2.7.02 5.4.52 7.93 1.5C19.56 357 25.38 369.98 21 381.6c6.22 3.42 10.47 9.55 11.48 16.57 16.08-5.78 33.8 2.56 39.58 18.63a31.31 31.31 0 0 1 1.52 6.12c9.64-4.98 21.46-2.36 28.1 6.2a17.59 17.59 0 0 1 24.77 2.22c1.88 2.25 3.17 4.94 3.75 7.82 7.8-5.8 18.82-4.2 24.62 3.6 4.97 6.67 4.6 15.9-.9 22.14a17.6 17.6 0 0 1 5.22 19.79c9.08-1.53 17.8 4.22 19.97 13.17 10.1-7.3 24.24-5.04 31.55 5.07 6.63 9.17 5.46 21.82-2.74 29.6 8.66 4.4 13.55 13.83 12.15 23.44 11.97-3.55 24.54 3.28 28.08 15.25 2.77 9.34-.76 19.4-8.75 24.96a16.86 16.86 0 0 1 2.44 3.8h-241.8V351.04z" fill="url(#B)"/><linearGradient id="C" gradientUnits="userSpaceOnUse" x1="76.507" y1="646.248" x2="1.092" y2="334.92"><stop offset="0" stop-color="#5F3189"/><stop offset="1" stop-color="#A14C97"/></linearGradient><path d="M0 439a20.53 20.53 0 0 1 24.47 11.54c11.48-9.08 28.14-7.13 37.2 4.34 9.08 11.48 7.13 28.14-4.34 37.2l-.7.54a26.49 26.49 0 0 1 7.22 24.51c14.58-.96 27.18 10.1 28.14 24.67.32 4.83-.7 9.65-2.93 13.95 20.82-.63 38.2 15.74 38.84 36.57a37.74 37.74 0 0 1-.55 7.66L0 600V439z" fill="url(#C)"/><linearGradient id="D" gradientUnits="userSpaceOnUse" x1="843.044" y1="5.154" x2="723.435" y2="102.007"><stop offset="0" stop-color="#1F244A"/><stop offset=".16" stop-color="#2C2852"/><stop offset=".45" stop-color="#503367"/><stop offset=".85" stop-color="#894589"/><stop offset="1" stop-color="#A14C97"/></linearGradient><path d="M703.86 4.2a12.04 12.04 0 0 1 .75-4.2h145.2v42.83l.2 43.56v30.38c-5.58 1.48-11.3-1.85-12.77-7.42-.8-3.04-.2-6.3 1.66-8.83-3.22.65-6.35-1.44-7-4.65-.24-1.2-.1-2.46.4-3.58-.26.04-.53.06-.8.06-1.98 0-3.82-.98-4.93-2.62-2.86 3.1-7.68 3.3-10.77.43-1.55-1.43-2.44-3.44-2.45-5.55a7.63 7.63 0 0 1-5.63-3.83c-4.36 3.77-10.96 3.3-14.73-1.08-.47-.54-.87-1.12-1.22-1.74a7.59 7.59 0 0 1-9.61 1.45c-1.6 2.87-5.2 3.9-8.08 2.3-.87-.48-1.6-1.17-2.13-2a5.94 5.94 0 0 1-8.19 1.85 5.96 5.96 0 0 1-2.4-7.09 5.95 5.95 0 0 1-4.05-5.6c-2.68 1.58-6.12.83-7.9-1.73a7.63 7.63 0 0 1-10.54 2.28c-3.23-2.08-4.4-6.24-2.74-9.7a7.65 7.65 0 0 1-6.67-5.92 7.63 7.63 0 0 1-10.97-10.33 5.76 5.76 0 0 1-2.3-7.81c.8-1.5 2.24-2.55 3.9-2.9-.3-1.77.26-3.57 1.5-4.86-1-1.07-1.58-2.48-1.58-3.95 0-.2 0-.4.03-.6-1.63.85-3.55.94-5.25.24-1.52 1.18-3.7.9-4.9-.6-1.18-1.52-.9-3.7.6-4.9a4.05 4.05 0 0 1 .43-.29 6.22 6.22 0 0 1 .47-2.37c-4.55-1.85-7.55-6.3-7.55-11.24z" fill="url(#D)"/><linearGradient id="E" gradientUnits="userSpaceOnUse" x1="873.205" y1="-3.747" x2="778.32" y2="48.765"><stop offset="0" stop-color="#5F3189"/><stop offset="1" stop-color="#A14C97"/></linearGradient><path d="M747.9 15a8.95 8.95 0 0 1 5.11-8.08c-1-2.17-1.1-4.66-.24-6.9h97.05v58.66l.16.05v13.24c-.68.22-1.38.32-2.1.32-3.83 0-6.94-3.1-6.94-6.93a7.07 7.07 0 0 1 .49-2.57c-4.12.9-8.3-1.2-10.04-5.03a12.72 12.72 0 0 1-15.39 1.22c-.22 3.83-3.5 6.75-7.32 6.54a6.94 6.94 0 0 1-4.55-2.06 8.96 8.96 0 0 1-12.31 2.94 8.96 8.96 0 0 1-2.94-12.31c-2.8-1.23-4.8-3.82-5.25-6.85-4.48 2.06-9.78.1-11.84-4.37a8.86 8.86 0 0 1-.76-4.76c-6.5 2.72-13.95-.34-16.66-6.83a12.71 12.71 0 0 1-.64-7.89A8.94 8.94 0 0 1 747.9 15z" fill="url(#E)"/></svg>