<svg xmlns="http://www.w3.org/2000/svg" xmlns:xlink="http://www.w3.org/1999/xlink" viewBox="0 0 1920 1080"><style><![CDATA[.A{fill:#CECECE}.B{fill:#F9E600}.C{fill:#00FFF2}.D{fill:#26FF00}.E{fill:#FF00DB}.F{fill:red}.G{fill:#00f}.H{fill:#2B3144}.I{fill:#fff}.J{fill:#590055}.K{fill:#51514F}.L{fill:#7C7C7C}.M{fill:none;stroke:#000;stroke-width:10;stroke-miterlimit:10}.P{fill:#B26900}.a{fill:#4F2903}.b{fill:#844B00}.c{fill:#CE7500}.e{fill:#282827}.f{fill:#4F4D4A}.g{fill:#636363}.h{fill:#BA0000}.j{fill:#757370}]]></style><path class="A" d="M1471 782.58l-30.23 24.65V657.86L1471 633.2z"/><path class="B" d="M1501.24 757.92L1471 782.58V633.2l30.23-24.65z"/><path class="C" d="M1531.48 733.27l-30.24 24.65V608.56l30.24-24.66z"/><path class="D" d="M1561.7 708.62l-30.23 24.65V583.9l30.23-24.65z"/><path class="E" d="M1591.95 683.96l-30.24 24.66V559.25l30.24-24.66z"/><path class="F" d="M1621.66 659.73l-30.24 24.66V535.02l30.24-24.65z"/><path class="G" d="M1651.37 635.5l-30.23 24.66V510.8l30.23-24.65z"/><path class="H" d="M1471 816.56l-30.23 24.65v-33.98l30.23-24.65z"/><path class="I" d="M1501.24 791.9L1471 816.56v-33.98l30.23-24.66z"/><path class="J" d="M1531.48 767.25l-30.24 24.65v-33.98l30.24-24.65z"/><path class="K" d="M1561.7 742.6l-30.23 24.66v-33.98l30.23-24.65z"/><path class="L" d="M1591.42 718.37l-29.7 24.22v-33.97l29.7-24.23z"/><path class="K" d="M1621.14 694.14l-29.72 24.23V684.4l29.72-24.23z"/><path class="L" d="M1651.37 669.48l-30.23 24.66v-33.98l30.23-24.66z"/><path class="M" d="M1638.65 679.22l-184.27 151.14c-7.03 5.76-12.72 3.06-12.72-6.04v-155.6c0-9.1 5.7-21.15 12.72-26.9l184.27-151.14c7.03-5.76 12.72-3.06 12.72 6.04v155.6c0 9.1-5.7 21.15-12.72 26.9z"/><path class="A" d="M662.8 742.44l-19.05.78v-76l19.05-.78z"/><path class="B" d="M681.86 741.66l-19.05.78v-76l19.05-.78z"/><path class="C" d="M700.9 740.88l-19.05.78v-76l19.05-.78z"/><path class="D" d="M719.97 740.1l-19.06.78v-76l19.06-.78z"/><path class="E" d="M739.02 739.32l-19.05.78v-76l19.05-.78z"/><path class="F" d="M757.74 738.55l-19.05.78v-76l19.05-.78z"/><path class="G" d="M776.46 737.78l-19.05.78v-75.98l19.05-.78z"/><path class="H" d="M662.8 759.72l-19.05.78v-17.28l19.05-.78z"/><path class="I" d="M681.86 758.94l-19.05.78v-17.28l19.05-.78z"/><path class="J" d="M700.9 758.16l-19.05.78v-17.28l19.05-.78z"/><path class="K" d="M719.97 757.38l-19.06.78v-17.28l19.06-.78z"/><path class="L" d="M738.7 756.62l-18.72.76V740.1l18.72-.77z"/><path class="K" d="M757.4 755.85l-18.72.77v-17.3l18.72-.77z"/><path class="L" d="M776.46 755.07l-19.05.78v-17.3l19.05-.78z"/><path class="M" d="M768.45 755.07l-116.12 5.2c-4.43.2-8.02-3.4-8.02-8.02V673.1c0-4.63 3.6-8.54 8.02-8.74l116.12-5.2c4.43-.2 8.02 3.4 8.02 8.02v79.16c-.01 4.63-3.6 8.54-8.02 8.74z"/><path class="a" d="M652.76 763.14l-40.78-11.85 12.88 27.98 17.8 5.65 20.1-8.3 13.15-20.08zm408.56 103.18l-40.77-11.85 12.88 27.98 17.8 5.65 20.08-8.3 13.16-20.08zm229.4-113l-41.72-7.94 15.47 26.64 18.25 3.94 19.2-10.17 11.2-21.24z"/><path class="P" d="M1148.98 896.4L561 739.93c-8.03-2.14-14.6-10.38-14.6-18.3v-364.1c0-19.7 6.7-13.18 14.74-11.04l587.84 157c8.03 2.14 14.6 10.38 14.6 18.3v364.1c0 17.1 3.46 15.37-14.6 10.53z"/><path class="b" d="M1326.08 738.14L1162.6 899.52c-1.94 0-.6 0-.7-5.85V519.85c0-4.3-4.83-9.54-3.6-11.27l162.3-168.93c1.94 0 9 6.02 9 10.33V730.3c.01 4.32-1.22 5.4-3.5 7.84z"/><path class="b" d="M1154.32 510.57L550.7 351.52c-4.78-1.93-4.8-5.76-.03-8.5l254.7-132.24c4.76-2.75 12.56-3.4 17.34-1.48l498.42 130.4c4.78 1.93 4.8 5.76.03 8.5L1174.5 508.97c-14.48 10.75-15.4 3.53-20.17 1.6z"/><path class="c" d="M1165.6 899.42L545.25 725.64V343.7l620.34 173.77z"/><path d="M986.6 820.44L594.08 710.48c-14.97-4.2-27.1-20.28-27.1-35.93v-267.6c0-15.65 12.13-24.94 27.1-20.74l392.54 109.96c14.97 4.2 27.1 20.28 27.1 35.93v267.6c0 15.65-12.14 24.93-27.1 20.74z"/><linearGradient id="A" gradientUnits="userSpaceOnUse" x1="587.807" y1="603.327" x2="992.884" y2="603.327"><stop offset="0" stop-color="#1F244A"/><stop offset=".187" stop-color="#2D2751"/><stop offset=".535" stop-color="#502F65"/><stop offset="1" stop-color="#883B84"/></linearGradient><path d="M921.05 786.95l-261.42-73.23c-39.67-11.1-71.83-53.74-71.83-95.22V474.67c0-41.47 32.16-66.1 71.83-54.97l261.42 73.23c39.67 11.1 71.83 53.74 71.83 95.22v143.83c0 41.47-32.16 66.1-71.83 54.97z" fill="url(#A)"/><path class="e" d="M1147.64 666.73l-113.03-31.66V509.62l113.03 31.66zm0 198.82l-113.03-31.67V659.7l113.03 31.66z"/><path d="M1142.9 787.98l-103.53-29c-2.03-.57-3.68-2.75-3.68-4.88 0-2.12 1.65-3.38 3.68-2.82l103.53 29c2.03.57 3.68 2.75 3.68 4.88 0 2.12-1.65 3.4-3.68 2.82z"/><use xlink:href="#P"/><use xlink:href="#P" y="11.76"/><use xlink:href="#P" y="23.52"/><use xlink:href="#P" y="35.28"/><use xlink:href="#P" y="47.04"/><use xlink:href="#P" y="58.8"/><ellipse transform="matrix(.8039 -.5947 .5947 .8039 -213.462006 790.016113)" cx="1091.39" cy="718.74" rx="32.43" ry="42.77"/><path class="e" d="M1068.58 682.67l45.62 12.78c-1.76-1.98-3.66-3.82-5.66-5.5l-34.3-9.6c-2 .56-3.9 1.35-5.67 2.34zm-3.84 2.66a24.02 24.02 0 0 0-3.28 3.33c.12.06.25.1.37.14l58.58 16.4a1.89 1.89 0 0 0 .81.05 55.53 55.53 0 0 0-3.18-5l-53.3-14.93zm-7.22 9.92l67.75 18.98-1.73-4.4-64.3-18c-.65 1.1-1.22 2.24-1.73 3.44zm-2.1 7.43l71.95 20.16c-.22-1.52-.53-3.03-.9-4.54l-70.16-19.65a36.4 36.4 0 0 0-.9 4.03zm-.45 5.86l.04 1.7 72.77 20.4.04-1.67-.07-2.26-72.72-20.37-.06 2.22zm.37 5.53l.82 4.5 70.46 19.74c.34-1.27.6-2.6.8-3.96l-.6-.27-71.43-20c-.03-.01-.05-.01-.07-.01zm1.96 8.57l1.67 4.38 64.84 18.16a31.6 31.6 0 0 0 1.63-3.36c-.18-.1-.37-.2-.57-.26l-67.5-18.9c-.03 0-.05 0-.07-.01zm3.85 8.86a56.45 56.45 0 0 0 3.1 5.02l54.3 15.2a25.63 25.63 0 0 0 2.96-3.12c-.32-.3-.7-.53-1.1-.64l-58.58-16.4c-.24-.07-.46-.08-.68-.06zm53.7 22.94l-46.93-13.15c1.67 1.93 3.46 3.75 5.36 5.42l36.2 10.14c1.9-.6 3.7-1.4 5.37-2.4z"/><ellipse transform="matrix(.8039 -.5947 .5947 .8039 -151.259705 771.065125)" cx="1093.75" cy="614.93" rx="21.99" ry="28.99"/><ellipse transform="matrix(.8039 -.5947 .5947 .8039 -153.569901 769.210022)" class="f" cx="1089.78" cy="617.51" rx="21.99" ry="28.99"/><path d="M1091.43 629.5l-4.4-1.23-2.44-35.36 2.44-.84 5.85 1.64z"/><path class="g" d="M1091.43 629.5l-6.83-1.92v-34.67l6.83 1.92z"/><ellipse transform="matrix(.8039 -.5947 .5947 .8039 -141.9888 764.223572)" class="h" cx="1088.01" cy="597.45" rx="1.3" ry="1.72"/><ellipse transform="matrix(.8039 -.5947 .5947 .8039 -115.953697 759.424988)" cx="1093.75" cy="555.57" rx="21.99" ry="28.99"/><ellipse transform="matrix(.8039 -.5947 .5947 .8039 -118.263901 757.570129)" class="f" cx="1089.78" cy="558.14" rx="21.99" ry="28.99"/><path d="M1091.43 570.14l-4.4-1.23-2.44-35.35 2.44-.85 5.85 1.64z"/><path class="g" d="M1091.43 570.14l-6.83-1.9v-34.67l6.83 1.9z"/><ellipse transform="matrix(.8039 -.5947 .5947 .8039 -106.6828 752.583618)" class="h" cx="1088.01" cy="538.08" rx="1.3" ry="1.72"/><linearGradient id="B" gradientUnits="userSpaceOnUse" x1="587.191" y1="584.695" x2="993.926" y2="584.695"><stop offset="0" stop-color="#5F3189"/><stop offset="1" stop-color="#A14C97"/></linearGradient><path d="M992.82 645.77c0 84.75-91.14 127.92-203.57 96.43-112.42-31.5-199.22-124.55-201.4-209.88-1.6-62.6-2.45-95.56 26.25-108.58 30.53-13.85 19.3-8.35 174.1 31.97 170.9 44.5 166.8 48.77 185.35 76 27.32 40.14 19.28 79.25 19.28 114.06z" fill="url(#B)"/><path class="A" d="M955.426 319.718l-8.083 5.715-82.687-116.948 8.083-5.715zm211.974-82.446l-3.24 4.58-66.292-46.87 3.24-4.58z"/><circle class="A" cx="1169.92" cy="242.23" r="10.89"/><path class="A" d="M873.393 207.508l-4.58 3.24-46.87-66.292 4.58-3.238z"/><circle class="A" cx="822.14" cy="138.67" r="13.88"/><path d="M1077 346.1c0 38.9-44.74 42.74-101.97 42.74s-105.27-3.82-105.27-42.74 46.4-70.46 103.62-70.46S1077 307.2 1077 346.1z"/><path class="A" d="M1095.785 192.195l8.083 5.715-82.687 116.948-8.083-5.715z"/><path class="e" d="M1299.5 659.24l-94.05 65.85V588.05l94.05-65.85z"/><path d="M1288.06 653.05l-71.66 50.18c-1.66 1.16-3.02.76-3.02-.9v-2.77c0-1.66 1.36-3.97 3.02-5.13l71.66-50.18c1.66-1.16 3.02-.76 3.02.9v2.77c0 1.66-1.36 3.96-3.02 5.13zm0-14.08l-71.66 50.18c-1.66 1.16-3.02.76-3.02-.9v-2.77c0-1.66 1.36-3.97 3.02-5.13l71.66-50.18c1.66-1.16 3.02-.75 3.02.9v2.77c0 1.65-1.36 3.96-3.02 5.13z"/><use xlink:href="#Q"/><use xlink:href="#Q" y="-14.08"/><use xlink:href="#Q" y="-28.16"/><use xlink:href="#Q" y="-42.24"/><use xlink:href="#Q" y="-56.32"/><path d="M1288.06 554.48l-71.66 50.18c-1.66 1.16-3.02.76-3.02-.9V601c0-1.66 1.36-3.97 3.02-5.13l71.66-50.18c1.66-1.16 3.02-.76 3.02.9v2.77c0 1.66-1.36 3.96-3.02 5.13z"/><ellipse transform="matrix(.5786 -.8156 .8156 .5786 29.4216 1237.844727)" class="j" cx="1212.63" cy="590.45" rx="5.67" ry="2.85"/><ellipse transform="matrix(.5786 -.8156 .8156 .5786 107.286797 1278.683594)" class="j" cx="1291.08" cy="535.52" rx="5.67" ry="2.85"/><ellipse transform="matrix(.5786 -.8156 .8156 .5786 7.6133 1330.181396)" class="j" cx="1291.08" cy="657.72" rx="5.67" ry="2.85"/><ellipse transform="matrix(.5786 -.8156 .8156 .5786 -69.503197 1289.735229)" class="j" cx="1213.38" cy="712.13" rx="5.67" ry="2.85"/><path class="a" d="M306.14 881.73l-18.78-5.46 5.94 12.9 8.2 2.6 9.25-3.83 6.06-9.24zm188.13 47.5l-18.77-5.46 5.93 12.9 8.2 2.6 9.25-3.83 6.06-9.24zM599.9 877.2l-19.2-3.66 7.13 12.27 8.4 1.82 8.84-4.7 5.16-9.78z"/><path class="P" d="M534.64 943.1L263.9 871.05c-3.7-.98-6.73-4.78-6.73-8.43V694.96c0-9.08 3.1-6.07 6.8-5.08l270.68 72.3c3.7.98 6.73 4.78 6.73 8.43v167.66c-.01 7.87 1.6 7.07-6.73 4.84z"/><path class="b" d="M616.18 870.22l-75.27 74.3c-.9 0-.28 0-.32-2.7V769.7c0-2-2.22-4.4-1.66-5.2l74.73-77.78c.9 0 4.15 2.77 4.15 4.76V866.6c0 2-.57 2.48-1.63 3.6z"/><path class="b" d="M537.1 765.43L259.15 692.2c-2.2-.9-2.2-2.65-.01-3.92l117.28-60.9c2.2-1.27 5.8-1.57 7.98-.68l229.5 60.04c2.2.9 2.2 2.65.01 3.92L546.4 764.7c-6.68 4.94-7.1 1.62-9.3.73z"/><path class="c" d="M542.28 944.48l-285.64-80.02V688.6l285.64 80.02z"/><path d="M459.87 908.1l-180.75-50.63c-6.9-1.93-12.48-9.34-12.48-16.54V717.72c0-7.2 5.6-11.48 12.48-9.55l180.75 50.63c6.9 1.93 12.48 9.34 12.48 16.54v123.22c0 7.2-5.6 11.5-12.48 9.55z"/><path class="j" d="M429.68 892.7L309.3 858.98c-18.27-5.12-33.08-24.75-33.08-43.84V748.9c0-19.1 14.8-30.43 33.08-25.3l120.37 33.72c18.27 5.12 33.08 24.75 33.08 43.84v66.23c0 19.1-14.8 30.43-33.08 25.32z"/><path class="e" d="M534.02 837.34l-52.05-14.58V765l52.05 14.58zm0 91.56l-52.05-14.58v-80.2l52.05 14.58z"/><use xlink:href="#R"/><use xlink:href="#R" y="5.41"/><use xlink:href="#R" y="10.83"/><use xlink:href="#R" y="16.23"/><use xlink:href="#R" y="21.66"/><path d="M531.83 920.24l-47.67-13.35c-.94-.26-1.7-1.27-1.7-2.25s.76-1.56 1.7-1.3l47.67 13.35c.94.26 1.7 1.27 1.7 2.25.01 1-.75 1.57-1.7 1.3z"/><use xlink:href="#R" y="32.49"/><ellipse transform="matrix(.8039 -.5947 .5947 .8039 -412.604889 471.073792)" cx="508.12" cy="861.29" rx="14.93" ry="19.69"/><path class="e" d="M497.62 844.68l21 5.88c-.8-.9-1.68-1.76-2.6-2.54l-15.8-4.42a11.57 11.57 0 0 0-2.61 1.08zm-1.77 1.22a10.85 10.85 0 0 0-1.5 1.53 1.22 1.22 0 0 0 .17.07l26.97 7.56c.13.04.26.04.38.02l-1.46-2.3-24.55-6.88zm-3.33 4.57l31.2 8.74a20.86 20.86 0 0 0-.8-2.03l-29.6-8.3a13.75 13.75 0 0 0-.8 1.58zm-.97 3.43l33.13 9.28-.4-2.1-32.3-9.05a13.97 13.97 0 0 0-.42 1.858zm-.2 2.7l.02.78 33.5 9.4.02-.77-.03-1.04-33.48-9.38c-.03.33-.04.67-.04 1.02zm.17 2.53l.38 2.08 32.44 9.1a15.03 15.03 0 0 0 .37-1.82c-.1-.05-.18-.1-.27-.12l-32.9-9.2c-.01-.01-.02-.01-.03-.02zm.9 3.95c.22.68.48 1.35.77 2.02l29.86 8.36c.28-.5.53-1 .75-1.55a.88.88 0 0 0-.26-.12l-31.12-8.7zm1.78 4.08c.43.8.9 1.57 1.43 2.3l25 7c.5-.44.95-.92 1.36-1.44-.15-.14-.32-.24-.5-.3l-26.97-7.56c-.1-.01-.22-.02-.32-.01zm24.72 10.56l-21.6-6.05c.77.9 1.6 1.73 2.47 2.5l16.67 4.67c.88-.28 1.7-.66 2.47-1.12z"/><ellipse transform="matrix(.8039 -.5947 .5947 .8039 -383.962799 462.347412)" cx="509.21" cy="813.48" rx="10.12" ry="13.35"/><ellipse transform="matrix(.8039 -.5947 .5947 .8039 -385.026611 461.493286)" class="f" cx="507.38" cy="814.67" rx="10.12" ry="13.35"/><path d="M508.13 820.2l-2.02-.57-1.12-16.28 1.12-.4 2.7.76z"/><path class="g" d="M508.13 820.2l-3.14-.88v-15.97l3.14.88z"/><ellipse transform="matrix(.8039 -.5947 .5947 .8039 -379.693787 459.197113)" class="h" cx="506.56" cy="805.44" rx=".6" ry=".79"/><ellipse transform="matrix(.8039 -.5947 .5947 .8039 -367.705505 456.98761)" cx="509.21" cy="786.15" rx="10.12" ry="13.35"/><ellipse transform="matrix(.8039 -.5947 .5947 .8039 -368.769287 456.133392)" class="f" cx="507.38" cy="787.34" rx="10.12" ry="13.35"/><path d="M508.13 792.86l-2.02-.57-1.12-16.27 1.12-.4 2.7.75z"/><path class="g" d="M508.13 792.86l-3.14-.88v-15.96l3.14.88z"/><ellipse transform="matrix(.8039 -.5947 .5947 .8039 -363.436615 453.837311)" class="h" cx="506.56" cy="778.1" rx=".6" ry=".79"/><path d="M462.73 827.68c0 39.02-41.97 58.9-93.74 44.4s-91.74-57.35-92.75-96.64c-.74-28.83-1.13-44 12.1-50 14.06-6.38 8.9-3.84 80.17 14.72 78.7 20.5 76.8 22.46 85.35 35 12.58 18.5 8.88 36.5 8.88 52.52z" fill="#565656"/><path class="A" d="M445.514 677.564l-3.723 2.632-38.073-53.848 3.723-2.633zm85.904-87.09l2.107 1.5-21.58 30.52-2.107-1.5z"/><circle class="A" cx="533.71" cy="589.33" r="5.01"/><path class="A" d="M407.738 625.898l-2.107 1.5-21.58-30.52 2.107-1.5z"/><circle class="A" cx="383.88" cy="594.19" r="5.01"/><use xlink:href="#S"/><path class="A" d="M510.137 618.813l3.723 2.632-38.073 53.848-3.723-2.632z"/><path class="e" d="M603.95 833.9l-43.3 30.32v-63.1l43.3-30.33z"/><use xlink:href="#T"/><use xlink:href="#U"/><use xlink:href="#T" y="-12.97"/><path d="M598.68 811.58l-33 23.1c-.76.54-1.4.35-1.4-.42V833c0-.76.63-1.83 1.4-2.36l33-23.1c.76-.54 1.4-.35 1.4.42v1.27c0 .77-.63 1.83-1.4 2.36z"/><use xlink:href="#T" y="-25.94"/><use xlink:href="#T" y="-32.42"/><use xlink:href="#U" y="-32.42"/><use xlink:href="#T" y="-45.39"/><ellipse transform="matrix(.5786 -.8156 .8156 .5786 -416.647186 798.007996)" class="j" cx="563.94" cy="802.21" rx="2.61" ry="1.31"/><ellipse transform="matrix(.5786 -.8156 .8156 .5786 -380.792786 816.812927)" class="j" cx="600.07" cy="776.92" rx="2.61" ry="1.31"/><ellipse transform="matrix(.5786 -.8156 .8156 .5786 -426.689209 840.526123)" class="j" cx="600.07" cy="833.19" rx="2.61" ry="1.31"/><ellipse transform="matrix(.5786 -.8156 .8156 .5786 -462.198914 821.901917)" class="j" cx="564.29" cy="858.24" rx="2.61" ry="1.31"/><path class="A" d="M300.9 834.1l-27.47-7.8V716.74l27.47 7.8z"/><path class="B" d="M328.37 841.9l-27.48-7.8V724.54l27.48 7.8z"/><path class="C" d="M355.84 849.7l-27.47-7.8V732.34l27.47 7.8z"/><path class="D" d="M383.3 857.5l-27.47-7.8V740.14l27.47 7.8z"/><path class="E" d="M410.78 865.3l-27.47-7.8V747.94l27.47 7.8z"/><path class="F" d="M437.78 872.98l-27.47-7.8V755.6l27.47 7.8z"/><path class="G" d="M464.78 880.65l-27.48-7.8V763.28l27.48 7.8z"/><path class="H" d="M300.9 859.03l-27.47-7.8V826.3l27.47 7.8z"/><path class="I" d="M328.37 866.83l-27.48-7.8V834.1l27.48 7.8z"/><path class="J" d="M355.84 874.63l-27.47-7.8V841.9l27.47 7.8z"/><path class="K" d="M383.3 882.44l-27.47-7.8V849.7l27.47 7.8z"/><path class="L" d="M410.3 890.1l-27-7.66V857.5l27 7.67z"/><path class="K" d="M437.3 897.77l-27-7.67v-24.92l27 7.66z"/><path class="L" d="M464.78 905.57l-27.48-7.8v-24.93l27.48 7.8z"/><path class="M" d="M453.2 901.82l-167.44-46.9c-6.38-1.8-11.56-8.65-11.56-15.32V725.45c0-6.67 5.18-10.64 11.56-8.85l167.44 46.9c6.38 1.8 11.56 8.65 11.56 15.32v114.14c.01 6.7-5.17 10.65-11.56 8.86z"/><path class="a" d="M1612.9 741.6l20.27-16.9-6.4 21.65-8.84 7.7-9.98-1.2-6.54-10.63zm-317.12 132.88l20.73-14.46-7.7 21.3-9.07 6.64-9.55-2.65-5.56-11.84z"/><path class="P" d="M1366.23 939.77l292.27-233.85c4-3.2 7.26-10.18 7.26-15.5v-245c0-13.26-3.33-7.4-7.33-4.2l-292.2 234.17c-4 3.2-7.26 10.18-7.26 15.5v245c.01 11.52-1.7 11.1 7.27 3.9z"/><path class="b" d="M1262.57 875.96l94.3 73.48c1.13-.42.36-.13.43-4.1l1.67-251.54c.02-2.9 2.85-7.45 2.14-8.36l-90.38-93.78c-1.13.42-5.26 5.98-5.28 8.9l-4.9 270.88c0 2.9.7 3.36 2.03 4.52z"/><path class="b" d="M1358.86 685.78l305.3-246.23c2.4-2.46 2.37-5.4-.1-6.5l-131.24-48.18c-2.46-1.1-6.44 0-8.84 2.46l-252.1 202.6c-2.4 2.46-2.37 5.4.1 6.5l76.6 92.3c7.5 5.2 7.88-.5 10.28-2.97z"/><path class="c" d="M1357.98 945.43l308.36-252.56v-257l-308.36 252.56z"/><path d="M1446.94 853.16l195.12-159.82c7.44-6.1 13.47-19.57 13.47-30.1V483.18c0-10.53-6.03-14.13-13.47-8.03l-195.12 159.82c-7.44 6.1-13.47 19.57-13.47 30.1v180.06c0 10.52 6.03 14.12 13.47 8.03z"/><linearGradient id="C" gradientUnits="userSpaceOnUse" x1="1443.824" y1="664.15" x2="1645.182" y2="664.15"><stop offset="0" stop-color="#1F244A"/><stop offset=".187" stop-color="#2D2751"/><stop offset=".535" stop-color="#502F65"/><stop offset="1" stop-color="#883B84"/></linearGradient><path d="M1479.53 816.3l129.95-106.43c19.72-16.15 35.7-51.87 35.7-79.78V533.3c0-27.9-16-37.44-35.7-21.3l-129.95 106.43c-19.72 16.15-35.7 51.87-35.7 79.78V795c0 27.9 16 37.44 35.7 21.3z" fill="url(#C)"/><path class="e" d="M1366.9 784.93l56.18-46.02v-84.4l-56.18 46.02zm0 133.79l56.18-46.02V755.5l-56.18 46.02z"/><use xlink:href="#V"/><use xlink:href="#V" y="7.92"/><use xlink:href="#V" y="15.82"/><use xlink:href="#V" y="23.74"/><path d="M1369.26 897.14l51.46-42.15c1-.83 1.83-2.66 1.83-4.1s-.82-1.92-1.83-1.1l-51.46 42.15c-1 .83-1.83 2.66-1.83 4.1s.82 1.9 1.83 1.1z"/><use xlink:href="#V" y="39.57"/><use xlink:href="#V" y="47.48"/><ellipse transform="matrix(.3777 -.9259 .9259 .3777 120.1922 1794.10376)" cx="1394.86" cy="807.63" rx="31.4" ry="14.78"/><path class="e" d="M1406.2 778.37l-22.68 18.57 2.82-4.94 17.05-13.96c1-.06 1.93.05 2.8.33zm1.9.95c.6.4 1.13.92 1.63 1.52a1.07 1.07 0 0 1-.19.18l-29.12 23.85c-.14.12-.28.2-.4.2l1.58-4.06 26.5-21.7zm3.6 5.1L1378.02 812l.86-3.34 31.96-26.17c.32.58.6 1.23.86 1.93zm1.04 4.54l-35.77 29.3.45-3.25 34.87-28.56c.2.78.34 1.62.45 2.5zm.22 3.84l-.02 1.15-36.17 29.63-.02-1.1.03-1.54 36.15-29.6.03 1.48zm-.18 3.8l-.4 3.2-35.02 28.7a22.55 22.55 0 0 1-.4-2.48 1.74 1.74 0 0 1 .29-.31l35.54-29.1zm-.98 6.2l-.83 3.3-32.23 26.4a14.62 14.62 0 0 1-.81-1.909c.1-.1.18-.22.28-.3l33.55-27.48c.02 0 .03-.01.04-.02zm-1.9 6.8l-1.54 4.06-27 22.1c-.53-.4-1.02-.9-1.47-1.45.16-.27.34-.5.54-.67l29.12-23.85c.12-.1.23-.17.34-.2zm-26.7 27.18l23.33-19.1-2.66 4.82-18 14.74c-.95.01-1.84-.14-2.67-.45z"/><ellipse transform="matrix(.3777 -.9259 .9259 .3777 183.663498 1749.869507)" cx="1393.68" cy="738.29" rx="21.29" ry="10.02"/><ellipse transform="matrix(.3777 -.9259 .9259 .3777 184.089401 1752.234863)" class="f" cx="1395.66" cy="739.16" rx="21.29" ry="10.02"/><path d="M1394.84 747.6l2.18-1.78 1.2-24.32-1.2-.04-2.9 2.38z"/><path class="g" d="M1394.84 747.6l3.4-2.78V721.5l-3.4 2.77z"/><ellipse transform="matrix(.3777 -.9259 .9259 .3777 197.492706 1744.410767)" class="h" cx="1396.54" cy="725.28" rx="1.26" ry=".59"/><ellipse transform="matrix(.3777 -.9259 .9259 .3777 220.650696 1725.011597)" cx="1393.68" cy="698.35" rx="21.29" ry="10.02"/><ellipse transform="matrix(.3777 -.9259 .9259 .3777 221.076508 1727.376953)" class="f" cx="1395.66" cy="699.21" rx="21.29" ry="10.02"/><path d="M1394.84 707.65l2.18-1.8 1.2-24.32-1.2-.04-2.9 2.4z"/><path class="g" d="M1394.84 707.65l3.4-2.78v-23.33l-3.4 2.78z"/><ellipse transform="matrix(.3777 -.9259 .9259 .3777 234.479797 1719.552856)" class="h" cx="1396.54" cy="685.33" rx="1.26" ry=".59"/><linearGradient id="D" gradientUnits="userSpaceOnUse" x1="1443.306" y1="645.269" x2="1645.488" y2="645.269"><stop offset="0" stop-color="#5F3189"/><stop offset="1" stop-color="#A14C97"/></linearGradient><path d="M1443.85 736.98c0 57.03 45.3 66.15 101.2 20.38S1644.08 630 1645.16 572.1c.8-42.48 1.22-64.84-13.05-67.32-15.18-2.64-9.6-1.4-86.54 59.58-84.95 67.3-82.92 69.3-92.14 91.67-13.57 32.97-9.58 57.52-9.58 80.95z" fill="url(#D)"/><path class="A" d="M1507.58 414.7l-4.02-2.08-41.1 96.77 4.02 2.08zm-140.18 11.46l2.28-3.18 23.3 34.36-2.28 3.18z"/><ellipse transform="matrix(.347 -.9379 .9379 .347 496.658112 1558.057495)" class="A" cx="1367.23" cy="422.36" rx="8.01" ry="4.95"/><path class="A" d="M1528.8 362.28l-2.28-1.18-23.3 54.85 2.28 1.18z"/><ellipse transform="matrix(.347 -.9379 .9379 .347 662.332703 1667.938477)" class="A" cx="1528.98" cy="358.32" rx="8.01" ry="4.95"/><path class="A" d="M1388.64 459.9l4.02-5.6 41.1 60.62-4.02 5.6z"/><path class="a" d="M1593.52 469.65l20.17-8.34-6.37 14.63-8.8 3.87-9.93-2.9-6.5-9.13zM1391.4 545.5l20.17-8.34-6.37 14.63-8.8 3.88-9.94-2.9-6.5-9.14zm-113.5-41.95l20.64-6.46-7.65 14.1-9.03 3.06-9.5-3.86-5.54-9.83z"/><path class="P" d="M1348.02 565.72L1638.9 452.6c3.97-1.55 7.23-6.02 7.23-9.94V262.52c0-9.75-3.32-6.1-7.3-4.57l-290.82 113.38c-3.97 1.55-7.23 6.02-7.23 9.94V561.4c.01 8.47-1.7 7.82 7.23 4.32z"/><path class="b" d="M1260.4 498.2l80.87 69.9c.96-.12.3-.04.34-2.94V380.22c0-2.13 2.4-5 1.78-5.8l-80.3-73.7c-.96.12-4.45 3.53-4.45 5.66v188.15c.01 2.12.6 2.58 1.75 3.66z"/><path class="b" d="M1345.38 375.17L1644 259.82c2.36-1.25 2.37-3.14.01-4.2l-126-49.95c-2.36-1.07-6.22-.93-8.58.32l-246.58 94.78c-2.36 1.25-2.37 3.14-.01 4.2l72.55 70.63c7.17 4.44 7.62.8 9.98-.43z"/><path class="c" d="M1339.8 568.22l306.9-123.65V255.6l-306.9 123.65z"/><path d="M1428.35 518.28l194.2-78.24c7.4-2.98 13.4-11.68 13.4-19.42v-132.4c0-7.74-6-11.6-13.4-8.62l-194.2 78.24c-7.4 2.98-13.4 11.68-13.4 19.42v132.38c0 7.75 6 11.6 13.4 8.63z"/><linearGradient id="E" gradientUnits="userSpaceOnUse" x1="1425.248" y1="398.946" x2="1625.648" y2="398.946"><stop offset="0" stop-color="#1F244A"/><stop offset=".187" stop-color="#2D2751"/><stop offset=".535" stop-color="#502F65"/><stop offset="1" stop-color="#883B84"/></linearGradient><path d="M1460.78 497.73l129.33-52.1c19.63-7.9 35.54-30.95 35.54-51.47V323c0-20.52-15.9-30.74-35.54-22.83l-129.33 52.1c-19.63 7.9-35.54 30.95-35.54 51.47v71.16c.01 20.5 15.92 30.73 35.54 22.82z" fill="url(#E)"/><path class="e" d="M1348.7 452.02l55.92-22.53v-62.07l-55.92 22.54zm0 98.36l55.92-22.53v-86.17l-55.92 22.53z"/><use xlink:href="#W"/><use xlink:href="#X"/><use xlink:href="#X" y="5.82"/><use xlink:href="#X" y="11.64"/><path d="M1351.04 534.98l51.22-20.64c1-.4 1.82-1.6 1.82-2.64s-.8-1.57-1.82-1.17l-51.22 20.64c-1 .4-1.82 1.6-1.82 2.64 0 1.06.8 1.58 1.82 1.17zm0 5.82l51.22-20.64c1-.4 1.82-1.6 1.82-2.64s-.8-1.57-1.82-1.17L1351.04 537c-1 .4-1.82 1.6-1.82 2.64s.8 1.57 1.82 1.16z"/><use xlink:href="#W" y="34.92"/><ellipse transform="matrix(.5908 -.8068 .8068 .5908 180.614899 1304.755615)" cx="1376.51" cy="474.33" rx="22.44" ry="15.13"/><path class="e" d="M1387.8 455.1l-22.57 9.1a33.98 33.98 0 0 1 2.8-3.07l16.97-6.84a11.63 11.63 0 0 1 2.8.82zm1.9 1.08a9.29 9.29 0 0 1 1.62 1.45.96.96 0 0 1-.2.1l-28.98 11.68a.85.85 0 0 1-.4.07l1.57-2.67 26.38-10.62zm3.57 4.47l-33.52 13.5.86-2.28 31.8-12.8c.33.5.6 1.03.86 1.6zm1.03 3.55l-35.6 14.34c.1-.77.26-1.53.45-2.3l34.7-13.98a16.19 16.188 0 0 1 .44 1.938zm.23 2.87l-.02.84-36 14.5v-.8l.03-1.12 35.98-14.5.03 1.1zm-.18 2.76l-.4 2.28-34.86 14.04c-.17-.6-.3-1.24-.4-1.9a1.52 1.52 0 0 1 .3-.17l35.38-14.24zm-.97 4.37l-.82 2.27-32.08 12.92c-.3-.5-.57-1-.8-1.56.1-.07.18-.12.28-.16l33.4-13.45c.01-.01.02-.02.04-.02zm-1.9 4.6l-1.53 2.67-26.86 10.82a10.49 10.49 0 0 1-1.47-1.36 1.52 1.52 0 0 1 .54-.38l28.98-11.68c.12-.05.23-.07.34-.07zm-26.58 14.6l23.22-9.35a32.97 32.97 0 0 1-2.65 3.01l-17.9 7.22c-.95-.2-1.84-.48-2.66-.88z"/><ellipse transform="matrix(.5908 -.8068 .8068 .5908 221.458893 1282.854492)" cx="1375.35" cy="423.12" rx="15.21" ry="10.26"/><ellipse transform="matrix(.5908 -.8068 .8068 .5908 221.428604 1284.86145)" class="f" cx="1377.31" cy="424.15" rx="15.21" ry="10.26"/><path d="M1376.5 430.2l2.17-.88 1.2-17.64-1.2-.27-2.9 1.17z"/><path class="g" d="M1376.5 430.2l3.37-1.36v-17.16l-3.37 1.36z"/><ellipse transform="matrix(.5908 -.8068 .8068 .5908 229.880203 1281.463989)" class="h" cx="1378.19" cy="414.12" rx=".9" ry=".61"/><ellipse transform="matrix(.5908 -.8068 .8068 .5908 245.155197 1270.835449)" cx="1375.35" cy="393.75" rx="15.21" ry="10.26"/><ellipse transform="matrix(.5908 -.8068 .8068 .5908 245.124802 1272.842529)" class="f" cx="1377.31" cy="394.78" rx="15.21" ry="10.26"/><path d="M1376.5 400.82l2.17-.88 1.2-17.63-1.2-.28-2.9 1.17z"/><path class="g" d="M1376.5 400.82l3.37-1.36V382.3l-3.37 1.36z"/><ellipse transform="matrix(.5908 -.8068 .8068 .5908 253.576401 1269.444946)" class="h" cx="1378.19" cy="384.75" rx=".9" ry=".61"/><linearGradient id="F" gradientUnits="userSpaceOnUse" x1="1424.732" y1="387.521" x2="1625.953" y2="387.521"><stop offset="0" stop-color="#5F3189"/><stop offset="1" stop-color="#A14C97"/></linearGradient><path d="M1425.28 432.24c0 41.93 45.1 57.75 100.7 35.34s98.56-73.72 99.65-116.06c.8-31.07 1.2-47.42-13-52.12-15.1-5-9.55-2.96-86.13 26.4-84.54 32.4-82.53 34.26-91.7 48.86-13.52 21.5-9.54 40.37-9.54 57.6z" fill="url(#F)"/><path class="A" d="M1488.7 208.12l-4-2.34-40.9 62.88 4 2.34zM1381 181.5l2.87.66-9.85 36.58-2.86-.67z"/><ellipse transform="matrix(.1054 -.9944 .9944 .1054 1058.675171 1536.166992)" class="A" cx="1383.16" cy="179.66" rx="5.07" ry="5.73"/><path class="A" d="M1509.83 173.85l-2.27-1.33-23.2 35.65 2.27 1.32z"/><ellipse transform="matrix(.6851 -.7284 .7284 .6851 347.413605 1153.327148)" class="A" cx="1507.69" cy="174.83" rx="7.3" ry="6.46"/><path d="M1383.63 289.1c0 19.25 22.14 18.42 50.45 14.95 28.3-3.48 52.08-8.3 52.08-27.54s-22.95-32.04-51.27-28.56c-28.3 3.48-51.26 21.9-51.26 41.15z"/><path class="A" d="M1370.32 217.43l4-3.32 40.9 52.83-4 3.32z"/><path class="a" d="M1389.8 947.1l27.44-7.97-8.66 18.83-11.98 3.8-13.5-5.6-8.85-13.52zm-274.9 69.42l27.44-7.97-8.67 18.83-11.97 3.8-13.52-5.6-8.85-13.52zM960.53 940.5l28.07-5.35-10.4 17.93-12.28 2.65-12.92-6.84-7.54-14.3z"/><path class="P" d="M1055.9 1036.77l395.65-105.3c5.4-1.44 9.83-6.98 9.83-12.32v-245c0-13.26-4.5-8.87-9.92-7.43L1055.9 772.36c-5.4 1.44-9.83 6.98-9.83 12.32v245c0 11.52-2.34 10.35 9.83 7.1z"/><path class="b" d="M936.74 930.27l110 108.6c1.3 0 .4 0 .47-3.94V783.38c0-2.9 3.25-6.42 2.42-7.58l-109.2-113.67c-1.3 0-6.06 4.05-6.06 6.95V925c.01 2.9.83 3.62 2.38 5.27z"/><path class="b" d="M1052.3 777.14l406.18-107.02c3.2-1.3 3.22-3.88.02-5.72l-171.38-89c-3.2-1.85-8.45-2.3-11.67-1l-335.4 87.74c-3.2 1.3-3.22 3.88-.02 5.72l98.68 108.2c9.75 7.23 10.37 2.38 13.58 1.08z"/><path class="c" d="M1044.73 1038.8l417.43-116.93v-257l-417.43 116.93z"/><path d="M1165.16 985.65l264.14-74c10.07-2.82 18.24-13.65 18.24-24.18V707.42c0-10.53-8.17-16.78-18.24-13.96l-264.14 74c-10.07 2.82-18.24 13.65-18.24 24.18V971.7c0 10.53 8.17 16.78 18.24 13.96z"/><linearGradient id="G" gradientUnits="userSpaceOnUse" x1="1160.943" y1="839.554" x2="1433.519" y2="839.554"><stop offset="0" stop-color="#1F244A"/><stop offset=".187" stop-color="#2D2751"/><stop offset=".535" stop-color="#502F65"/><stop offset="1" stop-color="#883B84"/></linearGradient><path d="M1209.28 963.12l175.9-49.28c26.7-7.48 48.33-36.16 48.33-64.07v-96.8c0-27.9-21.64-44.47-48.33-37l-175.9 49.28c-26.7 7.48-48.33 36.16-48.33 64.07v96.8c-.01 27.9 21.63 44.46 48.33 37z" fill="url(#G)"/><path class="e" d="M1056.8 882.22l76.06-21.3v-84.4l-76.06 21.3zm0 133.78l76.06-21.3V877.5l-76.06 21.3z"/><path d="M1060 963.8l69.67-19.52c1.37-.38 2.48-1.85 2.48-3.28s-1.1-2.28-2.48-1.9L1060 958.63c-1.37.38-2.48 1.85-2.48 3.28.01 1.43 1.12 2.28 2.48 1.9z"/><use xlink:href="#Y"/><path d="M1060 979.63l69.67-19.52c1.37-.38 2.48-1.85 2.48-3.28s-1.1-2.28-2.48-1.9L1060 974.46c-1.37.38-2.48 1.85-2.48 3.28.01 1.43 1.12 2.28 2.48 1.9z"/><use xlink:href="#Y" y="15.83"/><use xlink:href="#Y" y="23.74"/><path d="M1060 1003.37l69.67-19.52c1.37-.38 2.48-1.85 2.48-3.28s-1.1-2.28-2.48-1.9L1060 998.2c-1.37.38-2.48 1.85-2.48 3.28.01 1.43 1.12 2.28 2.48 1.9zm0 7.93l69.67-19.52c1.37-.38 2.48-1.85 2.48-3.28s-1.1-2.28-2.48-1.9l-69.67 19.52c-1.37.38-2.48 1.85-2.48 3.28.01 1.42 1.12 2.27 2.48 1.9z"/><ellipse transform="matrix(.5947 -.8039 .8039 .5947 -293.743103 1251.736328)" cx="1094.66" cy="917.22" rx="28.78" ry="21.82"/><path class="e" d="M1110 892.94l-30.7 8.6c1.2-1.33 2.46-2.57 3.8-3.7l23.08-6.46c1.35.38 2.62.9 3.8 1.57zm2.6 1.8c.8.67 1.53 1.42 2.2 2.24-.08.04-.17.07-.25.1l-39.42 11.04c-.2.05-.38.06-.55.03.65-1.16 1.37-2.28 2.14-3.36l35.88-10.05zm4.85 6.66l-45.6 12.77 1.16-2.96 43.26-12.12a17.85 17.85 0 0 1 1.17 2.31zm1.42 5l-48.42 13.56.6-3.05 47.2-13.22c.24.87.45 1.77.6 2.7zm.3 3.95l-.03 1.14-48.97 13.72-.03-1.12.05-1.52 48.93-13.7.05 1.5zm-.25 3.72a31.02 31.02 0 0 1-.55 3.03l-47.4 13.28c-.23-.85-.4-1.74-.55-2.66.13-.08.26-.14.4-.18l48.07-13.46c.01-.01.02-.01.04-.01zm-1.32 5.77l-1.12 2.95-43.63 12.22a20.55 20.55 0 0 1-1.1-2.26c.12-.07.25-.14.38-.18l45.42-12.72c.02-.01.04-.01.05-.01zm-2.6 5.96a37.83 37.83 0 0 1-2.08 3.38l-36.53 10.23a17.21 17.21 0 0 1-1.99-2.1 1.65 1.65 0 0 1 .73-.43l39.42-11.04c.15-.04.3-.05.45-.04zm-36.13 15.43l31.58-8.85a37.7 37.7 0 0 1-3.61 3.65l-24.36 6.82a16.32 16.32 0 0 1-3.61-1.62z"/><ellipse transform="matrix(.5947 -.8039 .8039 .5947 -238.229507 1222.150024)" cx="1093.07" cy="847.36" rx="19.51" ry="14.79"/><ellipse transform="matrix(0.5947, -0.8039, 0.8039, 0.5947, -238.541, 1225)" class="f" cx="1095.74" cy="849.1" rx="19.51" ry="14.79"/><path d="M1094.63 857.17l2.96-.83 1.64-23.8-1.64-.57-3.94 1.1z"/><path class="g" d="M1094.63 857.17l4.6-1.3v-23.33l-4.6 1.3z"/><ellipse transform="matrix(.5947 -.8039 .8039 .5947 -227.207703 1220.488159)" class="h" cx="1096.93" cy="835.6" rx="1.16" ry=".88"/><ellipse transform="matrix(.5947 -.8039 .8039 .5947 -206.115799 1205.96106)" cx="1093.07" cy="807.42" rx="19.51" ry="14.79"/><ellipse transform="matrix(.5947 -.8039 .8039 .5947 -206.427094 1208.810303)" class="f" cx="1095.74" cy="809.15" rx="19.51" ry="14.79"/><path d="M1094.63 817.22l2.96-.82 1.64-23.8-1.64-.57-3.94 1.1z"/><path class="g" d="M1094.63 817.22l4.6-1.28V792.6l-4.6 1.28z"/><ellipse transform="matrix(.5947 -.8039 .8039 .5947 -195.093994 1204.299316)" class="h" cx="1096.93" cy="795.65" rx="1.16" ry=".88"/><linearGradient id="H" gradientUnits="userSpaceOnUse" x1="1160.242" y1="827.016" x2="1433.934" y2="827.016"><stop offset="0" stop-color="#5F3189"/><stop offset="1" stop-color="#A14C97"/></linearGradient><path d="M1160.98 868.1c0 57.03 61.33 86.08 136.98 64.9s134.06-83.8 135.54-141.22c1.08-42.13 1.65-64.3-17.66-73.06-20.55-9.32-13-5.62-117.15 21.5-115 29.95-112.25 32.82-124.72 51.14-18.4 27-13 53.32-13 76.74z" fill="url(#H)"/><path class="A" d="M1241.762 570l5.438 3.845-55.64 78.694-5.438-3.844zm-152.55-3.594l-1.118-3.6 52.183-16.16 1.118 3.6z"/><circle class="A" cx="1144.03" cy="547.56" r="7.33"/><path class="A" d="M1201.182 541.79l2.28-3.015 43.573 32.953-2.28 3.015z"/><circle class="A" cx="1199.57" cy="538.41" r="7.33"/><path d="M1104.34 666.47c0 26.18 30.1 28.76 68.62 28.76s70.84-2.57 70.84-28.76c0-26.18-31.22-47.4-69.73-47.4-38.5-.01-69.73 21.22-69.73 47.4z"/><path class="A" d="M1147.353 641.617l-5.438 3.845-55.64-78.694 5.438-3.845z"/><path class="a" d="M374.58 709.83l-12.65-3.67 4 8.68 5.52 1.75 6.23-2.58 4.08-6.23zm126.72 32l-12.65-3.68 4 8.68 5.52 1.76 6.23-2.58 4.08-6.23zm71.17-35.04l-12.94-2.46 4.8 8.26 5.66 1.22 5.95-3.15 3.48-6.6z"/><path class="P" d="M528.5 751.17l-182.38-48.54c-2.5-.66-4.53-3.22-4.53-5.68V584.02c0-6.1 2.08-4.1 4.57-3.43l182.34 48.7c2.5.66 4.53 3.22 4.53 5.68V747.9c0 5.3 1.08 4.77-4.53 3.26z"/><path class="b" d="M583.43 702.08l-50.7 50.06c-.6 0-.2 0-.22-1.82V634.37c0-1.34-1.5-2.96-1.12-3.5l50.34-52.4c.6 0 2.8 1.87 2.8 3.2v117.97c.02 1.34-.36 1.67-1.08 2.43z"/><path class="b" d="M530.16 631.5l-187.24-49.33c-1.48-.6-1.5-1.8-.01-2.64l79-41.02c1.48-.85 3.9-1.06 5.38-.46l154.6 40.45c1.48.6 1.5 1.8.01 2.64L536.42 631c-4.5 3.33-4.78 1.1-6.26.5z"/><path class="c" d="M533.65 752.1l-192.42-53.9V579.73l192.42 53.9z"/><path d="M478.14 727.6l-121.76-34.1c-4.64-1.3-8.4-6.3-8.4-11.14v-83c0-4.85 3.76-7.73 8.4-6.43l121.76 34.1c4.64 1.3 8.4 6.3 8.4 11.14v83c-.01 4.85-3.77 7.73-8.4 6.43z"/><linearGradient id="I" gradientUnits="userSpaceOnUse" x1="354.43" y1="660.263" x2="480.081" y2="660.263"><stop offset="0" stop-color="#1F244A"/><stop offset=".187" stop-color="#2D2751"/><stop offset=".535" stop-color="#502F65"/><stop offset="1" stop-color="#883B84"/></linearGradient><path d="M457.8 717.22l-81.1-22.72c-12.3-3.45-22.28-16.67-22.28-29.53v-44.62c0-12.86 9.98-20.5 22.28-17.05l81.1 22.72c12.3 3.45 22.28 16.67 22.28 29.53v44.62c0 12.86-9.97 20.5-22.28 17.05z" fill="url(#I)"/><path class="e" d="M528.08 679.93l-35.06-9.82v-38.9l35.06 9.82zm0 61.67l-35.06-9.82v-54.03l35.06 9.82z"/><use xlink:href="#Z"/><use xlink:href="#a"/><use xlink:href="#a" y="3.64"/><use xlink:href="#b"/><use xlink:href="#b" y="3.65"/><use xlink:href="#Z" y="18.24"/><use xlink:href="#a" y="18.23"/><ellipse transform="matrix(.8039 -.5947 .5947 .8039 -313.847504 440.174988)" cx="510.64" cy="696.06" rx="10.06" ry="13.27"/><path class="e" d="M503.56 684.87l14.15 3.96c-.55-.6-1.13-1.2-1.76-1.7l-10.64-2.98a8.98 8.98 0 0 0-1.75.73zm-1.2.83a7.64 7.64 0 0 0-1.02 1.03.61.61 0 0 0 .12.04l18.17 5.1a.56.56 0 0 0 .25.021 15.12 15.12 0 0 0-1-1.55l-16.53-4.63zm-2.23 3.08l21.02 5.9-.54-1.37-19.94-5.6a8.92 8.92 0 0 0-.54 1.07zm-.65 2.3l22.32 6.25-.28-1.4-21.76-6.1a10.46 10.46 0 0 0-.28 1.26zm-.14 1.82l.01.52 22.57 6.32.01-.52-.02-.7-22.56-6.32-.01.7zm.1 1.7a13.28 13.28 0 0 0 .26 1.4l21.86 6.12.25-1.23a.49.49 0 0 0-.18-.082l-22.2-6.2zm.62 2.67a15.14 15.14 0 0 0 .52 1.36l20.1 5.63a6.63 6.63 0 0 0 .5-1.04c-.06-.03-.1-.06-.18-.08l-20.94-5.87zm1.2 2.75a18.17 18.17 0 0 0 .96 1.56l16.84 4.72a8.44 8.44 0 0 0 .92-.97.9.9 0 0 0-.34-.2l-18.17-5.1a.5.5 0 0 0-.2-.02zm16.66 7.1l-14.56-4.08a17.49 17.49 0 0 0 1.66 1.68l11.23 3.15c.6-.18 1.15-.43 1.67-.75z"/><ellipse transform="matrix(.8039 -.5947 .5947 .8039 -294.553009 434.296509)" cx="511.37" cy="663.86" rx="6.82" ry="8.99"/><ellipse transform="matrix(.8039 -.5947 .5947 .8039 -295.269592 433.7211)" class="f" cx="510.14" cy="664.66" rx="6.82" ry="8.99"/><path d="M510.65 668.38l-1.36-.38-.76-10.96.76-.27 1.8.5z"/><path class="g" d="M510.65 668.38l-2.12-.6v-10.75l2.12.6z"/><ellipse transform="matrix(.8039 -.5947 .5947 .8039 -291.677307 432.174408)" class="h" cx="509.59" cy="658.44" rx=".4" ry=".53"/><ellipse transform="matrix(.8039 -.5947 .5947 .8039 -283.60141 430.685913)" cx="511.37" cy="645.45" rx="6.82" ry="8.99"/><ellipse transform="matrix(.8039 -.5947 .5947 .8039 -284.318115 430.110504)" class="f" cx="510.14" cy="646.25" rx="6.82" ry="8.99"/><path d="M510.65 649.97l-1.36-.38-.76-10.97.76-.26 1.8.5z"/><path class="g" d="M510.65 649.97l-2.12-.6v-10.76l2.12.6z"/><ellipse transform="matrix(.8039 -.5947 .5947 .8039 -280.725708 428.563812)" class="h" cx="509.59" cy="640.03" rx=".4" ry=".53"/><linearGradient id="J" gradientUnits="userSpaceOnUse" x1="354.239" y1="654.483" x2="480.404" y2="654.483"><stop offset="0" stop-color="#5F3189"/><stop offset="1" stop-color="#A14C97"/></linearGradient><path d="M480.06 673.43c0 26.3-28.27 39.68-63.14 29.9s-61.8-38.63-62.48-65.1c-.5-19.42-.76-29.64 8.14-33.68 9.47-4.3 6-2.6 54 9.92 53 13.8 51.74 15.13 57.5 23.58 8.48 12.44 6 24.57 6 35.37z" fill="url(#J)"/><path class="A" d="M468.47 572.307l-2.507 1.772-25.65-36.277 2.507-1.772zm57.858-58.675l1.42 1.004-14.536 20.56-1.42-1.004z"/><circle class="A" cx="527.88" cy="512.86" r="3.38"/><path class="A" d="M441.364 535.505l.457 1.678-24.294 6.62-.457-1.678z"/><circle class="A" cx="415.79" cy="543.3" r="3.38"/><path d="M506.17 580.47c0 12.07-13.88 13.26-31.63 13.26s-32.65-1.2-32.65-13.26 14.4-21.86 32.14-21.86 32.14 9.8 32.14 21.86z"/><path class="A" d="M511.995 532.724l2.507 1.772-25.65 36.277-2.507-1.772z"/><path class="e" d="M575.2 677.6l-29.17 20.42v-42.5l29.17-20.42z"/><use xlink:href="#c"/><path d="M571.64 671.32L549.4 686.9c-.5.36-.94.23-.94-.28v-.86c0-.5.42-1.23.94-1.6l22.23-15.57c.5-.36.94-.23.94.28v.86c0 .5-.42 1.23-.94 1.6z"/><use xlink:href="#d"/><path d="M571.64 662.58l-22.23 15.57c-.5.36-.94.23-.94-.28V677c0-.5.42-1.23.94-1.6l22.23-15.57c.5-.36.94-.23.94.28v.86c0 .5-.42 1.23-.94 1.6zm0-4.38l-22.23 15.57c-.5.36-.94.23-.94-.28v-.86c0-.5.42-1.23.94-1.6l22.23-15.57c.5-.36.94-.23.94.28v.86c0 .52-.42 1.23-.94 1.6z"/><use xlink:href="#c" y="-21.85"/><use xlink:href="#d" y="-17.47"/><use xlink:href="#d" y="-21.85"/><ellipse transform="matrix(.5786 -.8156 .8156 .5786 -304.230408 723.702026)" class="j" cx="548.24" cy="656.27" rx="1.76" ry=".89"/><ellipse transform="matrix(.5786 -.8156 .8156 .5786 -280.077393 736.369812)" class="j" cx="572.58" cy="639.23" rx="1.76" ry=".89"/><ellipse transform="matrix(.5786 -.8156 .8156 .5786 -310.995087 752.343872)" class="j" cx="572.58" cy="677.14" rx="1.76" ry=".89"/><ellipse transform="matrix(.5786 -.8156 .8156 .5786 -334.915802 739.797913)" class="j" cx="548.48" cy="694.01" rx="1.76" ry=".89"/><path class="a" d="M621 973.5l-19.55.08 9.34 10.68 8.6.17 7.78-6.3 3.2-10.58zm193.9-7.73l-19.56.08 9.34 10.68 8.6.17 7.78-6.3 3.2-10.58zm70.72-66.11l-9.55-3.66 3.54 12.27 4.18 1.8 4.4-4.68 2.56-9.78z"/><path class="P" d="M847.85 963.93L577.1 978.6c-3.7.2-6.73-2.62-6.73-6.27V804.68c0-9.08 3.1-7.06 6.8-7.26L847.85 783c3.7-.2 6.73 2.62 6.73 6.27v167.66c0 7.88 1.6 6.57-6.73 7z"/><path class="b" d="M891.57 889.46l-37.42 74.3c-.44 0-.14 0-.16-2.7V788.94c0-2-4.66.35-4.38-.45l40.7-65.42c.44 0 2.06 2.77 2.06 4.76v158.02c.01 2-.27 2.48-.8 3.6z"/><path class="b" d="M837.55 797.57l-265.2 4c-2.13-.2-2.32-1.5-.43-2.9l52.98-69.53c1.9-1.4 5.2-2.37 7.32-2.17l257.42-3.63c2.13.2 2.32 1.5.43 2.9l-44 68.84c-5.65 5.05-6.4 2.68-8.52 2.48z"/><path class="c" d="M855.5 962.87l-285.64 11.5V798.48L855.5 787z"/><path d="M773.1 952.9l-180.75 7.27c-6.9.28-12.48-5.34-12.48-12.55V824.4c0-7.2 5.6-13.27 12.48-13.55l180.75-7.27c6.9-.28 12.48 5.34 12.48 12.55v123.22c0 7.2-5.6 13.26-12.48 13.54z"/><linearGradient id="K" gradientUnits="userSpaceOnUse" x1="589.453" y1="881.881" x2="775.978" y2="881.881"><stop offset="0" stop-color="#1F244A"/><stop offset=".187" stop-color="#2D2751"/><stop offset=".535" stop-color="#502F65"/><stop offset="1" stop-color="#883B84"/></linearGradient><path d="M742.9 947.15L622.53 952c-18.27.73-33.08-14.15-33.08-33.25v-66.23c0-19.1 14.8-35.17 33.08-35.9l120.37-4.84c18.27-.73 33.08 14.15 33.08 33.25v66.23c0 19.1-14.8 35.17-33.08 35.9z" fill="url(#K)"/><path class="e" d="M847.24 858.37l-52.05 2.1V802.7l52.05-2.1zm0 91.55L795.2 952v-80.2l52.05-2.1z"/><use xlink:href="#e"/><path d="M845.05 920.32l-47.67 1.92c-.94.04-1.7-.72-1.7-1.7s.76-1.8 1.7-1.84l47.67-1.92c.94-.04 1.7.72 1.7 1.7 0 .97-.75 1.8-1.7 1.84z"/><use xlink:href="#e" y="10.83"/><use xlink:href="#e" y="16.25"/><use xlink:href="#e" y="21.66"/><use xlink:href="#e" y="27.08"/><use xlink:href="#e" y="32.5"/><ellipse transform="matrix(.3452 -.9385 .9385 .3452 -298.073212 1353.987061)" cx="821.34" cy="890.62" rx="17.67" ry="16.65"/><path class="e" d="M810.83 877.37l21-.85a15.59 15.59 0 0 0-2.61-1.7l-15.8.64a18.78 18.78 0 0 0-2.61 1.91zm-1.77 1.8a15.78 15.78 0 0 0-1.5 2.02c.06.01.1.01.17.01l26.97-1.1a1.02 1.02 0 0 0 .38-.101 17.48 17.48 0 0 0-1.46-1.83l-24.55 1zm-3.32 5.64l31.2-1.26a16.53 16.53 0 0 0-.8-1.77l-29.6 1.2a16.76 16.76 0 0 0-.8 1.84zm-.97 3.73l33.13-1.33a20.6 20.6 0 0 0-.4-1.96l-32.3 1.3a16.34 16.34 0 0 0-.42 1.99zm-.2 2.76l.02.77 33.5-1.35.02-.77-.03-1.03-33.48 1.35-.04 1.03zm.18 2.48l.38 1.96 32.44-1.3a17.94 17.94 0 0 0 .37-1.94c-.1-.02-.18-.04-.27-.04l-32.9 1.32c-.01.01-.02.01-.03.01zm.9 3.66a15.51 15.51 0 0 0 .77 1.77l29.86-1.2a18.77 18.77 0 0 0 .75-1.79c-.08-.02-.17-.04-.26-.04l-31.08 1.25c-.02.01-.03.01-.04.01zm1.76 3.5a14.29 14.29 0 0 0 1.43 1.851l25-1a17.46 17.46 0 0 0 1.36-1.87.8.8 0 0 0-.5-.13l-26.97 1.1c-.1 0-.22.03-.32.07zm24.73 2.66l-21.6.87a15.53 15.53 0 0 0 2.47 1.71l16.67-.67a17.51 17.51 0 0 0 2.47-1.91z"/><ellipse transform="matrix(.3452 -.9385 .9385 .3452 -252.172501 1323.480469)" cx="822.42" cy="842.47" rx="11.98" ry="11.29"/><ellipse transform="matrix(.3452 -.9385 .9385 .3452 -255.031601 1322.925415)" class="f" cx="820.6" cy="844.24" rx="11.98" ry="11.29"/><path d="M821.35 849.52l-2.02.08-1.12-15.92 1.12-.75 2.7-.1z"/><path class="g" d="M821.35 849.52l-3.14.13v-15.97l3.14-.12z"/><ellipse transform="matrix(.3452 -.9385 .9385 .3452 -247.143402 1316.283691)" class="h" cx="819.78" cy="835.26" rx=".71" ry=".67"/><ellipse transform="matrix(.3452 -.9385 .9385 .3452 -226.517807 1305.582031)" cx="822.42" cy="815.13" rx="11.98" ry="11.29"/><ellipse transform="matrix(.3452 -.9385 .9385 .3452 -229.376907 1305.0271)" class="f" cx="820.6" cy="816.9" rx="11.98" ry="11.29"/><path d="M821.35 822.2l-2.02.08-1.12-15.92 1.12-.75 2.7-.1z"/><path class="g" d="M821.35 822.2l-3.14.12v-15.96l3.14-.13z"/><ellipse transform="matrix(.3452 -.9385 .9385 .3452 -221.488693 1298.385376)" class="h" cx="819.78" cy="807.93" rx=".71" ry=".67"/><linearGradient id="L" gradientUnits="userSpaceOnUse" x1="589.17" y1="879.012" x2="776.458" y2="879.012"><stop offset="0" stop-color="#5F3189"/><stop offset="1" stop-color="#A14C97"/></linearGradient><path d="M775.95 871.55c0 39.02-41.97 72.35-93.74 74.43s-91.74-27.96-92.75-66.93c-.74-28.6-1.13-43.64 12.1-53.87 14.06-10.88 8.9-6.7 80.17-10.96 78.7-4.7 76.8-2.15 85.35 7.66 12.58 14.45 8.88 33.64 8.88 49.67z" fill="url(#L)"/><path class="A" d="M692.85 684.63l-.83.6-18.97-26.83c.77-.88 1.24-2 1.24-3.27 0-2.77-2.24-5-5-5s-5 2.24-5 5 2.24 5 5 5c.57 0 1.1-.12 1.62-.3l19 26.87-.78.55 38.07 53.85 3.72-2.63-38.06-53.85z"/><use xlink:href="#S" x="285.42" y="60.93"/><path class="A" d="M819.13 645.25c-2.77 0-5 2.25-5 5 0 1.26.48 2.4 1.25 3.28l-18.96 26.8-.83-.6-38.07 53.85 3.72 2.63 38.07-53.85-.78-.55 19-26.86c.5.18 1.05.3 1.62.3 2.77 0 5-2.25 5-5s-2.24-5-5-5z"/><path class="e" d="M885.5 853.13l-21.53 30.32v-63.1l21.53-30.32z"/><use xlink:href="#f"/><path d="M882.87 843.8l-16.4 23.1c-.38.54-.7.35-.7-.42v-1.27c0-.76.3-1.83.7-2.36l16.4-23.1c.38-.54.7-.35.7.42v1.27c0 .77-.3 1.83-.7 2.36z"/><use xlink:href="#f" y="-12.98"/><use xlink:href="#f" y="-19.45"/><path d="M882.87 824.34l-16.4 23.1c-.38.54-.7.35-.7-.42v-1.27c0-.76.3-1.83.7-2.36l16.4-23.1c.38-.54.7-.35.7.42v1.27c0 .76-.3 1.83-.7 2.36z"/><use xlink:href="#f" y="-32.42"/><path d="M882.87 811.37l-16.4 23.1c-.38.54-.7.35-.7-.42v-1.27c0-.76.3-1.83.7-2.36l16.4-23.1c.38-.54.7-.35.7.42V809c0 .77-.3 1.83-.7 2.36z"/><use xlink:href="#f" y="-45.38"/><ellipse transform="matrix(.2524 -.9676 .9676 .2524 -147.763901 1451.646362)" class="j" cx="865.6" cy="821.45" rx="2.33" ry=".73"/><ellipse transform="matrix(.2524 -.9676 .9676 .2524 -109.864304 1450.111816)" class="j" cx="883.56" cy="796.16" rx="2.33" ry=".73"/><ellipse transform="matrix(.2524 -.9676 .9676 .2524 -164.314194 1492.178467)" class="j" cx="883.56" cy="852.43" rx="2.33" ry=".73"/><ellipse transform="matrix(.2524 -.9676 .9676 .2524 -201.849304 1493.698242)" class="j" cx="865.78" cy="877.48" rx="2.33" ry=".73"/><path class="a" d="M663.3 776.64l-14.13.06 6.75 7.72 6.2.12 5.62-4.54 2.3-7.65zm140.12-5.6l-14.13.06 6.75 7.72 6.2.13 5.63-4.55 2.3-7.65zm51.1-47.77l-6.9-2.64 2.56 8.86 3 1.3 3.18-3.38 1.85-7.07z"/><path class="P" d="M827.24 769.72l-195.66 10.6c-2.67.14-4.86-1.9-4.86-4.53V654.63c0-6.56 2.23-5.1 4.9-5.25l195.6-10.42c2.67-.14 4.86 1.9 4.86 4.53v121.16c.01 5.7 1.16 4.75-4.85 5.07z"/><path class="b" d="M858.83 715.9l-27.04 53.7c-.32 0-.1 0-.12-1.95v-124.4c0-1.44-3.37.25-3.16-.33l29.4-47.28c.32 0 1.5 2 1.5 3.44v114.2c0 1.45-.2 1.8-.58 2.62z"/><path class="b" d="M819.8 649.5l-191.65 2.9c-1.54-.14-1.68-1.08-.3-2.1l38.3-50.25c1.37-1 3.75-1.7 5.3-1.57l186.03-2.62c1.54.14 1.68 1.08.3 2.1l-31.8 49.75c-4.08 3.65-4.62 1.94-6.16 1.8z"/><path class="c" d="M832.76 768.95l-206.42 8.3v-127.1l206.42-8.3z"/><path d="M773.2 761.75L642.6 767c-4.98.2-9.02-3.86-9.02-9.07v-89.05c0-5.2 4.04-9.6 9.02-9.8l130.62-5.26c4.98-.2 9.02 3.86 9.02 9.07v89.05c0 5.2-4.04 9.6-9.02 9.8z"/><linearGradient id="M" gradientUnits="userSpaceOnUse" x1="640.501" y1="710.422" x2="775.295" y2="710.422"><stop offset="0" stop-color="#1F244A"/><stop offset=".187" stop-color="#2D2751"/><stop offset=".535" stop-color="#502F65"/><stop offset="1" stop-color="#883B84"/></linearGradient><path d="M751.4 757.6l-87 3.5c-13.2.53-23.9-10.23-23.9-24.03V689.2c0-13.8 10.7-25.42 23.9-25.95l87-3.5c13.2-.53 23.9 10.23 23.9 24.03v47.86c0 13.8-10.7 25.42-23.9 25.95z" fill="url(#M)"/><path class="e" d="M826.8 693.43l-37.6 1.52V653.2l37.6-1.5zm0 66.17l-37.6 1.5v-57.96l37.6-1.5z"/><use xlink:href="#g"/><use xlink:href="#g" y="3.92"/><use xlink:href="#g" y="7.82"/><use xlink:href="#g" y="11.74"/><use xlink:href="#g" y="15.66"/><use xlink:href="#g" y="19.57"/><use xlink:href="#g" y="23.49"/><ellipse transform="matrix(.3452 -.9385 .9385 .3452 -143.565903 1227.687622)" cx="808.08" cy="716.73" rx="12.77" ry="12.03"/><path class="e" d="M800.48 707.16l15.18-.6a11.78 11.78 0 0 0-1.89-1.23l-11.4.46a13.96 13.96 0 0 0-1.88 1.38zm-1.28 1.3a14.26 14.26 0 0 0-1.1 1.46c.04.01.08.01.12.01l19.5-.78a.6.6 0 0 0 .27-.07 11.34 11.34 0 0 0-1.06-1.32l-17.73.7zm-2.4 4.07l22.54-.9a11.4 11.4 0 0 0-.58-1.28l-21.4.86-.57 1.33zm-.7 2.7l23.94-.96a10.53 10.53 0 0 0-.3-1.4l-23.35.94-.3 1.43zm-.15 2l.01.56 24.22-.97.01-.56-.02-.74-24.2.97-.02.74zm.13 1.8l.27 1.4 23.45-.94.27-1.4a.63.63 0 0 0-.2-.03l-23.77.96zm.65 2.65a13.28 13.28 0 0 0 .55 1.28l21.58-.87.54-1.3a.58.58 0 0 0-.19-.03l-22.46.9s-.01.01-.02.01zm1.27 2.53c.3.47.66.92 1.03 1.34l18.07-.73c.36-.43.68-.88 1-1.35a.63.63 0 0 0-.36-.1l-19.5.78a.75.75 0 0 0-.24.06zm17.88 1.9l-15.62.63a10.85 10.85 0 0 0 1.78 1.23l12.05-.48a12.72 12.72 0 0 0 1.79-1.38z"/><ellipse transform="matrix(.3452 -.9385 .9385 .3452 -110.395203 1205.641602)" cx="808.86" cy="681.94" rx="8.65" ry="8.16"/><ellipse transform="matrix(.3452 -.9385 .9385 .3452 -112.461403 1205.240479)" class="f" cx="807.54" cy="683.22" rx="8.65" ry="8.16"/><path d="M808.1 687.04l-1.46.06-.82-11.5.82-.54 1.94-.08z"/><path class="g" d="M808.1 687.04l-2.28.1V675.6l2.28-.1z"/><ellipse transform="matrix(.3452 -.9385 .9385 .3452 -106.760902 1200.440796)" class="h" cx="806.95" cy="676.73" rx=".51" ry=".48"/><ellipse transform="matrix(.3452 -.9385 .9385 .3452 -91.855499 1192.707153)" cx="808.86" cy="662.18" rx="8.65" ry="8.16"/><ellipse transform="matrix(.3452 -.9385 .9385 .3452 -93.9217 1192.30603)" class="f" cx="807.54" cy="663.46" rx="8.65" ry="8.16"/><path d="M808.1 667.28l-1.46.06-.82-11.5.82-.54 1.94-.08z"/><path class="g" d="M808.1 667.28l-2.28.1v-11.53l2.28-.1z"/><ellipse transform="matrix(.3452 -.9385 .9385 .3452 -88.221199 1187.506348)" class="h" cx="806.95" cy="656.98" rx=".51" ry=".48"/><linearGradient id="N" gradientUnits="userSpaceOnUse" x1="640.296" y1="708.348" x2="775.642" y2="708.348"><stop offset="0" stop-color="#5F3189"/><stop offset="1" stop-color="#A14C97"/></linearGradient><path d="M775.28 702.96c0 28.2-30.33 52.28-67.74 53.8s-66.3-20.2-67.03-48.37c-.53-20.66-.82-31.54 8.73-38.93 10.16-7.86 6.43-4.84 57.93-7.92 56.86-3.4 55.5-1.55 61.68 5.53 9.1 10.45 6.43 24.32 6.43 35.9z" fill="url(#N)"/><path class="A" d="M715.22 567.87l-.6.42-13.7-19.4c.55-.64.9-1.46.9-2.36a3.62 3.62 0 0 0-7.24 0 3.62 3.62 0 0 0 3.62 3.62c.4 0 .8-.08 1.17-.2l13.73 19.42-.57.4 27.5 38.92 2.7-1.9-27.5-38.92z"/><path d="M783.2 615.57c0 12.95-14.9 14.22-33.93 14.22s-35.03-1.27-35.03-14.22 15.44-23.45 34.48-23.45 34.48 10.5 34.48 23.45z"/><path class="A" d="M806.48 539.4a3.62 3.62 0 0 0-3.62 3.62c0 .9.35 1.73.9 2.37l-13.7 19.37-.6-.42-27.5 38.92 2.7 1.9 27.5-38.92-.57-.4 13.72-19.4c.37.13.76.2 1.17.2a3.62 3.62 0 0 0 3.62-3.62c.02-2-1.6-3.62-3.6-3.62z"/><path class="e" d="M854.43 689.65l-15.55 21.9v-45.6l15.55-21.9z"/><use xlink:href="#h"/><use xlink:href="#i"/><use xlink:href="#h" y="-9.38"/><path d="M852.54 673.53l-11.85 16.7c-.27.4-.5.25-.5-.3V689c0-.55.22-1.32.5-1.7l11.85-16.7c.27-.4.5-.25.5.3v.92c0 .56-.22 1.33-.5 1.72zm0-4.7l-11.85 16.7c-.27.4-.5.25-.5-.3v-.92c0-.55.22-1.32.5-1.7l11.85-16.7c.27-.4.5-.25.5.3v.92c0 .56-.22 1.32-.5 1.7z"/><use xlink:href="#h" y="-23.43"/><use xlink:href="#i" y="-23.43"/><use xlink:href="#h" y="-32.8"/><ellipse transform="matrix(.2524 -.9676 .9676 .2524 -17.1661 1311.28772)" class="j" cx="840.07" cy="666.75" rx="1.68" ry=".53"/><ellipse transform="matrix(.2524 -.9676 .9676 .2524 10.2226 1310.178711)" class="j" cx="853.04" cy="648.47" rx="1.68" ry=".53"/><ellipse transform="matrix(.2524 -.9676 .9676 .2524 -29.126301 1340.578613)" class="j" cx="853.04" cy="689.14" rx="1.68" ry=".53"/><ellipse transform="matrix(.2524 -.9676 .9676 .2524 -56.251598 1341.677002)" class="j" cx="840.19" cy="707.24" rx="1.68" ry=".53"/><defs ><path id="P" d="M1142.9 799.74l-103.53-29c-2.03-.57-3.68-2.75-3.68-4.88 0-2.12 1.65-3.38 3.68-2.82l103.53 29c2.03.57 3.68 2.75 3.68 4.88s-1.65 3.4-3.68 2.82z"/><path id="Q" d="M1288.06 624.88l-71.66 50.18c-1.66 1.16-3.02.76-3.02-.9v-2.77c0-1.66 1.36-3.97 3.02-5.13l71.66-50.18c1.66-1.16 3.02-.76 3.02.9v2.77c0 1.66-1.36 3.97-3.02 5.13z"/><path id="R" d="M531.83 893.17l-47.67-13.35c-.94-.26-1.7-1.27-1.7-2.25s.76-1.56 1.7-1.3l47.67 13.35c.94.26 1.7 1.27 1.7 2.25.01.98-.75 1.56-1.7 1.3z"/><path id="S" d="M501.5 689.7c0 17.92-20.6 19.68-46.96 19.68s-48.48-1.76-48.48-19.68 21.36-32.44 47.72-32.44 47.72 14.52 47.72 32.44z"/><path id="T" d="M598.68 831.04l-33 23.1c-.76.54-1.4.35-1.4-.42v-1.27c0-.76.63-1.83 1.4-2.36l33-23.1c.76-.54 1.4-.35 1.4.42v1.27c0 .76-.63 1.82-1.4 2.36z"/><path id="U" d="M598.68 824.55l-33 23.1c-.76.54-1.4.35-1.4-.42v-1.27c0-.76.63-1.83 1.4-2.36l33-23.1c.76-.54 1.4-.35 1.4.42v1.27c0 .76-.63 1.83-1.4 2.36z"/><path id="V" d="M1369.26 865.48l51.46-42.15c1-.83 1.83-2.66 1.83-4.1s-.82-1.92-1.83-1.1l-51.46 42.15c-1 .83-1.83 2.66-1.83 4.1s.82 1.92 1.83 1.1z"/><path id="W" d="M1351.04 511.7l51.22-20.64c1-.4 1.82-1.6 1.82-2.64s-.8-1.57-1.82-1.17l-51.22 20.64c-1 .4-1.82 1.6-1.82 2.64s.8 1.58 1.82 1.17z"/><path id="X" d="M1351.04 517.53l51.22-20.64c1-.4 1.82-1.6 1.82-2.64s-.8-1.57-1.82-1.17l-51.22 20.64c-1 .4-1.82 1.6-1.82 2.64s.8 1.57 1.82 1.17z"/><path id="Y" d="M1060 971.72l69.67-19.52c1.37-.38 2.48-1.85 2.48-3.28s-1.1-2.28-2.48-1.9l-69.67 19.5c-1.37.38-2.48 1.85-2.48 3.28.01 1.43 1.12 2.28 2.48 1.9z"/><path id="Z" d="M526.6 717.54l-32.1-9a1.66 1.66 0 0 1-1.14-1.51c0-.66.5-1.05 1.14-.87l32.1 9a1.66 1.66 0 0 1 1.14 1.51c0 .65-.5 1.05-1.14.87z"/><path id="a" d="M526.6 721.2l-32.1-9a1.66 1.66 0 0 1-1.14-1.51c0-.66.5-1.05 1.14-.87l32.1 9a1.66 1.66 0 0 1 1.14 1.51c0 .65-.5 1.04-1.14.87z"/><path id="b" d="M526.6 728.48l-32.1-9a1.66 1.66 0 0 1-1.14-1.51c0-.66.5-1.05 1.14-.87l32.1 9a1.66 1.66 0 0 1 1.14 1.51c0 .66-.5 1.05-1.14.87z"/><path id="c" d="M571.64 675.7l-22.23 15.57c-.5.36-.94.23-.94-.28v-.86c0-.5.42-1.23.94-1.6l22.23-15.57c.5-.36.94-.23.94.28v.86c0 .5-.42 1.22-.94 1.6z"/><path id="d" d="M571.64 666.95l-22.23 15.57c-.5.36-.94.23-.94-.28v-.86c0-.5.42-1.23.94-1.6l22.23-15.57c.5-.36.94-.23.94.28v.86c0 .5-.42 1.23-.94 1.6z"/><path id="e" d="M845.05 914.9l-47.67 1.92c-.94.04-1.7-.72-1.7-1.7s.76-1.8 1.7-1.84l47.67-1.92c.94-.04 1.7.72 1.7 1.7s-.75 1.8-1.7 1.84z"/><path id="f" d="M882.87 850.28l-16.4 23.1c-.38.54-.7.35-.7-.42v-1.27c0-.76.3-1.83.7-2.36l16.4-23.1c.38-.54.7-.35.7.42v1.27c0 .76-.3 1.82-.7 2.36z"/><path id="g" d="M825.2 734.28l-34.45 1.4c-.68.03-1.22-.52-1.22-1.23s.55-1.3 1.22-1.33l34.45-1.4c.68-.03 1.22.52 1.22 1.23.01.7-.54 1.3-1.22 1.33z"/><path id="h" d="M852.54 687.58l-11.85 16.7c-.27.4-.5.25-.5-.3v-.92c0-.55.22-1.32.5-1.7l11.85-16.7c.27-.4.5-.25.5.3v.92c0 .56-.22 1.33-.5 1.7z"/><path id="i" d="M852.54 682.9l-11.85 16.7c-.27.4-.5.25-.5-.3v-.92c0-.55.22-1.32.5-1.7l11.85-16.7c.27-.4.5-.25.5.3v.92c0 .55-.22 1.32-.5 1.7z"/></defs></svg>