<svg xmlns="http://www.w3.org/2000/svg" xmlns:xlink="http://www.w3.org/1999/xlink" viewBox="0 0 1000 1000"><style><![CDATA[.B{fill:#153242}.C{fill:#FFED00}.D{fill:#fff}.E{fill:#16135B}.F{fill:#ADADAD}.G{fill:#FAFAFF}.H{fill:#F6F6F6}.W{fill:#84653C}.X{fill:#D59589}.Y{fill:#212127}.a{fill:#040404}.b{fill:#2F2421}.c{fill:#161211}.e{fill:#7A5440}.f{fill:#F9D4D6}.g{fill:#EFBABA}.h{fill:#FACCB1}]]></style><linearGradient id="A" gradientUnits="userSpaceOnUse" x1="135.356" y1="88.394" x2="147.309" y2="88.394"><stop offset="0" stop-color="#5F3189"/><stop offset="1" stop-color="#A14C97"/></linearGradient><circle cx="141.33" cy="88.39" r="5.98" fill="url(#A)"/><circle class="B" cx="184.36" cy="683.59" r="2.81"/><path class="B" d="M181.94 683.032l-3.496-1.412.408-1 3.496 1.412z"/><path class="C" d="M128.2 636.73l41.44 21.44a4.62 4.62 0 0 1 1.98 6.22l-9 17.37a4.62 4.62 0 0 1-6.22 1.98l-41.44-21.44a4.62 4.62 0 0 1-1.98-6.22l9-17.37c1.18-2.27 3.96-3.15 6.22-1.98z"/><path class="D" d="M131.73 645.22l16.13 8.34a4.62 4.62 0 0 1 1.98 6.22l-3.9 7.54a4.62 4.62 0 0 1-6.22 1.98l-16.13-8.34a4.62 4.62 0 0 1-1.98-6.22l3.9-7.54c1.18-2.27 3.96-3.15 6.22-1.98z"/><path class="E" d="M139.67 634.05l33.74-61c1.23-2.23 4.04-3.04 6.27-1.8l17.9 9.9c2.23 1.23 3.04 4.04 1.8 6.27l-33.74 61c-1.23 2.23-4.04 3.04-6.27 1.8l-17.9-9.9c-2.23-1.23-3.03-4.04-1.8-6.27zm48.03 31.23l-18.06 32.02c.01 0-14.22-28.55 18.06-32.02z"/><path class="F" d="M189.28 576.54l-1.48-.8-38.48 68.93 1.47.82z"/><path class="F" d="M145.54 623.45l26.55 13.3-.7 1.26-26.56-13.3zm7.4-13.4l26.56 13.32-.7 1.26-26.56-13.32zm7.6-13.72l26.56 13.32-.7 1.26-26.56-13.32zm6.93-12.53l26.56 13.32-.7 1.26-26.56-13.32z"/><path class="E" d="M84.83 732.74l31.42-62.24a4.62 4.62 0 0 1 6.2-2.04l18.27 9.22a4.62 4.62 0 0 1 2.04 6.2l-31.42 62.24a4.62 4.62 0 0 1-6.2 2.04l-18.27-9.22a4.61 4.61 0 0 1-2.04-6.2z"/><path class="F" d="M132.24 673.4l-1.5-.76-35.86 70.33 1.5.76zm146.86-111l14.28 6.5-.35.68-14.27-6.5z"/><path class="F" d="M282.74 555.18l14.28 6.5-.34.68-14.28-6.5zm-178.5 139.08l27.04 12.3-.64 1.28-27.05-12.3zm6.46-12.8l27.04 12.3-.65 1.28-27.04-12.3z"/><path class="G" d="M462.805 558.906l-8.1 1.137-.22-1.565 8.1-1.137zm-15.285 1.452l-8.132.785-.152-1.573 8.132-.785zm-14.985.557l-8.16.43-.083-1.578 8.16-.432zm-15.975-.215l-8.17-.1v-1.58l8.17.1zm-15.117-.9l-8.128-.823.16-1.572 8.128.823zm-15.426-1.573l-8.128-.823.16-1.572 8.128.823zm-121.675 151.4l-15.14-3.177.614-2.927 15.14 3.178zm-28.085-6.12l-14.953-3.967.767-2.9 14.953 3.967zm-128.125-66.8l-9.525-12.2 2.356-1.84 9.525 12.2zM90.546 612.4L82.833 599l2.592-1.5 7.713 13.4zm-12.52-26.554l-4.165-14.9 2.88-.805 4.165 14.9zM72.313 557.6l.288-15.467 3 .056-.288 15.467zm.563-30.162l4.013-14.94 2.888.775-4.013 14.94zm7.45-27.926l5.795-14.344 2.772 1.12-5.795 14.344zm11.344-27.248l8.205-13.116 2.535 1.586-8.205 13.116zm15.497-24.052l8.205-13.115 2.535 1.586-8.205 13.116zm18.02-23.072l9.356-12.32 2.38 1.8-9.356 12.32zm19.7-21.58l10.532-11.332 2.2 2.036-10.532 11.332zm20.532-20.8l11.658-10.168 1.965 2.253-11.658 10.168zm22.292-18.404l12.2-9.525 1.84 2.356-12.2 9.525zm23.394-17.02l12.572-9.014 1.742 2.43-12.572 9.014zm24.114-16.334l13.136-8.17 1.58 2.54-13.136 8.17zm25.422-14.852l13.487-7.58 1.465 2.607-13.487 7.58zm25.238-13.968l13.78-7.032 1.36 2.663-13.78 7.033zm25.82-12.904l14.24-6.044 1.168 2.752-14.24 6.044zm26.962-11.938l14.24-6.044 1.168 2.752-14.24 6.044zm252.15-66.2l15.47-.1.018 3-15.47.1zm28.93-2.3l15.47-.1.018 3-15.47.1zm58.02-1.24l15.47-.1.018 3-15.47.1zm-27.73.16l15.47-.1.018 3-15.47.1zm56.793.273l15.444.896-.173 2.985-15.444-.896zm29.908 1.9l15.3 2.362-.457 2.955-15.3-2.362zm28.57 3.953l15.13 3.22-.622 2.925-15.13-3.22zm28.7 5.3l14.74 4.694-.907 2.85-14.74-4.694zm28.204 7.8l14.74 4.694-.907 2.85-14.74-4.693zm27.08 9.214l11.525 4.656-1.12 2.772-11.525-4.656zm52.294 25.962l12.882 8.565-1.656 2.5-12.882-8.566zm29.685 23.928l4.66 4.815-2.15 2.08-4.66-4.815zm14.063 14.947l8.5 12.925-2.498 1.643-8.5-12.925zm14.73 24.573l6.044 14.24-2.752 1.168-6.044-14.24zm9.455 28.9l2.153 15.32-2.96.416-2.154-15.32zm2.295 28.557l-1.5 15.397-2.976-.3 1.5-15.397zm-3.638 29.973l-5.795 14.344-2.772-1.12 5.795-14.344zm-10.717 26.518l-5.795 14.344-2.772-1.12 5.795-14.344zm-13.006 26.002l-7.54 13.5-2.6-1.457 7.54-13.5zm-16.094 24.838l-9.935 11.858-2.292-1.92 9.935-11.858zm-19.093 21.25l-9.935 11.858-2.292-1.92 9.935-11.858zm-20.346 21.523l-11.63 10.202-1.972-2.248 11.63-10.202zm-21.776 19.1l-11.63 10.203-1.972-2.248 11.63-10.202zm-22.484 18.077l-12.2 9.525-1.84-2.356 12.2-9.525zm-23.604 17.268l-13.535 7.493-1.448-2.616L819.6 585z"/><use xlink:href="#M" class="G"/><use xlink:href="#M" x="-25.642" y="12.887" class="G"/><use xlink:href="#M" x="-51.217" y="27.045" class="G"/><use xlink:href="#M" x="-71.983" y="37.98" class="G"/><path class="G" d="M208.324 694.842l-11.42-3.586.896-2.853 11.42 3.586z"/><circle class="B" cx="821.11" cy="493.4" r="2.1"/><path class="B" d="M822.365 494.764l1.562 2.336-.673.45-1.562-2.336z"/><path class="C" d="M835.52 544.86l-15.45-28.57c-1.2-2.24-.38-5.04 1.86-6.25l10.78-5.83c2.24-1.2 5.04-.38 6.25 1.86l15.45 28.57c1.2 2.24.38 5.04-1.86 6.25l-10.78 5.83c-2.24 1.22-5.04.4-6.25-1.86z"/><path class="D" d="M837.44 539.13l-6.4-11.84c-.92-1.7-.3-3.8 1.4-4.73l5.5-2.97c1.7-.92 3.8-.3 4.73 1.4l6.4 11.84c.92 1.7.3 3.8-1.4 4.73l-5.5 2.97c-1.7.92-3.8.3-4.73-1.4z"/><path class="E" d="M826.84 543.25l-44.35 22.42c-2.27 1.15-5.05.24-6.2-2.04l-5.83-11.54c-1.15-2.27-.24-5.05 2.04-6.2l44.35-22.42c2.27-1.15 5.05-.24 6.2 2.04l5.83 11.54c1.14 2.28.23 5.06-2.04 6.2zm-15.48-39.95l24.58-12.17c.01 0-3.2 23.6-24.58 12.17z"/><path class="F" d="M773.12 557.38l.57 1.12 52.7-26.37-.56-1.12z"/><path class="F" d="M819.8 546.8L809 527.44l.96-.5 10.8 19.37zm-10.2 5.16l-10.8-19.37.96-.48 10.8 19.37zm-10.43 5.28l-10.8-19.37.96-.48 10.8 19.37zm-9.54 4.82l-10.8-19.36.95-.5 10.8 19.37z"/><path class="E" d="M902.14 505.44l-43.48 24.07c-2.23 1.23-5.04.43-6.27-1.8l-6.26-11.3c-1.23-2.23-.43-5.04 1.8-6.27l43.48-24.07c2.23-1.23 5.04-.43 6.27 1.8l6.26 11.3c1.23 2.23.43 5.03-1.8 6.27z"/><path class="F" d="M849 521.57l.6 1.1 51.66-28.33-.6-1.1z"/><path class="F" d="M895.25 509.25l-11.52-18.95.94-.52 11.5 18.95zm-10 5.55l-11.5-18.95.94-.52 11.5 18.95zm-10.23 5.65L863.5 501.5l.94-.52 11.52 18.95zm-9.36 5.18l-11.5-18.95.94-.52 11.5 18.95z"/><path class="H" d="M569.222 557.955l-6.203-1.532.28-1.136 6.203 1.532zm12.713 1.56l-6.355-.67.122-1.164 6.355.67zm12.1 1.285l-6.355-.67.122-1.164 6.355.67zm12.567-.07l-6.384.272-.05-1.17 6.384-.272zm12.608-.535l-6.384.272-.05-1.17 6.384-.272zm12.4-2.317l-6.226 1.438-.263-1.14 6.226-1.438zm148.843 148.9l-11.384 4.1-.752-2.1 11.384-4.1zm-17.923 5.15h-12.1v-2.22h12.1zm-19.7-1.572l-11.692-3.116.572-2.145 11.7 3.105zm-20.1-6.32l-11.208-4.56.836-2.056 11.208 4.56zm-19.587-8.46l-10.48-6.05 1.1-1.923 10.48 6.05zm-16.93-9.776l-10.48-6.05 1.1-1.923 10.48 6.05zm-16.94-9.782l-10.48-6.05 1.1-1.922 10.48 6.05zm132.484 20.757L791.2 702.7l-1.1-1.935 10.545-5.935zm19.85-13.975l-9.144 7.924-1.454-1.677 9.144-7.924zm15.27-17.827l-6.728 10.057-1.845-1.234 6.728-10.058zm11.343-21.223l-4.533 11.22-2.058-.832 4.533-11.22zm5.97-22.794l-1.297 12.03-2.207-.238 1.297-12.03zm1.398-23.756l.355 12.095-2.22.065-.354-12.095zm-2.328-23.206l1.684 11.982-2.198.3-1.684-11.983zM804.9 466.7l6.724 10.06-1.846 1.234-6.724-10.06zm9.333 14.642l5.468 8.18-1.846 1.234-5.468-8.18zm32.77 69.832l3.256 11.654-2.138.597-3.256-11.653zm-56.06-103.756l6.724 10.06-1.846 1.234-6.724-10.06zM357.285 209.974l-12.1.096-.018-2.22 12.1-.096zm20.83 3.536l-12-1.546.284-2.202 12 1.546zm20.673 4.952l-11.708-3.057.56-2.148 11.708 3.057zm19.688 7l-11.22-4.533.832-2.058 11.22 4.533zm-84.25-15.304l-12.1.096-.018-2.22 12.1-.096zm-23.78.46l-11.896 2.214-.406-2.183 11.895-2.214zm-23.2 3.6l-11.4 4.056-.744-2.1 11.4-4.056zm-22.636 6.687l-10.963 5.12-.94-2 10.963-5.12zm-21.815 9.61l-9.535 7.45-1.367-1.75 9.535-7.45zm-19.15 13.286l-7.167 9.75-1.8-1.315 7.167-9.75zm-15.557 17.8l-5.2 10.92-2.004-.956 5.2-10.92zm-10.284 20.413l-3.6 11.556-2.12-.66 3.6-11.556zm-6.618 22.612l-.707 12.08-2.216-.13.707-12.08zm-1.126 23.745l.85 12.07-2.214.156-.85-12.07zm2.542 22.958l2.267 11.213-2.176.44-2.267-11.214zm3.318 17.772l3.25 11.655-2.138.596-3.25-11.655z"/><path class="F" d="M206.227 396.338l4.727 11.138-2.044.867-4.727-11.138z"/><path class="H" d="M228.627 439.668l5.164 8.657-1.907 1.137-5.164-8.657zm12.173 18.12l6.66 10.102-1.853 1.222-6.66-10.102zm14.167 19l7.45 9.535-1.75 1.367-7.45-9.535zm520.3-47.902l7.928 9.14-1.677 1.455-7.928-9.14z"/><circle class="B" cx="226.78" cy="436.62" r="2.1"/><path class="B" d="M225.52 435.264l-1.562-2.336.673-.45 1.562 2.336z"/><path class="C" d="M212.36 385.16l15.45 28.57c1.2 2.24.38 5.04-1.86 6.25l-10.78 5.83c-2.24 1.2-5.04.38-6.25-1.86l-15.45-28.57c-1.2-2.24-.38-5.04 1.86-6.25l10.78-5.83c2.24-1.22 5.04-.38 6.25 1.86z"/><path class="D" d="M210.44 390.9l6.4 11.84c.92 1.7.3 3.8-1.4 4.73l-5.5 2.97c-1.7.92-3.8.3-4.73-1.4l-6.4-11.84c-.92-1.7-.3-3.8 1.4-4.73l5.5-2.97c1.7-.92 3.8-.3 4.73 1.4z"/><path class="E" d="M221.05 386.77l44.35-22.42c2.27-1.15 5.05-.24 6.2 2.04l5.83 11.54c1.15 2.27.24 5.05-2.04 6.2l-44.35 22.42c-2.27 1.15-5.05.24-6.2-2.04L219 392.97c-1.15-2.28-.24-5.06 2.04-6.2zm15.47 39.96l-24.58 12.17s3.2-23.6 24.58-12.17z"/><path class="F" d="M274.76 372.64l-.57-1.12-52.7 26.37.57 1.12z"/><path class="F" d="M228.08 383.2l10.8 19.37-.96.5-10.8-19.37zm10.2-5.14l10.8 19.37-.95.48-10.8-19.37zm10.42-5.28l10.8 19.37-.96.48-10.8-19.37zm9.56-4.82l10.8 19.37-.96.48-10.8-19.37z"/><path class="E" d="M145.75 424.58l43.48-24.07c2.23-1.23 5.04-.43 6.27 1.8l6.26 11.3c1.23 2.23.43 5.04-1.8 6.27l-43.48 24.07c-2.23 1.23-5.04.43-6.27-1.8l-6.26-11.3c-1.24-2.23-.43-5.03 1.8-6.27z"/><path class="F" d="M198.9 408.45l-.6-1.1-51.66 28.33.6 1.1z"/><path class="F" d="M152.64 420.77l11.5 18.95-.94.52-11.5-18.95zm10-5.54l11.52 18.95-.94.52-11.52-18.95zm10.23-5.66l11.5 18.95-.94.52-11.5-18.95zm9.35-5.17l11.52 18.95-.94.52-11.52-18.95z"/><circle class="B" cx="863.52" cy="246.43" r="2.81"/><path class="B" d="M865.958 246.97l3.495 1.412-.408 1.01-3.496-1.412z"/><path class="C" d="M919.68 293.3l-41.44-21.44a4.62 4.62 0 0 1-1.98-6.22l9-17.37a4.62 4.62 0 0 1 6.22-1.98l41.44 21.44a4.62 4.62 0 0 1 1.98 6.22l-9 17.37c-1.17 2.27-3.96 3.15-6.22 1.98z"/><path class="D" d="M916.15 284.8l-16.13-8.34a4.62 4.62 0 0 1-1.98-6.22l3.9-7.54a4.62 4.62 0 0 1 6.22-1.98l16.13 8.34a4.62 4.62 0 0 1 1.98 6.22l-3.9 7.54c-1.17 2.27-3.96 3.16-6.22 1.98z"/><path class="E" d="M908.2 295.97l-33.74 61c-1.23 2.23-4.04 3.04-6.27 1.8l-17.9-9.9c-2.23-1.23-3.04-4.04-1.8-6.27l33.74-61c1.23-2.23 4.04-3.04 6.27-1.8l17.9 9.9c2.23 1.23 3.04 4.04 1.8 6.27zm-48-31.23l18.06-32.02c-.01.01 14.23 28.55-18.06 32.02z"/><path class="F" d="M858.6 353.48l1.47.8 38.48-68.93-1.47-.82z"/><path class="F" d="M902.35 306.57l-26.56-13.3.7-1.26 26.56 13.32z"/><use xlink:href="#N" class="F"/><use xlink:href="#N" x="-7.58" y="13.73" class="F"/><use xlink:href="#N" x="-14.52" y="26.26" class="F"/><path class="E" d="M963.06 197.28l-31.42 62.24a4.62 4.62 0 0 1-6.2 2.04l-18.27-9.22a4.62 4.62 0 0 1-2.04-6.2l31.42-62.24a4.62 4.62 0 0 1 6.2-2.04l18.27 9.22c2.27 1.15 3.2 3.93 2.04 6.2z"/><path class="F" d="M915.65 256.62l1.5.75 35.87-70.33-1.5-.76z"/><path class="F" d="M957.6 208.1l-27.04-12.3.65-1.28 27.04 12.3zm-6.9 13.66l-27.04-12.3.64-1.28 27.05 12.3zm-7.07 14l-27.04-12.3.65-1.28 27.04 12.3zm-6.45 12.8l-27.05-12.3.65-1.28 27.04 12.3z"/><image width="1070" height="1069" xlink:href="1928D4D4.png" transform="matrix(.24 0 0 .24 2.64 15.36)" overflow="visible" opacity=".17"/><linearGradient id="B" gradientUnits="userSpaceOnUse" x1="51.013" y1="143.604" x2="211.08" y2="143.604"><stop offset="0" stop-color="#5F3189"/><stop offset="1" stop-color="#A14C97"/></linearGradient><path d="M211.08 143.6c0 11.24-2.32 21.95-6.5 31.66a80.89 80.89 0 0 1-8.76 15.37c-12.36 17-31.24 28.93-52.98 32.13-3.84.58-7.78.87-11.8.87-44.2 0-80.03-35.84-80.03-80.04 0-14.18 3.7-27.5 10.17-39.06 13.7-24.45 39.84-40.98 69.86-40.98 44.2.02 80.04 35.85 80.04 80.05z" fill="url(#B)"/><path d="M778.23 465c0 53.9-16.78 103.9-45.4 145.04-45.93 66.03-122.36 109.25-208.9 109.25-140.44 0-254.3-113.85-254.3-254.3s113.85-254.28 254.3-254.28S778.23 324.57 778.23 465z" fill="#0044ed"/><linearGradient id="C" gradientUnits="userSpaceOnUse" x1="437.433" y1="687.606" x2="618.106" y2="687.606"><stop offset="0" stop-color="#5F3189"/><stop offset="1" stop-color="#A14C97"/></linearGradient><path d="M439.4 693.35s88.2 36.75 178.72-5.05c0 0-14.7-8.27-22.97-6.9s-20.67 2.76-21.13 7.8-3.22-5.05-16.54-1.38l4.6-6.6s-9.65-4.9-10.1-3.06-8.27 17.46-10.1 17-13.78-6.43-22.5-5.5 11.5-12.86 18.84-15.62c0 0-7.96-13.17-10.1-1.68 0 0-34.28 4.38-35.15 2.43-.86-1.95-1.38-7.87-2.12-7.87-.75 0-8.1 3.56-10.4 8.1s-22.74 3.27-22.86 2.8c-.1-.46 0-5.74-1.72-4.36s-5.7 7.75-7.87 7.64-10.68-1.1-10.5 1.15c.17 2.22-.52 11 1.95 11.07z" fill="url(#C)"/><linearGradient id="D" gradientUnits="userSpaceOnUse" x1="348.367" y1="268.08" x2="494.608" y2="268.08"><stop offset="0" stop-color="#5F3189"/><stop offset="1" stop-color="#A14C97"/></linearGradient><path d="M348.55 308.45c4.56-5.07 35.2-51.08 121.83-80.66 9.7-2.78 23.35-1.48 24.18 2.75.83 4.24-7.92 7-8.14 7.9s.38 6.65-8.07 9.82c-1.06 3.92-.44 13.4-6.6 14.68s-11.58-3.54-6.27-6.47 1.77-7.7-1.53-7.1-15.85 4.94-12.58 9.55c3.26 4.6 2.74 10.16-5.47 8.26s-9.18-10.6-22.38-.8c-3.42 5.14-8.27 8.7-12.88 7.87s-18.8 13.63-25.98 14.83-3.95 11.64-9.84 16.24c-5.64 4.4-28.72 5.86-26.26 3.13z" fill="url(#D)"/><linearGradient id="E" gradientUnits="userSpaceOnUse" x1="479.562" y1="417.753" x2="751.571" y2="417.753"><stop offset="0" stop-color="#5F3189"/><stop offset="1" stop-color="#A14C97"/></linearGradient><path d="M487.17 261.8s6.74-12.86 10.72-15.62.92-12.56 7.96-12.25 21.44 11.95 33.4 5.2-11.64-10.1-11.64-10.1l3.68-4.9s160.1 0 220.3 160.38c0 0-12.4-8.96-13.44-17.7-1.03-8.73-13.32-8.15-13.2-6.66s2.07 6.9 2.87 7c.8.1-.8 10.8.57 12.3 1.38 1.5 10.57 17-8.5 27s-8.6-8.6-27.57-13.2c0 0 0-27.22-18.5-23.9 0 0 .1 17.7 1.38 17.46s4.6-1.5 6.2.1c1.6 1.6 10.57 21.32 10.45 22.43-.1 1.1 6.32-.84 7.7 1s-3.22 8.38-1.03 9.42c2.18 1.03 8.27 7.12 21.6 0s1.6 27.68-.57 27.8.23 13.1-.1 14.24-12.52 9.65-12.52 16.42c0 6.78-1.03 10.45-5.05 12.86s1.38 26.88.8 28.14c-.57 1.26-8.96 10-8.27 10.22s5.86 4.6 5.63 6.55c-.23 1.95-13.9 10.1-13.9 15.74s-8.8 1.95-8.88 3.7c-.08 1.76 2.14 17.84-21.6 31.93 0 0 7.04 4.75-7.2 9.95-14.24 5.2-14.24 15.3-18.68 13.94-4.44-1.38-8.12-1.23-9.34-6.43-1.23-5.2-7.96-13.32-7.8-16.08s3.06-27.1-15.77-32.16c0 0 6.6-12.56 5.05-19.76 0 0 11.18-4.6 11.18-8.12s6.18-8.35-17.24-36.6c0 0-.22-28.03 1.16-34.23s-15.16-7.58-18.84-2.3-7.12-12.4-9.65-12.17-36.3 13.32-46.4 10.57c-10.1-2.76-17.7 1.6-17.92-3.68-.23-5.28-6.43-15.4-10.1-14.7s1.38-15.72-9.65-17.85.23-8.33 0-9.25 0-5.74 5.74-6.9-8.73-19.53-7.58-22.97c1.15-3.45 20-21.36 20.44-22.97.46-1.6 3.45-13.55 16.08-12.63s15.62-13.78 17.7-13.78 38.25-3.24 40.9-3.68c2.1-.34-1.15 15.4 1.38 15.4s85.22-.23 85-4.82 2.53-40.9-26.88-47.32c-9.88 6.66-9.2 3.22-11.5 9.2s-7.84-.92-10.12-.92-5.16 14.47-4.12 16.2c1.03 1.72-4.6.23-4.7-1.26-.1-1.5-14.24-18.72-35.26-8.5s-43.65 11.37-43.88 9.53 13.55-13.78 28.37-15.5c14.82-1.72-5.86-4.94-7-6.2s2.53-12.17-10.22-12.63-13.55-3-13.78-15.05-23.05 4.36-24.45 2.76c-1.4-1.62-14.48-.54-13.33-4.64z" fill="url(#E)"/><linearGradient id="F" gradientUnits="userSpaceOnUse" x1="283.139" y1="375.726" x2="424.38" y2="375.726"><stop offset="0" stop-color="#5F3189"/><stop offset="1" stop-color="#A14C97"/></linearGradient><path d="M283.16 437.83c-.85-1.68 26.7-100.3 60.55-125.43 0 0 12.75 12.02 15.5 11.33s13.04 4.45 13.04 4.45.05-4.5 4.2 0c4.13 4.5 19.3 8.65 20.67 10.7s-11.72 4.82-8.27 8.27 5.72 14.16 8.37 13.63 5.36-7.05 16.07 0 11.1 22.42 11.1 22.42-33.46 5.96-34.15 9.42-11.82 1.58-17.97 5.28-26.3.62-25.88 6.64-13.4.96-18.2 2.8-8.58 5.5-8.76 6.77-11.9 3.94-11.2 8.12-5.5 14.4-5.5 14.4-7.5-.6-8.73 0-5.48 3.05-6.55 2.27c-1.08-.78-4.27-1.07-4.27-1.07z" fill="url(#F)"/><linearGradient id="G" gradientUnits="userSpaceOnUse" x1="281.091" y1="532.727" x2="394.125" y2="532.727"><stop offset="0" stop-color="#5F3189"/><stop offset="1" stop-color="#A14C97"/></linearGradient><path d="M282.52 442.45c-6.14 55.26 5.6 125.8 71.63 195.57 0 0 13.33 5.55 13.33 0s0-.73-2.76-8.3-18.6-19.8-13.1-26.1c5.5-6.3 1.38-16.13 4.13-19.83 2.76-3.7-.7-9.9 1.38-16.1s-3.45-4.37 1.38-10.45c4.82-6.1-3.45-10.2 4.82-19.85s7-9.23 9.7-17.03 2.02-14.7 7.53-16.76 17.23-20.53 12.4-31.3c-4.82-10.75-9.55-22.47-19.94-21.78s-13.83-6.74-17.28-11.64-3.74-3.5-12.9-7.65c-9.16-4.14 1.18-6.35-12.6-6.28s-12.4 5.48-19.3 5.53c-6.9.05-6.2-.62-14.47.75-8.24 1.38-11.2-10.47-13.96 11.2z" fill="url(#G)"/><linearGradient id="H" gradientUnits="userSpaceOnUse" x1="51.013" y1="163.656" x2="153.004" y2="163.656"><stop offset="0" stop-color="#5F3189"/><stop offset="1" stop-color="#A14C97"/></linearGradient><path d="M153 183.7c0 14.2-3.7 27.52-10.17 39.07-3.84.58-7.78.87-11.8.87-44.2 0-80.03-35.84-80.03-80.04 0-14.18 3.7-27.5 10.17-39.06a79.14 79.14 0 0 1 11.79-.87c44.2 0 80.03 35.83 80.03 80.03z" fill="url(#H)"/><linearGradient id="I" gradientUnits="userSpaceOnUse" x1="88.784" y1="173.109" x2="102.008" y2="173.109"><stop offset="0" stop-color="#5F3189"/><stop offset="1" stop-color="#A14C97"/></linearGradient><circle cx="95.4" cy="173.11" r="6.61" fill="url(#I)"/><linearGradient id="J" gradientUnits="userSpaceOnUse" x1="86.799" y1="110.973" x2="107.91" y2="110.973"><stop offset="0" stop-color="#5F3189"/><stop offset="1" stop-color="#A14C97"/></linearGradient><circle cx="97.35" cy="110.97" r="10.56" fill="url(#J)"/><linearGradient id="K" gradientUnits="userSpaceOnUse" x1="189.728" y1="181.87" x2="204.573" y2="181.87"><stop offset="0" stop-color="#5F3189"/><stop offset="1" stop-color="#A14C97"/></linearGradient><path d="M204.57 175.26a80.89 80.89 0 0 1-8.76 15.37c-3.55-1.2-6.1-4.57-6.1-8.52 0-4.98 4.03-9 9-9 2.23.01 4.27.82 5.84 2.16z" fill="url(#K)"/><path d="M524.55 173.82l-.17 3.33s.1 1-2.12 1.12c-2.03.12-2.03-1.43-2.03-1.43l.13-5.08 4.2 2.06z" fill="#ddbca6"/><path d="M520.87 155.24c-4.57.86-3.6 5.5-3.6 5.5l.2 3.75c-.37-.5-1-.72-1.63-.44-1.35.58-.35 4.84 1.7 4.47.1 1.2.2 2.12.36 2.44.58 1.2 3.12 3.06 5.37 3.35s5.08-1.2 5.08-3.87l.03-9.78s.5-6.95-7.52-5.43z" fill="#f7ceb1"/><path class="W" d="M523.34 162l-1.2.76c-.26.15-.4.24-.48.24-.08.01-.07-.1-.24-.27-.18-.2-.5-.33-1.23-.46-.36-.6-.32-1.2.04-1.67.35-.46.94-.7 1.45-.7.52.01.95.22 1.25.57.3.34.5.8.4 1.52zm2.36-.06c-.17-.67-.03-1.13.23-1.5.27-.34.73-.56 1.27-.52.55.02 1.14.4 1.33.9.22.5.1 1.02-.35 1.52-.7.06-1.05.16-1.23.33-.17.16-.06.33-.01.33s.01-.12-.18-.3c-.18-.18-.5-.4-1.06-.78z"/><path class="X" d="M523.77 163.3l.24 1 .17 1a14.86 14.86 0 0 1 .15 2.01v.48l-.33-.16c-.2-.1-.37-.2-.55-.38.22-.1.44-.15.64-.18l-.33.32a8.2 8.2 0 0 1-.33-2.03c-.01-.68.04-1.4.34-2.06zm-2.87 6.33l2.43.36a15.59 15.59 0 0 0 2.4.16 2.79 2.79 0 0 1-1.2.54c-.44.08-.88.08-1.32.03-.85-.14-1.68-.47-2.32-1.1zm-4.28-5.1s-1.84.68-.2 2.97.2-2.97.2-2.97z"/><ellipse class="Y" cx="521.12" cy="164.01" rx=".61" ry="1.02"/><ellipse class="Y" cx="525.99" cy="163.87" rx=".61" ry="1.02"/><path d="M503.42 250.8c0 .87 8.28 1.58 18.5 1.58s18.5-.7 18.5-1.58-8.28-1.58-18.5-1.58-18.5.7-18.5 1.58z" opacity=".1" fill="#161211"/><path class="a" d="M516.9 242.37l-.92 5.56h-2.16l.72-6.05z"/><path class="b" d="M513.17 245.3s-1.23 1.6-3.1 2.16-3.56 1.28-3.42 2.4c0 0 2.78 1.36 7.3-.15v.48l2.96-.13v-3.93l-2.46.17.18-.4-1.45-.6z"/><path class="c" d="M511.98 249.76c-4.04 1.04-5.07-.1-5.3-.2a.58.58 0 0 0-.02.29s2.78 1.36 7.3-.15v.48l2.96-.13v-.78c-1.05.05-1.94-.3-4.92.48z"/><use xlink:href="#O" class="c"/><use xlink:href="#O" x="-0.68" y="0.3" class="c"/><path class="c" d="M512.22 248.2c-.04 0-.08-.02-.1-.06-.6-.9-1.3-1.16-1.3-1.16-.07-.02-.1-.1-.08-.17s.1-.1.17-.08c.03.01.77.28 1.42 1.26.04.06.02.14-.04.18-.02.02-.04.03-.07.03z"/><path class="a" d="M526.98 242.37l.92 5.56h2.16l-.72-6.05z"/><path class="b" d="M530.72 245.3s1.23 1.6 3.1 2.16 3.76 1.28 3.62 2.4c0 0-3 1.36-7.5-.15v.48l-2.96-.13v-3.93l2.46.17-.18-.4 1.46-.6z"/><path class="c" d="M532.52 249.96c2.84.45 4.66-.32 4.9-.4a.58.58 0 0 1 .02.29s-3 1.36-7.5-.15v.48l-2.96-.13v-1c1.06.07 2.8.48 5.54.9zm-2.22-2.36a.11.11 0 0 0 .1-.06c.6-.9 1.3-1.16 1.3-1.16.07-.02.1-.1.08-.17s-.1-.1-.17-.08c-.03.01-.77.28-1.42 1.26a.13.13 0 0 0 .04.18c.02.02.04.03.07.03z"/><use xlink:href="#P" class="c"/><use xlink:href="#P" x="0.68" y="0.3" class="c"/><path d="M522.23 198.4c-1.8-.07-4.8-.43-4.8-.43l-2.25 26.83-2.25 19.65s1.1 1.5 5.2.82l3.07-19.24 2.46-18.3H525l1.16 37.53s1.77 1.36 5.05.14l-.4-48.2c-.87.34-4 1.4-8.58 1.2z" fill="#242a32"/><path class="e" d="M528.84 198.8c1.1-.27 1.64-.63 1.65-.63.32-.12.28.23.32.6.05.5-.03.76-.32.86-.05.02-.3.32-1.4.62l-.24-1.46zm-7.92.43c1.23.13 2.57.15 4.03.1a18.79 18.79 0 0 0 2.98-.33c-.03.5.03 1 .1 1.5-.86.18-1.9.32-3.06.36l-1.4.01-2.83-.2a8.18 8.18 0 0 0 .17-1.47zm-3.6-.13c.06-.37.1-.7.43-.58.72.27 1.5.47 2.37.6l-.16 1.45c-.9-.16-1.7-.38-2.5-.7-.22-.1-.2-.4-.15-.77z"/><path class="F" d="M522.94 199.12l-.04 1.97 2.86-.17.03-1.83-2.85.03zm.48.33l1.9-.02V200.64l-1.9.1.02-1.3z"/><path class="f" d="M532.2 177.24s-.44 13.56-1.32 20.44c0 0-3.36 1.5-8.7 1.3-3.78-.15-4.87-.96-4.87-.96l-5.42-22.3s2.72-1.32 8.48-1.3c0 0-.01-.18 1.3.5 1 .53 1.34 4.15 1.34 4.15s.2-3.64.76-3.94c.87-.46.7-.36 1.43-.55 2.17.15 4.43.8 6.96 1.23l.06 1.44z"/><path class="g" d="M526.75 174.4l-1.4 3.1-1.58-2.4 2.5-1.65zm-8.15-.07l1.88 3.04 1.33-2.46-2.76-1.8z"/><path class="h" d="M549.03 168.1s.22-5.84.7-5.84c.5 0 .65 1.35.6 2.32s3.73-1.68 3.13.54c0 0 1.13.16.27 1.46 0 0 1.08.8-.16 1.4 0 0 1.08.54-.54 1.2s-2.5 1.35-2.5 1.35l-1.5-2.43zm-43.86 24.5s4.1 8.44 9.9 10.47l.25-2.78s-3.14-2.66-5.85-7.4c-2.7-4.74-4.3-.3-4.3-.3z"/><path class="h" d="M513.88 202.5s3.2 2.73 2.42-2.92c0 0 4.2-.88.43-1.2 0 0 4.14-1.64-.3-.84 0 0 3.3-3.74-1.57-.05 0 0-.97.85-.75 3.33l-.24 1.67z"/><path class="f" d="M511.9 175.7l-8.2 16.88s4.57 7.07 7.94 8.87l2.15-3.2s-3.8-4.9-4.66-6.9l5.1-7.57-2.3-8.08zm18.14 6.3l11.3 1.6 10.2-12.8-2.9-2.53s-7.94 8.2-9.7 9.48l-7.2-2.02-1.7 6.27z"/><path class="W" d="M515.3 159.76s-2.85-1.73-1.73-3.15c.6-.77 1.06-.52 1.35-.13-.25-.67-.38-1.6.52-1.97.7-.3 1.1-.02 1.35.35-.15-.77-.1-1.75 1.1-2.08 1.6-.44 1.9 1.1 1.98 1.76-.01-.7.12-2.46 1.67-2.7 1.3-.2 1.45.87 1.4 1.62.3-.93 1.27-2.27 2.54-1.84 1.65.56.5 2.33.5 2.33.83-.94 2.33-1 2.93-.08.6.94-.64 1.92-.64 1.92s2.25.08 1.84 2.6c-.4 2.52-3.87.1-3.87.1.26.7.23 1.28-.56 1.46-.8.2-1.16-1.2-1.16-1.2s.2 1.1-1.16 1.4-1.43-.94-1.43-.94c-.55 1.22-1.5.9-1.95.63-.5 1.86-1.9 2.44-1.9 2.44v4.77l-.55-.08-.4-2.1s-.3-.5-.85-.58c-.46-.03-1.15-.16-1.3-.73-.16-.63.3-1.15.58-1.4-.01-.03-.01-.06-.02-.08-1.3.33-2.33-.97-1.8-1.94.53-1 1.55-.37 1.55-.37z"/><g fill-rule="evenodd"><path d="M526.3 180.57c.07-.16.18-.3.3-.44.28-.3.62-.48 1.02-.55.56-.1 1.07.04 1.5.42.03.02.03.04 0 .07l-.46.46c-.02.02-.03.03-.05.01-.38-.35-1-.35-1.42.03a1.15 1.15 0 0 0-.3.46c-.01-.01-.02-.01-.03-.02l-.56-.44z" fill="#d7282b"/><path d="M526.88 181.75c.05.14.12.27.22.38a1.07 1.07 0 0 0 .96.37c.18-.02.34-.08.5-.17l.04.04.53.42c-.2.2-.43.3-.7.38-.6.16-1.18.06-1.68-.34a1.72 1.72 0 0 1-.49-.61l.62-.47z" fill="#46ac44"/><path d="M529.14 182.8l-.53-.42c-.02-.01-.03-.03-.04-.04.12-.1.22-.2.3-.34.03-.05.04-.1.06-.17.01-.04.01-.06-.04-.06h-.9c-.06 0-.06 0-.06-.06v-.6c0-.04.01-.05.05-.05h1.64c.03 0 .05 0 .05.04.07.48.01.93-.24 1.35a1.64 1.64 0 0 1-.29.35z" fill="#5d7fbe"/><path d="M526.88 181.75l-.6.47c-.1-.18-.15-.38-.18-.58-.05-.35 0-.7.15-1 .01-.02.02-.03.03-.05l.57.44c.01.01.02.01.03.02-.07.23-.07.47 0 .7z" fill="#f3c300"/></g><image width="1326" height="1326" xlink:href="1928D4D2.png" transform="matrix(.24 0 0 .24 -27.360001 -15.6)" overflow="visible" opacity=".05"/><defs ><path id="M" d="M796.37 602.59l-13.535 7.494-1.448-2.616 13.535-7.494z"/><path id="N" d="M894.94 319.97l-26.56-13.32.7-1.26 26.56 13.32z"/><path id="O" d="M513.58 247.6c-.04 0-.08-.02-.1-.06-.6-.9-1.3-1.16-1.3-1.16-.07-.02-.1-.1-.08-.17s.1-.1.17-.08c.03.01.77.28 1.42 1.26.04.06.02.14-.04.18-.02.02-.05.03-.07.03z"/><path id="P" d="M530.98 247.9c.04 0 .08-.02.1-.06.6-.9 1.3-1.16 1.3-1.16.07-.02.1-.1.08-.17s-.1-.1-.17-.08c-.03.01-.77.28-1.42 1.26-.04.06-.02.14.04.18.02.02.05.03.07.03z"/></defs></svg>