<svg xmlns="http://www.w3.org/2000/svg" viewBox="0 0 849.98 599.97"><style><![CDATA[.A{fill:#A9A9A9}.B{fill:#E5E4E4}]]></style><path class="A" d="M231.06 285.24s2 1.23 1.34 1.62c-8.22 4.78-66.76 35.76-85.16 28.87l83.82-30.5zm21.36-7.94s56.6-35.12 49.76-45.7l-55.84 44 6.08 1.7zm207.48 37.46s58.54-64.47 52.97-78.9-59.16 76.45-59.16 76.45l6.2 2.45z"/><path class="B" d="M517.43 370.95c-13.94 18.77-112.1 10.58-112.1 10.58S122.46 482.6 117.64 474.4s211.14-103.42 211.14-103.42l-32.23-10.1c-21.16 8.17-47.62.48-50.03-7.64-2.04-6.9 14.72-13.24 19.76-15l1.4-.46c-1.9-1.94.5-8.17.5-8.17l-37.2-44.33-9.6-11.77c-11.54-14.27-20.22-25.67-18.66-25.67 4.34 0 16.83 3.37 16.83 3.37l17.6 14.13 12.83 10.17c23.4 18.35 52.27 40.13 55.64 38.72 5.78-2.4 102.95-5.76 102.95-5.76s91.9-86.12 102.95-76.02c11.06 10.1-56.3 79.87-56.3 79.87s2.9 1.54 7.5 4.14a341.71 341.71 0 0 1 24.84 15.43c18.87 12.78 37.38 28.98 29.88 39.05z"/><path class="B" d="M221.4 273.47s-86 40.02-72.77 42.16 82.42-30.4 82.42-30.4l19.1-9.75s55.35-37.98 52.06-43.9c-3.3-5.9-64.96 33.72-64.96 33.72l-15.85 8.15z"/><path d="M487.7 331.86c-.44 3.5-9.6 11.6-9.6 11.6s-65.65 21.88-67.8 5.83 31.74-24.04 39.13-25.58c6.36-1.32 11.98-6 13.44-7.3 6.26 3.58 15.58 9.06 24.84 15.46z"/><ellipse transform="matrix(.0828 -.9966 .9966 .0828 -61.956001 619.303772)" cx="305.47" cy="343.31" rx="7.74" ry="3.33"/><ellipse transform="matrix(.0828 -.9966 .9966 .0828 -52.134201 635.087524)" cx="318.95" cy="345.87" rx="7.74" ry="3.33"/><ellipse transform="matrix(.0828 -.9966 .9966 .0828 -41.433498 651.118774)" cx="333.01" cy="348.07" rx="7.74" ry="3.33"/><ellipse transform="matrix(.0828 -.9966 .9966 .0828 -31.0797 666.462219)" cx="346.53" cy="350.12" rx="7.74" ry="3.33"/><ellipse transform="matrix(.0828 -.9966 .9966 .0828 -20.4186 682.50293)" cx="360.57" cy="352.34" rx="7.74" ry="3.33"/><ellipse transform="matrix(.0828 -.9966 .9966 .0828 -9.0252 697.146301)" cx="374.22" cy="353.48" rx="7.74" ry="3.33"/><path class="A" d="M120.02 474.88s80.85-5.95 186.9-49 99.85-44.33 99.85-44.33l-286.76 93.32z"/><path d="M418.68 377.56s83.27 5.46 94.57-8.3c11.3-13.76-94.57 8.3-94.57 8.3z" fill="#cfcccc"/></svg>