<svg xmlns="http://www.w3.org/2000/svg" viewBox="0 0 2000 2000"><style><![CDATA[.A{fill:#fff}.B{fill:#020304}.E{fill:none;stroke:#020304;stroke-miterlimit:10}.F{fill:none;stroke:#676766;stroke-miterlimit:10}.G{fill:none;stroke:#676766;stroke-width:0.5;stroke-miterlimit:10}.J{fill:#E5C6B7}]]></style><path class="A" d="M1025 966.43c9.78 9.38 0 10.98 0 10.98-17.76 3.58-33.53-26.94-33.53-26.94s1.57-1.1 3.77-2.76c3.5-2.67 8.58-6.8 11.53-10.35.7-.83 1.26-1.64 1.67-2.38-.01-.01 6.78 22.07 16.56 31.45z"/><path class="B" d="M1000 925.6s5.92 9.14 6.78 11.74c-2.95 3.55-8.04 7.68-11.53 10.35H995.24c-.28-1.4-5.84-10.93-5.84-10.93V936.75c2.2-1.4 4.25-3.3 6.03-5.28 1.84-2 3.4-4.12 4.58-5.86z"/><path class="A" d="M1002.5 921.6s-.9 1.68-2.5 4c-1.2 1.74-2.74 3.85-4.57 5.87l-.2-.17C987 918.48 961.52 899 958.87 897c1.45-3.87 2.52-8.34 2.74-13.33.07-1.58.06-3.2-.06-4.9.01 0 25.5 14.23 40.94 42.84z"/><path class="A" d="M995.24 931.3l.2.17c-1.78 1.98-3.83 3.88-6.03 5.28-1.45.94-2.97 1.66-4.52 2.06 0 0-16.84-14.95-37.23-24.75 0 0 .78-.68 2-2a47.46 47.46 0 0 0 9.25-15.08c2.63 2 28.1 21.48 36.35 34.3z"/><path class="B" d="M958.87 897c-2.73 7.28-6.84 12.46-9.25 15.08-3.3-4.67-11.05-7.35-11.05-7.35 4.63-5.2 7.43-10.88 9.1-16.15 1.1-3.54 1.7-6.9 2.02-9.8h.01l11.92 4.9c-.22 5-1.3 9.46-2.74 13.33z"/><path class="A" d="M949.67 868.27s.68 4.3.02 10.5c-.3 2.93-.9 6.28-2.02 9.8l-.03-.01c-24.9-20.3-85.5-37.67-85.5-37.67l-.88-.1c.75-7 1.3-14.18 1.2-19.77-.03-1.92-.13-3.65-.32-5.13-.01 0 63.65 14.7 87.53 42.38zm-72.43-24.35c.15-3.34-2.45-6.17-5.8-6.32a6.06 6.06 0 0 0-6.33 5.78c-.15 3.35 2.44 6.18 5.8 6.33 3.34.15 6.17-2.44 6.33-5.8z"/><path class="A" d="M947.64 888.57l.03.01c-1.66 5.27-4.46 10.94-9.1 16.15-1.88 2.13-4.07 4.17-6.62 6.1 0 0-45.07-24.67-74.17-34.63l1.76-11.64c.57-4.07 1.2-8.86 1.7-13.75l.88.1s60.6 17.36 85.5 37.67zM893.94 999s-4.42 13.38-7.35 25.3c-2.1 8.52 3.1 18.3-7.8 14.4-16.78-6-9.12-39.7-9.12-39.7 1.15-.45 2.5-.76 4-.97 5.43-.75 12.5-.1 16.7.44a79.92 79.92 0 0 1 3.6.529z"/><path class="B" d="M889.82 983.37l.62 14.48-.1.63c-4.2-.54-11.27-1.2-16.7-.44l-.02-.2-.7-11.53c3.8-.07 7.52-.67 10.8-1.45 2.24-.53 4.3-1.15 6.02-1.73l.08.23z"/><path class="A" d="M895.67 980.77s-2.3 1.13-5.93 2.36l-6.02 1.73-.1-.5c-.4-16.63-12.73-39.96-12.73-39.96l-.22-.44c2.55-1.3 5.28-3 8.08-5.16 1.48-1.14 3-2.4 4.5-3.84 0 0 11.36 16.66 12.44 45.8z"/><path class="A" d="M872.92 986.3c-2.03.04-4.1-.07-6.14-.38 0 0-1.6-24.5-10.9-37.37 0 0 1.8-.07 4.77-.8 2.6-.64 6.08-1.77 10.02-3.8l.22.44s12.32 23.33 12.73 39.96l.1.5c-3.3.8-7 1.4-10.8 1.45z"/><path class="B" d="M872.92 920.28s6.43 14.74 5.83 18.53c-2.8 2.16-5.53 3.85-8.08 5.16-3.94 2.03-7.42 3.16-10.02 3.8-.03-2.8-6.2-15.7-6.42-16.13 2.95-1.28 6.93-3.18 10.9-5.62 2.72-1.67 5.44-3.6 7.8-5.74z"/><path class="A" d="M871.45 837.6c3.34.15 5.94 2.98 5.8 6.32-.16 3.35-3 5.94-6.33 5.8a6.08 6.08 0 0 1-5.8-6.33 6.06 6.06 0 0 1 6.33-5.78zm6.65 76.46c-1.28 2.23-3.1 4.3-5.2 6.22-2.35 2.15-5.06 4.06-7.8 5.74l-.24-.4c-8.14-15.3-35.3-45.83-35.3-45.83l-.03-.4 14.6-1.05.01-.02c.06-.24.85-3.3 1.82-8.57 0 0 27.16 33.55 32.13 44.32z"/><path class="A" d="M854.23 931.64l-4.68 1.87c-5-9.08-10.8-16.8-16.63-23.28.42-.55.73-1.04.9-1.44 1.32-3.13-17.25-17.6-29.5-26.72l18.05-2.05 7.17-.65.03.4s27.17 30.54 35.3 45.83l.24.4c-3.97 2.45-7.95 4.35-10.9 5.63z"/><path class="B" d="M862.46 831.02c.1 5.6-.45 12.78-1.2 19.77-.52 4.9-1.14 9.68-1.7 13.75-3.93-1-12.3-.05-12.68 0a233.29 233.29 0 0 0 2.1-18.6c.33-4.63.55-9.64.58-14.93h12.9z"/><path class="A" d="M849.54 831.02a221.44 221.44 0 0 1-.58 14.93c-27.82-9.34-99.3-5.17-99.3-5.17v.01c-9.87-3.43-23.2-3.44-41.2 2.87-19.9 2.07-105.44 33.6-105.44 33.6-3.47-13-4.96-25.4-5.6-33.65-.48-6.2-.48-10.08-.48-10.08L673 801.5c131.12-3.5 175.65 8.5 175.65 8.5.67 7.35.92 14.4.88 21zm-8.2 100.61c7.1 6.7 7.25 36.78 7.25 36.78-1.7-.15-3.63-.18-5.62-.14-1.77.03-3.58.13-5.33.25l-.03-.5c-.52-10.43-7.1-30.22-7.1-30.22l-.2-.44c3.4-1.38 6.42-3 8.43-4.16 1.62-.92 2.6-1.57 2.6-1.57z"/><path class="A" d="M846.87 864.55l-.88 5.2-1.82 8.57-.01.02c-1.66-.33-11.55.6-21.77 1.7h-.04l-18.08 2-10.3-7.5-16.93 4.6c-1.7-10.78-7.53-31.47-27.38-38.34v-.01s71.5-4.17 99.3 5.17c-.53 7.22-1.32 13.53-2.1 18.6zm-55.6-8.34c.15-3.34-2.44-6.17-5.8-6.33-3.34-.15-6.17 2.45-6.32 5.8-.16 3.35 2.44 6.18 5.78 6.33 3.35.14 6.2-2.45 6.33-5.8z"/><path class="A" d="M844.16 878.3l1.82-8.57-1.82 8.57zm-21.78 1.73c10.23-1.1 20.12-2.03 21.77-1.7l-14.6 1.05-7.17.64z"/><path class="B" d="M842.97 968.27s.05 9.95-1.2 13.55c-2.65-.34-6.9-.78-10.83-.64v-.01c1.1-2.22 0-12.03 0-12.03 1.86-.2 4.2-.44 6.7-.62 1.74-.12 3.55-.22 5.33-.25z"/><path class="A" d="M844.4 982.2s-3.6 10.9-5.98 20.6c-1.7 6.92 2.53 14.9-6.35 11.72-13.66-4.9-7.42-32.32-7.42-32.32 1.67-.66 3.92-.95 6.3-1.03 3.92-.15 8.18.3 10.83.64a42.38 42.38 0 0 1 2.62.4zm-6.8-14.17l.03.5-6.7.62-4.1.52c-.27-14.63-9.6-29.67-9.6-29.67 1.5.15 3.07.06 4.67-.2 2.8-.43 5.72-1.36 8.4-2.44l.2.44s6.58 19.8 7.1 30.22z"/><path class="B" d="M828.6 914.7s9.58 15.78 10.17 18.5c-2.02 1.17-5.04 2.78-8.43 4.16-2.68 1.08-5.6 2-8.4 2.44v-.01c-.06-1.96-7.56-12.75-7.86-13.17 3.55-2.73 9.94-7.72 14.52-11.93z"/><path class="A" d="M804.33 882.07c12.24 9.1 30.8 23.58 29.5 26.72-.17.4-.48.9-.9 1.44-17.3-19.17-35.1-27.38-35.1-27.38l.24-.03 6.26-.75z"/><path class="A" d="M814.06 926.63l-2.65 2c-2.96-6.46-15.8-20.24-15.8-20.24-7.92 12.35-14.97 22.75-21.2 31.52a102.31 102.31 0 0 0-1.14-4.94c-.01-.06-.02-.1-.02-.1s5.95-3.65 2.97-10.6c-6-13.94-10.93-26.95-11.63-35.6l13.12-2.87 20.1-2.98s17.8 8.2 35.1 27.38c-.96 1.23-2.5 2.8-4.33 4.47-4.57 4.2-10.96 9.2-14.52 11.93zm.34 81.45s21.05 32.62 10.7 55.42c-4.7 10.34-11.34 13.6-17.2 14.1l-.1-1.67c7.87-44.84-8.08-57.2-8.08-57.2l-.53-.82 15.2-9.8z"/><path class="B" d="M810.44 1010.63l-11.25 7.26-12.14 7.84c-1.18-2.45-8.5-13.6-8.77-14.03 3-1.44 7.02-3.86 12.34-7.9 3.14-2.4 6.75-5.37 10.85-9.04.23.42 5.97 11.5 8.97 15.88z"/><path class="A" d="M799.72 1018.7s15.96 12.37 8.08 57.2l.1 1.67c-7.05.58-12.97-2.87-12.97-2.87 2.63-35.25-10.7-47.18-10.7-47.18l2.8-1.8 12.14-7.84.53.82zm4.54-136.68c.02.02.05.03.07.05l-6.27.75 6.2-.8z"/><path class="A" d="M788.34 949.4c10.7 20.8 20.96 38.07 20.96 38.07a280.29 280.29 0 0 1-7.83 7.28c-4.1 3.68-7.7 6.65-10.85 9.05l-.47-.62c-11.3-14.95-21.2-30.38-29.6-44.73 2.73-3.44 5.68-7.3 8.86-11.63 3.4-.6 5.46-.8 5.64-1.26 9.7-.94 13.28 3.84 13.28 3.84zm15.92-67.38l-6.44.83-20.1 2.98s-.06-2.65-.7-6.7l16.93-4.6c.02 0 4.42 3.13 10.3 7.5z"/><path class="A" d="M785.48 849.88c3.35.16 5.94 3 5.8 6.33a6.07 6.07 0 0 1-6.33 5.79c-3.34-.15-5.94-2.98-5.78-6.33.15-3.34 2.98-5.94 6.32-5.8zm-7.18 161.82c-5.68 2.7-7.63 1.87-7.63 1.87-11.56-11.7-21.6-22.8-30.27-33.13 4.76-4.06 11.32-10.8 20.2-22 8.37 14.35 18.3 29.78 29.6 44.73l.47.62c-5.33 4.05-9.36 6.47-12.35 7.9z"/><path class="B" d="M777.73 885.83l-.05.01-16.83 2.9 2.83-6 13.35-3.62c.64 4.05.7 6.7.7 6.7z"/><path class="B" d="M777.68 885.84l-13.07 2.86c0-.05-.01-.1-.01-.14-.94 0-2.23.1-3.82.3.02-.05.04-.1.07-.14l16.83-2.9z"/><path class="B" d="M777.03 879.12l-13.35 3.62-2.83 6-2.74.52c-.02 0-.04 0-.06.01-6.16.96-15.1 2.82-24.47 4.94l-.43.1c-15.52 3.36-29.98 6.9-42.88 10.33-.13.03-.2.05-.2.05l-6.45 1.72s-43.06-38.96 24.8-62.74c18-6.3 31.33-6.3 41.2-2.87 19.86 6.88 25.7 27.56 27.4 38.34z"/><path class="A" d="M776.24 924.3c3 6.94-2.97 10.6-2.97 10.6-6.3-.76-15.07 1.72-23.06 4.96a553.44 553.44 0 0 1-7.86-15.36c7.55-13.43 14.28-27 18.07-34.88l4.2-.9c.7 8.63 5.62 21.65 11.63 35.6z"/><path class="B" d="M774.43 939.92c.5 2.43.92 4.97.65 5.63l-.9-5.3c.07-.12.15-.22.24-.34z"/><path class="B" d="M774.18 940.26l.9 5.3c-.2.46-2.24.67-5.64 1.26l4.75-6.55zm.25-.34l-.24.34-.9-5.28 1.13 4.94z"/><path class="B" d="M773.3 934.98l.9 5.28-4.75 6.55c-3.35.58-8 1.56-13.48 3.54l-5.74-10.5c7.98-3.23 16.75-5.72 23.06-4.96l.02.1z"/><path class="B" d="M773.3 934.98l-.02-.1a.66.66 0 0 0 .02.09z"/><path class="A" d="M764.6 888.57c0 .05.01.1.01.14l-4.2.9.36-.73c1.6-.22 2.88-.32 3.82-.32zm-8.65 61.78c5.47-1.98 10.13-2.96 13.48-3.54-3.18 4.33-6.13 8.2-8.86 11.63l-4.62-8.1z"/><path class="B" d="M760.85 888.74c-.03.04-.05.1-.07.14l-2.67.38 2.74-.52z"/><path class="A" d="M729.5 896.37l-39.3 8.6-.12-.3s.06-.02.2-.05l43.3-10.42 24.47-4.94c.02-.01.04-.01.06-.01l2.67-.38-.36.73-30.92 6.76z"/><path class="A" d="M729.5 896.37l30.9-6.76c-3.8 7.88-10.52 21.45-18.07 34.88-7.53-15.23-11.95-25.92-12.84-28.12zm26.45 53.98l4.6 8.1c-8.86 11.2-15.43 17.93-20.2 22-7.26-8.62-13.57-16.7-19.02-24.1 6.6-7.56 14.13-19.64 21-31.83 2.32 4.72 4.96 9.88 7.86 15.36-10.77 4.34-20.14 10.02-20.14 10.8 0 1.36 6.37 10.14 6.37 10.14 7.03-5.1 13.73-8.34 19.52-10.44z"/><path class="B" d="M750.2 939.85l5.74 10.5c-5.8 2.1-12.5 5.33-19.5 10.43 0 0-6.37-8.78-6.37-10.14.01-.77 9.37-6.45 20.14-10.8z"/><path class="A" d="M758.05 889.27l-24.47 4.94c9.38-2.12 18.3-3.98 24.47-4.94zm-17.67 91.17c-8.5 7.24-11.26 5.93-11.26 5.93-.82-.5-1.6-1.06-2.36-1.64-5.42-4.16-9.08-9.93-11.3-14.38-1.93-3.85-2.8-6.72-2.8-6.72 2.58-1.07 5.53-3.66 8.7-7.3 5.45 7.43 11.75 15.5 19 24.12zm-10.88-84.07c.9 2.2 5.3 12.9 12.84 28.12-6.86 12.2-14.38 24.27-21 31.83-21.7-29.5-30.07-48.77-31.16-51.35l39.3-8.6z"/><path class="B" d="M733.15 894.3l-42.88 10.33c12.9-3.42 27.36-6.97 42.88-10.33zm-17.7 76.05c2.23 4.45 5.9 10.22 11.3 14.38-3.7 4.52-21.94 9.45-21.94 9.45V973.9c.01 0 5.94-1.17 10.63-3.55z"/><path class="A" d="M704.82 994.18v3.88s-23.87 7.36-36.97 4.5c0 0 5.56-32.5 36.97-33.04v24.67z"/><path class="B" d="M690.2 904.97l-6.5 1.4 6.38-1.7.1.3z"/><path class="A" d="M708.45 843.66c-67.87 23.78-24.8 62.74-24.8 62.74-33.27 9.06-54.67 16.72-54.67 16.72-3.2-2.6-6.1-5.6-8.7-8.85-8.44-10.6-13.83-24.08-17.27-37 .01-.01 85.54-31.55 105.44-33.62zm-70.08 41.97a6.07 6.07 0 0 0-5.79-6.33 6.07 6.07 0 0 0-6.33 5.79c-.15 3.34 2.45 6.17 5.8 6.32 3.36.15 6.2-2.44 6.33-5.78z"/><path class="A" d="M632.58 879.3a6.07 6.07 0 0 1 5.79 6.33c-.15 3.34-2.98 5.94-6.33 5.78-3.34-.15-5.94-2.98-5.8-6.32a6.07 6.07 0 0 1 6.33-5.79z"/><path class="B" d="M620.28 914.27c-12.45 4.75-24.6 14.37-24.6 14.37a216.55 216.55 0 0 1-14.32-37.22c-3.63-12.95-6.4-27.8-6.55-43.26 0 0 12.4-4.2 22.13-4.5l.48-.04c.64 8.26 2.13 20.66 5.6 33.65 3.43 12.9 8.82 26.4 17.26 37z"/><path class="A" d="M595.7 928.64l3.8 7.15c-145.5 95.03-292.67 153.25-292.67 153.25v-45.18s49.68-22.5 100.53-56.13c0 0 3.6-15.84-1.94-25.85 0 0-.56-1.83-1.54-4.47 0 0 117.6-57.92 177.5-66 4.57 16.28 10.5 29.57 14.32 37.22z"/><path class="A" d="M575.1 838.22l-.27 9.93c.15 15.46 2.92 30.3 6.55 43.26-59.9 8.07-177.5 66-177.5 66-2.47-6.65-7.62-18.4-13.2-18.6l-83.86 37.37v-68.16c26.9-18.5 268.28-69.8 268.28-69.8zM440.6 929.9c.15-3.34-2.45-6.17-5.8-6.32-3.35-.15-6.18 2.44-6.33 5.8-.15 3.34 2.45 6.17 5.8 6.32s6.17-2.44 6.33-5.8zm-19.57 8.92c0-3.35-2.7-6.06-6.06-6.06-3.34 0-6.05 2.7-6.05 6.06 0 3.34 2.7 6.05 6.05 6.05s6.06-2.7 6.06-6.05z"/><path class="A" d="M434.8 923.58c3.34.15 5.94 2.98 5.8 6.32-.16 3.35-3 5.94-6.33 5.8s-5.94-2.98-5.8-6.32a6.08 6.08 0 0 1 6.33-5.8zm-19.84 9.18a6.05 6.05 0 1 1 0 12.11c-3.34 0-6.05-2.7-6.05-6.05s2.7-6.06 6.05-6.06z"/><path d="M405.4 961.88c5.55 10 1.94 25.85 1.94 25.85-50.85 33.62-100.53 56.13-100.53 56.13v-30.3l98.6-51.7z" fill="#323232"/><path d="M405.4 961.88l-98.6 51.68v-37.38l83.86-37.37c5.57.2 10.72 11.94 13.2 18.6 1 2.65 1.54 4.48 1.54 4.48z" fill="#676766"/><path class="E" d="M574.82 848.16s12.4-4.2 22.13-4.5m-1.25 84.98s12.14-9.62 24.6-14.37m-199.27 24.55a6.05 6.049 0 0 1-6.06 6.05c-3.34 0-6.05-2.7-6.05-6.05s2.7-6.06 6.05-6.06a6.05 6.049 0 0 1 6.06 6.06zm19.57-8.92c-.16 3.35-3 5.94-6.33 5.8s-5.94-2.98-5.8-6.32c.15-3.35 2.98-5.94 6.33-5.8a6.09 6.089 0 0 1 5.8 6.32z"/><path class="F" d="M403.86 957.4s117.6-57.92 177.5-66m21.66-14.13s85.53-31.55 105.44-33.6m41.2-2.9s71.5-4.17 99.3 5.17m-93 104.4l4.6 8.1c8.37 14.35 18.3 29.78 29.6 44.73m-60.82-107.22l.17.42c.9 2.2 5.3 12.9 12.84 28.12a581.99 581.99 0 0 0 7.86 15.36"/><path class="G" d="M830.5 937.8s6.58 19.78 7.1 30.22"/><path class="E" d="M938.58 904.73s7.76 2.67 11.05 7.35m.07-33.32l11.9 4.9"/><path class="F" d="M862.13 850.9s60.6 17.37 85.5 37.67m11.02 8.23l.23.18c2.64 2 28.12 21.5 36.37 34.32"/><path class="E" d="M873.63 997.84l-.7-11.56m17.5 11.56l-.62-14.47"/><path d="M1001.7 943.4s15.48 27.4 16.1 31.12" fill="none" stroke="#676766" stroke-width=".75" stroke-miterlimit="10"/><path class="E" d="M638.37 885.63c-.15 3.34-2.98 5.94-6.33 5.78-3.34-.15-5.94-2.98-5.8-6.32a6.07 6.07 0 0 1 6.33-5.79 6.07 6.07 0 0 1 5.79 6.33zm152.9-29.43a6.07 6.069 0 0 1-6.33 5.79c-3.34-.15-5.94-2.98-5.78-6.33.15-3.34 2.98-5.94 6.32-5.8 3.35.16 5.94 3 5.8 6.33zm85.97-12.28c-.16 3.35-3 5.94-6.33 5.8a6.08 6.08 0 0 1-5.8-6.329 6.06 6.06 0 0 1 6.33-5.78 6.09 6.089 0 0 1 5.8 6.32zm-30.38 20.63c.38-.05 8.77-1 12.7 0m-10.6-33.53h13.17M989.4 936.76s5.55 9.52 5.84 10.93m4.76-22.1s5.92 9.14 6.78 11.74m-228.5 74.36c.28.43 7.6 11.6 8.78 14.04m14.42-30.98c.23.42 5.96 11.5 8.96 15.9m3.62-84.03c.3.43 7.8 11.22 7.86 13.18m6.68-25.1s9.58 15.78 10.17 18.5m-7.82 35.94s1.1 9.8 0 12.03m12.02-12.9s.05 9.95-1.2 13.55m12.46-50.2c.2.43 6.4 13.35 6.42 16.14m12.27-27.5s6.43 14.74 5.83 18.53m-173.93 35.1s5.94-1.18 10.63-3.56m-10.63 23.85s18.23-4.93 21.94-9.45"/><path class="F" d="M673.55 992.06s13.36-7.26 28.3-5.6m97.87 32.24s15.96 12.37 8.08 57.2"/><path class="G" d="M834.7 984.63s-7.73 10.74-6.74 18.54m52.1-3.27s-6.85 18.22-4.2 32.17m-4.98-87.67s12.32 23.33 12.73 39.96M829.58 879.8s27.17 30.54 35.3 45.83"/><path d="M1693.2 983.7s-125.32 22.74-168.7 3.8c0 0-71.17-5.05-111.6-25.27 0 0-3.8-5.9-63.16-2.95 0 0-27.8-16-129.7-29.48 0 0-65.27 22.32-89.27 21.9 0 0-47.58 19.37-66.53 18.53 0 0-8.42 17.27 13.05 27.37 0 0 14.27 6.85 59.72-11.96l90.5-5s24.12 8.96 36.75 9.4c12.63.42-53.48 66.1-73.27 75.38 0 0-10.1 70.74-31.16 96.43 0 0 12.63 10.95 31.16-3.8 0 0 16.42-15.58 20.63-27.8l4.63.42s10.1 49.7 10.1 57.27c0 0 19.8 8.42 26.95-16.42s-4.2-53.48-4.2-53.48 8.42-14.74 20.2-21.06c0 0 20.9-1.1 27.9 3.2 0 0 27.9-19.74 64.7-37.98 14.44-1.85 34.86-2.47 50.3-7.37 16.75-5.3 30.76-13.37 50.4-17.8 85.55 12.04 230.56 1.58 230.56 1.58" fill="#fcdbc5"/><path class="J" d="M1693.2 1036.9l-234.67-3.56s-44.04 29.9-110.04 28.25c0 0-35.2 36.85-64.07 35.47 0 0-14.3 20.9-12.1 29.15s11.55 29.42 25.3 47.85c0 0 11.27 2.47 7.97-22.55s11-40.97 11-40.97 22-37.12 33.82-41.8c0 0 40.66 29.24 130.57-15.72 0 0 98.12 63.42 212.22 85.9v-102zm-483.5 91.6s4.37-36.42 16.03-46.14 56.1-26.47 67.26-48.08c0 0-27.2-41.28-26.23-45.65s16.5-5.1 35.45 5.83 26.47 17.24 26.47 17.24l6.56-4.13s1.2 4.13-3.16 8.5-24.04 41.04-51.96 49.05-48.8 27.68-48.8 27.68-11.17 17.48-15.06 35.7c-3.4 2.67-6.55 0-6.55 0z"/><path class="J" d="M1066.2 989.07s44.97 2.36 65.58-11.36c0 0 48.22 6.54 95.38-5.7 0 0 30.53 14.75 49.07 14.05 3.68 1.82-10.63 4.55-10.63 4.55s-18-1.9-38.1-9.96l-90.5 5s-36 17.46-59.05 12.22c-6.97-1.9-11.76-8.82-11.76-8.82z"/><path class="A" d="M1064.17 969.03s12.57-8.9 43.84-7.66c0-.01-7.05 11.18-43.84 7.66zm106.96 166.67s9.34 4.23 6.57 10.36-10.36 17.37-18.83 17.23 12.26-27.6 12.26-27.6zm107.8-68.1s9.48 10.92 11.02 12.06c1.55 1.13-14.84 10.92-26.27 7.93-11.44-3-3.3-12.26-3.3-12.26s13.8-7.63 18.55-7.73z"/></svg>