<svg xmlns="http://www.w3.org/2000/svg" viewBox="0 0 396.39 396.39"><style><![CDATA[.A,.C{fill:none;stroke-miterlimit:10}.B{fill:#1e1e1c}.D{fill:#fefcf2}]]></style><path class="A" d="M220.77 166.43" stroke="#1e1e1c"/><path class="B" d="M253.56 212.05"/><circle class="C" cx="198.2" cy="198.2" r="197.2" stroke="#fefcf2" stroke-width="2"/><path class="D" d="M227.95 198.3v77a5.4 5.4 0 0 1-9.17 3.87l-50.26-50.2a5 5 0 0 0-3.56-1.47H118.4a4 4 0 0 1-4-4v-51.25a4 4 0 0 1 4-4h46.58a5 5 0 0 0 3.53-1.47l49.4-49.4a5.87 5.87 0 0 1 10 4.16v76.8zm11.93-29.6l11.64-11.65s37.28 36.3 0 81.14l-11.74-11.74s26.3-26.9.1-57.75zm21.9-21.84l11.58-11s57.24 55.64 0 124.22l-11.75-11.75s46.17-50.37.17-101.47z"/></svg>