<svg xmlns="http://www.w3.org/2000/svg" viewBox="0 0 396.39 396.39"><style><![CDATA[.A{fill:#fefcf2}.B,.D{fill:none;stroke-miterlimit:10}.C{fill:#1e1e1c}]]></style><path class="A" d="M208.94 198.26v77.05a5.4 5.4 0 0 1-9.23 3.82l-50.2-50.2a5 5 0 0 0-3.56-1.47H99.4a4 4 0 0 1-4-4v-51.2a4 4 0 0 1 4-4h46.54a5 5 0 0 0 3.53-1.47l49.4-49.4a5.87 5.87 0 0 1 10 4.16v76.8z"/><path class="B" d="M220.77 166.43" stroke="#1e1e1c"/><path class="C" d="M245.04 231.93"/><path class="A" d="M231.222 212.852l41.132-41.132 7.948 7.948L239.17 220.8z"/><path class="C" d="M253.56 212.05"/><path class="A" d="M231.22 179.68l7.948-7.948 41.132 41.132-7.948 7.948z"/><circle class="D" cx="198.2" cy="198.2" r="197.2" stroke="#fefcf2" stroke-width="2"/></svg>