<svg xmlns="http://www.w3.org/2000/svg" viewBox="0 0 1920 491.19"><defs><style>.cls-1{isolation:isolate;}.cls-2{fill:#eab61c;}.cls-3{fill:#fbc31c;}.cls-4{fill:#fbc31d;}.cls-5{fill:#fac31c;}.cls-6{fill:#fbc41e;}.cls-7{fill:#fac421;}.cls-8{fill:#fac21c;}.cls-9{fill:#e1c46d;}.cls-10{fill:#fdebb6;}.cls-11{fill:#e8d18f;}.cls-12{fill:#fcda72;}.cls-13{fill:#ebb71c;}.cls-14{fill:#ebb71d;}.cls-15{fill:#ebb81d;}.cls-16{fill:#fcdf87;}</style></defs><title>Fichier 1</title><g id="Calque_2" data-name="Calque 2"><g id="Plan_de_travail_1" data-name="Plan de travail 1" class="cls-1"><g id="Calque_20_Image" data-name="Calque 20 Image"><path class="cls-2" d="M1921,294V493H1V374c2.16,0,4.68.73,6.41-.14,5.52-2.78,12.14-2.75,17.08-6.85a3.62,3.62,0,0,0,4.28-2.51c.48-1.76,3.06-2.37,2.23-4.58,1.88-3.75,3.76-7.56,6.45-10.75a59.37,59.37,0,0,0,6.91-10.12,14,14,0,0,1,4.7-5.43c2.45-1.49,4.49-4.22,7.94-3.62,1-.38,2.53.93,3-1,4-3.2,6.39-7.66,9-11.92,3.25-5.27,4.27-11.57,7.94-16.67,2.56-3.53,4.5-7.53,7.23-10.91a53.26,53.26,0,0,0,4.37-5.73,28.54,28.54,0,0,1,7.6-8.22c5.38-4,9.42-9,13.34-14.37,2.6-3.53,4.42-7.85,8.5-10.18,2.6,1.16,2.87,3.38,3,5.61-.84.54-1.65.18-2,1,2.23,1.84,3.38,4.19,3.06,6.3,1.1,1.48,1.78,2.41,2.39,3.22h2.4l4.17,3.57-.14,2.41c-1.82-.35-3.32,0-3.9,1.89.26,2,3.28,2.29,2.92,5.05h-8.81l4.81,2.43c.31,3.15,3.85,3.17,4.54,4.26.92,2.14-.54,2.3-.42,3.57,1.75,1.3.54,3.65,1.33,5.54.24,1.11,2.7,1.35,1,3.37-4.73-3.07-10-2-15.55-1.62a60,60,0,0,0,7.35,6.22c2.9,2.08,4.11,5.77,6.62,7.52,1.14,3-3.17,3.64-1.08,7.06.72,1.39,3.58,2.36,4.42,5l-1.09,1.2,3,3c-.95,2.08,1.48,3.93.84,6.11-1.34.8-2.83-.3-3.92.8,4.91,2.59,10.6,3.49,15,6.85V345c1.54,3.39,2.91,6.29,5.76,8.05,1.86-.39,3.12,1.6,4.78,1.06l3.38,3.38c-.08,1.75.21,3.26,2.33,3.58,1.7-3.07,1.56-3.08,1.77-5.17a27.26,27.26,0,0,1,.58-5.22c1.12-3.85,3.4-6.71,5.85-9.77h4.28c.66-1.68-.32-3.41.72-4.88,1.84,1.57,2.37,3.71,2.86,5.89,2.52,2.21,4.39,5.27,8,6.15,1.72-2,1.63-4.93,3.23-7,1.23-.63,1.48,1.3,2.58,1,1.73-.57,2.26-2.83,4.29-3.1l3.59,7c0-2.07.47-3.68-.09-4.23-1.71-1.68-.65-3.95-1.72-5.86-.92-1.65-.19-4.21-.19-6.24a11.29,11.29,0,0,0,2.68-4c.54-2.07,2.67-2,3.32-3.56,2.38-.36,4.74.44,7.2-.6,6.73-2.85,8.72-3,15.36-9.4,2.79-.66,4.55-3,5.7-5.06,1.35-2.4,3.79-3.73,4.92-6.36.69-1.57,2.17-3.82,4.82-3.58h2v4c-.85,2-2.44,1.55-2.95,2.52v3c.58.81,1.58,1.17,1.76,2.17-2,1.59-3.79-2.13-6-.06,2.88.87,1.43,4.63,4,5.73-.52,2.67,3,3.8,2.38,6,3,4.72,8.3,5.79,11.92,9.24a6.42,6.42,0,0,0-.73,5.93c1.92,4.44,5.55,7.85,7.22,12.43l1.28-.16c.43-4.14-3.5-7.31-2.92-11.27.75-1.26,1.93-1.44,2.88-2,.54-2.21-.28-4.29-1.18-6.84,2.65.09,3.65,3.54,6.22,1.85.51-2-1-3.4-1.9-5.56.55-2.31-.47-4.85-2.09-7-2.2-2.95-3-6.42-4.36-9.69-.8-1.91-.2-2.94.41-4.33a31.85,31.85,0,0,1,10.44-6.14c6.05-2.15,10.37-7.12,15.25-11.12,3-2.45,4.81-5.94,7.12-9A106.85,106.85,0,0,0,304,262.57c.94-1.78,1.16-3.75,2.32-5.56a91.21,91.21,0,0,0,6.53-11.74c1.77-3.9,3.27-8,5.06-11.88,1.32-2.9,2.87-5.7,3.53-9.06.87-4.45,1.8-9.23,5.4-12.72.34-.33.07-1.26.2-1.88a59.44,59.44,0,0,1,4.56-12.58c1.25-2.73,2.74-5.44,4.06-8.16.75,0,1.45,0,1.37,1v4.5a30.55,30.55,0,0,0,.05,4.49c.2,1.3,1.78,2.4.54,3.92l-2.68.25c.71,2.26-2,4.07-.81,6s.84,3.75.87,5.65c.06,3.09.43,5.94,2.65,8.45a4.76,4.76,0,0,1,1.39,3.89c-.42,2.25,1,3.88,1.88,5.45.5,4.52-.75,8.92,1.23,13.27l-2.58.14-3-3c-1.48,0-1.73,1-2.35,1.35a9.51,9.51,0,0,0,3.78,10,7.67,7.67,0,0,0,.5,2.61,43.36,43.36,0,0,1,4.65,13.08c.71,4.13,3.07,7.9,2.91,12.27,1.94.56.18,2.9,1.66,3.69,2.69-1.85,2.69-1.85,4.44-5.57-1.42-3.73-1.86-7.79-2.26-11.94-.45-4.62,2.65-8,3.31-11.9l-2.25-2.25v-5.13l-1.24-1.13c-1.93-4.19,1.19-7.28.2-10.86-2.51-1.74-3.88-4.59-5.81-6.87v-5.76l3-2.69c.1-2.49-2.72-3.7-3-6.13,1.74-2,.71-4.31,1-6.31l-2.16-2.16c1.06-3.77-.95-7.47-.86-11.36,1.52-2.05,4.19-2.56,5.89-4.38,5.73-6.16,12.86-10.56,19.55-15.53a57,57,0,0,1,11.68-6.75c2.69-1.14,5.58-2.17,7.82-4,3-2.39,6.5-3.93,9.35-6.42,2.45-2.14,4.95-4.24,6.74-7.07,2.86-4.5,6-8.83,8.85-13.33,2.17-3.4,3.93-7.07,6.18-10.41,1.49-2.21,1.91-5,3.76-6.68.77-1.56-1.07-3.5,1.18-4.48,0,4.17.08,8.33,0,12.5-.08,3.4.95,6.52,2,9.67.07.2-.28.53-.44.8-1.36.79-1.7-1.72-3.3-.8-.61.24.18,1.54-.75,1.78-1.06.44-1.38-.7-2.12-.81L417,141.49c-.28,3.41,1.24,6.88,1.48,10.48,0,.13.31.23.32.36.18,2.85,2.19,5.2,2.18,8.09a14.09,14.09,0,0,1-.17,1.52c-1.56,0-2.52.67-2.92,2.56.38,1.31,1.55,2.72,2,4.29.51,1.86-.22,4,.21,5.94a19.2,19.2,0,0,0,2.64,6.37,27.74,27.74,0,0,0,4.89,5c1.86,1.63,1.85,4.42,3.87,5.91,4.12.16,8.51,2.24,8.51,4.37.61,1.17-.71,1.72-1.46,2.61H436a76.49,76.49,0,0,0-13.71-7.06c-.74,2.19,1.09,2.52,1.72,3.65,0,3.74,0,7.56,0,11.39,0,1.27-.42,2.69,1,3.58-.06,3.36,3,5.76,2.81,9.33-2.72,1.1-3.71-2.1-5.84-2.4-2.33-.33-4.24-1.82-6.39-2.63-.85,1.21-1,2.25,0,3.22,2.26,2.31,3.34,5.24,4.53,8.39-2,1.17-1.53,3.49-.93,4.78,1,2.21,1.56,5.09,4,6.3,2,1,3.31,2.56,4.85,4,0,4.87.2,5.1,3.51,8.56,1,1,2.56,1.66,2.55,3.05-.37,1.33-1.67.5-2,1.43,2.63,3.18,6.58,4.86,9.12,8.14.51.66,1.19,1.16.58,2.08-1.5.76-3.26-.31-4.65.59,4.13,5.9,11.18,8.89,15.36,15.37-2.11.23-4-.05-5.19.69-1.66,1-3.2.44-4.77.58s-3.33,0-5,0c-1.5,0-3,0-4.5,0-.72,0-1.71-.48-2.11,1.09.14.77,1.07,1.28,1.7,2a34.18,34.18,0,0,0,6,4.8,114.79,114.79,0,0,0,18.91,11,26.33,26.33,0,0,1,9,6.09,5.51,5.51,0,0,0,3.09,2.19c2.81.52,4.79,2.78,7.38,3.87,1.56.66,2.78,2.24,4.36,2.72a113.29,113.29,0,0,1,13.24,5.45,70.24,70.24,0,0,0,10.47,3.65,22.25,22.25,0,0,1,4.86,1.57c.28.89.05,1.77.63,2.75a23.87,23.87,0,0,0,7.72,7.83,34.81,34.81,0,0,1,4.93,3.75,19.19,19.19,0,0,0,7.74,4.29c4.68,1.53,9.17,3.62,13.84,5.17,4.86,1.63,9.36,4.76,14.67,3.74,3.45,3.41,8,5.72,10.93,5.47-1.82-3.23-4-6.1-5.4-9.45a10.88,10.88,0,0,0,1.16-3.49c.33-1.61,2.27-1.45,3.08-2.37l2.9-1.54v-15.4l3.75-2.39c.48-1.19-.46-2.65.58-3.77h2.21a82.39,82.39,0,0,0,6.53,6.56c2.36,1.92,2.95,5.47,5.89,6.48,1.41-.31.31-2.27,2.51-2,2,2.81,5.65,4.39,8.58,7.51.77-1.45,1.33-2.48,1.87-3.49-1.4-1.75-1.07-3.71-1-5.63l3-3v-4.18l.49.31.74-1.48c2.24,1.18,4.05,2.63,6.48,1.64.32-1.92.41-3.89,3.28-3.81,1.4.05,1.89-1.69,3-2.42V313a7,7,0,0,0,5.29-2.85c1-1.24,1.36-3.22,2.89-3.71,2-.62,2.11-2.54,3.4-3.61,3.61-3,6.77-6.65,10.6-9.31,3-2.06,5.88-4.8,10.09-4.62,1.06.05,2.16-1.13,3.67-2,2.93,1,6-.4,8.54-2.12a28.07,28.07,0,0,0,6.54-6.68c3.62-4.9,6.84-10.14,11.6-14.11,2.26.09,3.79-1.24,5.48-2.51a43.88,43.88,0,0,1,9.67-5.56c4.62-1.93,9.35-3.8,12.74-7.88,2.41-2.89,5.13-8.26,5.45-12.24.13-1.71,1-2.93,2-4.56-.69-2.93,1.62-5.88,1-9.18-.55-2.95,1.65-5.6,1-8.58,1.22-1.1,1.55-2.66,2.15-4.1.84-2,2.26-3.67,2.87-5.81,1-3.56,5.06-4.91,6.33-8.37.24-.64,1.35-.88,1.88-1.3,2.19-1.74,4.07-3.87,6.14-5.77s5-2.49,5.62-5.59c2.62-1.34,3.45-4.56,5.94-5.9,2.23-1.19,3.79-3,5.56-4.65H759a.85.85,0,0,0,1,1c1.07.18,1.79,1.08,3.08,1.07,5,0,9.57-1,13.87-4a18.93,18.93,0,0,0,6.84-8.84,20.35,20.35,0,0,0,1.2-10.47c-.08-.52-.36-.9-1-.79v-8.62a12,12,0,0,0,4-5.38c1.5-.09.85-1.24,1-2-.5-4.13,1.94-7.24,4-10.34,2.34-3.6,6.15-6,9.54-8.33,4.18-2.93,8.79-5.33,13-8.28.6-.42,1.62.28,2-.06,2.44-2.44,4.29-5,6.74-6.59,4.65-3.08,9.58-5.74,14.52-8.35,1.87-1,3.76-2.22,6-2.33,2.67-2.83,6.53-3.6,9.72-5.54,2.52-1.54,4.79-3.49,7.5-4.72,2.33-4,5.31-7.83,6.79-12.16,1.11-3.24,3.05-6,3.91-9.4,1.22-4.77,3.85-9,5.72-13.6a33.31,33.31,0,0,1,4-7.3H885c1-.38,2.53.93,3-1,.61-.12,1.36.33,1.82-.33.57-.84,1.39-.67,2.18-.67,2,3.81,4.57,7.37,6.12,11.49-1.3.84-2.57.5-4,.35-.75-1.71-2.52-1.86-4.22-2.81,0,4,2.81,6.47,4.16,9.32-.92,1.24-2.18.08-3,1.07v3.22c1.16.73,1.67,2,3.09,2.44a5.17,5.17,0,0,1,3,3.15A6,6,0,0,1,891.88,66c-1.6-.09-2.42.65-3.06,2.39,2.62,1.14.31,3.77,1.32,5.28a13.67,13.67,0,0,1,1,1c.51.67,1.24.22,1.84.39,1.57.44,2.69-.85,4-1.19a19.8,19.8,0,0,0,4-1.24c3.66-1.84,5.46-5.33,7.74-9.3.59,2-.09,3.44.58,4.45,4.48-1.38,7.79-4.13,9.09-8.66A23.54,23.54,0,0,1,923,51c5.52.35,7.27-.38,11.54-3.21A53,53,0,0,1,941.4,44c3.19-1.5,6.25-3.29,9.36-5,1.48,0,3,0,4.46,0a.77.77,0,0,1,.78,1c-.6,2.37,2.12,4.43.6,6.93-2.08.44-3.57-.72-5-1.78h-4.3c-.68,1.65.29,3.39-.78,5h-5.36c0,2.6-.62,5.26.14,7.43,1.26,3.58,2,7.45,4.42,10.57.49.64.19,1.25.32,1.86h-4.5c-.7-.64-1.29-1.72-2.59-.41v6.13c-2,.75-4.08-.3-5.75.61v5.33c1.94,1.94,4.14,3.45,5.35,5.54a30.39,30.39,0,0,0,4.74,5.51c1.55,1.63,3.29,3.08,5.65,5.26H932.77c.81,1.51,2.42,2,2.22,3.49-1,1.38-2.91-.26-4.22,1.31,1.46,1.17,1,3.47,3.62,4.43,1.86.69,3.62,2.72,4.62,4.9a8.93,8.93,0,0,0,3.7,3.8c.77.45,1.45.5,1.27,1.58-3.22,2.72-7.37.79-11.25,1.9,2.88,2.75,7.1,2.53,9.27,5.51.13,1.69-1.8.63-2,1.48v2.23a6.85,6.85,0,0,1,3.94,3.13c.16,3.42-2.72,5-4.26,7.4,2.48,3.14,6.67,2.09,9.71,4.87-3.75,0-7,.05-10.31,0-1.4,0-2.48.24-3,1.66a74.32,74.32,0,0,0,12.21,4.85,21.16,21.16,0,0,1-8.35,1.77c1.45.63,2.53,1.64,4.17,1.84,2.39.3,4.95.9,6.74,2.63,2.16,2.09,5.08,5.08,6.88,5.17,3.15.16,4.79,2.37,7,4.4,7.74-1.38,15.52.84,23.4.7.33,0,.81-.14,1,0,1.5,1.49,3.4,1.13,5.1.91,2.06-.27,3.54,1.56,5.6,1.1,1.88-.42,3.46.47,5.08,1.67-5.59,2.7-11.49.37-17.18,1.67a24.5,24.5,0,0,0,14.11,3.6l-8,4.08c4.13-.46,6.73,1.76,9.72.9a2.89,2.89,0,0,1-.9,3.79c-.68.54-1.16,1.17-.49,2.06,4.27,1.25,8.45-2.29,12.81-.31-1.78,4.61-6.87,7.71-6,13.28,1.32.57,1.82-.17,2.38-.76a28.44,28.44,0,0,0,7.12-.87c2.31-.66,5-.14,7.46-.14,2.33,0,4.88.61,7-.12,5-1.76,10-.39,14.92-.83.14,3.07.06,3-1.66,5.17a1.15,1.15,0,0,0,.13,1.71,3.17,3.17,0,0,0,1.39-.17c2.06-.67,4.17-1.19,6.27-1.76,3,1.83,6.39.74,9.59,1,1.77.13,3.55,0,5.32,0v1.52l-4,2c0,.42.06.74.13,1.48,3.06,0,6.18-.05,9.29,0s6.35-.29,10.48.43c-3.32.66-5.4,2-7.73,1.59-.16.85-.31,1.33.36,2,.54,0,1.5-.29,2.12.05a11,11,0,0,0,7.1.86c2.57-.38,4.65,1.3,7.1,1.1a13.69,13.69,0,0,1,8.88,2h-10.61c4.48,2.07,9.24,2.49,13.89,3.64a16.58,16.58,0,0,1-4.85.32c-1.84-.14-3.16,1.47-5.05,1.12v2.8a54.63,54.63,0,0,0,14.9,2.22v1.71a25.1,25.1,0,0,0-8,2.11c-1.11.44-1.1.9-.77,2.09H1113c0,.82-.08,1.27-.14,2.14-2.29-.82-4,.4-5.84,1.33,0,.68,0,1.34,0,2,0,.12.22.23.22.23a52.49,52.49,0,0,0,10.81,1.55c-.09.71-.13,1-.15,1.16-.57,1.43-2.32-.4-2.77,1.22,7.28,1.06,14.51,1.89,21.83,1.13,0-.71.23-1.21-.54-1.8a9.88,9.88,0,0,1-6.13-1.22c-.5-.29-.27-.87-.22-1.36,1.08-1,2.58.13,3.71-.68l.52-1.53c1.61-.57,3.14.26,4.55-.48.25-.6,0-1.38.84-1.77a9.43,9.43,0,0,0,5.91-1c.45-.23.47-.47.09-.71-.8-.72-3,.8-2.66-1.83,1.69-.51,3.54-.8,4.76-1.87,1.06-2.22-2.51-.83-1.74-2.9,2.35-1.62,5.29-2,7.94-3v-1.23c-1.14-1-2.94.39-4.46-1.51,2.09-1.37,3.15-3.75,5.7-4.89a4.64,4.64,0,0,0,2.94-4.95h17.34c.12,0,.27-.21.35-.35.34-.57-.71-.13,0-.54-3.45.48-6.57-.84-9.83-1.73a17.45,17.45,0,0,1,4.77-.31c1.73.21,2.83-1.39,4.6-1.1,3.58.59,7-1.71,10.58-.95,1.43-1.21,3.44-.58,4.91-1.41,4.22-2.37,8.87-3,13.52-3.54,1.47-.17,2.29-1.18,3.48-2.08h-7.31c1.54-1.35,2.52-2.24,3.68-3.08,2.92-2.1,6.39-3.66,8-7.42.64-1.54,2.57-2.3,4.4-2.46,1-.08,2.18.31,2.94-.12,3.08-1.7,6.63-1.59,9.84-2.83s6.91-1.81,10.19-3.15a16.51,16.51,0,0,1,5.79-.91c2.28-1.74,5-1.8,7-3.1s5.33-.66,6.49-3.9c-2.16,0-4.14-.07-6.12,0s-4-.13-5.63-1.62c2.56-2.51,5.39-4.75,8-7.2s6.14-3,9-4.66c-.19-1,.31-1.89-.75-2.69h-6.51c4.71-5.37,10.48-9,15.34-13.44v-3.33a48.81,48.81,0,0,0,5.63-3.43,25.63,25.63,0,0,0,4.92-5c1.21-1.65,3.86-2,4.43-4.61-2-.37-3.45,2.24-5.28.14,1.24-2,1.79-4.56,3.75-6.32,3.18-2.84,5.35-6.57,8.4-9.57,2.18-2.14,3.53-5.11,5.27-7.75-1.36-1.22-3.13.13-4.17-1.14,2.42-3.09,6.66-3.89,9-7.19V89.5c2.9-3.43,6.92-5.76,8.06-9.78,4.11-3.58,9.3-4.65,12.89-8.3.64-.65,2.75,0,1.66-2.42-2.58.46-5.24,1.15-8,1.65s-5.23,1.21-7.94,1.51-5,1.83-8.48,1.49c3.16-3.7,5.47-7.4,8.72-9.89,2.5-1.92,4.37-4.75,7.52-5.83.44-.16.47-.46,0-.84l-3.26-.17c-.25-.77-1.39-.93-1.26-2.46,1.73-1.56,3.33-3.77,6.85-5.66h-9.2c1.4-3.93,5.38-4.6,7.27-7.35-.42-.49-1.1-.81-.88-1.94,2-1.07,4.14-2.42,5.17-5.12-2.47-1-5,.22-7.64-.87l4.51-6.63c-.46-1.28-1.73-.52-2.38-2.05,3.24-2,2.43-6.57,5.24-9.31-.55-1.32,1-1.82,1.16-3A78.59,78.59,0,0,1,1326.52,3s.31,0,.48,0c.63-.16.94.34,1.18.71,2.63,4.05,5.31,8.07,7.74,12.23a10.54,10.54,0,0,1,1.18,2.5,42.31,42.31,0,0,0,6.35,12.82c3.31,4.74,7.65,7.37,12.65,9.2,2.86,1.06,5.67,2.65,8.9,2.54-.38,2.29,2,2.81,2.76,4.33,1.68,3.51,4.65,5.6,7.72,7.64,2.06,0,4.2.5,5.56-.95,2.15,1.23,1.24,3.84,2.84,5.19,2.36-1.92,2.6-5.27,5.32-6.33,1,.52.79,1.21.8,1.84s0,1.35.46,1.32l4.54-4.53V49c.61.13,1.22-.15,1.87.32,4.42,3.2,8.1,7.18,11.94,11,1.41,1.41,3.12,2.64,4.13,4.3,2.71,4.46,6.61,7.86,10.47,11.06,4.94,4.1,11.25,6.39,15.85,11.09a3.76,3.76,0,0,0,.49.3h1.73a20.34,20.34,0,0,0,6.67,7c2.24,1.53,4.74,3,6.33,5.11a107.4,107.4,0,0,0,11.41,13.22c4,3.79,7.19,8.28,11.58,11.64a10,10,0,0,1,2.46,2.48,81.55,81.55,0,0,0,11.67,14.66c8.79,8.65,17.42,17.46,26.2,26.11,2.66,2.63,5.31,5.47,8.49,7.29,2.55,1.46,3.79,4.39,7.12,5-.86.93.36,2.37-1.41,2.51-.5,0-1.13-.19-1.47,0-1,.7-1.6,2.11-3.14,2.07-.47,1.84-2.09,2.81-3.13,4.21a18.82,18.82,0,0,0-1.8,3.72c-1.84,4.15-1.67,8.76-.54,13.47,1.74,7.29,5.77,10.47,9.63,13.29a15.91,15.91,0,0,0,8.61,3.16c3.67.13,7.42.43,10.84-1.46V219h5a.85.85,0,0,0,1,1,4.65,4.65,0,0,1,2.89,2.52c1.37,2.27,3.93,3.75,4.84,6,1.14,2.79,4,3,5.5,5.09,2.54,3.4,6.44,5.46,9.51,8.4,1.43,1.36,3.07,2.76,4.59,4.1a96.67,96.67,0,0,1,11.3,11.23,62.19,62.19,0,0,1,9.44,16c.61,1.56,1.33,3.41,3,4.21s2.53,2.31,4,3.25c1.66,1,2.88,2.73,4.3,4.15,6.89.18,13.85.83,20.17-2.92,3.7.4,5.83-2.17,8.21-4.29.35-.31.57-.87,1.2-.71,1.72.42,2.24,2.33,3.76,3a15.9,15.9,0,0,1,2.49,0,13.06,13.06,0,0,0,9.13-2.09c2.71-1.7,5.76-2.22,8.6-3.41,1.41-.92.9-3.73,3.4-3.52,3.06,2.1,4.18,5.87,7.25,8h3.7l2.61,2.62c.45-1-.47-2.44.44-3.53a3.34,3.34,0,0,1,3.3.79c.8-1.37-.35-2.88.85-3.92s-.37-2.88.7-3.67c3.45,1.09,2.75,5.39,5.5,6.75,2.35-.35,2-2.64,3.31-3.6a16,16,0,0,1,1.42-8.45c.58.54,1.07,1.28,2.24.9a36.79,36.79,0,0,0,2.52-9.68c.9-.59,2.1.31,3-1v-6.64c3.24,2.29,4.12,5.92,6.81,8s4.7,5.72,9,6.55a23.33,23.33,0,0,0-1.64-9.06c-.64-1.94.61-3,.68-3.94-1.16-3.17-1.6-6.09-3.1-8.43,1.58-2.14,2.6,1.77,3.93,0,.8-1.25-.5-1.8-.88-2.55-1.47-2.9-1.31-6.52-4-8.87,0-2.43-2.2-4.74-.55-7.09,1.21-1.18,1.46,1.55,2.55.33,0-3.16,0-6.33,0-9.49.07-3-2.19-5.83-.61-8.92.8.24,1.26,1.85,2.45.55.48-2.82-.24-5.78.45-8.91.91,1,1.55,1.94,2.86.61-1.19-4.08,1.62-8.06.84-12.34a33.28,33.28,0,0,1,8.37,5,8.69,8.69,0,0,0,6.63,2c0,2.81-.09,5.63,0,8.44.06,1.37-1.57,2.16-1,3.55a10.21,10.21,0,0,1,1.09,3.56c.06,1.56.91,3.08,1.68,5.39,2.06-3.62,4-6.32,4.47-9.65l3.77-1.71c-.27-1.31.68-1.92,1.41-2.45,1.16-.84,0-2.31,1.23-3.25h3.24c.06-1.27.12-2.39.17-3.55.6-.22,1.42-.27,1.7-.68.56-.82,1.56-.39,2.09-1,.21-2,.51-3.88,2.12-5.11,1.34-1,1-2.3,1-3.57h2.79c2,3.32,5.75,4.89,8.45,7.71a34,34,0,0,0,4.78,4c2.59,1.9,5.62,3.1,8,5.31a30.74,30.74,0,0,0,10.06,11.12c1.65-1.22,3,1.15,4.52.89.59-.82.22-1.63.92-2,1.76.17.6,3.48,3.21,2.88.36-1.21.84-2.73-.06-3.62-1.46-1.42-.05-3.36-1.48-5-.91-1-.17-3.49-.17-5.31,1.87-.34,3.34.69,4.89,1.4.41,2.52,3,3.34,4,5,.34,1-.21,1.93.63,2.55,1.36,1,1.84,2.54,2.51,4,2.36,5,4.56,10.09,7,15,1.87,3.71,3.64,7.49,5.41,11.24a46.74,46.74,0,0,0,5.09,8.85,57.21,57.21,0,0,1,8.41,14,3,3,0,0,0,.76,1.18c1.43,1.38,1.76,3.23,2.48,5,.62,1.5.15,3.69,2.46,4.79h5.53a10.27,10.27,0,0,0,6.64,2.09c2.22-.14,4.45-.22,6.59.91a8.25,8.25,0,0,0,5,1.09c1.06-.15,2.12,1.25,3.6,2.19,1.91,1.22,2.5,3.79,5,4.38a3.06,3.06,0,0,1,1.73,1.71c1.32,3.19,4.35,4.82,6.39,7.33.53.66,1.24.22,1.85.35,0,1.35,1,1,1.76,1,6.75,0,13.49,0,20.24,0C1917.77,292.83,1919.16,294.51,1921,294Zm-489.26-94.36c3.94-9.4,4.71-17.79,1.16-26a32.43,32.43,0,0,0-19.11-18.07c.82-2.86,1.76-5.46,1-8.24l-4.17-4.17h-5.24l-4.4,4.36c0,1,.06,2,0,3s.37,2.3-.32,3.34c-16.77,2.81-24.51,13.05-27,22.13h-4.26c-6.16,2.31-10.59,5.33-13.19,10.37s-3.19,10.23-.82,15.5a20.06,20.06,0,0,0,10.42,10.56c6.75,3,12.91,1.47,18.87-1.56,5.37,3.81,9.35,5.18,13.76,5,4.21-6.45,10-9.73,17.53-10-.29-4.41,1.88-7.07,5.88-8.77,1.33.3,3-.19,4.82.76C1428.1,198.53,1428.92,201.07,1431.74,199.64ZM865.83,182c-14.78,1-26.59,13.61-24.68,28.5A25.85,25.85,0,0,0,870,232.87a24.54,24.54,0,0,0,8.7-3c3.08-1.68,5.21-4.39,7.69-6.73,1.88-1.78,2.44-4.32,3.73-6.41s1.36-4.25,1.74-6.26c1-5.44-.84-10.64-3.17-15.69,3.72-3.47,7.71-6.65,6.12-12.42a15.68,15.68,0,0,0-7.68-7.35h-3.88c-3.36,1-4.92,3.44-7,5.16-1.82-.67-2.54-2.32-3.83-3.1h-3.2C868.39,178.75,866.1,179.4,865.83,182Zm171.76,112c6.62,10.48,12.87,10.8,19,9.79S1068.5,296,1069,290.3c.34-3.75-.1-7.56-2.13-10.59s-4.9-6-8.86-7.09c.94-11.72-11.13-23.55-23.3-22.75-9.94.65-21.14,10.88-20.87,22.71C1014.08,282.83,1024.8,295.37,1037.59,294ZM725,270.12c-8-6.44-20.11-5.18-26.74,2.22a20.19,20.19,0,0,0,.46,27.83,18.86,18.86,0,0,0,13,5.8c6.74.41,12.35-2.22,16.9-7.06h7.28q7.2-2.81,10-8.58a14.19,14.19,0,0,0,0-12.52C742.07,270.35,734.79,266.94,725,270.12Zm773-19.46c.44-10.19-8.62-18.48-18-18.74-10.41-.29-18.91,8.64-19.13,18.16-.23,10.24,8.67,18.86,18.3,19C1489.3,269.25,1498.35,260.41,1498,250.66ZM776.33,258c10.2.45,18.49-8.62,18.75-17.95.3-10.43-8.64-18.92-18.16-19.14-10.24-.23-18.85,8.66-19,18.29C757.74,249.3,766.59,258.35,776.33,258ZM1349,253.5v-4.94c-2.53-3-5.29-5.4-8.57-4.66a13.7,13.7,0,0,0-6.52,4.89v4.48c-3.19,2.45-6.11,4.67-7.92,8.06-5,9.34-.52,18.2,7.48,22.66,9.25,5.17,18.16.18,22.63-7.52,3.57-6.15,1.78-15.09-2.84-18.76A54.56,54.56,0,0,1,1349,253.5Zm-78.1-62a7.12,7.12,0,0,1-.67,8.74c-2.12,2.59-4.82,4.12-8.16,3.88a14.93,14.93,0,0,0,1.88,8.55,15.54,15.54,0,0,0,5.55,6.09c3.31,2.16,7.38,2.63,11.43,2.18-.27,2.41,1.46,3.88,1.22,5.58l4.35,4.47c2-.34,3.62,1.08,5.62,1.11s3.55-1.54,5.53-1.26c2-2.08,4.15-3.88,5-6.92.93-3.22-.35-5.91-.93-8.38l-4.26-4.58c-1.84.29-3.06-.91-4.49-1.47C1294.88,195.7,1282.15,186.11,1270.9,191.52ZM1004,253.92c.66-8.1-8.58-17.18-17.21-17.06-8.16.11-16.86,8.84-16.94,17-.08,8.63,9,17.31,17.11,17.32C995.27,271.16,1004.7,262.37,1004,253.92ZM1341.23,111c-8.5,3.4-12.29,9-11.1,17.68,3.89,6.6,4.83,7.54,9.75,9.67-.08,3.66,2.64,5.66,4.9,7.91s5,1.76,7.39,1.72a15.34,15.34,0,0,0,7.67-7.49c.89-4.25-1.18-7.36-2.95-10.42,2-2.83.68-5.85,1.07-8.06C1354.49,113.83,1349,109.86,1341.23,111ZM825,138.83v5.68c1.76,5.72,5.08,8.84,11,10.64,9.35,1.25,16.62-6.38,15-16.71-1.14-1-1.26-2.47-2-3.65,1.6-1.67,1-3.62,1-5.38l-4.27-4.27h-4.73c-1.13,1.25-2.34,2.59-3.63,4-2.65-1-4.56,1-6.58,2C827.73,132.54,826.56,135.77,825,138.83ZM385.24,184.74a14.5,14.5,0,0,0-12.39-.68l-5.48,5.31c-2.05,4.35-1.62,8.35.07,12.57l5.05,5.05c2.54,1.41,5.32,1,8,1l3.89,3.89h5.22l4.37-4.37v-5.29l-3.07-2.58c.27-3.69.26-7.06-1.63-10.87Zm772.12,82.61-6,5.81a14.94,14.94,0,0,0,.31,13l5.78,5.78c2.12-.18,3.88,1.19,6.06,1.19s3.93-1.38,6-1.19l5.81-5.81a14.48,14.48,0,0,0,.57-12.3l-6.62-6.63A14.19,14.19,0,0,0,1157.36,267.35Zm290.93-139.14c-2,5-1.86,9.52,1.8,13.61a7.19,7.19,0,0,0-1.18,4.84l3.63,4.24h4.07c1.51-1.6,3.27-2.83,4.09-4.55,1-1.92,3-.88,4.1-1.65l4.5-4.5c2.22-4.43,2.13-8.24.59-11.46l-5.38-5.71c-5.43-1-5.43-1-11.19.15Zm-22.46-16.55v-6l-5.32-5.64H1415l-5.91,5.91v5.64l5.3,5.3h6.21ZM920.56,225.93l5.3-5.29v-6.13L920.5,209h-5.63l-5.82,5.81v5.73l5.38,5.38ZM1179.89,227l-4.83,4.44v4.11l4.34,4.34h4.2l4.25-4.25v-4.19l-4.33-4.45ZM379.5,240l-4.37,4.37v4.26c1.55,1.54,3,3,4.37,4.37h3.62l4.84-4.45V245L383,240Zm515.29,29.42c3-2,6.09-1.21,8.75-1.46l3.31-3.31v-4.3l-3.22-3.22H899.2c-.85,1.64-2.45,2.47-3.38,4.13-.78,1.37-3,2-3.76,3.35C891.71,267.34,893.76,267.85,894.79,269.42ZM307.66,275,305,277.45v4.06l2.35,2.35h3.42l3.13-2.15v-3.59L311.62,275Zm482.49-90.65c-.8-1.95,1.06-4.6-1.51-6.22h-5.27l-1.28,1.28v5.14c1.84,2.55,4.35,1,6.36,1.5ZM1490,273.21l2.37,2.71h2.82l2.77-2.31v-3l-2.44-2.59h-3l.57.59-3.08,1.76ZM1001,187.5c-.32-.47-.66-.47-1,0C1000.33,188,1000.67,188,1001,187.5Zm-580-50c-.32-.47-.66-.47-1,0C420.33,138,420.67,138,421,137.5ZM1329.5,68c-.47.32-.47.66,0,1C1330,68.67,1330,68.33,1329.5,68Z" transform="translate(-1 -1.81)"/><path class="cls-3" d="M956,40c1.15.08,1.63,1.09,2.24,1.79,3.42,3.94,8.09,6.18,12.21,9.16,2-.7,1,2.29,2.56,2,6.38,5.67,13.07,11.08,16.06,19.54.1.29.67.49.65.71-.23,3.59,1.7,6.67,2.33,10.06,1.12,6.1,2.23,12.25,5.48,17.7,2.1,3.52,4.13,7.09,7,10.09,1.78,1.86,2.77,4.47,5,5.89,2.6,1.65,4.91,3.48,6.28,6.33.87,1.79,3.7,1.41,4.17,3.68a2.94,2.94,0,0,1-2.85,1.87c-3.14-.1-3,2.3-3.48,4.14-1.46-.13-2,.76-2.68,1.61,1,.51,2.4.21,2,1.79,0,1.15-2-.12-1.58,1.75,3,0,6.13,0,9.24,0,.12,0,.24.21.35.31-.15,1.14.32,2.31-.31,3.34-.56.32-1.35,0-1.56.52,3,1.88,6.32,1.77,9.53,1.63l.81,2.36c2-1.76,4.31-1.26,6.52-1.33.27,2,2.53,1.73,3.53,3.05,5.37-.72,10.64.88,16,1.2a25.34,25.34,0,0,1,14.44,6.06,105.53,105.53,0,0,1,9,8.25c1.37,1.41,3.26,2,4.64,3.44,1.24,1.31,3.33,1.8,4.65,3.07s2.16,2.34,3.46,3.44c3.6,3.05,8,5,11.27,8.49h-5l-1.1-1.62c-3.9-1-7.42-1.15-10.59-3.41-3.51.8-7-1.75-10.64-.91-1.35-.71-1.55-2.09-2.27-3.07-2.38.39-4.23-1.17-6.39-1.25v-3.38l-2.07-.73c.8-1.62-.27-2.64-1.43-3.62h-6c-1,1-1.91,2.24-3.36,2.45-.45,1.12.27,2.33-.48,3.39-1.1-.19-1.61.91-2.52,1.14s-2.31-.61-3.11.57c-.59,1.83,1.71,1,1.82,2.09-1.41,1-3.33-.34-5,1,6.32,1,12.35,1.23,19.35,3-3.16.52-5.55,0-7,2,2.47.44,4.75,1.93,6.66,1.43,2,.47,2,1.77,2.53,2.79,3.53.36,7.13-.23,10.66.33,0,.68,0,1-.07,1.33-2.23.69-4.34,1.86-6.86,1.38V189H1078c3,0,3,0,6.68,1.79-1.85.66-3.91-.37-5.72.63.08.54-.21,1.09.46,1.48h15.34c.12-.53.21-1,.39-1.84,1.85.55,3.13-.86,4.81-1.59-.79-.71-1.41-1.27-.75-2.22.76-.74,2,.31,2.74-.74-.65-1.56,1.11-2.54,1-4.51a51.23,51.23,0,0,1,6.44.05c3.63.47,7-1.59,10.54-1.05-1.61,2.17-4.24,2.36-6.49,2.89-3.47.83-4,.71-7.5,3.11h6.71l6.3,0c-5.36.42-9.91,3.13-14.79,5.07H1117a85.61,85.61,0,0,0-9,4c3.83-.22,6.53-.06,8.77,1.67l-1.71.61c0,.56-.23,1.08.3,1.46,1.48.6,3.22-.39,4.68.64-2.36.86-4.64,1.81-7,2.49-1.21.35-1.07.92-.73,2.1h9.6c.07.67.1,1,.16,1.54-1.64.62-3.58.72-5,1.93v1.06c1.84,1.07,4.1-.24,5.94.79-.33.81-.89.58-1.45.65,0,1.37-2.06,2-1.31,3.83h4.46l2.89-2.89c2.3.66,4.12-1.14,6.51-1.27-.83-1.51-2.68.36-3.14-1.93,1-1,3.46-1.29,3.29-3.51,1.27-.71,2.76.4,3.81-.77,0-.5.15-1-.4-1.36-1.12-.48-2.53.43-3.91-1,2-.19,3.76-.64,5.34-.92,2.21-.39,2.72-1.82,3.59-3.25h4.2c-.23-.85,1.41-.71.87-1.81-1.9-.46-3.87.31-6-.59,1.82-1.13,3.59,0,5.09-.86.23-.5,1.09-.61,1-1.39l-1.83-.65c1.55-1.35,3.91-1.27,5-3.32l-1.74-.63c.26-1.56,1.83-1.42,2.92-2.25-1.1-3.49,2-3.15,3.91-3.85,0-.64.11-1.18-.59-1.59a30.61,30.61,0,0,1-3.3,0c-1-.1-2.2.57-3-.47.09-1.83,3.5-.73,2.73-3.41h-7.39c-.31-1.49-2.43-.47-2.45-2.09-.06-.87.49-1,1.18-1H1146c3,0,6-.11,8.94,0,1.58.09,2.57-1,3.94-1.4.09-.77.17-1.55.26-2.34,1.19-3,5.72-2.67,6.34-6.41h5.34c.56-1.32-.43-2.78.6-3.82.78-.46,2,.65,2.6-1.07-1.93,0-3.71,0-5.49,0-.13,0-.25-.41-.49-.85,1.3-.4,2.71.33,3.91-.52,0-.43,0-.88-.09-1.6H1157c1.9-3,4.26-5.07,8.12-5.09,1.1,0,2.19-1.08,3.47-1.77,4.62.38,8.84-3.48,14.07-1.83,1.78-3.82,3.91-7.34,7.28-9.59,2.2-1.48,3.82-3.54,5.93-5s4.21-3.14,6.8-4c2.31-.8,4.35-2.34,6.57-3.43,3-1.49,6.22-2.71,9.16-4.38.92-.53,2-.76,2.84-1.63,3.15-3.45,7.36-5.28,11.37-7.48a37.41,37.41,0,0,0,7.28-5.29c3-2.74,6.39-5,9.24-7.68s5.43-5.85,6-10.31c.51-4,2.75-7.62,2.87-11.76,1.9-1.75,2.37-4.44,4.06-6.3A57.49,57.49,0,0,1,1276.8,59a78.34,78.34,0,0,0,12.92-8.46,28,28,0,0,0,7-9c1.06-2.23,1.46-5,2.27-7.53,2-6.05,6.31-13.76,10.27-17.72q4.24-4.25,8.47-8.48c.67-.68,1.58-1.24,1.41-2.41,1.69-.82,3.45-1.42,4.88-2.78.89-.85,2.23-1.39,3,.4-.17,0-.47,0-.48,0a78.59,78.59,0,0,0-2.39,9.47c-.18,1.23-1.71,1.73-1.16,3-2.81,2.74-2,7.29-5.24,9.31.65,1.53,1.92.77,2.38,2.05l-4.51,6.63c2.6,1.09,5.17-.09,7.64.87-1,2.7-3.16,4-5.17,5.12-.22,1.13.46,1.45.88,1.94-1.89,2.75-5.87,3.42-7.27,7.35h9.2c-3.52,1.89-5.12,4.1-6.85,5.66-.13,1.53,1,1.69,1.26,2.46l3.26.17c.48.38.45.68,0,.84-3.15,1.08-5,3.91-7.52,5.83-3.25,2.49-5.56,6.19-8.72,9.89,3.46.34,5.9-1.2,8.48-1.49s5.31-1,7.94-1.51,5.37-1.19,8-1.65c1.09,2.4-1,1.77-1.66,2.42-3.59,3.65-8.78,4.72-12.89,8.3-1.14,4-5.16,6.35-8.06,9.78v3.76c-2.34,3.3-6.58,4.1-9,7.19,1,1.27,2.81-.08,4.17,1.14-1.74,2.64-3.09,5.61-5.27,7.75-3,3-5.22,6.73-8.4,9.57-2,1.76-2.51,4.28-3.75,6.32,1.83,2.1,3.29-.51,5.28-.14-.57,2.64-3.22,3-4.43,4.61a25.63,25.63,0,0,1-4.92,5,48.81,48.81,0,0,1-5.63,3.43v3.33c-4.86,4.47-10.63,8.07-15.34,13.44h6.51c1.06.8.56,1.71.75,2.69-2.86,1.68-6.33,2.1-9,4.66s-5.39,4.69-8,7.2c1.61,1.49,3.55,1.71,5.63,1.62s4,0,6.12,0c-1.16,3.24-4.42,2.59-6.49,3.9s-4.75,1.36-7,3.1a16.51,16.51,0,0,0-5.79.91c-3.28,1.34-6.88,1.87-10.19,3.15s-6.76,1.13-9.84,2.83c-.76.43-2,0-2.94.12-1.83.16-3.76.92-4.4,2.46-1.56,3.76-5,5.32-8,7.42-1.16.84-2.14,1.73-3.68,3.08h7.31c-1.19.9-2,1.91-3.48,2.08-4.65.54-9.3,1.17-13.52,3.54-1.47.83-3.48.2-4.91,1.41-3.63-.76-7,1.54-10.58.95-1.77-.29-2.87,1.31-4.6,1.1a17.45,17.45,0,0,0-4.77.31c3.26.89,6.38,2.21,9.83,1.73-.67.41.38,0,0,.54-.08.14-.23.34-.35.35h-17.34a4.64,4.64,0,0,1-2.94,4.95c-2.55,1.14-3.61,3.52-5.7,4.89,1.52,1.9,3.32.56,4.46,1.51v1.23c-2.65,1-5.59,1.4-7.94,3-.77,2.07,2.8.68,1.74,2.9-1.22,1.07-3.07,1.36-4.76,1.87-.36,2.63,1.86,1.11,2.66,1.83.38.24.36.48-.09.71a9.43,9.43,0,0,1-5.91,1c-.86.39-.59,1.17-.84,1.77-1.41.74-2.94-.09-4.55.48l-.52,1.53c-1.13.81-2.63-.34-3.71.68,0,.49-.28,1.07.22,1.36a9.88,9.88,0,0,0,6.13,1.22c.77.59.54,1.09.54,1.8-7.32.76-14.55-.07-21.83-1.13.45-1.62,2.2.21,2.77-1.22,0-.14.06-.45.15-1.16a52.49,52.49,0,0,1-10.81-1.55s-.22-.11-.22-.23c0-.67,0-1.33,0-2,1.82-.93,3.55-2.15,5.84-1.33.06-.87.09-1.32.14-2.14h-10.73c-.33-1.19-.34-1.65.77-2.09a25.1,25.1,0,0,1,8-2.11v-1.71a54.63,54.63,0,0,1-14.9-2.22v-2.8c1.89.35,3.21-1.26,5.05-1.12a16.58,16.58,0,0,0,4.85-.32c-4.65-1.15-9.41-1.57-13.89-3.64h10.61a13.69,13.69,0,0,0-8.88-2c-2.45.2-4.53-1.48-7.1-1.1a11,11,0,0,1-7.1-.86c-.62-.34-1.58-.05-2.12-.05-.67-.64-.52-1.12-.36-2,2.33.37,4.41-.93,7.73-1.59-4.13-.72-7.32-.36-10.48-.43s-6.23,0-9.29,0c-.07-.74-.1-1.06-.13-1.48l4-2V203c-1.77,0-3.55.11-5.32,0-3.2-.24-6.55.85-9.59-1-2.1.57-4.21,1.09-6.27,1.76a3.17,3.17,0,0,1-1.39.17,1.15,1.15,0,0,1-.13-1.71c1.72-2.12,1.8-2.1,1.66-5.17-5,.44-9.9-.93-14.92.83-2.08.73-4.63.12-7,.12-2.5,0-5.15-.52-7.46.14a28.44,28.44,0,0,1-7.12.87c-.56.59-1.06,1.33-2.38.76-.88-5.57,4.21-8.67,6-13.28-4.36-2-8.54,1.56-12.81.31-.67-.89-.19-1.52.49-2.06a2.89,2.89,0,0,0,.9-3.79c-3,.86-5.59-1.36-9.72-.9l8-4.08a24.5,24.5,0,0,1-14.11-3.6c5.69-1.3,11.59,1,17.18-1.67-1.62-1.2-3.2-2.09-5.08-1.67-2.06.46-3.54-1.37-5.6-1.1-1.7.22-3.6.58-5.1-.91-.17-.16-.65,0-1,0-7.88.14-15.66-2.08-23.4-.7-2.23-2-3.87-4.24-7-4.4-1.8-.09-4.72-3.08-6.88-5.17-1.79-1.73-4.35-2.33-6.74-2.63-1.64-.2-2.72-1.21-4.17-1.84a21.16,21.16,0,0,0,8.35-1.77,74.32,74.32,0,0,1-12.21-4.85c.47-1.42,1.55-1.69,3-1.66,3.28.07,6.56,0,10.31,0-3-2.78-7.23-1.73-9.71-4.87,1.54-2.38,4.42-4,4.26-7.4a6.85,6.85,0,0,0-3.94-3.13v-2.23c.15-.85,2.08.21,2-1.48-2.17-3-6.39-2.76-9.27-5.51,3.88-1.11,8,.82,11.25-1.9.18-1.08-.5-1.13-1.27-1.58a8.93,8.93,0,0,1-3.7-3.8c-1-2.18-2.76-4.21-4.62-4.9-2.6-1-2.16-3.26-3.62-4.43,1.31-1.57,3.18.07,4.22-1.31.2-1.54-1.41-2-2.22-3.49H948.9c-2.36-2.18-4.1-3.63-5.65-5.26a30.39,30.39,0,0,1-4.74-5.51c-1.21-2.09-3.41-3.6-5.35-5.54V76.33c1.67-.91,3.73.14,5.75-.61V69.59c1.3-1.31,1.89-.23,2.59.41H946a.71.71,0,0,0,.6.89c.07,0,.31-.22.29-.29A.71.71,0,0,0,946,70c-.13-.61.17-1.22-.32-1.86-2.39-3.12-3.16-7-4.42-10.57-.76-2.17-.14-4.83-.14-7.43h5.36c1.07-1.6.1-3.34.78-5h4.3c1.47,1.06,3,2.22,5,1.78C958.12,44.43,955.4,42.37,956,40Zm171,199.5c-.32-.47-.66-.47-1,0C1126.33,240,1126.67,240,1127,239.5Z" transform="translate(-1 -1.81)"/><path class="cls-3" d="M423,117c0-.49.24-1.16.65-.74.64.66,1.44.63,2.42,1.11-.95,3.51,1.27,6.76,1,10.38-.07,1.2,1,2.52,1.77,3.73,1.86,2.9,3.08,6.19,6.67,7.69,1.28.54,2.09,2.12,3.23,3.08,1.59,1.34,2.6,3.27,4.83,4,1,.33,1.78,1.68,2.48,2.85a55.36,55.36,0,0,0,6.09,8.46c2.75,3.07,3.81,6.75,4.82,10.52a43.55,43.55,0,0,1,1.43,5.89c.36,3,2.38,5.43,2.57,8.44,2.37,1.54,2.22,4.41,3.43,6.58,2.54,4.56,2.38,4.69,7.36,7.24a28.28,28.28,0,0,1,8,6c1.62,1.75,3.37,3.75,5.48,4.59s4,2.17,6.59,2.34a11.47,11.47,0,0,1,6.59,3c1.67,1.6,3.63,2,5.47,2.64s2.92.73,3.14,2.9c.13,1.3,1.11,2.52,1.9,4.17-.75,4.94,2.06,10.13.89,15,1.64,3.22,3.06,5.85,5.37,8,1.32,1.2,4,1.15,3.88,3.76,2.34.21,2.65,2.45,3.84,3.82,2.11,2.45,4.95,4,7.71,5.51,3,1.64,6.1,2.94,9.17,4.38a42,42,0,0,0,4.75,1.84,10.87,10.87,0,0,1,6.52,5c1.18,2.15,1.52,4.83,4.53,6.19s3.77,2.82,5.83,2.5,3.65,1.09,5.59,1.14,3.89-.67,5.64.89c.46.41,1.61.06,2.44.06h9.2c3.5,2.83,6.07,6.22,9.61,8.74a11.82,11.82,0,0,1,4.1,6.73,12.62,12.62,0,0,1,5.85,5.45,17.07,17.07,0,0,0,2.5,2.93c.76.85.68,2.08,1.7,2.84,1.2.87,2.21,3,3.2,2.95,2.46-.14,3.32,2.62,5.61,2.39,1.09-.11,1.77,1.49,3.08,1v4.51c-1.07.73-1.56,2.47-3,2.42-2.87-.08-3,1.89-3.28,3.81-2.43,1-4.24-.46-6.48-1.64l-.74,1.48-.49-.31v4.18l-3,3c-.07,1.92-.4,3.88,1,5.63-.54,1-1.1,2-1.87,3.49-2.93-3.12-6.54-4.7-8.58-7.51-2.2-.26-1.1,1.7-2.51,2-2.94-1-3.53-4.56-5.89-6.48a82.39,82.39,0,0,1-6.53-6.56h-2.21c-1,1.12-.1,2.58-.58,3.77l-3.75,2.39v15.4l-2.9,1.54c-.81.92-2.75.76-3.08,2.37A10.88,10.88,0,0,1,565,350c1.38,3.35,3.58,6.22,5.4,9.45-3,.25-7.48-2.06-10.93-5.47-5.31,1-9.81-2.11-14.67-3.74-4.67-1.55-9.16-3.64-13.84-5.17a19.19,19.19,0,0,1-7.74-4.29,34.81,34.81,0,0,0-4.93-3.75,23.87,23.87,0,0,1-7.72-7.83c-.58-1-.35-1.86-.63-2.75a22.25,22.25,0,0,0-4.86-1.57,70.24,70.24,0,0,1-10.47-3.65,113.29,113.29,0,0,0-13.24-5.45c-1.58-.48-2.8-2.06-4.36-2.72-2.59-1.09-4.57-3.35-7.38-3.87a5.51,5.51,0,0,1-3.09-2.19,26.33,26.33,0,0,0-9-6.09,114.79,114.79,0,0,1-18.91-11,34.18,34.18,0,0,1-6-4.8c-.63-.71-1.56-1.22-1.7-2,.4-1.57,1.39-1.06,2.11-1.09,1.5-.06,3,0,4.5,0,1.67,0,3.34.12,5,0s3.11.44,4.77-.58c1.22-.74,3.08-.46,5.19-.69-4.18-6.48-11.23-9.47-15.36-15.37,1.39-.9,3.15.17,4.65-.59.61-.92-.07-1.42-.58-2.08-2.54-3.28-6.49-5-9.12-8.14.3-.93,1.6-.1,2-1.43,0-1.39-1.58-2-2.55-3.05-3.31-3.46-3.46-3.69-3.51-8.56-1.54-1.4-2.87-3-4.85-4-2.41-1.21-2.94-4.09-4-6.3-.6-1.29-1-3.61.93-4.78-1.19-3.15-2.27-6.08-4.53-8.39-.95-1-.83-2,0-3.22,2.15.81,4.06,2.3,6.39,2.63,2.13.3,3.12,3.5,5.84,2.4.21-3.57-2.87-6-2.81-9.33-1.41-.89-1-2.31-1-3.58,0-3.83,0-7.65,0-11.39-.63-1.13-2.46-1.46-1.72-3.65A76.49,76.49,0,0,1,436,199h2.55c.75-.89,2.07-1.44,1.46-2.61,0-2.13-4.39-4.21-8.51-4.37-2-1.49-2-4.28-3.87-5.91a27.74,27.74,0,0,1-4.89-5,19.2,19.2,0,0,1-2.64-6.37c-.43-1.9.3-4.08-.21-5.94-.43-1.57-1.6-3-2-4.29.4-1.89,1.36-2.58,2.92-2.56a14.09,14.09,0,0,0,.17-1.52c0-2.89-2-5.24-2.18-8.09,0-.13-.32-.23-.32-.36-.24-3.6-1.76-7.07-1.48-10.48l1.35-1.35c.74.11,1.06,1.25,2.12.81.93-.24.14-1.54.75-1.78,1.6-.92,1.94,1.59,3.3.8.16-.27.51-.6.44-.8-1.05-3.15-2.08-6.27-2-9.67C423.08,125.33,423,121.17,423,117Zm5,104.5c.32.47.66.47,1,0C428.67,221,428.33,221,428,221.5ZM590.5,329c-.47.32-.47.66,0,1C591,329.67,591,329.33,590.5,329Z" transform="translate(-1 -1.81)"/><path class="cls-3" d="M118,251v-1.53a2.41,2.41,0,0,1,3.06.05,66.34,66.34,0,0,1,13.86,12c5.4,1.89,10.1,4.62,15.23,3.39,3.88,3.06,8.07,5.09,11.25,8.5a90.7,90.7,0,0,1,5.87,12.32,74.21,74.21,0,0,0,4.56,9.09,25.93,25.93,0,0,0,11.47,11,60.48,60.48,0,0,0,7.1,3.32c2.27.84,4.43,2.08,6.69,3.06a17.49,17.49,0,0,1,7.48,6c.61,1.2.36,2.76,1.43,3.84-.65,1.55-2.78,1.49-3.32,3.56a11.29,11.29,0,0,1-2.68,4c0,2-.73,4.59.19,6.24,1.07,1.91,0,4.18,1.72,5.86.56.55.09,2.16.09,4.23l-3.59-7c-2,.27-2.56,2.53-4.29,3.1-1.1.3-1.35-1.63-2.58-1-1.6,2.09-1.51,5-3.23,7-3.59-.88-5.46-3.94-8-6.15-.49-2.18-1-4.32-2.86-5.89-1,1.47-.06,3.2-.72,4.88h-4.28c-2.45,3.06-4.73,5.92-5.85,9.77a27.26,27.26,0,0,0-.58,5.22c-.21,2.09-.07,2.1-1.77,5.17-2.12-.32-2.41-1.83-2.33-3.58l-3.38-3.38c-1.66.54-2.92-1.45-4.78-1.06-2.85-1.76-4.22-4.66-5.76-8.05v-3.62c-4.43-3.36-10.12-4.26-15-6.85,1.09-1.1,2.58,0,3.92-.8.64-2.18-1.79-4-.84-6.11l-3-3,1.09-1.2c-.84-2.61-3.7-3.58-4.42-5-2.09-3.42,2.22-4,1.08-7.06-2.51-1.75-3.72-5.44-6.62-7.52a60,60,0,0,1-7.35-6.22c5.51-.41,10.82-1.45,15.55,1.62,1.71-2-.75-2.26-1-3.37-.79-1.89.42-4.24-1.33-5.54-.12-1.27,1.34-1.43.42-3.57-.69-1.09-4.23-1.11-4.54-4.26L121.11,280h8.81c.36-2.76-2.66-3.07-2.92-5.05.58-1.89,2.08-2.24,3.9-1.89l.14-2.41-4.17-3.57h-2.4c-.61-.81-1.29-1.74-2.39-3.22.32-2.11-.83-4.46-3.06-6.3.34-.78,1.15-.42,2-1C120.87,254.38,120.6,252.16,118,251Zm16.5,48c-.47.32-.47.66,0,1C135,299.67,135,299.33,134.5,299Z" transform="translate(-1 -1.81)"/><path class="cls-3" d="M1431.74,199.64c-2.82,1.43-3.64-1.11-5.08-1.85-1.85-.95-3.49-.46-4.82-.76-4,1.7-6.17,4.36-5.88,8.77-7.53.27-13.32,3.55-17.53,10-4.41.23-8.39-1.14-13.76-5-6,3-12.12,4.59-18.87,1.56a20.06,20.06,0,0,1-10.42-10.56c-2.37-5.27-1.76-10.51.82-15.5s7-8.06,13.19-10.37h4.26c2.51-9.08,10.25-19.32,27-22.13.69-1,.24-2.22.32-3.34s0-2,0-3l4.4-4.36h5.24l4.17,4.17c.74,2.78-.2,5.38-1,8.24a32.43,32.43,0,0,1,19.11,18.07C1436.45,181.85,1435.68,190.24,1431.74,199.64Z" transform="translate(-1 -1.81)"/><path class="cls-3" d="M865.83,182c.27-2.57,2.56-3.22,3.4-4.91h3.2c1.29.78,2,2.43,3.83,3.1,2-1.72,3.61-4.13,7-5.16h3.88a15.68,15.68,0,0,1,7.68,7.35c1.59,5.77-2.4,9-6.12,12.42,2.33,5,4.18,10.25,3.17,15.69-.38,2-.49,4.25-1.74,6.26s-1.85,4.63-3.73,6.41c-2.48,2.34-4.61,5.05-7.69,6.73a24.54,24.54,0,0,1-8.7,3,25.85,25.85,0,0,1-28.83-22.4C839.24,195.58,851.05,182.93,865.83,182Z" transform="translate(-1 -1.81)"/><path class="cls-4" d="M1646,277c.22-1.92,1.83-.74,2.73-1.15,3.35-1.55,6.83-2.82,10.19-4.35a5.72,5.72,0,0,1,1.79-.51,12.76,12.76,0,0,0,7.47-3.67c1.08-1,2.12-2.12,3.18-3.18,3.9-3.89,8-7.59,10.6-12.59,1.69-3.27,4.61-5.47,7-8,.64-5.51,3.55-9.2,9.07-11.49h4.18c1.32-.54,1.68-2.31,3.32-2.06,1.79-2.74,2.32-6.06,4-8.83a5.82,5.82,0,0,0,.51-3.29c.07-4,.11-8,0-12a14.73,14.73,0,0,1,6.57-12.67c2.92-2.07,5.85-4.22,8.82-6.26a6,6,0,0,1,3.63-1c.78,4.28-2,8.26-.84,12.34-1.31,1.33-2,.4-2.86-.61-.69,3.13,0,6.09-.45,8.91-1.19,1.3-1.65-.31-2.45-.55-1.58,3.09.68,5.92.61,8.92-.06,3.16,0,6.33,0,9.49-1.09,1.22-1.34-1.51-2.55-.33-1.65,2.35.56,4.66.55,7.09,2.64,2.35,2.48,6,4,8.87.38.75,1.68,1.3.88,2.55-1.33,1.77-2.35-2.14-3.93,0,1.5,2.34,1.94,5.26,3.1,8.43-.07,1-1.32,2-.68,3.94a23.33,23.33,0,0,1,1.64,9.06c-4.26-.83-6.14-4.34-9-6.55s-3.57-5.72-6.81-8v6.64c-.87,1.34-2.07.44-3,1a36.79,36.79,0,0,1-2.52,9.68c-1.17.38-1.66-.36-2.24-.9a16,16,0,0,0-1.42,8.45c-1.32,1-1,3.25-3.31,3.6-2.75-1.36-2-5.66-5.5-6.75-1.07.79.54,2.61-.7,3.67s0,2.55-.85,3.92a3.34,3.34,0,0,0-3.3-.79c-.91,1.09,0,2.55-.44,3.53l-2.61-2.62h-3.7c-3.07-2.14-4.19-5.91-7.25-8-2.5-.21-2,2.6-3.4,3.52-2.84,1.19-5.89,1.71-8.6,3.41a13.06,13.06,0,0,1-9.13,2.09,15.9,15.9,0,0,0-2.49,0C1648.24,279.33,1647.72,277.42,1646,277Z" transform="translate(-1 -1.81)"/><path class="cls-3" d="M1037.59,294c-12.79,1.39-23.51-11.15-23.74-21.4-.27-11.83,10.93-22.06,20.87-22.71,12.17-.8,24.24,11,23.3,22.75,4,1.06,6.75,3.94,8.86,7.09s2.47,6.84,2.13,10.59c-.51,5.66-6.19,12.44-12.43,13.47S1044.21,304.46,1037.59,294Z" transform="translate(-1 -1.81)"/><path class="cls-3" d="M725,270.12c9.8-3.18,17.08.23,20.91,7.69a14.19,14.19,0,0,1,0,12.52q-2.75,5.76-10,8.58h-7.28c-4.55,4.84-10.16,7.47-16.9,7.06a18.86,18.86,0,0,1-13-5.8,20.19,20.19,0,0,1-.46-27.83C704.88,264.94,717,263.68,725,270.12Z" transform="translate(-1 -1.81)"/><path class="cls-3" d="M1498,250.66c.35,9.75-8.7,18.59-18.79,18.43-9.63-.15-18.53-8.77-18.3-19,.22-9.52,8.72-18.45,19.13-18.16C1489.38,232.18,1498.44,240.47,1498,250.66Z" transform="translate(-1 -1.81)"/><path class="cls-3" d="M776.33,258c-9.74.35-18.59-8.7-18.42-18.8.16-9.63,8.77-18.52,19-18.29,9.52.22,18.46,8.71,18.16,19.14C794.82,249.38,786.53,258.45,776.33,258Z" transform="translate(-1 -1.81)"/><path class="cls-3" d="M1349,253.5a54.56,54.56,0,0,0,4.26,4.21c4.62,3.67,6.41,12.61,2.84,18.76-4.47,7.7-13.38,12.69-22.63,7.52-8-4.46-12.46-13.32-7.48-22.66,1.81-3.39,4.73-5.61,7.92-8.06v-4.48a13.7,13.7,0,0,1,6.52-4.89c3.28-.74,6,1.69,8.57,4.66Z" transform="translate(-1 -1.81)"/><path class="cls-3" d="M1270.9,191.52c11.25-5.41,24,4.18,22.1,18,1.43.56,2.65,1.76,4.49,1.47l4.26,4.58c.58,2.47,1.86,5.16.93,8.38-.88,3-3,4.84-5,6.91-2-.27-3.49,1.29-5.53,1.27s-3.6-1.45-5.62-1.11l-4.35-4.47c.24-1.7-1.49-3.17-1.22-5.58-4,.45-8.12,0-11.43-2.18a15.54,15.54,0,0,1-5.55-6.09,14.93,14.93,0,0,1-1.88-8.55c3.34.24,6-1.29,8.16-3.88A7.12,7.12,0,0,0,1270.9,191.52Z" transform="translate(-1 -1.81)"/><path class="cls-3" d="M1004,253.92c.7,8.45-8.73,17.24-17,17.23-8.12,0-17.19-8.69-17.11-17.32.08-8.13,8.78-16.86,16.94-17C995.42,236.74,1004.66,245.82,1004,253.92Z" transform="translate(-1 -1.81)"/><path class="cls-3" d="M1341.23,111c7.75-1.14,13.26,2.83,16.73,11-.39,2.21,1,5.23-1.07,8.06,1.77,3.06,3.84,6.17,2.95,10.42a15.34,15.34,0,0,1-7.67,7.49c-2.36,0-5.19.48-7.39-1.72s-5-4.25-4.9-7.91c-4.92-2.13-5.86-3.07-9.75-9.67C1328.94,120,1332.73,114.4,1341.23,111Z" transform="translate(-1 -1.81)"/><path class="cls-5" d="M337,190c2,1.53,2.23,4.08,3.54,6H342c-.09,3.89,1.92,7.59.86,11.36l2.16,2.16c-.31,2,.72,4.33-1,6.31.3,2.43,3.12,3.64,3,6.13l-3,2.69v5.76c1.93,2.28,3.3,5.13,5.81,6.87,1,3.58-2.13,6.67-.2,10.86l1.24,1.13v5.13l2.25,2.25c-.66,3.9-3.76,7.28-3.31,11.9.4,4.15.84,8.21,2.26,11.94-1.75,3.72-1.75,3.72-4.44,5.57-1.48-.79.28-3.13-1.66-3.69.16-4.37-2.2-8.14-2.91-12.27A43.36,43.36,0,0,0,338.44,257a7.67,7.67,0,0,1-.5-2.61,9.51,9.51,0,0,1-3.78-10c.62-.39.87-1.39,2.35-1.35l3,3,2.58-.14c-2-4.35-.73-8.75-1.23-13.27-.84-1.57-2.3-3.2-1.88-5.45a4.76,4.76,0,0,0-1.39-3.89c-2.22-2.51-2.59-5.36-2.65-8.45,0-1.9.3-3.74-.87-5.65s1.52-3.77.81-6l2.68-.25c1.24-1.52-.34-2.62-.54-3.92a30.55,30.55,0,0,1-.05-4.49Z" transform="translate(-1 -1.81)"/><path class="cls-4" d="M892,35h11.54c2.19,2.21,4.54,4.34,6.62,6.71A28.8,28.8,0,0,0,922.21,50c.5.19.9.38.79,1a23.54,23.54,0,0,0-4.65,8.07c-1.3,4.53-4.61,7.28-9.09,8.66-.67-1,0-2.42-.58-4.45-2.28,4-4.08,7.46-7.74,9.3a19.8,19.8,0,0,1-4,1.24c-1.35.34-2.47,1.63-4,1.19-.6-.17-1.33.28-1.84-.39a13.67,13.67,0,0,0-1-1c-1-1.51,1.3-4.14-1.32-5.28.64-1.74,1.46-2.48,3.06-2.39a6,6,0,0,0,5.27-2.74,5.17,5.17,0,0,0-3-3.15c-1.42-.46-1.93-1.71-3.09-2.44V54.42c.82-1,2.08.17,3-1.07C892.74,50.5,890,48,889.93,44c1.7.95,3.47,1.1,4.22,2.81,1.4.15,2.67.49,4-.35C896.57,42.37,894,38.81,892,35Z" transform="translate(-1 -1.81)"/><path class="cls-3" d="M247,297c1.06-.18,1.75.43,2.61.95,3.17,1.91,7,2.47,9.94,5,.48.41,1.62.06,2.45.06-.61,1.39-1.21,2.42-.41,4.33,1.38,3.27,2.16,6.74,4.36,9.69,1.62,2.18,2.64,4.72,2.09,7,.94,2.16,2.41,3.56,1.9,5.56-2.57,1.69-3.57-1.76-6.22-1.85.9,2.55,1.72,4.63,1.18,6.84-.95.53-2.13.71-2.88,2-.58,4,3.35,7.13,2.92,11.27l-1.28.16c-1.67-4.58-5.3-8-7.22-12.43a6.42,6.42,0,0,1,.73-5.93c-3.62-3.45-9-4.52-11.92-9.24.61-2.23-2.9-3.36-2.38-6-2.59-1.1-1.14-4.86-4-5.73,2.17-2.07,3.93,1.65,6,.06-.18-1-1.18-1.36-1.76-2.17v-3c.51-1,2.1-.54,2.95-2.52v-4Z" transform="translate(-1 -1.81)"/><path class="cls-3" d="M825,138.83c1.56-3.06,2.73-6.29,5.7-7.73,2-1,3.93-2.92,6.58-2,1.29-1.41,2.5-2.75,3.63-4h4.73l4.27,4.27c0,1.76.64,3.71-1,5.38.73,1.18.85,2.68,2,3.65,1.66,10.33-5.61,18-15,16.71-5.9-1.8-9.22-4.92-11-10.64Z" transform="translate(-1 -1.81)"/><path class="cls-3" d="M385.24,184.74l4,4c1.89,3.81,1.9,7.18,1.63,10.87l3.07,2.58v5.29l-4.37,4.37h-5.22L380.5,208c-2.69-.05-5.47.4-8-1l-5.05-5.05c-1.69-4.22-2.12-8.22-.07-12.57l5.48-5.31A14.5,14.5,0,0,1,385.24,184.74Z" transform="translate(-1 -1.81)"/><path class="cls-3" d="M1157.36,267.35a14.19,14.19,0,0,1,12-.14l6.62,6.63a14.48,14.48,0,0,1-.57,12.3l-5.81,5.81c-2.11-.19-3.85,1.2-6,1.19s-3.94-1.37-6.06-1.19l-5.78-5.78a14.94,14.94,0,0,1-.31-13Z" transform="translate(-1 -1.81)"/><path class="cls-3" d="M1448.29,128.21l5-5c5.76-1.2,5.76-1.2,11.19-.15l5.38,5.71c1.54,3.22,1.63,7-.59,11.46l-4.5,4.5c-1.15.77-3.11-.27-4.1,1.65-.82,1.72-2.58,3-4.09,4.55h-4.07l-3.63-4.24a7.19,7.19,0,0,1,1.18-4.84C1446.43,137.73,1446.33,133.23,1448.29,128.21Z" transform="translate(-1 -1.81)"/><path class="cls-6" d="M1532,182a98.38,98.38,0,0,1-.08,10.45,18.13,18.13,0,0,0,2.27,10.53c2.35,4.26,4.45,9.24,9.81,11v2h2c1.47,1.31,3.27,1,5,1v3.5c-3.42,1.89-7.17,1.59-10.84,1.46a15.91,15.91,0,0,1-8.61-3.16c-3.86-2.82-7.89-6-9.63-13.29-1.13-4.71-1.3-9.32.54-13.47a18.82,18.82,0,0,1,1.8-3.72c1-1.4,2.66-2.37,3.13-4.21,1.54,0,2.1-1.37,3.14-2.07C1530.87,181.81,1531.5,182,1532,182Z" transform="translate(-1 -1.81)"/><path class="cls-4" d="M1744,193a46.64,46.64,0,0,1,7.11-6c2-1.41,4.11-2.64,5.16-5h9.46c.68,0,1.35,0,1.27,1-.06,1.27.32,2.56-1,3.57-1.61,1.23-1.91,3.16-2.12,5.11-.53.58-1.53.15-2.09,1-.28.41-1.1.46-1.7.68,0,1.16-.11,2.28-.17,3.55h-3.24c-1.27.94-.07,2.41-1.23,3.25-.73.53-1.68,1.14-1.41,2.45l-3.77,1.71c-.52,3.33-2.41,6-4.47,9.65-.77-2.31-1.62-3.83-1.68-5.39A10.21,10.21,0,0,0,1743,205c-.54-1.39,1.09-2.18,1-3.55C1743.91,198.63,1744,195.81,1744,193Z" transform="translate(-1 -1.81)"/><path class="cls-5" d="M1425.83,111.66l-5.24,5.22h-6.21l-5.3-5.3v-5.64L1415,100h5.52l5.32,5.64Z" transform="translate(-1 -1.81)"/><path class="cls-5" d="M920.56,225.93h-6.13l-5.38-5.38v-5.73l5.82-5.81h5.63l5.36,5.5v6.13Z" transform="translate(-1 -1.81)"/><path class="cls-6" d="M1365,43c4.82,1.79,9.65,3.62,14.84,4,2.09.14,3.89,1.67,6.08,1,2.87,1.78,6,.7,9.08,1v2.51L1390.46,56c-.42,0-.45-.63-.46-1.32s.16-1.32-.8-1.84c-2.72,1.06-3,4.41-5.32,6.33-1.6-1.35-.69-4-2.84-5.19-1.36,1.45-3.5,1-5.56.95-3.07-2-6-4.13-7.72-7.64C1367,45.81,1364.62,45.29,1365,43Z" transform="translate(-1 -1.81)"/><path class="cls-3" d="M1791,200c5.69.06,11.27-1.72,17-1,0,1.82-.74,4.3.17,5.31,1.43,1.61,0,3.55,1.48,5,.9.89.42,2.41.06,3.62-2.61.6-1.45-2.71-3.21-2.88-.7.36-.33,1.17-.92,2-1.54.26-2.87-2.11-4.52-.89A30.74,30.74,0,0,1,1791,200Z" transform="translate(-1 -1.81)"/><path class="cls-7" d="M760,172a15.6,15.6,0,0,0,9.49-3.26c3.61-2.65,7.43-5.27,9.64-9.65,1.3-2.59,2.64-5.18,3.83-7.83.26-.57.07-1.34,1-1.26.63-.11.91.27,1,.79a20.35,20.35,0,0,1-1.2,10.47A18.93,18.93,0,0,1,777,170.1c-4.3,3-8.85,3.92-13.87,4-1.29,0-2-.89-3.08-1.07Z" transform="translate(-1 -1.81)"/><path class="cls-3" d="M1179.89,227h3.63l4.33,4.45v4.19l-4.25,4.25h-4.2l-4.34-4.34v-4.11Z" transform="translate(-1 -1.81)"/><path class="cls-3" d="M379.5,240H383l4.94,5v3.59L383.12,253H379.5c-1.41-1.41-2.82-2.83-4.37-4.37v-4.26Z" transform="translate(-1 -1.81)"/><path class="cls-8" d="M894.79,269.42c-1-1.57-3.08-2.08-2.73-4.81.72-1.38,3-2,3.76-3.35.93-1.66,2.53-2.49,3.38-4.13h4.43l3.22,3.22v4.3L903.54,268C900.88,268.21,897.75,267.44,894.79,269.42Z" transform="translate(-1 -1.81)"/><path class="cls-8" d="M307.66,275h4l2.29,3.12v3.59l-3.13,2.15h-3.42L305,281.51v-4.06Z" transform="translate(-1 -1.81)"/><path class="cls-6" d="M790.15,184.35l-1.7,1.7c-2-.49-4.52,1-6.36-1.5v-5.14l1.28-1.28h5.27C791.21,179.75,789.35,182.4,790.15,184.35Z" transform="translate(-1 -1.81)"/><path class="cls-8" d="M1490,273.21v-2.86l3.08-1.76-.57-.59h3l2.44,2.59v3l-2.77,2.31h-2.82Z" transform="translate(-1 -1.81)"/><path class="cls-9" d="M1894,292c6.75,0,13.49,0,20.24,0,.72,0,1.75-.36,1.76,1-6.75,0-13.49,0-20.24,0C1895,293,1894,293.35,1894,292Z" transform="translate(-1 -1.81)"/><path class="cls-10" d="M1551,219v-2h2v2Z" transform="translate(-1 -1.81)"/><path class="cls-11" d="M885,37c.47-1.93,2-.62,3-1C887.53,37.93,886,36.62,885,37Z" transform="translate(-1 -1.81)"/><path class="cls-9" d="M247,297h-3C245,295.63,246,295.63,247,297Z" transform="translate(-1 -1.81)"/><path class="cls-9" d="M57,330c.47-1.93,2-.62,3-1C59.53,330.93,58,329.62,57,330Z" transform="translate(-1 -1.81)"/><path class="cls-11" d="M788,136c.15-.76-.5-1.91,1-2C788.85,134.76,789.5,135.91,788,136Z" transform="translate(-1 -1.81)"/><path class="cls-3" d="M1001,187.5c-.32.47-.66.47-1,0C1000.33,187,1000.67,187,1001,187.5Z" transform="translate(-1 -1.81)"/><path class="cls-6" d="M1556,219a.85.85,0,0,1,1,1A.85.85,0,0,1,1556,219Z" transform="translate(-1 -1.81)"/><path class="cls-12" d="M760,172v1a.85.85,0,0,1-1-1Z" transform="translate(-1 -1.81)"/><path class="cls-3" d="M421,137.5c-.32.47-.66.47-1,0C420.33,137,420.67,137,421,137.5Z" transform="translate(-1 -1.81)"/><path class="cls-3" d="M1329.5,68c.47.32.47.66,0,1C1329,68.67,1329,68.33,1329.5,68Z" transform="translate(-1 -1.81)"/><path class="cls-13" d="M1142,175c0,1.62,2.14.6,2.45,2.09h7.39c.77,2.68-2.64,1.58-2.73,3.41.82,1,2,.37,3,.47a30.61,30.61,0,0,0,3.3,0c.7.41.54.95.59,1.59-1.89.7-5,.36-3.91,3.85-1.09.83-2.66.69-2.92,2.25l1.74.63c-1,2.05-3.4,2-5,3.32l1.83.65c.11.78-.75.89-1,1.39-1.5.89-3.27-.27-5.09.86,2.09.9,4.06.13,6,.59.54,1.1-1.1,1-.87,1.81h-4.2c-.87,1.43-1.38,2.86-3.59,3.25-1.58.28-3.31.73-5.34.92,1.38,1.44,2.79.53,3.91,1,.55.32.35.86.4,1.36-1,1.17-2.54.06-3.81.77.17,2.22-2.26,2.47-3.29,3.51.46,2.29,2.31.42,3.14,1.93-2.39.13-4.21,1.93-6.51,1.27l-2.89,2.89h-4.46c-.75-1.85,1.35-2.46,1.31-3.83.56-.07,1.12.16,1.45-.65-1.84-1-4.1.28-5.94-.79v-1.06c1.44-1.21,3.38-1.31,5-1.93-.06-.55-.09-.87-.16-1.54h-9.6c-.34-1.18-.48-1.75.73-2.1,2.37-.68,4.65-1.63,7-2.49-1.46-1-3.2,0-4.68-.64-.53-.38-.28-.9-.3-1.46l1.71-.61c-2.24-1.73-4.94-1.89-8.77-1.67a85.61,85.61,0,0,1,9-4h-12.74c4.88-1.94,9.43-4.65,14.79-5.07l-6.3,0H1106c3.52-2.4,4-2.28,7.5-3.11,2.25-.53,4.88-.72,6.49-2.89a.79.79,0,0,1,.78-1c4.85-.39,9.53-1.27,13.72-4C1136.79,174.55,1139.46,175.07,1142,175Zm-1.92,24.5c-.91-.65-1.55-.94-2,.15C1138.7,200.19,1139.26,200.15,1140.08,199.5Z" transform="translate(-1 -1.81)"/><path class="cls-14" d="M1036,145c-2.21.07-4.51-.43-6.52,1.33l-.81-2.36c-3.21.14-6.58.25-9.53-1.63.21-.55,1-.2,1.56-.52.63-1,.16-2.2.31-3.34-.11-.1-.23-.31-.35-.31-3.11,0-6.22,0-9.24,0-.45-1.87,1.6-.6,1.58-1.75.39-1.58-1-1.28-2-1.79.71-.85,1.22-1.74,2.68-1.61.51-1.84.34-4.24,3.48-4.14A2.94,2.94,0,0,0,1020,127a105.38,105.38,0,0,1,15.68,16.13C1036.17,143.78,1035.87,144.39,1036,145Zm-19.5-13c.47-.32.47-.66,0-1C1016,131.33,1016,131.67,1016.5,132Z" transform="translate(-1 -1.81)"/><path class="cls-15" d="M1157,156h14.86c0,.72.07,1.17.09,1.6-1.2.85-2.61.12-3.91.52.24.44.36.85.49.85,1.78,0,3.56,0,5.49,0-.64,1.72-1.82.61-2.6,1.07-1,1,0,2.5-.6,3.82h-5.34c-.62,3.74-5.15,3.39-6.34,6.41-.09.79-.17,1.57-.26,2.34-1.37.36-2.36,1.49-3.94,1.4-3-.15-6,0-8.94,0,0-1.36,1.06-1,1.77-1a7.34,7.34,0,0,0,6.23-2.54,64.29,64.29,0,0,1,.08-8.07C1154.36,160.07,1154.09,157.24,1157,156Z" transform="translate(-1 -1.81)"/><circle class="cls-16" cx="1544" cy="213.19" r="1.41"/><path class="cls-13" d="M1103,182c0,2-1.71,2.95-1.06,4.51-.74,1.05-2,0-2.74.74-.66.95,0,1.51.75,2.22-1.68.73-3,2.14-4.81,1.59-.18.85-.27,1.31-.39,1.84h-15.34c-.67-.39-.38-.94-.46-1.48,1.81-1,3.87,0,5.72-.63-3.66-1.78-3.66-1.78-6.68-1.79h-7.94v-2.07c2.52.48,4.63-.69,6.86-1.38,0-.32,0-.65.07-1.33-3.53-.56-7.13,0-10.66-.33-.51-1-.51-2.32-2.53-2.79-1.91.5-4.19-1-6.66-1.43,1.44-2,3.83-1.49,7-2-7-1.77-13-2-19.35-3,1.71-1.35,3.63,0,5-1-.11-1.13-2.41-.26-1.82-2.09.8-1.18,2.08-.3,3.11-.57s1.42-1.33,2.52-1.14c.75-1.06,0-2.27.48-3.39,1.45-.21,2.31-1.46,3.36-2.45h6c1.16,1,2.23,2,1.43,3.62l2.07.73v3.38c2.16.08,4,1.64,6.39,1.25.72,1,.92,2.36,2.27,3.07,3.65-.84,7.13,1.71,10.64.91,3.17,2.26,6.69,2.39,10.59,3.41L1098,182Z" transform="translate(-1 -1.81)"/><path class="cls-2" d="M1127,239.5c-.32.47-.66.47-1,0C1126.33,239,1126.67,239,1127,239.5Z" transform="translate(-1 -1.81)"/><path class="cls-2" d="M946,70a.71.71,0,0,1,.89.6c0,.07-.22.31-.29.29A.71.71,0,0,1,946,70Z" transform="translate(-1 -1.81)"/><path class="cls-2" d="M428,221.5c.32-.47.66-.47,1,0C428.67,222,428.33,222,428,221.5Z" transform="translate(-1 -1.81)"/><path class="cls-2" d="M590.5,329c.47.32.47.66,0,1C590,329.67,590,329.33,590.5,329Z" transform="translate(-1 -1.81)"/><path class="cls-2" d="M134.5,299c.47.32.47.66,0,1C134,299.67,134,299.33,134.5,299Z" transform="translate(-1 -1.81)"/><path class="cls-3" d="M1140.08,199.5c-.82.65-1.38.69-2,.15C1138.53,198.56,1139.17,198.85,1140.08,199.5Z" transform="translate(-1 -1.81)"/><path class="cls-3" d="M1016.5,132c-.47-.32-.47-.66,0-1C1017,131.33,1017,131.67,1016.5,132Z" transform="translate(-1 -1.81)"/></g></g></g></svg>