<svg xmlns="http://www.w3.org/2000/svg" viewBox="0 0 1920 563.15"><defs><style>.cls-1{isolation:isolate;}.cls-2{fill:#9b7b1a;}.cls-3{fill:#b2902a;}.cls-4{fill:#b3902b;}.cls-5{fill:#b3902a;}.cls-6{fill:#b2902b;}.cls-7{fill:#b3912e;}.cls-8{fill:#b08e28;}.cls-9{fill:#cfba7d;}</style></defs><title>Fichier 5</title><g id="Calque_2" data-name="Calque 2"><g id="Plan_de_travail_1" data-name="Plan de travail 1" class="cls-1"><g id="Calque_11_Image" data-name="Calque 11 Image"><path class="cls-2" d="M1921,117V565H1V110c4.65-2.62,9.26-5.38,14.91-5,.6,0,.87-.34,1.24-.65C19,102.8,21.31,103,23.49,103c.53-.53,1-1,1.48-1.47a8.88,8.88,0,0,0,1.14-2,45.8,45.8,0,0,1,5.7-7.47,33.7,33.7,0,0,1,7.57-5.78C41.78,85,43.73,82.34,47,83l-2.14,8.36A11,11,0,0,0,46.53,93c.35.23,1,0,1.47,0v5c3.71-.18,6.51-2,9.38-3.16,2.21,2.07-2.15,4.19.46,6.3,1.79-.88,2.7-3,4.38-3.75S65,95,67.06,93.87V100c3.69-1.29,10.49-5.42,12.06-7.75C80.58,90.12,82.33,87.93,82,85c.89-2.73,3.25-4.33,4.88-6.49,2.16-2.85,3.34-6.49,7.05-8a2.21,2.21,0,0,0,1-1c1.45-3,4-4.79,6.58-6.77s6.2-2.76,7.87-5.72c1.78,0,3.28,0,4.78,0a.77.77,0,0,1,.79,1c-3.73,4.9-8.35,13.33-8.68,15.82A27,27,0,0,1,114,71c.13,1-.31,2,.36,2.88l2.44.28c.72,1.18-.56,3,1.19,4.11,2.54-1.78,4.16-5,8-5.33.36,3.64-1.63,6.7-1.78,9.9,2.4-.68,3.84-2.35,5.6-4.12a11,11,0,0,0,1.87,5.46c2.64-1.15,5.26-2.78,8.26-2,.75,3.16-2.19,5.77,0,9.56a35.23,35.23,0,0,1,6.7-7.74c.87,1-.11,2.25.93,3,1.52.31,2.68-2.19,4.53-.47-.38,7.56.85,15.06,2.48,23.14,2.16-2,2.79-4.59,5.38-6.2.33,2.85-.53,5.61,1.75,7.4,2.45-2.12,2.32-5.87,5-7.9h5c3-3.33,4.13-7.87,7.41-10.61V90c1.86-2,5-2.33,6.32-5h6.44c.68,0,1.31.06,1.24,1,0,.5-.22,1.21,0,1.47,2.3,2.36,2.11,5.24,1.85,8.15-1.14,1-1.3,2.46-2.09,4,3.12,3.17-.41,6.8.24,10,2.28,1.39,3.76-1.78,5.71-.35,1,2.63-.29,5.17-.66,8.23,3-1.47,4.88-3.77,7.52-4.54,1.16,2.94-.21,5.48-.48,8.52,3.07-1.37,4.34-3.87,6.48-5.46H214c1,1.92,2,3.85,3,5.75,2.29,4.24,3.14,5.11,7,7.25,1.08.6,2.56.9,3.19,1.81,1.26,1.79,3,.82,4.49,1.35L233.5,134c7.42,0,14.91,0,22.4,0,2.91,0,5.6-1.68,8.58-1,1.94-2,4.64-.1,6.52-1.11,2.22-1.2,4.43-.58,6.73-1,1.16-2,3.85-2,5.34-3.58s3.88-2,4.89-3.86c1.11-2,3.19-2.85,4.66-4.46,3.26.62,6.34-.87,9.52-1.23,2.87-.33,6.15-.7,8.87-2.63a37.5,37.5,0,0,1,3-2.21,25.45,25.45,0,0,0,9.92-10c3.8-7.72,10.44-13,16.49-18.57,3.13-2.89,7-5.13,10-8.34.95,0,2.13.33,2.89-.09s1.57-1.1,2.63-.91c0,.83.33,1.89-.05,2.46-3.39,5-4.77,11.17-8.75,15.87a1.11,1.11,0,0,0,.35,1.68c3-.48,4.8-3.48,7.81-4,1.17.16,0,2.16,2.23,1.94.63-.09,1-1.42,2-2,1.08.21,2.29-.44,3.27.39.4,3.19-.32,6.41.46,9.85.87-1.08,1.6-1.6,1.79-2.75.13-.79,1.27-.73,1.92.23-1.68,5.32-3.38,10.69-5.32,16.86,4.4-2,5.3-6,8.16-8.48v7.4c1.11.65,2.3.82,2.94,1.86.54,1.5-.42,3.24.66,4.68,2.16,0,2.16-2.15,2.35-3a148.9,148.9,0,0,0,3.26-21.67,9.21,9.21,0,0,0,2.49-3.44c.56-1.28.29-2.84,1.39-3.92.12-.28.17-.77.36-.82A50,50,0,0,0,399,80.94c.72.2,1.1.44,1,1.06a8.65,8.65,0,0,1-.05,3c-1.94,5.08-2.44,10.49-4,16,2.92.23,5.15-1.51,7.54-1.93,1.22.76-.37,2.49,1.45,3,2.37-.47,3.87-2.44,5.58-4.07.8.18,1.68-.34,2.54.58-.68,3.72-3.9,7.14-2.49,12.12l5.06-4.7c.76.17,1.66-.37,2.28.4.37,1.55-.37,3.23.61,4.86l8.77-4.42c1.51,1.25-.09,3.1,1.41,4.33a14.47,14.47,0,0,0,4.67-3c1.1-1.17,2-2.6,3.63-3.2.49,0,1.21-.22,1.45,0,3.83,3.88,8.88,5.64,13.74,7.5,3.27,1.25,6.56,3.12,10,2.46,1.32.77,2.38,1.87,3.46,1.89,1.53,0,2.88.49,3.21,1.67s1.52,2.35,1.19,4A28.08,28.08,0,0,0,470,128a5.46,5.46,0,0,1-.58,2.2c-.91,2.21-2.86,4.11-2.42,6.8a.71.71,0,0,0-.89.6c0,.07.22.31.29.29a.71.71,0,0,0,.6-.89c.5,0,1.28.2,1.44,0,1.46-2.1,4.11-2.29,5.93-3.79a1.06,1.06,0,0,1,1.63.38c-1.83,3.29-1.83,3.29-1.52,5.39a171.21,171.21,0,0,1,16.16-9.81c1.55,1.87-1,3.13-.7,4.91A42.14,42.14,0,0,1,490,140a.71.71,0,0,0-.89.6c0,.07.22.31.29.29a.71.71,0,0,0,.6-.89,5.81,5.81,0,0,1,.39,6c-.37.86-.65,1.41.78,2.29,3.74-4.51,9.44-6.86,13.41-11.39,1.51-1.72,3.27-3.1,5.78-2.94,3.07-2.62,5.92-5.66,10.2-6,1,1.42-.2,2.92.81,3.92,3.68-2.38,5.13-6.75,8.72-9.35-.84-3.28,1.71-6.23.91-9.54,1.66-1.88,3.31-3.77,5-5.74v-1.82c.56-.71,1.46-.48,2.15-1,3.11-2.49,6.4-4.74,9.49-7.29s6.83-4.26,10.44-6c1.17-.59,1.57-1.94,3.11-2.15,2.67-.38,4.84-2.23,6.89-3.73,3.79-2.78,6.51-6.66,8.88-10.73,2.16-3.72,4.32-7.44,8.72-9.44a10.93,10.93,0,0,1,6.16,1.24,18,18,0,0,0,13.44,1c4.45-1.32,9.15-1.77,13.24-4.24.37-.22,1-.05,1.48,0,2.91.12,5.52-1.24,8.27-1.67,3.74-.59,7.2-2.56,11-2.28a14.06,14.06,0,0,0,6.54-1.14A12.39,12.39,0,0,1,651,57h7a21.75,21.75,0,0,1-2.46,9.94c-.54,1.16-1.33,2.28.46,3.06,0,.49.21,1.14,0,1.46-2.27,3-4.64,6-6.92,9a14.34,14.34,0,0,0-3.06,6.7c2.48-.36,3.86-2.38,6-2.17.13.61-.31,1.33.5,2,3.62,0,4.88-4.09,8-5.14,1.45,3.83-.39,7.44-.38,11.49,1.5-1.5,2.82-2.4,3.56-3.64a107.47,107.47,0,0,1,8.32-11.45c1.64-2.08,4-4.12,4-7.24,1,0,1.23-1,1.91-1.41a51.82,51.82,0,0,0,16.88-16.77,44.42,44.42,0,0,1,3.35-4.66,36.32,36.32,0,0,1,4.33-4,22.41,22.41,0,0,1,7.07-4.26c.23.55.34.84.46,1.12-.68,6.06,1.65,11.89,1,18.08,2.21-.88,1.84-3.36,3.68-4.08.72.16,1.62-.38,2.32.5,0,1.44-.08,2.94,0,4.42.09,1.32-.43,2.76.51,4.25l3.88-4.1c2.39,1.31,1.15,4.58,3.42,5.94,1.66.15,1.82-2.46,3.91-2,.72,2,2.11,4.21,2.14,6.39,0,5.23,1.8,10.32,1.15,15.58-.08.6-.33,1.34,1,2.37-.58-3.31,1.34-5.61,1.05-8.45.85.12,1.4-.17,1.77.46.54,1.44-.51,3.19.64,4.56,1.27.61,1.52-1.3,2.61-1,.88,0,1.1,1.34,2.14,1l1.79-1.14c-.23,2.78,0,5.14,1.4,7.1,1-.27.11-1.58,1.32-1.93.66,4.31-.25,8.71,1.14,13,1.31,4,2.14,8.2,4.38,12.37,0-2.47,1.54-3.83,2.76-5.29s0-4.27,2.75-4.77c.61,1.52-.39,3.27.64,4.69,1.66.3,2-1.51,3.19-1.85,2,1.42,1,4.59,3.32,5.86,1.62.21.57-1.71,1.64-2h3l3.3-3.3c.69,2.58,1.25,5.68,3.65,8.45,2.82-1.45,3,1.49,3.87,2.79l2.41.17c0,1.66,1.18,2.4,2.09,3.29a9.49,9.49,0,0,1,3.2,5.18c.08.46.45.48.68.15l.85-2.48c2.5,5.91,4.28,11.4,6.38,17,1-2,2.52-3.52,3-5.66a10.14,10.14,0,0,1,2.76-5.25c.37.51,0,1.33,1,1.84l1.94-2.79,3.36,3.71c2,1,2.36-2.62,4.37-2l.76.63c2.91-.69,4.51-3.05,7.21-3.87A3.43,3.43,0,0,0,822,125a11.38,11.38,0,0,0,2.07-1c2.51-2,5.13-1.12,6.86.64,2.65,2.69,6,4.5,8.49,7.31,8.37.24,16.73.53,24.53-3.33a2,2,0,0,1,.68-1.75c2.68-2.21,3.58-6.21,7.36-7.34.57-3.3,4-4.35,5.48-7.19,1.36-2.68,4.28-4.57,6.51-6.81a4.61,4.61,0,0,0,1-1.08C887.74,98.6,892.41,94,895.4,88.3c1-1.87,2-4.14,4.39-5.3H903a28,28,0,0,0,4.36,9c1.06-.39.14-1.72,2.07-2.08l.76,1.61c2.26,1.07,3-.16,3.81-1.19.26-1.13-.56-2.55.67-3.49,2,.34,1.23,2.78,2.9,3.06,1.31-1.15,2.1-2.76,3.69-3.87,2.4-1.69,4.27-4.12,6.41-6.21.59-.58.2-1.24.33-1.85,1.66-1.38,3.63-1,5.58-1,.9,1.62,3,1.92,3.88,3.77.77,1.55,2.47,2.63,3.76,3.92l4.14,4.14h5.19A119.56,119.56,0,0,1,972.62,75a19,19,0,0,0,12.1-3c3.86-2.45,8.51-3.75,11-8.07.67,0,1.36,0,1.28,1-.16,2.38.6,4.89-1,7.06.42,4.11-1.43,7.63-2.8,11.3a3.77,3.77,0,0,0,.27,3.63c2.31.3,3.82-1.42,6-2.07a14.36,14.36,0,0,1,3.76,10c2.47-2.71,4.46-5,7.8-3.46v16.45h4.51c1.87-1.61,4.67-1.63,5.74-3.64,1.34-.58,2.54.19,3.15-.26,1.56-3.19,4.24-4.72,6-7,2.08,1,1.64,3.31,2.48,4.94,1,1.88,3.37,2.66,3.48,5.17H1044a15.52,15.52,0,0,0,7.89,7.87c1.25,0,2.92-.09,4.57,0,6,.37,10.64-2.34,15-6,.48-.39.71-1.18,1.55-1.06.5,0,1.09-.18,1.48,0,3.57,1.83,7.06,3.81,10.67,5.57,2.61,1.28,5.36,3.18,8.06,3.21,5.4,0,10.62,1.67,16,1.24,4.81-.37,9.34,1.25,13.54,3.35,5.94,3,11.73,6.26,17.46,9.63s11.89,5.83,17.94,8.49c3.47,1.53,7.36,2.28,11,3.51,5.09,1.73,10.62,2.41,14.75,6.09,3-.93,6.11-1.27,8.41-3.19,1.21-1,2.36-.88,3.63-.93.13.61-.26,1.27.33,1.86,1.41,1.4,2.75,2.86,3.94,4.11h7.29c5-1.35,7.5-4.63,10.36-7.38.15-5.58,5.41-7.14,7.88-10.73,2.68,1,2.93,3.74,4.84,5.25.83-1.58.59-3.37,1.2-5,2.21-6,3.9-12.11,3.17-18.62a23,23,0,0,1,0-2.49c0-.17-.06-.45,0-.48a203.33,203.33,0,0,0,25.2-15.2c5.63-3.84,11-4.78,16.79-3.32,0,3,1.3,5.78,2.14,8.6.95,3.16,4.44,4.45,5.52,7.58,4-.33,3.76-4.37,6.6-6.5l4.4,4.51c1,.32,2.16-2,3.88-1,3,1.93,4.32,5.5,7,7.84l4.16-4.16c1.55-6,5.1-10.43,9.31-14.29.5-3.12.5-3.12,3.84-3.86.59-1.85-.36-3.89.55-5.67h1.55c-.46,2.26,1.7,4,1.16,6.4-.09.41.91,1.06,1.41,1.6L1330,92.5c0-3,.08-6.34,0-9.63a10.28,10.28,0,0,1,1.66-5.79c1.11-1.71,1.81-3.67,3.08-5.23s3-2.81,4.13-4.59c-.39,4.59,1.58,8.48,2.94,12.61-.35-2.4.57-4.45,1.22-6.57.46-1.49.74-3.09,1.16-4.53.75-2.56.2-5.26,1-7.57.89-2.59,0-5.41,1-7.54,1.27-2.66.39-5.15.82-7.66.61.13,1.19,0,1.87.3a46.86,46.86,0,0,1,11.76,8.8c3.11,3.12,6.77,5.15,11.37,4.9a2.45,2.45,0,0,0,.68,2.23c1.37,1.2,2.59,2.56,3.9,3.84a13.87,13.87,0,0,1,4.47,8.63,14.08,14.08,0,0,0,1.4,3.44c2.75-2.54,1.09-6.78,3.91-9l1.75,1.85H1392l2-2.38c2.83-1.6,4.31.82,6.38.37,1.08-.48,1.47-2.19,3.14-2,.31.65.63,1.34.93,2,.25,0,.49.07.57,0,2.17-2.33,4.28-4.72,6.51-7,.59-.59.06-1.64,1.42-2.06-.35,2.58,1,4.62,1.36,7,3.1-1-.06-5.87,5-5.92l3.47,3.7c1.2-2.47-.85-4.78-.77-7.22,3.61-1.92,4.67-3,4.91-6.42.11-1.51,1.38-2.48,1.15-4.07a35.78,35.78,0,0,1,0-5h4.49c2.59,2.11,6.23,3.24,7.86,6.09s5.15,4.49,6.1,7.94c1.47-.5,2.53,1,3.62.88,5.44-.54,10.68,1.61,16.08,1.07a13.36,13.36,0,0,1,7,1.15,9.35,9.35,0,0,0,4.15.86c4,0,8.15-.45,11.24,3,3.4,0,5.65,2.44,8.34,4,4.36,2.49,8.45,5.25,11.71,9.12,2.09,2.49,5,3.91,7.64,5.66,2.33,1.55,5,2.34,7.31,4.14,2.74,2.16,5.69,4.06,8.3,6.43a9,9,0,0,1,3.3,6.46c1.77.81,2.56-1.62,4.26-.82,1.29.61,2.49-.29,3.54-1a6.68,6.68,0,0,1,4.1-1c1.82.07,3.65,0,5.73,0,0,2,2.74,1.22,3.22,3v1.84c3.66.12,5.32,3.56,7.76,5.22,1.58-.22,1.72-1.85,3.14-1.79.06,1.11.12,2.23.18,3.31,1.8,1.8,3.57,3.56,5.38,5.38h3.07a9.75,9.75,0,0,0,9.92,4c2.44,2.12,3.7,4.86,5.69,7.82,1.29-2.64,2.28-4.66,3.29-6.74h2.08a20.55,20.55,0,0,1,4.86,6.83l2.3.25,4.54,9.81h3.53c1.75-2.27,3.65-4.46,5.23-6.85a69.8,69.8,0,0,0,6-10.47c.54-1.24,1.85-1.64,3-2.15a4.81,4.81,0,0,1,.68-2.75c3.44-5.12,8.13-9,12.52-13.21a37.87,37.87,0,0,0,3.76-4.43c1.63-2.08,2.52-4.75,4.56-6,1.47-.37,1.56,1.22,2,1.08l4.18-4.18h3.73a9.27,9.27,0,0,0,3.8-7l2-.09c1.69.7,2.16,3,3.83,3.06,3.5-2.42,1.28-6.11,2.78-9.09,1.39-2.75,1.39-6.21,1.22-9.48s-.07-6.66,0-10a11.55,11.55,0,0,1,2.11-6.11,24.1,24.1,0,0,0,1.84-3.24c.18-.42.19-.89.78-1.18h3.85c2.75-.56,1.76-4.8,4.78-5,1.71,1.38,2.88,3.26,4.91,4.33,2.33-3.88,1.58-8,1.72-11.47l2.58-3c1.86.74,3.4-.36,4.85-.66,1.78.14,1.13,2.11,2.73,3.08-.6-4.5-.07-8.42-.93-12.53-1-4.59-.14-9.56,0-14.37,0-.12.54-.23.82-.35a23,23,0,0,1,6.87,6.74c1.21,1.78,2.48,3.6,4.13,4.57,3,1.77,5,4.58,7.6,6.69h3.4a28.25,28.25,0,0,0,4.39,9.07c2.11-1.56,1.48-4.24,3.14-6.12,1.11.49,2.11-.28,3.13-.79.66.68,1.23,1.36,2.38.33-.34-3.24.79-6.78-1.11-9.87.74-.93,1.46-.49,2.07-.62a102,102,0,0,1,15.81,10.06h3.86c1,1.12,1.71,2.34,3.33,1.94a1,1,0,0,0,2,0h1v1.58c1.13,1.57,1.89,2.63,2.49,3.48,3.23-.85,5.92-2.22,8.43-2.09,1.59.47,1.81,2,3.56,2,1.28-.84,1.72-2.55,2.52-4,.61.13,1.34-.32,1.85.35,2.32,3,6.06,4.67,8.07,8a3.32,3.32,0,0,0,1,1.06c3,2,4.67,5.39,7.14,7.87,3.63,3.61,6,8.43,10.71,11,1.36.74,3,1.17,4.08,2.15,5.82,5.13,13.76,6.62,19.68,11.53,3.45.39,5.65,2.73,8.06,5.15h26.21c.84,1.52,2.52,2.16,3.17,3.81,2.24,5.69,6.8,9.81,10.17,14.73,2.75.2,3.26,3,5.06,4.39,6.75,5.13,14.61,8.54,21.21,13.88,2.74.49,4.38,3.19,6.9,3.76C1916.17,114.37,1918.42,116,1921,117ZM197.5,119c.47-.32.47-.66,0-1C197,118.33,197,118.67,197.5,119Z" transform="translate(-1 -1.85)"/><path class="cls-3" d="M1556,99a3.68,3.68,0,0,1,2.25.64,7.11,7.11,0,0,0,5.41,1.35c3-.64,5.81.55,8.53,1.21a22.14,22.14,0,0,0,5.13.78c6,0,12,0,18.26,0,.71-1.61,2.7-1.8,4-3,2.44.91,3.25-2.27,5.67-2.15,1.85.09,3.76-1.22,5.66-1.84,4.25-1.39,5.62-2.42,7.47-5.88,2.37-4.46,5.66-8.31,8.42-12.5a41.27,41.27,0,0,1,5.36-6.26c5.06-5.17,9.72-10.71,14.72-16,3.79-4,6.88-8.58,11.71-11.49,4.92-7.13,12.14-12.12,17.58-18.72,4-4.89,7.92-9.84,12.41-14.33a14.79,14.79,0,0,0,3.34-4.59c.61-1.5,1.79-2.23,2.65-3.26.85-.18,1.62.15,2.42-.43,1.36-1,2.83-1.15,4,.4-.28.12-.81.23-.82.35-.09,4.81-.91,9.78,0,14.37.86,4.11.33,8,.93,12.53-1.6-1-1-2.94-2.73-3.08-1.45.3-3,1.4-4.85.66l-2.58,3c-.14,3.51.61,7.59-1.72,11.47-2-1.07-3.2-3-4.91-4.33-3,.21-2,4.45-4.78,5h-3.85c-.59.29-.6.76-.78,1.18a24.1,24.1,0,0,1-1.84,3.24,11.55,11.55,0,0,0-2.11,6.11c0,3.33-.15,6.67,0,10s.17,6.73-1.22,9.48c-1.5,3,.72,6.67-2.78,9.09-1.67,0-2.14-2.36-3.83-3.06l-2,.09a9.27,9.27,0,0,1-3.8,7h-3.73l-4.18,4.18c-.41.14-.5-1.45-2-1.08-2,1.21-2.93,3.88-4.56,6a37.87,37.87,0,0,1-3.76,4.43c-4.39,4.16-9.08,8.09-12.52,13.21a4.81,4.81,0,0,0-.68,2.75c-1.13.51-2.44.91-3,2.15a69.8,69.8,0,0,1-6,10.47c-1.58,2.39-3.48,4.58-5.23,6.85h-3.53l-4.54-9.81-2.3-.25a20.55,20.55,0,0,0-4.86-6.83h-2.08c-1,2.08-2,4.1-3.29,6.74-2-3-3.25-5.7-5.69-7.82a9.75,9.75,0,0,1-9.92-4h-3.07c-1.81-1.82-3.58-3.58-5.38-5.38-.06-1.08-.12-2.2-.18-3.31-1.42-.06-1.56,1.57-3.14,1.79-2.44-1.66-4.1-5.1-7.76-5.22Z" transform="translate(-1 -1.85)"/><path class="cls-4" d="M710,41a26.91,26.91,0,0,1,6.69,3.15c4,2.67,7.11,6.27,10.77,9.78l2.25.14c2.28,4.09,6.26,6.42,9.94,9.16,4.06,3,6.53,7.3,8.38,12,1.75,4.44,3.16,9,5.68,13.15,3.71,6.14,9.23,8.25,15.74,8.78,2.18,1.36,4.67,2.11,6.39,4.13a50.53,50.53,0,0,1,3,4.3c1.13,1.64,1.92,3.64,3.36,5s1.79,3.27,3.73,4c.24.09.26,1.17,1.31,1.48,2.19.64,3.74,2.38,5.34,4a15.63,15.63,0,0,0,11.93,5c5.82-.16,11.65,0,17.48,0a3.43,3.43,0,0,1-2.52,3.82c-2.7.82-4.3,3.18-7.21,3.87l-.76-.63c-2-.62-2.34,3-4.37,2l-3.36-3.71-1.94,2.79c-1.05-.51-.67-1.33-1-1.84a10.14,10.14,0,0,0-2.76,5.25c-.51,2.14-2,3.65-3,5.66-2.1-5.57-3.88-11.06-6.38-17l-.85,2.48c-.23.33-.6.31-.68-.15a9.49,9.49,0,0,0-3.2-5.18c-.91-.89-2.07-1.63-2.09-3.29l-2.41-.17c-.83-1.3-1-4.24-3.87-2.79-2.4-2.77-3-5.87-3.65-8.45l-3.3,3.3h-3c-1.07.3,0,2.22-1.64,2-2.33-1.27-1.28-4.44-3.32-5.86-1.21.34-1.53,2.15-3.19,1.85-1-1.42,0-3.17-.64-4.69-2.75.5-1.53,3.31-2.75,4.77s-2.81,2.82-2.76,5.29c-2.24-4.17-3.07-8.34-4.38-12.37-1.39-4.27-.48-8.67-1.14-13-1.21.35-.35,1.66-1.32,1.93-1.44-2-1.63-4.32-1.4-7.1L741.27,85c-1,.35-1.26-1-2.14-1-1.09-.32-1.34,1.59-2.61,1-1.15-1.37-.1-3.12-.64-4.56-.37-.63-.92-.34-1.77-.46.29,2.84-1.63,5.14-1.05,8.45-1.36-1-1.11-1.77-1-2.37.65-5.26-1.1-10.35-1.15-15.58,0-2.18-1.42-4.35-2.14-6.39-2.09-.51-2.25,2.1-3.91,2-2.27-1.36-1-4.63-3.42-5.94l-3.88,4.1c-.94-1.49-.42-2.93-.51-4.25-.1-1.48,0-3,0-4.42-.7-.88-1.6-.34-2.32-.5-1.84.72-1.47,3.2-3.68,4.08C711.65,52.89,709.32,47.06,710,41Z" transform="translate(-1 -1.85)"/><path class="cls-5" d="M997,65c3.09,1.92,5.63,4.56,8.8,6.43,1.69,1,2.74,3,4.09,4.51,2.37,2.66,6,3.2,9.26,4,6,1.47,12.12,2.8,17.82,5.17a61,61,0,0,1,11.24,6.59,2.4,2.4,0,0,1,.89,2c3.37.91,6.06,3,8.63,4.78,4.12,2.89,8.61,5,13,7.41,1,.58,2,.91,2.32,2.09-.84-.12-1.07.67-1.55,1.06-4.35,3.62-9,6.33-15,6-1.65-.11-3.32,0-4.57,0a15.52,15.52,0,0,1-7.89-7.87h-7.62c-.11-2.51-2.51-3.29-3.48-5.17-.84-1.63-.4-3.92-2.48-4.94-1.78,2.25-4.46,3.78-6,7-.61.45-1.81-.32-3.15.26-1.07,2-3.87,2-5.74,3.64H1011V91.44c-3.34-1.54-5.33.75-7.8,3.46a14.36,14.36,0,0,0-3.76-10c-2.15.65-3.66,2.37-6,2.07a3.77,3.77,0,0,1-.27-3.63c1.37-3.67,3.22-7.19,2.8-11.3C997.6,69.89,996.84,67.38,997,65Z" transform="translate(-1 -1.85)"/><path class="cls-3" d="M115,58c1.7-.11,2.86,1.1,4.26,1.72,3,1.34,6,2.57,9.51,2.32,2.64-.19,5.3-.06,8,0a11.39,11.39,0,0,1,5.59.92,11.45,11.45,0,0,0,7.36.94c1.59,1.69,3.25,3.52,5,5.27a17.29,17.29,0,0,1,3.17,4.17,38.83,38.83,0,0,0,14.33,15.21A10.09,10.09,0,0,0,179,90v2.35c-3.28,2.74-4.42,7.28-7.41,10.61h-5c-2.64,2-2.51,5.78-5,7.9-2.28-1.79-1.42-4.55-1.75-7.4-2.59,1.61-3.22,4.17-5.38,6.2-1.63-8.08-2.86-15.58-2.48-23.14-1.85-1.72-3,.78-4.53.47-1-.71-.06-1.93-.93-3a35.23,35.23,0,0,0-6.7,7.74c-2.16-3.79.78-6.4,0-9.56-3-.81-5.62.82-8.26,2a11,11,0,0,1-1.87-5.46c-1.76,1.77-3.2,3.44-5.6,4.12.15-3.2,2.14-6.26,1.78-9.9-3.8.32-5.42,3.55-8,5.33-1.75-1.15-.47-2.93-1.19-4.11l-2.44-.28C113.69,73,114.13,72,114,71a.71.71,0,0,0,.89-.6c0-.07-.22-.31-.29-.29a.71.71,0,0,0-.6.89,27,27,0,0,0-7.68,2.82C106.65,71.33,111.27,62.9,115,58Z" transform="translate(-1 -1.85)"/><path class="cls-3" d="M1277,93a12.66,12.66,0,0,0,7.67,2c4.16-.16,8.33,0,12.5,0,1.63-.89,3.09-2.25,5.17-2,3-2.78,6.57-4.82,9.17-8,2.84-3.48,6-6.78,8.38-10.55a44.87,44.87,0,0,0,4.23-8.22c1.88-5,4.3-9.9,9.7-12.19,2.58-1.1,3.76-3.93,6.48-4.9a10.09,10.09,0,0,0,3.46-2.45c1-1,2.15-.52,3.24-.67-.43,2.51.45,5-.82,7.66-1,2.13-.13,5-1,7.54-.8,2.31-.25,5-1,7.57-.42,1.44-.7,3-1.16,4.53-.65,2.12-1.57,4.17-1.22,6.57-1.36-4.13-3.33-8-2.94-12.61-1.17,1.78-2.85,3-4.13,4.59s-2,3.52-3.08,5.23a10.28,10.28,0,0,0-1.66,5.79c.11,3.29,0,6.59,0,9.63L1328.49,94c-.5-.54-1.5-1.19-1.41-1.6.54-2.44-1.62-4.14-1.16-6.4h-1.55c-.91,1.78,0,3.82-.55,5.67-3.34.74-3.34.74-3.84,3.86-4.21,3.86-7.76,8.26-9.31,14.29l-4.16,4.16c-2.65-2.34-3.92-5.91-7-7.84-1.72-1-2.83,1.36-3.88,1l-4.4-4.51c-2.84,2.13-2.64,6.17-6.6,6.5-1.08-3.13-4.57-4.42-5.52-7.58C1278.3,98.78,1277,96.05,1277,93Z" transform="translate(-1 -1.85)"/><path class="cls-3" d="M1372,60c1.88.37,3.36-.65,4.91-1.42,3-1.51,5.93-3.48,9.13-4.47a41.62,41.62,0,0,1,11.58-2.23c6.75-3.86,6.75-3.86,10.83-3.88,2.65-2.6,6-4.16,9.35-6H1428a35.78,35.78,0,0,0,0,5c.23,1.59-1,2.56-1.15,4.07-.24,3.41-1.3,4.5-4.91,6.42-.08,2.44,2,4.75.77,7.22l-3.47-3.7c-5,.05-1.86,4.88-5,5.92-.35-2.33-1.71-4.37-1.36-7-1.36.42-.83,1.47-1.42,2.06-2.23,2.26-4.34,4.65-6.51,7-.08.08-.32,0-.57,0-.3-.65-.62-1.34-.93-2-1.67-.22-2.06,1.49-3.14,2-2.07.45-3.55-2-6.38-.37L1392,71h-3.91l-1.75-1.85c-2.82,2.22-1.16,6.46-3.91,9a14.08,14.08,0,0,1-1.4-3.44,13.87,13.87,0,0,0-4.47-8.63c-1.31-1.28-2.53-2.64-3.9-3.84A2.45,2.45,0,0,1,1372,60Z" transform="translate(-1 -1.85)"/><path class="cls-3" d="M470,128c3.11.32,5.63-1.74,8.56-2.26a15.68,15.68,0,0,1,3.14-.73,24.94,24.94,0,0,0,8.71-1.82,52.69,52.69,0,0,1,9.56-2.14c5.51-.77,11-1.6,16.57-2.24A29.53,29.53,0,0,0,531,113c.8,3.31-1.75,6.26-.91,9.54-3.59,2.6-5,7-8.72,9.35-1-1,.16-2.5-.81-3.92-4.28.37-7.13,3.41-10.2,6-2.51-.16-4.27,1.22-5.78,2.94-4,4.53-9.67,6.88-13.41,11.39-1.43-.88-1.15-1.43-.78-2.29a5.81,5.81,0,0,0-.39-6,42.14,42.14,0,0,0-.06-5.95c-.26-1.78,2.25-3,.7-4.91A171.21,171.21,0,0,0,474.48,139c-.31-2.1-.31-2.1,1.52-5.39a1.06,1.06,0,0,0-1.63-.38c-1.82,1.5-4.47,1.69-5.93,3.79-.16.23-.94,0-1.44,0-.44-2.69,1.51-4.59,2.42-6.8A5.46,5.46,0,0,0,470,128Z" transform="translate(-1 -1.85)"/><path class="cls-3" d="M356,75a13.4,13.4,0,0,1,7.16,3A112.59,112.59,0,0,0,377.46,88a4.51,4.51,0,0,1,.94,1H383c-1.1,1.08-.83,2.64-1.39,3.92a9.21,9.21,0,0,1-2.49,3.44A148.9,148.9,0,0,1,375.86,118c-.19.85-.19,3-2.35,3-1.08-1.44-.12-3.18-.66-4.68-.64-1-1.83-1.21-2.94-1.86v-7.4c-2.86,2.47-3.76,6.51-8.16,8.48,1.94-6.17,3.64-11.54,5.32-16.86-.65-1-1.79-1-1.92-.23-.19,1.15-.92,1.67-1.79,2.75-.78-3.44-.06-6.66-.46-9.85-1-.83-2.19-.18-3.27-.39-1,.53-1.41,1.86-2,2-2.21.22-1.06-1.78-2.23-1.94-3,.53-4.78,3.53-7.81,4a1.11,1.11,0,0,1-.35-1.68c4-4.7,5.36-10.84,8.75-15.87C356.33,76.89,356,75.83,356,75Z" transform="translate(-1 -1.85)"/><path class="cls-6" d="M400,82h2.39c2.9,2.55,5.92,5.44,9.19,8,3.55,2.79,7.84,4.26,12,6,5,2.14,10.25,4.06,13.45,9-1.62.6-2.53,2-3.63,3.2a14.47,14.47,0,0,1-4.67,3c-1.5-1.23.1-3.08-1.41-4.33l-8.77,4.42c-1-1.63-.24-3.31-.61-4.86-.62-.77-1.52-.23-2.28-.4l-5.06,4.7c-1.41-5,1.81-8.4,2.49-12.12-.86-.92-1.74-.4-2.54-.58-1.71,1.63-3.21,3.6-5.58,4.07-1.82-.53-.23-2.26-1.45-3-2.39.42-4.62,2.16-7.54,1.93,1.56-5.51,2.06-10.92,4-16A8.65,8.65,0,0,0,400,82Z" transform="translate(-1 -1.85)"/><path class="cls-4" d="M1196,145c2-2.93,5.38-4.08,8.17-6,3.59-2.43,7.49-4.46,11-6.94a50.86,50.86,0,0,0,9.85-9.76c2.59-3.22,4.66-6.85,7.77-9.68A2.83,2.83,0,0,1,1235,112a23,23,0,0,0,0,2.49c.73,6.51-1,12.67-3.17,18.62-.61,1.63-.37,3.42-1.2,5-1.91-1.51-2.16-4.21-4.84-5.25-2.47,3.59-7.73,5.15-7.88,10.73-2.86,2.75-5.35,6-10.36,7.38h-7.29c-1.19-1.25-2.53-2.71-3.94-4.11C1195.74,146.27,1196.13,145.61,1196,145Z" transform="translate(-1 -1.85)"/><path class="cls-3" d="M658,57a5.49,5.49,0,0,1,4.82,1.47c2.5,2.53,5.31,4.73,7.31,7.85,1.28,2,2.79,4.55,5.87,4.68,0,3.12-2.31,5.16-4,7.24a107.47,107.47,0,0,0-8.32,11.45c-.74,1.24-2.06,2.14-3.56,3.64,0-4,1.83-7.66.38-11.49-3.17,1-4.43,5.19-8,5.14-.81-.65-.37-1.37-.5-2a.71.71,0,0,0,.89-.6c0-.07-.22-.31-.29-.29a.71.71,0,0,0-.6.89c-2.15-.21-3.53,1.81-6,2.17a14.34,14.34,0,0,1,3.06-6.7c2.28-3,4.65-6,6.92-9,.24-.32,0-1,0-1.46a.71.71,0,0,0,.89-.6c0-.07-.22-.31-.29-.29a.71.71,0,0,0-.6.89c-1.79-.78-1-1.9-.46-3.06A21.75,21.75,0,0,0,658,57Z" transform="translate(-1 -1.85)"/><path class="cls-3" d="M47,83c1.83.39,3.66-.45,5.64.83,1.34.88,3.6.28,5.48,1,1,.37,1.87,1.15,3,1.16,1.32,0,2.65,0,4,0a63.2,63.2,0,0,1,7.91.07c3.15.39,6-1,9-1.07.33,2.93-1.42,5.12-2.88,7.28-1.57,2.33-8.37,6.46-12.06,7.75V93.87c-2,1.14-3,2.78-4.84,3.57s-2.59,2.87-4.38,3.75c-2.61-2.11,1.75-4.23-.46-6.3-2.87,1.2-5.67,3-9.38,3.16V93a.71.71,0,0,0,.89-.6c0-.07-.22-.31-.29-.29A.71.71,0,0,0,48,93c-.5,0-1.12.19-1.47,0a11,11,0,0,1-1.67-1.6Z" transform="translate(-1 -1.85)"/><path class="cls-4" d="M193,86c2.44,0,4,1.89,5.58,3.22a38.3,38.3,0,0,1,7.75,9.63c2.1,3.39,2.73,7.58,5.59,10.57-.35,2.52,1.15,4.46,2.08,6.58h-2.4c-2.14,1.59-3.41,4.09-6.48,5.46.27-3,1.64-5.58.48-8.52-2.64.77-4.5,3.07-7.52,4.54.37-3.06,1.63-5.6.66-8.23-2-1.43-3.43,1.74-5.71.35-.65-3.22,2.88-6.85-.24-10,.79-1.5,1-3,2.09-4,.26-2.91.45-5.79-1.85-8.15C192.78,87.21,193,86.5,193,86Z" transform="translate(-1 -1.85)"/><path class="cls-3" d="M903,83c5.29.51,10.12-1.6,15.17-2.51,3.37-.61,6.19-3.18,9.83-2.49-.13.61.26,1.27-.33,1.85-2.14,2.09-4,4.52-6.41,6.21-1.59,1.11-2.38,2.72-3.69,3.87-1.67-.28-.91-2.72-2.9-3.06-1.23.94-.41,2.36-.67,3.49-.82,1-1.55,2.26-3.81,1.19l-.76-1.61c-1.93.36-1,1.69-2.07,2.08A28,28,0,0,1,903,83Z" transform="translate(-1 -1.85)"/><path class="cls-7" d="M1723,21c2.71-3.85,6.51-6.65,9.44-10,2.06-.07,3.57.41,4.56,2-.61.13-1.33-.31-2.07.62,1.9,3.09.77,6.63,1.11,9.87-1.15,1-1.72.35-2.38-.33-1,.51-2,1.28-3.13.79-1.66,1.88-1,4.56-3.14,6.12A28.25,28.25,0,0,1,1723,21Z" transform="translate(-1 -1.85)"/><path class="cls-8" d="M1763,25c5.08,0,10.17,0,15.25,0,.72,0,1.74-.35,1.75,1-.8,1.46-1.24,3.17-2.52,4-1.75,0-2-1.57-3.56-2-2.51-.13-5.2,1.24-8.43,2.09-.6-.85-1.36-1.91-2.49-3.48Z" transform="translate(-1 -1.85)"/><path class="cls-9" d="M1760,25h1v1A.85.85,0,0,1,1760,25Z" transform="translate(-1 -1.85)"/><path class="cls-8" d="M1761,26V25h1A.85.85,0,0,1,1761,26Z" transform="translate(-1 -1.85)"/><path class="cls-4" d="M197.5,119c-.47-.32-.47-.66,0-1C198,118.33,198,118.67,197.5,119Z" transform="translate(-1 -1.85)"/><path class="cls-3" d="M467,137a.71.71,0,0,1-.6.89c-.07,0-.31-.22-.29-.29A.71.71,0,0,1,467,137Z" transform="translate(-1 -1.85)"/><path class="cls-3" d="M490,140a.71.71,0,0,1-.6.89c-.07,0-.31-.22-.29-.29A.71.71,0,0,1,490,140Z" transform="translate(-1 -1.85)"/><path class="cls-2" d="M114,71a.71.71,0,0,1,.6-.89c.07,0,.31.22.29.29A.71.71,0,0,1,114,71Z" transform="translate(-1 -1.85)"/><path class="cls-2" d="M656,70a.71.71,0,0,1,.6-.89c.07,0,.31.22.29.29A.71.71,0,0,1,656,70Z" transform="translate(-1 -1.85)"/><path class="cls-2" d="M652,85a.71.71,0,0,1,.6-.89c.07,0,.31.22.29.29A.71.71,0,0,1,652,85Z" transform="translate(-1 -1.85)"/><path class="cls-2" d="M48,93a.71.71,0,0,1,.6-.89c.07,0,.31.22.29.29A.71.71,0,0,1,48,93Z" transform="translate(-1 -1.85)"/></g></g></g></svg>