<svg xmlns="http://www.w3.org/2000/svg" viewBox="0 0 1923.5 503.33"><defs><style>.cls-1{isolation:isolate;}.cls-2{fill:#5c4a15;}</style></defs><title>Fichier 6</title><g id="Calque_2" data-name="Calque 2"><g id="Plan_de_travail_1" data-name="Plan de travail 1" class="cls-1"><g id="Calque_17" data-name="Calque 17"><path class="cls-2" d="M0,72.58,6.83,54.92l2.84,8.83,1.5-8.83,1,2.83,2.16-8,.84,3.17,1.16-1.84,1.42,11.3,4.75-6.13L24.38,66l.75-6.12,1-5.25,1.12,3.62L28.5,51l1.75,5,1,9.38,2.38-11.63,1.87,4.38.63-6.5L37.75,55l2.13-9.75,1.5,6.63,1-2.63,2.25,13.88,1.25-11.38L47.38,57l1.5-6.12,2.87,4.87,2.13,10.63,1.5-9.63.75-6.25,1,3.63,1.25-8.88,2.12,9.63,2.63-3v4.87l2.87,7,1.88-11.87,1,4.5L72,48.63v5.62l1.38,7.38,1.87-5.13L76.63,61l3-8.87s-.38,4,0,4.5a67.74,67.74,0,0,1,1.75,6.62l1.75-8.87L84.63,56V50l1.87,3.38,2-5.63V52.5l3.63-9.75v5.63l3.37-5.63,1.63,14.92,2.12-9.54,1,6.62,1.75-7.5,4.13,14.25,2.37-13,.75,4.5,3.13-9.37,1.62,5L115.88,59l1-10.62,1.62-4.5,3.38,10.37,1-6.25s4.5,13.13,4.75,14.13S129,49.5,129,49.5l2.38,5L133,64.38l4.38-12.88.87,4.5,2.5-1.87,1.38,10.12,2.62-4.62v9.75L147,63.75l1.75,8.83,2.5-3.58,1.88,4.5L155,64.13l1.88,5.62,1.87-10.37,2.5,5.5,3.13-10.38,2.87,11.25,2.5-9.37,2.88,9.25L175,59.75l1.75,4.63,1.38-5.25A35.05,35.05,0,0,1,180.75,63c0,.38,1.88-7.62,1.88-7.62l3,8.75L188.38,54,190,58.13l4.88-10.63,2.62,5.38,3.38-10.13,2.37,5.88L205,40s1.63,7.25,1.75,6.88,3-13.25,3-13.25l1.38,5.87L213,35.88l1.13,12.62,1.75-13,1,5.38,1.5-2.75,1.75,12.5,2-8.5,1.5,4.62,1.62-4.12s-.25,10.25,0,9.75,3-8.75,3-8.75l1.38,5.25,1.75-1.63,2.75,11.5,4.62-12,2,7.75,2.88-3.62,1.62,5.62,2.88-4.87,4.25,15.62,2.12-11.12,2.38,6.5,2-2.75,2,10.12,1.75-8.25,2.75,9.13,4.87-12.5L272,65.25l1.75-3,2.5,12.5,2.75-9.5,2.25,8.13,2.5-3.88,1.13,6.5,2-2.75.75,13.13,3.62-8.75v5.12l3-1.87L295,94.13l2.38-5.25,1.5,6.75,2-1.88,1.5,13,2.25-9.5,1.12,4.13,1.25-1.5L308,110l2.5-12.5,1.63,8.88,3.37-9.25,2.38,6.5,3-8.25,1.37,4.25,2.38-6.13,1.87,3.38.63-13.25,2.62,5L331.63,81l1.62,3.88,2.13-6.75s-.13,5.87,0,6.25,3-2.88,3-2.88l2.12,8.25,3.88-11.62,2,5.62,4-10.25.87,5.63,2.13-.75L355,87.5l1.75-4.87,3.5,10.75.63-6.88,2.62,4.75.75-3.25,2.63,7.5,2.5-12.25,1.12,6.25,1.75-3.37,3.5,9.87L378,85.75l1.75,2.88,2.88-7.13,3,6.13,1.62-9.38,2.13,3.63,1.75-4.13,2.5,8.63,2.12-10.13.75,3.25,1.88-2.12,2,6.87,2.5-8.25,2,2.88L408.13,70l2.37,4.75.63-2L413.5,80l1.25-7.5,1,2.5,1.13-5.37,2.37,9.75,1.63-7,.62,3,2.38-3.57,2.37,8.82,1.13-6.38s1.12,4.5,1.25,4.88,2.75-7.32,2.75-7.32L434.63,83l1.12-7.75.88,3.75,3.25-3.87L441.13,81l2-4.37.87,2.5,2.38-2,2.25,10.37,1.62-7.75,2.13,3.5,1-3.62,1.5,6.5,3.25-6.88,1.25,2.63,1.87-5.5,1.38,4L464,79.13l1.88,10.12L469,82.38,471.13,88l4.37-7,1.25,5.13,2.75-2.38,2.38,9.5,2.25-7.62,1.12,4.25,2.38-1,1,4.12,1.62-2.12.88,2.62,1.75-1.5,1.87,7.63L497,89l1.25,3.88,1.88-1.75,1.12,7.5,1.38-.13,2.12,8.25,2.75-4.25,1,2,1.25-3,3.25,9.75,1.38-2.62,4.75,9.37,1-6.75,2.37,2.25,4.75-13.75.75,4.75,1.88-2.75,3,12,2.62-5,1.25,3.13,1.38-1.63L541,120.5l1.75-6,1.13,4.38,1.5-2.63,2.12,9.25,2.13-9.62,1.37,2.75,2-2.63,1,7.13,1.25-2.13,1.5,7.38,1.88-8,1.87,2.5,1.63-6.63,2.5,3.88L568,112.5l2.25,2.5,2.63-8.87,1,2.87,1.87-4.87,2,9.25.88-8.5,2,2.5,2.37-7.25,1.75,5.62,3.38-9.87,1,2.37,2-5.87,2.12,7.12L595,91.38l2,4.12,1.25-2.75,3,10,2-7.87,1-10.63,1.88,1.13-.75-7.75,1.87.75,1.38-6.25L611.5,79l1.38-2,3,9,3.25-7.12L620,81l2.13-6.37,2.5,5.25L631,60.25l2.25,5.25,4.25-9.37L639,61.5l3-15.87,1.88,4.25,2.75-1.5,2.5,8.75,2.5-10.57,4.06,8.38L657.5,40.5l2,3.88,1.38-2.63L663.13,50V36.75l2,1.75,1.12-5.5,3,6.75,2-6.75,2.13,2.13,4-7.5,2.5,4.75,1.62-10.5,2,2.12,1.63-7.62,1.87,5.5,1.63-1.63,1.75,7.88,2.25-8L694,25l1.75-1.62,1.88,10.75,2.12-6.88,1.13,2.13L702,25.5l.88,2.75,1.37-1.12,2,10.87L708,29.63l1.25,3.5,1.13-2.25,2.5,8.37.75-10.5,1.87,4V28.38l2.88,5.75,1-10.13,1,2.63.87-5.75,1.88,6.87,1.62-2.62L726.25,37l4-5.5,1.63,3.63,1.5-1.5,2.25,8.62L739.25,37l1.13,1.5,2.5-3.25.87,9.5L747,43l1.13,6.13,2-1.5,1.37,8.12,3.63-5.62L756,54.5l1.63-.75,1,5.63L760.5,58l2,11.13,3.38-8.25,1.12,2L768.63,59,770,67.25l2.88-2.5,3.37,10.5L778.13,68l.87,3.38,2.88-6,1.37,7,1.13-.75,3,8.62,2.37-4.5L790.88,78,793,76.13l1.63,8.12,3.62-5.12,1.88,5.5,2.5-8.25,3.37,5L807.63,78l3.5,11.63,1.37-11L814.63,82l1.12-4.5,3.13,11.75,2-9,1.87,3.63,1.25-5,1.75,7.25,1.38-1.63,3,12.25,1.5-5.25L833,94l1.63-7.87,4.75,13.25.62-6.63,1.75.88,1.13-5.13,3.25,11.63L847.25,98l2.5,9.13,1.38-9.88.75,3.63L853.63,98l2.62,10.75,2.38-7.87,1.5,2.12,5.25-12.25,2.37,7.38,1.38-3.88L870.88,98l1.62-5,1.75,7.75,2-1.12,1.63,12.5,2.87-6.5,1.13,4.25,1.5-1.5L885,120.13l3.5-8.13,2.75,11.88,3.25-5.75,1,4.12,1.63-1.12L902,142.88l2.13-10.63,2.37,4.63.88-2.38,3.5,9.38,2-13.88,1.12,3.75,3.88-12.62,2.75,4.12,1.12-5.12,1.63,1.87,2.87-10,3.25,7.63,3.88-14.13,1.87,4.25,2.38-2.87L940.75,117l1.75-12.75,1.25,3L946,95.13l.88,4,2-9.13,1.87,2.5-1.25-10,2.38,2,1.37-11.87,2,6.75,2.63-11.13.87,3.25,2.13-4.25,3.12,11,.75-8.12,1.25,2.5,2-7.5,1.13,5.75L970.5,69l3,14.5,2.38-6.5,1,3.13L980,75.5l1.88,4.63,2.62-8.63,1.63,3,2.75-3.5,1,9.13L992.63,71l1.62,4,1.88-7.75,1.37,2.13.88-9.88,1.75,4.75,1.37-2.37,2,8.37,2.13-4.87,1.62,1.87,2-7.62,1.5,4.25,1.38-2.25,2.75,7.37.75-11.12,1.25,2.87,1.87-6.5,1.13,4.25,2.25-1.12L1024,65l1.88-9.62,1.12,4,2.88-2.38,2.5,4.38,2-3.38,2.75,7.25,1.12-6.5,1.5-3.87,1.5,3.75,2.38-5.13,2.62,4.25,1.75-5.12,1.38,3.37V47.25l2.37,1.38,1.38-5.38,2.12,3.5,2.38-4.12,1.62,2.75v-12l2.38,2.62V29l2.37,2.88,3.25-7.75.63,5.25,2.62-2.88,1.38,1.5.75-10.62,1.75,3.37,1-4.37,2.12,3,2.5-11.5,1.38,6,1.5-6,1.87,2.37L1087.5,0l1.88,7.63,3-2.13,1.87,15.38,2.38-6.88,1.12,3L1101,7.13l1,6.5,2.63-.5v6.62l2.5-1.75,2.75,12.5.87-9.5,1.25,3.25,3.25-10.75,1.13,4.63,2.12-3.25,1.38,7.37,1.75-1.87L1124.25,31l1.25-9.25,2.88,2.13,1.25-6.38,2.87,5,1.88-1.75,1.25,4.13,2.87-4,1.38,6.37,2.37-1.37,3.88,9.12.62-7.62,1.88,2.5,1-4.5,2,6.25,1.87-3.38,4.25,11.63,1.88-6.25,1.62,4.62,2.88-7,3,8.63,2.12-2.63,1.88,13.38,1.87-5.5,1.63,3.5,2.62-2.25,2.13,13,2.37-6.63,1.63,2.38,2.5-4.63.87,4.25,3-1.62,5.63,13.5,1.12-9,1.63,2.62,1.75-5.37,2.87,10.62,1.38-1.62,2.37,10.62,3.25-6.62,1.75,2.37,2-3,2.63,13.13,3.12-2.75,2.5,10.5,2.38-6,1.25,3.25,3.25-2.5,1.87,6.75,3-4.38,1.88,3.88,2.87-2.5,2.38,6,3-3.63,1.25,2.13,2.25-1.63,3.12,8.63,2.38-8.5,1.12,2.87,1.13-4.12L1259,102.5l2.88-6.5,1,2.38L1264,94l1.5,4.5,4-8.87,1.88,8.25,1.75-1.88,3,10.25,2.12-5,1.25,5.5,4-9.62,1.13,2.37,1.5-4.5,2.5,11.38,1.87-11.25.88,3.62,1.87-3.25,2.13,6.88,3.12-1.75.88,3.62,3.75-4.75,2,4.5,3.25-7.12.75,4.12,4.12-3.87.75,6.5,2.75-6.25,2.5,3.25,3-2,4.25,11.25.75-8.25,1.75,2.5,1.75-2.13,3.5,9.38,1-10.38,1.25,3.38,1.88-3.38,5,15.38,1.37-9.75,3,11.37,2.38-6.75,1.25,4.75,3.37-6.37,3.13,9.37,2-9.25,1.5,6.88,1.75-2.88,2.62,11.38,2.63-7.25,1.87,8.5,2-9.13,1,6.75,2-2.12s3,7,3,6.62,1.25-13.62,1.25-13.62l2,2.5,1.25-6.38,4.38,13,.87-8.87,1.75,2.37,1.75-5.37,2.25,6.25,3.38-6.25,1.12,2.62,1.5-9.37,1.13,2.62,2.37-7.37,1.38,4.12,1.5-1.75,3.25,7.25,1-7.25,2.25,2.13,1.62-6,1.38,1.5,2.12-7,1.5,4.37,3.75-9,1.63,2.25,1.75-3.25,2.87,12.75,2.63-7.87,1.12,3,1.88-4.88.87,2.75,3.75-11.25,1.75,4.13,2-1.75,2.13,7.5L1448.5,85l1.25,2.5,3.5-14.5,2,4.5,2.63-3.87,1,5.37,3.25-3.75.75,9.38,2.37-.75,1.38,10.25,3.37-9.75,1.25,5.25,3.25-2.38.88,4.88,3.25-3.63,1.62,10.25,2.88-9.75,1.12,2.63,2.63-9.88,1.87,7,2-1,2.13,11.5L1494.5,90l1.25,3.88,2.38-3.38,4.5,9.75,4.37-9.12,1.63,3.5,4-3.25,1.75,7.62,2-9.87,2,2.12,2.37-9L1522,87l2.38-1.12s1.5,8.87,1.62,9.5,1.63-10.63,1.63-10.63l2,2.13,1.25-3.13,2.5,10.75,1.62-7.12,2,4.12,2-2.62,1.25,4.62,3-2.87L1545,99.5l2.25-2.12,1.25,3.87,2.88-7.5,1.62,4,1.75-1.62L1556,106l3-9.87,1.5,3.5,2.5-7.25,1.75,5,1.63-1.75s1.12,6.25,1.12,6.62,4.63-3.25,4.63-3.25l1.87,3.38,3.75-3,1.75,3.25,2.63-3.88,1.62,4.38,3.5-7,1,2.87,1.88-4.75,1.37,2.5,1.5-1.5s2.63,6,2.75,6.38.75-7.38.75-7.38l1.38,1.38V87.88l1.5,2.25,2.5-8.88,1.12,4.63,2.13-1.5,2.25,8.25.87-5.63,1.63,3.75,1.75-6.62L1613.5,88l.75-2,2.5,7.63,1.13-4.75,1.25,1.12,1.12-9.25,1.38,2.13L1623,74l1.5,4,1.25-2.25,2.5,8.88.88-5.88,1.5,2,1.62-11,1.75,3.88,1-4.88,1.38,3.19,2-10.69,2.25,2.5,3-5.75,2.5,9.88,1.12-9.75,1.38,2.87,1-10.75,1.5,3.38,1.87-7.88,1.5,4.63.88-2.25,2.5,9.12,1.62-9.62L1661,51l1.25-3.25,3,9.25,2.63-7.12,1.62,2.5,1-6.88,2.5,2.38,1.75-10.13,1.25,2.38,1.5-3.88L1679,38l4.5-9.87,1.25,2.75,3.63-5.13L1690,30l2.38-6.12,1,1.87,4.25-7.75.87,2.38,2-2,1.5,12.5,2.13-6.25,1,4,2.12-4.13,2.38,14.75s1.62-2.25,1.87-1.87,2.63,4.37,2.63,4.37l3-10.62,1.37,5.5,1-1.5,1.63,7.5,2.25-16.25.75,3,2.12-5.38,2.38,12.13,2.5-4,.75,5L1734.5,33l1.25,12.13,3.25-8.75,1.25,2.37,1.25-3.87,2.5,6,3.13-13.25,1.37,5.5,2-1.25.75,8.62,2.25-1.12,1.63,10.75,3-8.75.62,2.5,2-3.38,1.75,9.38L1765,42l.88,2.5,5-9.62.62,3.37,1.5-2,3.63,10.88,2-7.5,1,2.25,4.62-13.25,1.63,7.62,1.75-4.5,3.87,18.38,2.25-9,1.88,1.12,2.75-8.5,1,5.5,1.25-1.12,3.12,13.75,2-6.63.88,2.38,3.5-8.25,1.5,4.87,1.62-1.5s.5,4.63.63,5,3.12-8,3.12-8l1.13,5.88,1.75-1.63,2.37,8.88,1.25-8,.88,2.62,2.87-7.87,2,11.12,2.38-3.5s1.5,2.75,1.62,2.38l1.38-4,1.5,2.87,3.75-8.12,1.25,3.87,2.37-4.12,2.75,11,1.63-7.5s1.37,2.87,1.5,2.5S1853.13,33,1853.13,33l1.37,4.63,2-3.75L1860.38,47l1.37-10.12.88,4.25,1.75-5.5,3.37,8,1.38-8.88,1.12,2.38,3-6.5.88,5.75,3.5-4.38,1.12,6.63,2.13-4.25,4.37,8.25,2.88-14.13,2.5,3.38,3.12-12.13,1,5.13,2-5.38,2.38,12.88,3.12-13.13,3.5,10.25,3-3,3.5,6.5,1.75-9.5,2.5,5,2.88-8,2.12,7.25,1-8.25,1,4.08,0,479.75H.88Z"/></g></g></g></svg>