<svg xmlns="http://www.w3.org/2000/svg" viewBox="0 0 1923.5 439.42"><defs><style>.cls-1{isolation:isolate;}.cls-2{fill:#2e250a;}</style></defs><title>Fichier 7</title><g id="Calque_2" data-name="Calque 2"><g id="Plan_de_travail_1" data-name="Plan de travail 1" class="cls-1"><g id="Calque_18" data-name="Calque 18"><path class="cls-2" d="M2.5,69.58l4.75,9.25L4.88,80.08l4.87,6.25-3.62-.62L11.5,99l1.25-15.5,1.88,4.25,3.12-10.88,3.88,11-2.25-1.25,4.25,8-3.25-1,5,7.88L31,89.58l-4.75-.12,6-7.63-2.62-.37,8.12-13.13,4.88,9.88L48,70.71l-2.75.12,7.13-11.12,6.75,11.37-4.13-1,5.63,9.25-4.5-.87,7,8.87L66,80l-3.25.62,4-8.12-3.12.75L71.25,61l6.38,11.87-3.75-1.25,5.87,9L75.38,79,81,88l-4.12-1,2.25,5.87s15-7.25,25.37-5.75l4.63-5.87-3.38.25s6-4.13,6.25-7.63a31.81,31.81,0,0,0,4.63,6.75h-2.75l4.87,7.75,4.25.5,1.38-4-2.88.5,5-7,4.63,8L128,84.46l4,6.25,3.25-5-2.87-.13,3.5-5H133.5l4.13-5.5,3.62,5.5H139l3.63,7.75-3.8-2.08,4.67,8.08,3.5-7.08-2.58.42,3.83-5.75-2.25.33,4.5-7.83,5.5,9.41-3.75-2.75,5.67,9.42-5.09-2.75,5.42,8.58L162.67,87l-4.92,1.17,3.5-6.17-3.42.17L164,73.92l-3,1.16,7.42-12.25,7.33,13.59-3.58-2,5.5,8.91-5.75-2.75L178.5,91l-6.58-2.92,4,11.92,4.5-3.92-3.5.09,4.41-3.25-3.16.58,5.66-6.75,4,7.42-3.58-2,3.58,5.41L184,96.08l6.67,7.17,4.25-11.75-3.59,2.92,4.25-8.17-5.33,2.83L198,78.83l-5.25,2,8.92-11.5,6.58,10.25L203.08,78l7,8-5.58-1.58,8,6.75-7-1.92,1.42,12.5,2-5.25,2.08,1,2.92-4.42,2.16,8.09,3.34-4,2.5,9.41,3.5-10,4.33,4.67L235.42,93l-5.5.75L236,86.67,232.08,88,238,76.5l7.25,11.58-5.17-2.58,5.17,7.92L242,92.5l3.25,7.92,2.67-6.17-3.09.92L248.92,89l-2.84,1.08,5.84-9.66,4.16,9.83-3.25-1.92,5.42,6.84L254,93.33l5.67,8.92,1.41-6.75,1.75,1.67,1.67-8.5,1.83,7.08,1.34-1.5L270.92,105l3.5-9.92s-2.92.34-3.34.5S274.42,91,274.42,91l-5.75,1L275,86.17l-4.25.25,4.75-5.34-2.83.5,5.75-8,4.33,7.75-3.08-.91,4.75,5.41-4-.58,5.83,6.08-6-1.25,4.33,4.75-4.33-.41L285,104.83l2.25-8.25,2.17,3.34,2.83-4.17,2.58,2.42,3-14.42,1.67,8.08,1.92-2.41,1.91,12.25,2.92-8.42,2.58,3.58,1.34-1.66,4.91,9.25,1.25-11.67-5.33.92,6.25-6.09-7,1,7.5-7.33-4.67.92,4.67-6.34-3.92.92,6-8.33,5.59,7.75-3.75-1.25,6,6.08-4.75-.58L331,87.17l-7.5-.84,5.17,5.25h-4.75L329,104.83l.83-7.5,2,1.75,2.42-3.25,3.33,10.75L339,97.5l2.33,2.58,1.92-12.41,2.42,10.25,1.5-.09L348.58,119l3.42-9.08-3.08.41,5.33-6.33L349,105.17l4.67-6.09-5.5.92,4.66-7.75L349,93.67l7.25-13.59L363.75,94l-5-2.92,5,8.09L358.83,98l6.67,7.42-6.08-2.34,6.08,8.17-5.42-1.42,2.09,12.92,2.33-5,2.17,4.5,2.16-2.42,2.84,11.42,2.08-13.5-3.83.08,5.16-6-4.16.75,5.41-7.08-3.75,1.08,5.59-10.75,6,11.25L380,104.75l5.33,7.83-4.83-2.25,6.25,9.84-5.67-2.59,2.34,13,3.33-6.33,2.17,2.33,3.25-13.91,1.58,6.33,2.17-2,3.5,15.58,4.46-7.62-3.13.12,3.13-3.75-2.88.13,6.88-7.63,2.75,8.5-2-1.12,2,3.62-2.25.13,2.25,7.62,5-8.37h-2l3.12-3.63-4.25.5,4.25-3.75h-3.62l6.37-5.87,3.63,7.62-2.75-1.5,4,6.5-3.75-2.75,2.25,7.75-3.75-3.75,4.12,12.5,2.88-7,2.25,4.75,1.75-3.5,1.37,2,3.88-8.12,3.75,7.37,1.37-6,5.63,2.5,2-9.25-6.88,2,5.38-5.87-5.38,1,5.25-7-5.25,2.12,6.88-7.87-3.13.5,6-7.25,6.38,7.62-4.25-1.62,7.62,6.87L454.88,110l7.37,5.5-7.62-1.25,7.62,6-6.62-1.38,2.5,7.38,4.12-4,2.38,3.62,2.25-4.25-2.5.13,3.37-4-3.25.62,5-6.87,5,6.87-3.37-.87,4.37,4.5-4-.75,1.38,5.75,3.37-.5,4.38,8.5,1.5-8.38-3.88.25,4.75-5.62-4.5,1,4.5-6.63-4.12,1.5,6.25-7.75,5.25,8.38L487,115.83l6,7.63-5.12-2.38,4.5,7.13L488,126.58l2.88,13,2.12-3.87,1.88,3L497.25,128l1.25,4,2.38-3.88,1.25,7.75,1.75-1.12,1.62,12.87,2-7,1.5,2.13,1.88-4.5,3.37,10.87,1.75-9.5-2.37.25,3.25-3.75-3.88.63,6.25-8.38,5,8.75-4.12-1.5,4.12,5.63-4-1.5,3.38,10.62,2.37-5.12,1.25,3.5,2.5-2.63,2.63,2.63,1.62-5.63-3.87.88,5.12-5-3.5.62,5.25-6.87,4.88,7.5-4-1.75,5.37,6.62-4.62-2,2.75,7.88,1.87-3.25,3.25,4.12,2-4.25,5.25,4.25V146l-3.37.5,2.54-3.7-5.79,1.45,5.62-6.38-5.37,1.88,5.25-5.75H549.5l6.75-7.75,6.38,9.25-5.25-1.88,5.25,7.13L557,137.46l6.75,7.75-5.62-2.75,2,3.87-2-.37,4.62,8,1.88-4.38,2.5,2.38,1.37-7-2.25.37,3.25-4.12-4.25,1L569.5,138l-3.62.25,4.37-5.5,5.38,5.37-3.88-.37,5.13,4.37-4.5-1.37,4.5,4.87-3.88-.87,2.25,13,1.63-5.88,1.75,1.88,2.75-4,1.87,3.12,1.75-3v-4.75l1.75.63,3.13-4.38.87,3.5h2.38l-1.5,5.88,2,7,2.12-5.25,2,2.5,1.5-2,3.13,11.5,3.5-5.13v-3.75l-3.25.75,4.25-4.37-3.38,1.25,4.88-6.25-3.5,1.75,5.37-7,5,7L611.63,147l4.62,5.87-4.5-1.37,5.13,4.87-4.63-1.25,1.25,4.25,4.75.5,3.13-4.12v-3.38l-3.88,2,3.88-7-4.88,1.75,4.88-5.62-5.63,1.62,5.63-7.12-3.63.87,5.63-7,7.25,6.75L626,137.33l6.88,6.38-5.63-1.38,5.63,5.63-5.38-1.25,5.38,6-4.38-1.13.75,4.75,5.5,5.63,4.38-12.25-4.5.5,4.5-4.88-3.13.38,3.13-4.88L635.25,142l5.5-10.38,7,11.25-4.62-2.62,4.62,6.5-3.5-2.5,3.5,6.87-4.12-1.5,3.25,7.75,2.75-4.87,2.62,3.87,3.25-5.12,3.5,14,4.38-9.75-5.25.25,8.75-6.38-6.5,2,7.12-7.5-6.5,2.5,8.13-8.87-7.88,2.37,7.88-7.87s-7,2.62-6.88,2.25,7.63-8.5,7.63-8.5l-6.38,1,8.88-11.25,10.25,11.12-6.38-.87,7.5,6.87-6.5-1.87,7.75,7.5-5.75-1.63,6.88,7.38-5.5-1.88,7.25,6.88L681,147.33l7.63,7.13,7.12-4.63-6.37-6.25,5.12,1.75-.37-7.5,3.62,5.13,5.63-9.75,1.87,8.25,4.63-3,4.62-6.13,2.63,2.25,4.62-2.37,5.63,8.5,1.12-8.38-4.5.5,5.25-4.87-6.75,1.62,7.88-8.62-4.63,1.62,4.63-7.25L726.5,117l6.25-8.5,7,9-5-2.5,6,8-4.87-2.5,7,8.37-5.25-1.5,3.25,5-3.63-.62,3.38,10.5,3.12-6.13,2,2.5,2.5-7.75,1.88,2.38,2.5-8.38,2.12,6.88,2.5-.25,2.5,8.62,2.5-9.25,3.63,2.75,1.5-7,2.75,2.38,1.75-4.88,2-1.62,1.12-7.63,2.63,7.63,1.87-.63,2.25,8.88,1.38-7.63,1.62,2.38,1.88-6.88,1.87,3.13.75-9.25,1.25,2.5,2.25-4.88.63,5.25,3.12.63-1,11,4.13-1.75v13.37l2.5-5.87,1.12,2.87,2.13-2.25,1.12,13,2.88-4.62,1,2.5L812.5,138l2.13,7.87,1.75-1.25.87,5.13,2.25-1.38L821.25,159l4.25-10.46,2.33,1.33,1.34-7.66,1.83,2.5,2.83-8.84,1,5.17,2.34-.83.66,11.5,1.67-2.84,1.67,8.34,2-.84,1.66,5.5,1-5.5-3-1.16,3-2h-2.16l4-5.17,3.66,6.5-2.66-1.5,2.66,5.67-3.16-2.34,1.83,13.5,3.17-5.83.66,3.33,3.5-5.33,1.17,16,2.5-5,1.33,5,2.34-1v13.5l2.83-2,1.33,2,3.34-4.17,4.83,5,1-4.66-2.67.16,2.67-3.66-2.17.5,2.17-4-2.33.66,3.5-5.33,4.66,6.5-3.5-1.83,3.5,4.66L880.67,183l4,4.75L881.5,187l3.17,5.83,5.16-4.33v-5.17l-3.16,2.17,3.83-6.33-4,1.5,4-6.5-5.17,2.33,7.67-10,6.33,9.67-5.16-3,6.5,8.33-5-2.67,3.66,6-4-1.66L897.5,189l8.33-3.83,2-5.67-5.16,1.5,5.16-6.33-4.83.5,4.83-6-4,1.66L909,164l-3.67.83,5-6.33-4,1,6.67-9.33,5.83,9.5-4.5-1.67,6,5.67-5.66-1,7.83,7-6.33-1.84,5.66,6-5.16-.66,6.66,6.5L918,178.5l1,4.67,9.33-3.17,1.67-6a16.93,16.93,0,0,0-3.5,1.33c-1,.67,3.5-5.33,3.5-5.33l-3.67,1.83,7.17-8.5,5.5,6.84-3.67-1.67,3.67,5.17-4.17-1.17,5,4.67,5.5-7,1.34-8,3.5,3,3.16-23.67,3,10.17L958.5,147l7.17,15.17,2.16-15.5-7,1.16,8.67-7.33-8.83,1.83,8.83-9.66-8.83,3.83,12.16-16,11.67,15.83-8.33-4.16,6.66,10.66-6.16-3.16L982,147l-5-.83,1.67,14.5,3.16-8.34,2.67,3.34,5.5-5.17,7.5,11.17,2.67-10.17-5.84.5,5.84-5.17-3.5.84,4.66-6.34-4.5,1.84,7.84-8.34,6,9.67-4.67-3.17,6,7.34-5.5-1.84,6.83,6.67-5.33-1.33,1.83,9.83,8-5.67h4.5l3.17-5.33,2.67,3,8.5-4.33,2.66,3.83,5.5,2.83,13.84-10.66,6.16,4.16,6.67-9.83,8.83-9.17V124l-6.16,2.27,5-5.94-4.84,2,6-8.16-6.33,3,7.33-10.34-7.66,4,10.5-14.33,10.33,12.17-6.5-3.17,6.5,8-6.33-3,7.16,7.67L1089,116l7.33,6.5-7.5-.83s.84,5.66.84,6.16,12.66-.5,12.66-.5l3-8.5-5.5,1.5,4.67-5.5-3.67,1,4.5-5.5-4.83,1.5,6.83-6.5,5.67,5.5-3-.5,4.67,3.67-5.17-1.17,7.83,5.17-6.66-.5,3,6.33,9.16-6.16,1-5.17,2.5.5,3.34-3.17L1134,109v-4.33l-8.17,2,7.34-6.5L1128,101l6-6.5-4.5,2.33,7.17-9.5,7.66,8.84L1138,93.5l6.33,6.17-5.33-1,8.67,7-8.5-1.5,1.33,4.66,10,3.17,6.67-4.5,2.5,1.83,6.33-5.16,7-.67,2.83,7.17,9.84,1.66,2.33-5.16h-6l7-3.5h-5.67l7-5.34-6,.5,9.84-8.33,6.83,10.33-5.67-2.33,6.5,6.5-6-1.67,6,7-6.5-2.33.5,7.17,6-1.17,5.34,1.33,2.66-5.16-4,.16,5.5-4.83-4.66,1.33,6.33-5.5-5.33,1.17,10-7,2.83,8.33-3.67-1.83,3.67,6.33-3.83-2.33,3.83,8.17-5-3.67v8.67l9.17,1,2.16-3.5-3.66-.17,6.33-3.33-5.17.5,8.17-4.34-5,.34,11-4.67,1,10.83-2.17-4.83-.16,8.83-2.17-5,.33,8.17-3.66-4.83-2.17,4.66,7.83,5,6.84-3.5,3.5,3.84,4.33-1,4.33,12.83,1.84-5.83-2.34-.34,4.17-2.66h-3.17l5.5-3.67-4.33.33,7.5-4.83,3,8.5-2.67-2.33,1.34,5.16-2.5-2.16,2.5,7-4.34-3.5-2.16,10.5,6.66,4.16,9.84-2.66,4.16,7.5,5.67-.5,2,1.66,4.83,8.5,8.84-4.66,1.5-6.67-6.84.83,6-4.16-3.66.66,4.5-4.66-4.34,1.16,5.17-5.83-4.17,1.5,5.84-7.33,7.33,8-5.33-2,5.33,4.83-4.67-1.17,4.67,5.34-4.33-1.34,6.83,5.34-7.5-1.34,3.5,8.17,7.33-5.17,7-3.66,2.5-5.17,2.67,2.67,2.67-6,6.33-16,3.67,7.66,2.16-9.56,4.67-4.94,4,9.67,2-14.67,6.83-4.5,5.5-1.33v-7.17l-5.66,1.67,5.66-4.17-4.5-.33,4.5-4.67-4.33.67,6.83-6.33,6.5,6.16-5.33-.66,5.33,5.16-4.66-1.16,6.83,5.5-6.67-2,2.5,7H1385L1389,99l-5.33,2,4.16-5.17-5,1.17,5.17-5.5-4.17.83L1388,87l-4.83.67,7.33-7.34,6.67,6.84-5.5-.67,3.83,4.83-3.33-.83,7.33,4.83-6.17-.83,6.17,3.67-5.83-.17,3.66,4.33,9.84-9.5-1-10.66L1400,87.33l4.5-8.83-4.17,1.83,6.17-7.83-4.67,1.67,5.34-8-4.34,2,6.34-8.46,7.33,8.46-5.67-2.5,7.67,6.83-6.33-1.83,7.16,7-5.16-1,7.33,6.66L1414.83,82l3.17,7.5,9.5-11V70.33l3.83,2,2.17-3.83L1438,66l4.17,5,6.16-6.5,2,6.67,5.34,5.33,4.16-7.67-6.16.34,4.83-4.5-4.33-.17,5.66-6h-4l5.84-4.83,7.16,7.66L1464.17,59l4.66,6.33-5.16-1.83,6,7.67-5.5-2.67,1.16,8.33L1473,75l4.67,1.83,2.66-6.5-5.16,1,6.16-4.5-5,1,5.84-5.66-5,1.66,7-6.5,4.83,7-3.33-1.83,4.16,6.67-4.66-2.34,4.66,6.5-5.5-1.5v5.5L1495,74.17l1.17-8.17,4.83-1,1.5-6-8.5,2.83,8.5-6.33-5.67,1.33,5.67-6.5L1496.67,52l7.83-7.5,7.33,6.33-4.5-.33,4.5,4.83-4.83-.66,6.67,5.66-6.34-1.83,3.34,8,4-2,2,3.5,2,7.83,6.5-6,1.5-6.83L1521,64.33l7-5.66h-6l6-4.5-4.67.5,9.34-7,5.33,8.66s-6.67-3.66-6.17-3,6.17,6.5,6.17,6.5L1532.17,58l4.83,6.5-5.67-2.33L1532.5,70l10.33-4.83,1.34-9,3-.67,3.16-4.83,1.34,2,4-6.67,1.5,5,3.5-4.83,1.33,2.16,2.83-4.83,2.34,6.67L1570,46l6,6.5,8.17,1.33,4,3,9.5,3.84L1612.33,56V51l-5.66,1.5,5.66-4.67-4.66.5,4-4.83h-3.84L1614,39l4.33,5.17-4.33-.84,6.5,5.17-5.33-.83,6.33,5-6.17-1,2.67,5.5,8.33-4.17,4.17-3.33,4.17,1.66L1639.5,45V40s-3.5,1.83-4,2.17,4-6.17,4-6.17l-4,2,6-7-5,3.17,7.17-9.34,7.33,8.84-6.67-3.34L1650,37.5l-5.33-3.17,3.5,6.17-4.84-2.5,3.17,6.5,11.17-5.83,1.33-5-3.83,1,5.5-5.5-4.67.66,6.67-5-5,.84,10.16-6.34,6.67,8-5.5-2.5,4.33,6-4.16-2.5,5.33,7.17-7.17-2.5,2.34,8.5,7.33-1,8.33-4.67,3.84,4.17,8.66-.33h10.34l5,6.16,3.5-5.33-4.17-1,9-4.17-5.5.34,7.33-4.34h-5.16l8.66-4.5,4.5,9.67-4.16-3.67,2.66,6.67-4.33-4,2.67,9.5-5.34-3.33-1.33,6.83,5.33,1.67,5.67-.67,2.83,4.67L1740,49l-5-.83,7.17-2-4.34-1.5,6.5-2.34-3.83-1.16,9.5-4,1.17,10.66-2.84-4.66.84,9-2.84-4.67-.16,8.67-2.84-5.34L1739.83,65l6.67-1.83,3,2.66,4.17,4,9.83-4,4.83-5.83,2.17,4.5,2.5-5,2.33,4.17,4.17,5.16s3.33-11,3.67-11.5,6.5,3,6.5,3l4.33-7.66,4.17.66V46.67L1793,48.5l6.17-5L1793,45.17l8.17-8-7,2,10.33-11,7.17,12.33-6.34-3.83L1813,48l-8.5-5,6.17,9.5-6.5-3.83,1.83,8.16,13-3.5,3.17-6.83,6.83-1.33-2.17-6.34-5.16,2,6.33-8.66-6,3,5.83-10.34-6,4.34L1829,16.83l9.5,8.17-7-.67,9.33,5.67-6.16.5,11.66,5-10.5.17,3.84,6.83,8.83-4.17,4.5-8.16,3.83.83,3.5-4.33,13.84,11.83,11-10.33,8.16-9.17,8.5.5L1905,10l8.17-5.33L1923.5,0l0,439.42L2.5,438.33,0,69.71Z"/></g></g></g></svg>