<svg xmlns="http://www.w3.org/2000/svg" viewBox="0 0 1923.5 426.33"><defs><style>.cls-1{isolation:isolate;}.cls-2{fill:#201800;}</style></defs><title>Fichier 8</title><g id="Calque_2" data-name="Calque 2"><g id="Plan_de_travail_1" data-name="Plan de travail 1" class="cls-1"><g id="Calque_19" data-name="Calque 19"><path class="cls-2" d="M1914.5,84.33l-11.33,13L1893.5,90l-16.33,1-2.34-17.67,21.34,8-16.67-17,17,3.34-15.33-16,17.66,5-18.33-19L1892.17,42l-13-13,9,1.67-12-14.34L1884.5,18l-9-18-11,18.67,7-2-12.67,15.66,9.34-3-16,15L1863.83,39l-19,21,15.67-6.33-16.41,17.24,16.08-3.58-15.67,15,23.67-7.66L1858.83,93l-13.66,13.33-6.67,11-8.33,1.67-9.67,21.33-7.67-6-4.33,11.34-16,4.33-5-21.67,11.67,7.67-9-14.67,12.66,5.34-12-18.34,10,4L1792.5,97l10.33,5.67-9.33-21.34-17,20.34,10.33-5-12.66,17L1784.5,110l-13,13.67,8.33-1-10.66,10.66,14-5.33v16l-22,12.33-5-12.66,12.66,4.66-13.66-12.66,10,2.66-10-12.33,10,.67-13.67-13.34L1740.17,127l8.66-.67-10.66,12,9.66-.66-6.66,10.66,12.33-4.66V151l-11.67,15.33-18.66-5.66-4.67-7.34,16.33,5.34-15.66-14,14.33,5.66L1718.17,132l13,3.33L1714.83,115l-15.66,20.33,12.66-3.33-21.66,16.67,17-3.34L1696.5,158l17-4v7.67l-12.33,10.08L1689.5,169l-22.33,13.67-5-25.34,9.33,7-7-18.33s12.33,7.67,13.67,7.67-12-22.34-12-22.34l12,9-10.34-23,10.34,7.34-10-25-23,22,16.33-5-20.67,18.66,18-4.33-19,17,13-1.67-12.33,13,14.67-2.33-5,16.84-23,.83-.67-14.34,15.67,5-15-16.33,12,3.33-12.67-14,10,2-12-19.33-14.33,19.33,9-2.66-12,15,9.66-1.67-13.66,12.33,17.66-3.66-5,17H1602.5l-4,16.33-8-3-17.33,9.33L1562.5,180l21.33,3.5-16.08-10.18,14.42-1.57-20-16.42L1578.5,160l-17.33-19.67,12.66,4.34-13-15.67,10,2-14-19.33-9.33,18h6.67l-12.34,15,10-2-12.66,17.66,13-4-16.67,20,11.67-3-11,12,20.66-4.33-4,20.33-20,17-5.12-15.47,9.46,4.47-8.67-10,8.67,3-10-10,6.33,1-10.33-12.66-6.67,12.66,6.67-1.33-7.34,9,7.34-1.67-6.34,8.67,6.34-2.67v15l-16.67,8.92L1500.83,213l13.34,2-12.67-8.67,11.33,1L1500.5,197l10.33,1.67-11-11.34,7,1-10-10,6.34,1.34L1494.5,167l-6.33,12.67,4.33-1.34-5,9.67,6.33-1-10.33,12,9.67-1.33-10,12.16,8.33-1.5-6,11.67,10.67-6v14.67l-15,10.66L1467.5,237l-3-13.67,14,3.92L1468.17,214l13,1.67-13-16,8.66,1.33-8.66-16.67,10,3.67-12.34-16.25,7.67,1.92-9.67-22.34-12.66,20.42h7l-11.67,15.92,13-3.67-17,19.71,12-3.71-13.92,14h10.59l-16.34,15,22.34-5.67-3,11-30.17,21-12.83-24.66,19,6.5L1411,222.5l16.83,5.17L1411.38,212l15.62,3.83-16.83-16.33,15.33,5.17-17-15.84L1419,194l-10.67-15.33L1419,184l-13.83-20.33-10.5,15.5,6.66-1.67-10.66,14.67,9-3.34L1387,203.71l15.17-4-15.5,15.5,11.66-3-13.83,12.66,11.5-1.66-16,15.16,21-6.83-1.17,12-35.33,24.67-13.67-35.5,23.67,5.5L1354.67,223l17.5,4.67L1355,212.5l17.17,5.67-16.84-18,16.84,6.5-16.36-16.11,16.36,6.44-17.34-21.33,13.67,5-12.83-16,12.83,6.75-16-27.09-18.5,23.5,12.33-4.16-18.83,17.16,15.33-3.16-21.5,17.83,14.34-4.33-16,15.33,17.5-4.83-18.67,16.66,17.5-4.66L1316.5,230l19.74-5L1319,237.67l21.75-4.08.42,19.74-11.34,19.5-13.16,6.67-4.34-23.67,13.5,8.5-12-17.5,12.67,7.67-18-24L1290.67,253l10.92-5.39L1289,261.33l16.33-5.33-5.5,22-5.33-4.83-20,12.66-16.17-15.66-.5-9,23.67,8.16-20.83-18.83,19.33,6.33L1260.5,237l14.5,7.5-14.67-18.33L1276.5,234l-17.67-21.17,17.67,7.34L1258,200.83l11.83,5-13-23.33-19,19.5,11.34-.83-16,13.33,15-1.33-19.5,17.33L1247,226l-17.33,15.33,16.83-3.66-21,15.83L1242,251l-21.17,15,29.5-5.5-.83,6.83-13.33,12.34-8.17-3.84-4.33,15.84-10.17-3.17-11.17,23.33-10.16-24.33,14.33,5-13.67-11.83,11.5,4-12.33-13,9.17,4.5L1189,256.83l-10.67,17,8.05-1.39-13.55,10.89,13.17-2.48-13,9,13.79-2.57-.62,6.24s-5,6.33-5.5,6.67-9.17-4-9.17-4l-17.17,10.5-7.5-30,23,.83L1150,265.33l17.67,2.5-18.34-15.66,16.5,3.5-17.33-14,17.33,4.83-17-14.33,11.5,3.66-12.16-13,10.16,4.84-11.83-13.5,11.83,4.16-14.83-16L1133.83,216l7.84-2.33-11.34,11.66L1140.5,222l-10.83,13.83,8.16-3.33-12.16,14,11.16-3.5-12,15.33,12.67-4.83-16,16.17,12-1.34-12.67,9.5,19.67-.66L1138.17,299l-20-12.67-10.34,2.34-7.16-18.17L1093,286l-3.5-16-3.33,7.33-4.34-7-3.66,35.17-7-7.67-5.5,5-4-3.83-12.34,8.67-13.16-7.84-2.5-13.66,24.83,1.16-19.17-13.66,17,2.16L1035.17,260l14.66,4-14.66-15.33,14.66,5.66-16-16.33,9.67,4.17-13-20.5-12,19.5,7.83-2.67-12.16,14.67,9-3.5L1010,264.83l11.33-3.83L1008,276.33l10.33-1.83-16,11.5h24l-8.66,28.67L1002,291.17l-6.5,2-4-4.84-15.17,1.5-6.19-14.11,21.36,4.95-19.17-13.5,16.17,2.33-16.83-13.33,14.66,4-16.33-15,13,4.33-17.83-21L954,246.33l7.75-.46-12.08,12.46,12.83-2.66-13,13.83,9.83-1.67L942.5,279l21.33-2.67-6.83,8-16.5,4.34-13.5,17L913.67,298l-12.84,2.33-6.66-18.66,21.66,8L898,271.33l14.83,5.34-14.5-17.17,14.5,8.33L896.17,239l-21,26,11.33-4.5L871.83,276l13-2.17-14.83,11L888.67,282l-.5,8.33-7.84-1.83-6.5,4.83L867,310.67l-6-7.84-6.33-4.66-12,2.16L839.17,287l5.5,2.83-5.5-10.33,7,4-10.84-17.83L829.17,281l4.33-1.33-6.83,7.66,6.83-.66L824.17,293l-2.84-10-6.66,3.5-2.34-6.83-11,4.33-17,.83-4.27-13.33,27.11,3.33-23-15.66,18.66,3.66L784,247.33l17.17,4.84-18.5-16,13.83,3.16-14.67-14.16,12.5,3.83-13.66-13.33,9.5,3.33L777,199.67l-13,17.5,8.83-1.5-11.66,12.16,9.66-2.66-15,16.83,14-5-18.5,17.33,16.17-5.16-18.17,15,14-3L745,276.5l26.36-3.85-2.19,10.18-18.84-.66-9,7.33-2.83-22-4.67.17-4.5-15-4.5,9-3-2.5-5.5,10.66-12.16,2.84-13.67-6-1.17-8.17,22.5,3.33L692.5,248l16.17,2.17-16.67-11,18.67,2.5L690.33,229l13.84,1.5L689,218.17l14.33,4.16L689.17,208l9.5,3-10.34-12.67,7.34,2.34L685.5,185.5l-9.83,13.17,5.5-.5-10.67,12.5,10.67-2.34L667.5,220l9.83-2.33-13.66,14.5,10.83-2.34-15.67,13.5,12.67-1.83-17.33,12.83,17.16-3.16-18.5,10.5,28.34-3.17V265l-9.84,9H655.17l-25-12L617,264.17l-5.67-18.5,30.5-.17-26.66-11.67,22,1.17L612.5,220l20.33,1.5-22.5-14,18.5,2.33-20.5-14.5L624,196.67,605.67,183l10.83,1.67-12.17-12.92,6.5,1.58-11-16.5-9.66,17.5,6.5-1.66-9.84,13,8.5-1.67-16,16.17,12.84-2.84L573.5,218.17l18.67-8L572.5,229l18.17-6.5-19.5,19,14.25-2.93-17.75,15.26,27.66-6.5-11.5,23.5-31.5-17.5-1-9,15.34,2.17-14.5-9.83,11,2-9.73-8.76,9.73,2.26-10.84-13,5.67,1.16-7.67-9.66,7.67,2.66L546.5,196l-10,17.83,6-2.83-7.67,12.17,7.34-3.84-11.84,15.34,9.84-4.17L529,242.17l12-4.5-11.67,10.16,15.95-2.78-.61,7.28-11,12-6.34-14.66-2.83,8.83L521.83,231l-4.33,2.5-1.17-7.5-5.83,13.83-6-4-3.33,5-9.84,2,2.34-15,4,5,1.16-10.16,2,4.66.5-8.16,2.4,3.4.77-11.74L492,215.49l5.64.62L488,221l5.5.33-8.67,5,5.34.34-4.5,7.66L481,222.5l-8.33-6.67-5.12-14.44,7.95,4.28-6.33-9.84,5.5,2.67-6.34-8.67,6.34,4-9.84-17.33-6.5,16.33L464,189l-5.67,10,4.5-3.17-5,7.88,7-2.62-2,6.91-9.33,8.33-6-15.16,7.33,3.5-6.16-8.34,6.16,1.67-7-7.67,6.17,1.5-9.17-13.66-8.5,14,5-1-4.83,8.33,6-2.33-5.83,9.5,6.83-5.34v9.84l-12.17,13.66-6.5-11.16h-8.16l-4.17-26.84,8.83,4-9-11.33,7.84,2.83-9-11.5,8.33,2.84L407.5,156l-9.67,16.5,7.84-1.83-7.34,10.16,6.17-.66-8.83,8.16,9.16-1.83.84,9.5-11.17,7.71-7.33-2.21-15.67,3.83,2.33-21,10.34,8.17-6-18.17,8.5,6.5-7.17-16,9.17,6.92-6.5-14.92,7.16,4L381,142.17l-14.33,14,8.16-.51-13,9,9-.17-12.5,9,8.5.17-13.5,8.5,15.09.54-7.25,11.79-12.5-1.83-8.94-21.12L355,177.17l-11.83-12.34,8.5,1.17-10-11,10.66,3.67L340.67,145l7.5,4.83L336.5,127.67l-9,21,7.17-3.67-11.34,14.83,9.34-4.83-10,12.33L330.5,166l-11.17,9.83,15.34-4.08-3.34,14.42-14.5-3L305.67,189l-7.34-.5-10.66,6.83-5-23.58,9.5,2.75L281.5,163.83l7.67,1.34-9-9.17,7.66,1.17-11.66-13-10.17,15,8.5-2.34-11,12,11-4.16L262.67,176.5l11.83-3.67V185.5L254.67,183,237,160.17l-9.67,3.5-7-2.34L211.67,170l-3-32.82,16.17,3.15-12-14.5,11.34,3-13-16L220,115l-9.33-11.67,6.83,2.84L206.17,85.5l-12.34,20.83,7.34-2.5-12.67,12L199.83,114,185,128.5l11.5-1.67-15.67,15L200,137.35l-9,24.48-14.67-12.66-4.66,3-10.84-7.5-24.66,11.5-12-11.84-12.84,8.5-10.09-37.37,16.59,5.87L106,106.5l10.5,3.83L104.33,95l10.5,5L104.67,86.75l11,3.25L103.83,75.83l10.5,3.34L102.67,64.5,113,68.83l-9.5-13.66,10.83,6.16L96.83,28.17,80.5,59.83l9.33-3L77.5,71.33,91.33,66,77.17,82.33l10.5-4.66L73,93.17l12.17-4.84L72,102.83l12.17-6.66L70,113.83l12-5.16L68.17,124l18.66-6.5-9,22.17-15.5,5.66-5.66-23.66,6,4L58,114l7.67,4.67-8.5-15.5,8.5,4.16L57.33,91.5l7.17,4.33L56.33,80.67l6.5,4.5L53.67,66l-11,18.5,7-2.83-12.5,14.5,9.5-4-12,16.16,12-4.33-12.5,14.17,10-3.67L34.5,125.17l8.17-3-8.5,15.66-8.84-15.5,6.84,4-7-15.66,5.16,3.66L24.5,99.67,29,104.5,23.83,91.17l-7.5,10.5L19.5,99.5,9.67,113.67l5.16-3.17-10.75,12,4.09-.67L0,132.67,2.5,422.33l1421.5,4,499.5-2V81Z"/></g></g></g></svg>