<svg xmlns="http://www.w3.org/2000/svg" viewBox="0 0 1583.62 131.79"><defs><style>.cls-1{isolation:isolate;}.cls-2{fill:#332f20;}.cls-3{fill:#6f6b61;}.cls-4{fill:#151000;}.cls-5{fill:#241c06;}.cls-6{fill:#261e07;}.cls-7{fill:#231b05;}</style></defs><title>Fichier 9</title><g id="Calque_2" data-name="Calque 2"><g id="Plan_de_travail_1" data-name="Plan de travail 1" class="cls-1"><g id="Calque_20" data-name="Calque 20"><ellipse class="cls-2" cx="331.5" cy="0.5" rx="7.78" ry="0.71"/><ellipse class="cls-3" cx="324.5" cy="0.5" rx="2.12" ry="0.71"/><path class="cls-4" d="M324.5,1.92h14a24.85,24.85,0,0,1,10.26,1.69c1.17.42,2.59.12,3.86.33s2.37.77,3.58.95c4.32.68,8.65,1.28,12.75,2.94a2.73,2.73,0,0,0,1.45.07c4.27-.67,8.34,1.06,12.55,1s8.64,0,13,0c5.82,0,11.64.12,17.45,0,4.35-.13,8.85-.05,13-1.15A35.84,35.84,0,0,1,435.46,7c9-.12,17.94-.14,26.91,0,3.86.06,7.7.59,11.55,1,.55.06,1.05.63,1.58,1-.12.61,0,1.41-.38,1.82-2.88,3.32-5.79,6.63-8.81,9.82a15.35,15.35,0,0,0-3.9,7.76l1.59,1.6h14.4c2.33,0,4.88.62,6.93-.14,4.05-1.49,8-.43,12.34-1-1.28,2.43-3.8,3.27-4.4,6.2l9-1.19c.25,1.33.42,2.24.59,3.13,4,0,7.84.14,11.66-.05,3.62-.17,7.24-.7,11.34-1.12-.55,2-.94,3.47-1.31,4.85l2.21.76c-3.4,2.32-4.24,5.79-5.43,9.89,5.39-1.26,9.66-3.82,14.13-5.27,4.21,1.82,8.5.51,12,.91L557,42.8c.36.77.68,1.45,1.07,2.3h3.35c-.24,1.47-2.74,1.74-1.58,3.65a25.71,25.71,0,0,0,7.26-3.88c4.8-3.78,9.7-7.42,15.32-10,1.68-.76,3.64-1.27,4.91-2.47s2.81-1.37,4.2-1.85V28.92h66.93c2.66,0,5.34-.13,8,0,2.37.15,4.72.62,7.08,1a2.36,2.36,0,0,1-1.06,2.56,93.89,93.89,0,0,0-15,12,7.23,7.23,0,0,1-1.42,1.4,61.27,61.27,0,0,0-14,11c-.69.7-1.32,1.74-2.16,2-4.55,1.36-6.79,5.45-10,8.3-.33.28-.21,1.06-.4,2.18,1.38-.65,2.19-1.35,3-1.36,6.86-.15,12.89-4.12,19.75-4.25,1.68-1.35,3.43-.85,5.91-.38l-8.88,6c3.36,1.92,6.21-.71,9.46-.29-4.66,3.68-8.88,7.25-13.35,10.49S636.4,85.58,632,89.3c3.12,1.73,5.83-2.14,8.46.24-4.89,4.07-11.73,5.72-15.5,12.38,2,0,3.78.52,4.82-.13,1.58-1,3.09-.68,4.66-.91a29.56,29.56,0,0,0,3.09-.94c.24-.06.56.22.84.34,1.16,1.27-2.44,2.31,0,3.73a57.2,57.2,0,0,1,6.12-3.05c4-1.49,8.3-2.48,12.29-4.11,4.19-1.7,8.6-2.57,12.86-3.95a51.67,51.67,0,0,0,8.26-3c3.15-1.64,6.4-3.05,9.62-4.54,5-2.33,9.82-5.16,15.07-7,3.91-1.41,8-2.24,11.7-4.36,1.78-1,4-1.37,6.11-2.08,0,.75.14,1.53,0,1.6-3,1.3-5.24,3.51-7.74,5.43a20.39,20.39,0,0,0-1.81,1.93c4.42.21,7.22-2.14,10.43-3s6.18-2,9.27-3,6.56-1.75,9.8-2.84,6.44-2.52,10.18-2.09c-1.81,3.56-4,6.34-7.46,8-.37.18-.42,1-.61,1.55l.59,1c9.57-4.79,19.39-8.85,30.08-10.41.36.2.92.8,1.44.77,3-.2,6,.26,9.14-.81,4.09-1.4,8.57-1.58,12.72-3.08,1.9-.69,4.47-.12,6-1.2,2.43-1.76,4.22.19,6.27.13,3.22-.1,6-1.47,8.76-3a48.84,48.84,0,0,0,5,0c1.55-.16,3-.78,4.59-.93,2.44-.23,5.28.48,7.26-.54,2.17-1.11,4.51-1.16,6.62-2.2a24.65,24.65,0,0,0,3.79-1.76,98.85,98.85,0,0,1,8.88-5.05V50.92c2.83,0,5.66.12,8.48,0,2.2-.13,4.38-.63,6.57-1s4.57.78,6.62-1c.38-.32,1.29,0,2,0h18c6.15,0,12.32-.21,18.46.06,5.91.26,11.62-1.53,17.56-1.15s12,.09,17.95.09H981.5v2.86c-10.85,6.09-21.43,12-31.82,20.14a17.08,17.08,0,0,0,3.27,0c3.29-.87,6.53-2,9.84-2.73,5.31-1.18,10.13-3.72,15.31-5.25,7-2.07,14.18-3.36,21-6,4.19-1.63,8.8-1.75,12.89-3.84,1.54-.79,3.56-.65,5.36-.94l.5.84c-3.87,3.6-8.77,5.76-13.44,8.62.16.4.36.92.56,1.44,4.12-1.7,7.95-3.3,11.8-4.85,1-.4,2.11-.67,3.07.92-3.81,3.8-7.57,7.57-11.39,11.39.45.28.59.44.72.43,3.53-.3,7,.14,10.62-.8,3.29-.86,6.84-.86,10.16-2a4,4,0,0,1,3.27.21c2.2,1.69,4.17.37,5.78-.47,5.77-3,11.36-6.4,17.45-9.88,4.12,0,8.77,0,13.42,0,1.4,0,2.7.12,4.19-.79s4.36-1.7,5.87-1c2.65,1.27,5.16.4,7.68.8,1.8-2.05,4.51-.55,6.76-1.83,2.05-1.16,5.14-.37,7.43-1.29,2.8-1.14,5.77-1.29,8.55-2.25s5.42-2.21,8.19-3.13c3.81-1.27,7.62-2.79,11.55-3.38,4.13-.62,8.39.08,12.58-1,3.19-.84,6.58-.89,9.84-1.28v-1.8c6.65,0,13.3.12,20-.05,4.36-.1,8.7-.75,13-.92s8.65,0,13,0h13.47a41.83,41.83,0,0,1,4.48,0,32.65,32.65,0,0,1,4.08,1v1.4c-3.54,3-8.14,3.73-11.84,6.48s-8.08,4.46-12.22,6.66c.09.43.18.89.34,1.67A45.68,45.68,0,0,1,1202,55a43.74,43.74,0,0,1,6-1.07c1.8-.24,3.43-2,5.65-.43l-5.32,5.07c.25.57.44,1,.73,1.62,1.55-1,2.94-2,4.44-2.76,3.45-1.8,7-3.41,10-6a3.19,3.19,0,0,1,1.76-.51,1.17,1.17,0,0,1,.75.21c-.19,1.37-.34,2.5-.54,3.94,6.52-1.27,12-4.11,18.65-6.67l-3.36,6.13c3.33-1.36,5.68-2,7.73-3.22,3.87-2.27,7.71-4.55,12-5.67V43.92c6.22.42,12.29-1.46,18.55-1.09s12.63.07,19,.09c3,0,6-.08,9.1.9,3.41,1.09,7.11,1.24,10.6,2.15,3.27.85,6.39,2.24,9.62,3.24s6.14,2,9.16,3.19,6.07,2.19,9.07,3.4a46.37,46.37,0,0,1,7.27,4.08,60.77,60.77,0,0,0,5.18,3.19c4.25,2.13,8.5,4.44,11.5,8.55v5.3c-3.55,1.76-6.17,4.65-8.9,7.4-1.76,1.77-3.57,3.49-5.29,5.3a52.67,52.67,0,0,1-9.74,7.78c-2.56,1.67-4.89,3.68-8,6.1,1.65.22,2.54.64,3.08.37,5-2.48,10.48-3.57,15.5-5.94,2-1,4.14-1.62,6.24-.66-3,4.91-7.35,8.69-11.75,13.9a27.3,27.3,0,0,0,3.79-.67c1.15-.42,2.18-1.2,3.34-1.56a174.64,174.64,0,0,0,17.75-6.54,4.89,4.89,0,0,1,4-.12c.26,3-3.33,2.21-3.88,4.69,3.06.15,5.25-2,7.91-2.61,2.86-.64,5.62-2.17,8.46-2.29s5.47-2.38,8.8-.6l-4.49,6.77L1399,110c2.7.72,6.18-.36,9.42-1.53a100.69,100.69,0,0,0,18.13-8.12V98.92c2.75.12,5.22-1.47,8.1-1.08a49,49,0,0,0,8.48,0c3.73-.16,7.22,1.23,10.77,1.63,4.79.54,8.87,3.34,13.66,3.41a2.36,2.36,0,0,1,.85.35c3.73,1.88,7.28,4.18,11.58,4.64,4,3.3,9.31,3.26,13.93,5A14.55,14.55,0,0,0,1499,114c1.66,0,3.23,1.26,5.09.9,1.16-.22,2.15.67,3.11.84,2.17.4,4.2,1.88,6.55,1.15,4.6,1.72,9.43.42,14.07,1.11,3.07.45,6.19,1,9.25,1.64s6.49,1.07,9.67-.4a7.81,7.81,0,0,1,2.35-.35,26.86,26.86,0,0,0,5.15-.81c2.84-.88,5.88.44,8.67,1.65a62.63,62.63,0,0,1,9.59,4.61l8.66,5.66c1.15.75,2.28,1.52,4,2.68H1.5V44.92c2.6-.71,5.17-1.68,8.08-.58v7.25l2.49,1c-1.87,2.46-4.58,3.9-4.55,7.4a14.06,14.06,0,0,0,2.86-.52c3.1-1.34,6.18-2.77,9.23-4.22,1.1-.52,2.06-.76,3,.45L9.46,75.34c.12,3.44-.08,6.5.16,10,2.21-2.21,4.2-3.8,5.68-5.78s3.92-3.16,5.25-5.22c3.16-4.92,7.86-8.35,11.7-12.61.55-.62,1.07-1.44,1.78-1.72,3.92-1.55,7.27-4.11,11-6.07S52.71,50,56.51,48c5-2.71,10.41-4.81,15.1-8.09a39.89,39.89,0,0,1,9.08-4.63c1-.38,2.08-.63,3-1.07,5.6-2.57,11.17-5.17,16.76-7.76V24.92c4.16,0,8.33-.13,12.48,0,3,.12,6,.75,9.08.92s6.17-.61,8.94.19c3.91,1.13,7.75.69,11.61.82s7.78.64,11.46-.11c6.71-1.36,13.44-.23,20.07-1,4.89-.55,9.79-1.17,14.66-2,1.29-.21,2.42-1.33,3.68-1.92,3.49-1.63,7-3.19,11-5,2.88.38,6.06-.62,9.23-1.69.29-.1.59-.35.86-.3,4.27.66,8.35-1,12.57-1,13.81,0,27.63-.14,41.44.06a43.47,43.47,0,0,0,23.57-5.91c2.52-1.49,5.21-3.48,8.66-3.25,1,.07,2.16-1.13,3.5-1.89h4.16c3,0,6-.06,9,0C319.18,3,321.68,1.19,324.5,1.92Zm-264,76a16.29,16.29,0,0,1,1,2A19.12,19.12,0,0,1,62,82.42L72,71.8l1.51,2.69a51.18,51.18,0,0,1,3.07-4.59c2.74-3.23,4.72-7,8.64-9.42a19,19,0,0,0,7.63-9.56,7.31,7.31,0,0,0-2.31,0c-3.8,1.64-7.89,2.62-11.44,4.87-.31.19-.89,0-1.33,0l-.61-3.41a67.94,67.94,0,0,0-17.82,17.8c1.88,2,3.33-.6,5.17-.11C64.83,73.6,61.67,75.24,60.46,77.93Zm21.41-27.6L88,43.11H84L80.36,49.3Zm476.3-1.41h-.34v1h.34Zm666.33,6.66v-.33h-1v.33ZM741.17,79.92h-.34v1h.34Z" transform="translate(-1.5 -0.92)"/><path class="cls-5" d="M853.5,50.92V52.4a98.85,98.85,0,0,0-8.88,5.05,24.65,24.65,0,0,1-3.79,1.76c-2.11,1-4.45,1.09-6.62,2.2-2,1-4.82.31-7.26.54-1.55.15-3,.77-4.59.93a48.84,48.84,0,0,1-5,0c-2.74,1.52-5.54,2.89-8.76,3-2.05.06-3.84-1.89-6.27-.13-1.49,1.08-4.06.51-6,1.2-4.15,1.5-8.63,1.68-12.72,3.08-3.12,1.07-6.1.61-9.14.81-.52,0-1.08-.57-1.44-.77-10.69,1.56-20.51,5.62-30.08,10.41l-.59-1c.19-.53.24-1.37.61-1.55,3.45-1.64,5.65-4.42,7.46-8-3.74-.43-7,1-10.18,2.09s-6.56,1.8-9.8,2.84-6.14,2.13-9.27,3-6,3.19-10.43,3a20.39,20.39,0,0,1,1.81-1.93c2.5-1.92,4.79-4.13,7.74-5.43.16-.07,0-.85,0-1.6-2.15.71-4.33,1-6.11,2.08-3.68,2.12-7.79,3-11.7,4.36-5.25,1.89-10,4.72-15.07,7-3.22,1.49-6.47,2.9-9.62,4.54a51.67,51.67,0,0,1-8.26,3c-4.26,1.38-8.67,2.25-12.86,3.95-4,1.63-8.24,2.62-12.29,4.11a57.2,57.2,0,0,0-6.12,3.05c-2.42-1.42,1.18-2.46,0-3.73-.28-.12-.6-.4-.84-.34a29.56,29.56,0,0,1-3.09.94c-1.57.23-3.08-.06-4.66.91-1,.65-2.8.13-4.82.13,3.77-6.66,10.61-8.31,15.5-12.38-2.63-2.38-5.34,1.49-8.46-.24,4.41-3.72,9-6.63,13.35-9.79S654,72.7,658.69,69c-3.25-.42-6.1,2.21-9.46.29l8.88-6c-2.48-.47-4.23-1-5.91.38-6.86.13-12.89,4.1-19.75,4.25-.82,0-1.63.71-3,1.36.19-1.12.07-1.9.4-2.18,3.26-2.85,5.5-6.94,10-8.3.84-.25,1.47-1.29,2.16-2a61.27,61.27,0,0,1,14-11,7.23,7.23,0,0,0,1.42-1.4,93.89,93.89,0,0,1,15-12,2.36,2.36,0,0,0,1.06-2.56c3.94,0,7.17,1.92,10.37,3.88,3.86,2.35,7.53,5.06,11.57,7A48.52,48.52,0,0,0,712.8,46a13,13,0,0,1,3.57,1c3.11,1.22,6.47.42,9.55,1.09,5.87,1.29,11.72.76,17.59.86s12-.2,18,.12a40.27,40.27,0,0,1,9.29,1.59,15.8,15.8,0,0,0,4.37.31Z" transform="translate(-1.5 -0.92)"/><path class="cls-6" d="M1152.5,40.92v1.8c-3.26.39-6.65.44-9.84,1.28-4.19,1.12-8.45.42-12.58,1-3.93.59-7.74,2.11-11.55,3.38-2.77.92-5.43,2.17-8.19,3.13s-5.75,1.11-8.55,2.25c-2.29.92-5.38.13-7.43,1.29-2.25,1.28-5-.22-6.76,1.83-2.52-.4-5,.47-7.68-.8-1.51-.72-4.25,0-5.87,1s-2.79.76-4.19.79c-4.65.08-9.3,0-13.42,0-6.09,3.48-11.68,6.86-17.45,9.88-1.61.84-3.58,2.16-5.78.47a4,4,0,0,0-3.27-.21c-3.32,1.19-6.87,1.19-10.16,2-3.61.94-7.09.5-10.62.8-.13,0-.27-.15-.72-.43,3.82-3.82,7.58-7.59,11.39-11.39-1-1.59-2.05-1.32-3.07-.92-3.85,1.55-7.68,3.15-11.8,4.85-.2-.52-.4-1-.56-1.44,4.67-2.86,9.57-5,13.44-8.62l-.5-.84c-1.8.29-3.82.15-5.36.94-4.09,2.09-8.7,2.21-12.89,3.84-6.81,2.65-14,3.94-21,6-5.18,1.53-10,4.07-15.31,5.25-3.31.75-6.55,1.86-9.84,2.73a17.08,17.08,0,0,1-3.27,0c10.39-8.09,21-14.05,31.82-20.14V47.92c1.83,0,3.67.08,5.5,0,5.52-.29,11.1-.29,16.56-1.08,5.76-.83,11.41-2.44,17.26-2.9,3.41-2.72,8.11-2.07,11.65-4.45a2.68,2.68,0,0,1,1.27-.53c4.19-.37,8.38-.95,12.57-1,17.82-.11,35.65.06,53.47-.14a33.85,33.85,0,0,1,9,1.25c4.4,1.18,8.75.72,13.12.81,5,.09,10,1.47,15.08,1.12S1147.34,40.92,1152.5,40.92Z" transform="translate(-1.5 -0.92)"/><path class="cls-5" d="M591.5,28.92v1.67c-1.39.48-2.91.64-4.2,1.85s-3.23,1.71-4.91,2.47c-5.62,2.54-10.52,6.18-15.32,10a25.71,25.71,0,0,1-7.26,3.88c-1.16-1.91,1.34-2.18,1.58-3.65H558c-.39-.85-.71-1.53-1.07-2.3l-9.58,4.09c-3.48-.4-7.77.91-12-.91-4.47,1.45-8.74,4-14.13,5.27,1.19-4.1,2-7.57,5.43-9.89l-2.21-.76c.37-1.38.76-2.8,1.31-4.85-4.1.42-7.72,1-11.34,1.12-3.82.19-7.65.05-11.66.05-.17-.89-.34-1.8-.59-3.13l-9,1.19c.6-2.93,3.12-3.77,4.4-6.2-4.34.57-8.29-.49-12.34,1-2.05.76-4.6.14-6.93.14H464l-1.59-1.6a15.35,15.35,0,0,1,3.9-7.76c3-3.19,5.93-6.5,8.81-9.82.35-.41.26-1.21.38-1.82,3.54-.16,6.89.83,10.26,1.71a12.62,12.62,0,0,0,3.88.26,20.2,20.2,0,0,1,6.59,1c6,1.56,11.84,3.79,18.21,3,5.91-.7,11.69.89,17.55,1.16,3.76.17,7.46,1.93,11.17,3,1.48.43,2.92,1.23,4.42,1.34,3,.21,5.65,1.77,8.39,2.71s5.4,1.13,8,2.48c2.12,1.12,4.93.9,7.43,1.3a30.86,30.86,0,0,1,5.56,1C581.72,29.71,586.65,28.55,591.5,28.92Z" transform="translate(-1.5 -0.92)"/><path class="cls-5" d="M100.5,24.92V26.4C94.91,29,89.34,31.59,83.74,34.16c-1,.44-2,.69-3,1.07a39.89,39.89,0,0,0-9.08,4.63c-4.69,3.28-10.07,5.38-15.1,8.09-3.8,2-7.7,3.92-11.52,5.94S38,58.41,34,60c-.71.28-1.23,1.1-1.78,1.72-3.84,4.26-8.54,7.69-11.7,12.61-1.33,2.06-3.73,3.18-5.25,5.22s-3.47,3.57-5.68,5.78c-.24-3.45,0-6.51-.16-10L22.64,55.73c-1-1.21-1.93-1-3-.45-3.05,1.45-6.13,2.88-9.23,4.22A14.06,14.06,0,0,1,7.52,60c0-3.5,2.68-4.94,4.55-7.4l-2.49-1V44.34c-2.91-1.1-5.48-.13-8.08.58V18a9.37,9.37,0,0,0,1.87.92,6.31,6.31,0,0,0,2,0c6.18-.54,12,1.33,17.68,3.19,5,1.63,10.36,2.07,15,4.82a22.44,22.44,0,0,1,7.59,1c7.44,1.9,15,1,22.57.93a43.47,43.47,0,0,0,12.6-2.09c1.88-.6,3.91-.82,5.8-1.63s4.26-.17,6.42-.17Z" transform="translate(-1.5 -0.92)"/><path class="cls-5" d="M1426.5,98.92v1.38a100.69,100.69,0,0,1-18.13,8.12c-3.24,1.17-6.72,2.25-9.42,1.53l-2.67-1.71,4.49-6.77c-3.33-1.78-6,.49-8.8.6s-5.6,1.65-8.46,2.29c-2.66.59-4.85,2.76-7.91,2.61.55-2.48,4.14-1.74,3.88-4.69a4.89,4.89,0,0,0-4,.12,174.64,174.64,0,0,1-17.75,6.54c-1.16.36-2.19,1.14-3.34,1.56a27.3,27.3,0,0,1-3.79.67c4.4-5.21,8.76-9,11.75-13.9-2.1-1-4.21-.3-6.24.66-5,2.37-10.52,3.46-15.5,5.94-.54.27-1.43-.15-3.08-.37,3.16-2.42,5.49-4.43,8-6.1a52.67,52.67,0,0,0,9.74-7.78c1.72-1.81,3.53-3.53,5.29-5.3,2.73-2.75,5.35-5.64,8.9-7.4,1.65.18.73,1.49,1,2.28,4.23,5.76,10.53,8.25,16.86,10.74,2.85,1.12,5.59,2.53,8.42,3.74,4.41,1.89,9.07,3,13.68,4.29C1415.11,99.58,1420.82,98.6,1426.5,98.92Z" transform="translate(-1.5 -0.92)"/><path class="cls-5" d="M1260.5,43.92v1.75c-4.29,1.12-8.13,3.4-12,5.67-2,1.19-4.4,1.86-7.73,3.22l3.36-6.13c-6.67,2.56-12.13,5.4-18.65,6.67.2-1.44.35-2.57.54-3.94a1.17,1.17,0,0,0-.75-.21,3.19,3.19,0,0,0-1.76.51c-3,2.56-6.55,4.17-10,6-1.5.79-2.89,1.79-4.44,2.76-.29-.64-.48-1-.73-1.62l5.32-5.07c-2.22-1.55-3.85.19-5.65.43a43.74,43.74,0,0,0-6,1.07,45.68,45.68,0,0,0-5.2,2.13c-.16-.78-.25-1.24-.34-1.67,4.14-2.2,8.54-3.94,12.22-6.66s8.3-3.53,11.84-6.48v-1.4c4.58-.72,9.11.42,13.46,1.23,5.07.93,10,.44,15,.75,2,.12,4-.11,6,.05S1258.65,43.58,1260.5,43.92Z" transform="translate(-1.5 -0.92)"/><path class="cls-7" d="M60.46,77.93c1.21-2.69,4.37-4.33,4-7.88-1.84-.49-3.29,2.12-5.17.11a67.94,67.94,0,0,1,17.82-17.8l.61,3.41c.44,0,1,.24,1.33,0,3.55-2.25,7.64-3.23,11.44-4.87a7.31,7.31,0,0,1,2.31,0,19,19,0,0,1-7.63,9.56c-3.92,2.42-5.9,6.19-8.64,9.42a51.18,51.18,0,0,0-3.07,4.59L72,71.8,62,82.42a19.12,19.12,0,0,0-.49-2.49A16.29,16.29,0,0,0,60.46,77.93Z" transform="translate(-1.5 -0.92)"/><path class="cls-7" d="M81.87,50.33l-1.51-1L84,43.11H88Z" transform="translate(-1.5 -0.92)"/><ellipse class="cls-5" cx="556.5" cy="48.5" rx="0.24" ry="0.71"/><ellipse class="cls-5" cx="1222.5" cy="54.5" rx="0.71" ry="0.24"/><ellipse class="cls-5" cx="739.5" cy="79.5" rx="0.24" ry="0.71"/></g></g></g></svg>