<svg xmlns="http://www.w3.org/2000/svg" viewBox="0 0 466 344.04"><defs><style>.cls-1{isolation:isolate;}.cls-2{fill:#c0bfb1;}.cls-3{fill:#6b6946;}.cls-4{fill:#494425;}.cls-5{fill:#413c1f;}.cls-6{fill:#f8f7af;}.cls-7{fill:#7c7954;}.cls-8{fill:#a4a375;}.cls-9{fill:#87855c;}.cls-10{fill:#938c62;}.cls-11{fill:#9b9466;}.cls-12{fill:#a19a6a;}.cls-13{fill:#968f63;}.cls-14{fill:#a8a06e;}.cls-15{fill:#aea673;}.cls-16{fill:#b5ac77;}.cls-17{fill:#bbb27b;}.cls-18{fill:#c2b97f;}.cls-19{fill:#d1c789;}.cls-20{fill:#cbc185;}.cls-21{fill:#e0d692;}.cls-22{fill:#dbd18f;}.cls-23{fill:#eadf99;}.cls-24{fill:#fcf3a6;}.cls-25{fill:#f7eba0;}.cls-26{fill:#f1e69d;}</style></defs><title>Fichier 10</title><g id="Calque_2" data-name="Calque 2"><g id="Plan_de_travail_1" data-name="Plan de travail 1" class="cls-1"><g id="Calque_20" data-name="Calque 20"><path class="cls-2" d="M467,346h1v2h-2v-1A.85.85,0,0,0,467,346Z" transform="translate(-2 -3.96)"/><path class="cls-3" d="M250,316c-2.32,1.32-1.53,4.19-3,6-.24.31.16,1.09-.06,1.45-1.83,3-2.95,6.12-7.48,6.86a111.3,111.3,0,0,0-11.73,3c-3.6,1-7.2.35-10.81,1.5s-7.67-.31-11.39.35c-9.34,1.65-18.71.64-28.06.84s-19,.05-28.47.05H133.55c-2.66,0-5.69.8-7.89-.21-2.69-1.23-5.15-.5-7.68-.73s-5.32-.06-8-.06v-1.57c2.49-1.34,5.33-2.5,6.87-4.93a47.55,47.55,0,0,0,4.75-9.52,74,74,0,0,0,4.29-20.18c.42-6.8.22-13.66,0-20.48-.08-3-1.16-5.84-1.69-8.75-.57-3.19-2.92-5.15-4-7.87a26.59,26.59,0,0,0-6.75-9.7H109c.17-.81-.75-1-.93-1.57a7.36,7.36,0,0,0,1.38-1.41,20.21,20.21,0,0,1,7.34-7.41,79.92,79.92,0,0,0,11.1-8.11c8.52-7.8,16-16.64,25-24,6-4.91,10.14-11.68,15.92-16.85a3.36,3.36,0,0,0,.7-.71,64.15,64.15,0,0,1,8.82-10.83,23.06,23.06,0,0,0,1.74-2.23c1.92-2.46,3.9-5.14,6.49-6.72s4.36-3.9,6.53-5.83,4.7-3.92,6.29-6.38c4.29-6.62,10-12.07,14.63-18.36,2.71-3.65,6.12-6.81,9.25-10.1,5.1-5.36,9.62-11.26,15-16.31,4-3.77,7.23-8.31,10.46-12.69C254.4,94.9,258.64,86.37,263,78a177.58,177.58,0,0,1,10.61-18.07c2.7-4,4.8-8.35,7.32-12.46a118.74,118.74,0,0,0,6.76-13.66c1.88-4.21,4.66-8.06,5.33-12.77.28-.11.76-.17.79-.34.14-.6-.3-.7-.79-.66,2.05-2.33,3.28-5.21,4.83-7.82,1.41-2.36,1.25-5.6,2.55-8.22,1.46.62-.48,2.84,1.62,3V37c.64,4.09-1.46,7.92-1.06,12,.31,3.29.06,6.64.06,10V82c.51,2.3-1.55,4.15-1.05,6.52.29,1.42-.13,3,.1,4.43s-1.52,2.5-1.05,4c0,1,.38,2.22-.07,2.92-1.34,2.12-1.13,4.4-.84,6.55.31,2.38-1.6,4.23-1.09,6.53,0,.66.26,1.5-.05,1.94-1.21,1.74-1.06,3.67-.91,5.54s-1.56,3.53-1,5.52c.51,1.3-1.1,2-1,3.05.64,5.06-1.57,9.91-1,14.95-.33.69-1,1.39-.95,2.06.29,4.7-1.77,9.22-1.05,13.94-.28.11-.81.25-.8.34.33,4.16-1.55,8.1-1.22,12.27.14,1.79,0,3.59,0,5.39-1.53,1.26-1.69,3.16-1.93,4.87-.27,1.88.07,3.84-1.06,5.57-1.33,2-1,4.33-1,6.56a6.79,6.79,0,0,0-1,2.05c-.16,2-.58,4.06-.8,6-.26,2.36-1.68,4.51-1.24,6.94-1-.08-.92.62-1,1.29a20.29,20.29,0,0,1-.43,3.79A68.92,68.92,0,0,0,278,227c-.62-.11-.84.28-1,.78-.66,2-1.79,4-1.88,6.1-.11,2.36-1.83,3.87-2.3,6.05A25.65,25.65,0,0,0,272,245c-.28.12-.79.2-.81.35a42.62,42.62,0,0,1-3.74,11.82c-.82,1.77-1.82,3.68-1.45,5.83-.62-.11-.82.29-1,.77-.65,1.71-1.39,3.38-2,5.11s-2.22,2.9-1.93,4.59c.35,2.09-1.26,3.6-1.09,5.53-.27,1.38-.05,2.73-.52,4.21-.78,2.48-1.88,5-1.48,7.79-.28.11-.74.16-.82.35-1.29,3.25-2.9,6.43-3.68,9.8-.57,2.45-2.64,4.24-2.51,6.88S249.28,313.21,250,316Z" transform="translate(-2 -3.96)"/><path class="cls-3" d="M467,346a.85.85,0,0,1-1,1c-3.58-1-7.11-2.32-10.75-2.91s-6.9-3-10.72-3.09c-1-1.58-3-.38-4-1.14-1.25-1-2.51-.5-3.66-.91-2.67-.95-5.55-.8-8.19-1.92-3.74-1.57-7.83-2.06-11.75-2.89-6.59-1.4-13.38-1.78-19.78-4.14-2.8.54-5.44-.69-8-1.19-4.4-.85-8.87-.05-13.07-.95-7.21-1.55-14.41-.29-21.61-1-2.3-3.8-3.46-8.34-6.46-11.89,0-.49.19-1.11,0-1.46a47.1,47.1,0,0,1-5.5-13.54,2.32,2.32,0,0,0-.47,0c-.52-3.24-2.48-6.16-2.09-9.59-1.32-.27-.27-2.4-1.91-2.41a6,6,0,0,0,0-1.95c-1.77-4.9-2.57-10.06-4-15.05.26-2.57-1.68-4.85-1-7.49-1.93-1.54-.24-3.88-1.09-5.46-1.09-2-.83-4-.91-6.05.49-1.42-1-2.21-1.05-3.57-.08-4.78-2.26-9.25-2.13-14.08,0-.11-.54-.23-.82-.35.75-2.46-1.2-4.5-1-6.91.24-3.63-1.5-7.08-1.16-10.76,0-.08-.52-.22-.8-.33.69-4.72-1.63-9.21-1.06-13.95.08-.63-.61-1.36-.94-2.05.71-5.73-1.3-11.3-1-17,.31-3.23-1.57-6.21-1-9.5.23-1.45-.14-3,.09-4.45s-1.52-2.5-1.05-4.05c0-2.65-.05-5.31,0-8s-1.73-5.23-1-8c-.26-3.85.32-7.69-.85-11.58-.78-2.59-.15-5.6-.15-8.42V118.25c0-.68-.06-1.32-1-1.25,0-4.48-.1-9,.06-13.43A7.36,7.36,0,0,0,315,100c-.24-5,.71-10.09-1-15,.74-4.09-1.35-7.94-1-12,.53-3.56-1.61-6.86-1.05-10.45.08-.5-1.09-.73-.95-1.55-.25-2.69,0-5.33-.8-8.1-.87-3.08-.2-6.58-.2-9.9,2.17.7,3.95-1,6-1a2.42,2.42,0,0,1,2,1.88c1,3.92,3,7.44,4.58,11.1a45.19,45.19,0,0,0,4.5,8.11c2,2.83,3,6.13,4.82,9s4.27,5.76,5.89,9a59.15,59.15,0,0,0,5.79,9.15,36.08,36.08,0,0,1,5.22,10.27c1.18,3.58,3.26,6.65,4.48,10.15,1.78,5.1,5.68,9.25,6.74,14.7,3.09,2.68,2.52,7.54,5.95,10,.82,4.31,4.08,7.29,6,11s4,7,6,10.49c2.41,4,5,7.93,7.34,12,1.57,2.67,3.12,5.38,4.55,8.11,1.82,3.48,4.54,6.35,6.12,9.95a50.76,50.76,0,0,0,5.87,9.58c3,4.14,5.35,8.8,8.27,13a60.7,60.7,0,0,0,5,5.9c4.41,4.86,8.3,10.22,13.34,14.51,4.4,3.75,7.49,8.7,11.67,12.64a111.22,111.22,0,0,0,19,14.42c2.53,1.53,4.79,3.51,7.85,4v2.49c-2.05,2.21-4.52,4-5.08,7.4-.45,2.7-2.26,5-3.08,7.7-2.95,9.81-1.38,19.77-1.84,29.65,1.7,4.08.64,8.37,1.05,12.55.24,2.36.81,4.68,1.1,7.06.24,2,1.64,3.92,2.25,6C462.65,338.17,465.15,341.94,467,346Z" transform="translate(-2 -3.96)"/><path class="cls-4" d="M293,21c-.67,4.71-3.45,8.56-5.33,12.77a118.74,118.74,0,0,1-6.76,13.66c-2.52,4.11-4.62,8.47-7.32,12.46A177.58,177.58,0,0,0,263,78c-4.34,8.41-8.58,16.94-14.2,24.54-3.23,4.38-6.42,8.92-10.46,12.69-5.42,5-9.94,11-15,16.31-3.13,3.29-6.54,6.45-9.25,10.1-4.66,6.29-10.34,11.74-14.63,18.36-1.59,2.46-4.06,4.39-6.29,6.38s-3.92,4.22-6.53,5.83-4.57,4.26-6.49,6.72a23.06,23.06,0,0,1-1.74,2.23A64.15,64.15,0,0,0,169.53,192a3.36,3.36,0,0,1-.7.71c-5.78,5.17-9.91,11.94-15.92,16.85-9,7.35-16.5,16.19-25,24a79.92,79.92,0,0,1-11.1,8.11,20.21,20.21,0,0,0-7.34,7.41,7.36,7.36,0,0,1-1.38,1.41c.18.61,1.1.76.93,1.57-1.85.35-3.65-.22-5.67.79-1.59.79-4,.38-6,1.21-2.38-1.57-4.67-.51-7.15-.13-3.8.57-7.68.08-11.54,1-2.9.71-6,.3-9.06.89-3.84.74-7.76,1.6-11.6,2-4.15.41-8.07,1.49-12.1,2.21-3.22.58-6.4,1.46-9.51,2.34-2,.58-4,1.41-6.13,2s-4.18,1.21-6.21,1.86-4.38.44-6.2,1.83c-2.48,1.89-5.64,2.72-7.88,5-.63.11-.88-.26-1-.82.06-.28,0-.66.21-.87,4.27-5.06,9.51-9.12,14.52-13.33a125,125,0,0,1,14.81-11.16,40.17,40.17,0,0,0,5.89-5c3.25-3,6.75-5.71,10.08-8.57,2.44-2.11,4.14-4.74,6.49-6.84s5.29-4.35,7-7.13c2.13-3.56,6.42-5.52,7.2-10,3.51-3.15,5.47-7.52,8.72-11,3.7-3.91,6.74-8.52,10.23-12.64,4.35-5.13,7.61-11,11.82-16.15,1.25-1.53,2.75-2.84,4-4.33,3.14-3.61,5.11-8.09,8.62-11.45a20.47,20.47,0,0,0,3.36-4.59,25.35,25.35,0,0,1,4.8-6.5c.38-.33.88-.64,1-1.07,2.67-6.92,7.82-12.34,11.36-18.76a80,80,0,0,0,4.73-9.56c1.29-3.31,4-6,4.1-9.8,2.85-3.32,3-7.71,4.39-11.57,1.74.1,2.51,1.67,4,2,6.48,0,13,.56,19.41-.16a54.93,54.93,0,0,0,17.54-4.61,70.6,70.6,0,0,1,7.19-3.16c5.57-1.95,9.83-6,14.81-8.88,4.23-2.45,7.82-5.8,12.08-8.24,5.55-3.18,10.8-6.89,16.34-10.08,4.38-2.53,8.35-5.61,12.5-8.47,3.18-2.19,6.45-4.25,9-7.17,1.42-1.65,3.36-2.47,5-3.79,4.64-3.8,9-7.95,13.71-11.61,2.74-2.12,5.05-4.6,7.73-6.83Z" transform="translate(-2 -3.96)"/><path class="cls-5" d="M10,273c2.24-2.28,5.4-3.11,7.88-5,1.82-1.39,4.16-1.16,6.2-1.83s4.12-1.29,6.21-1.86,4.12-1.4,6.13-2c3.11-.88,6.29-1.76,9.51-2.34,4-.72,8-1.8,12.1-2.21,3.84-.39,7.76-1.25,11.6-2,3.07-.59,6.16-.18,9.06-.89,3.86-1,7.74-.46,11.54-1,2.48-.38,4.77-1.44,7.15.13,1.94-.83,4.36-.42,6-1.21,2-1,3.82-.44,5.67-.79h4.49a26.59,26.59,0,0,1,6.75,9.7c1.09,2.72,3.44,4.68,4,7.87.53,2.91,1.61,5.79,1.69,8.75.19,6.82.39,13.68,0,20.48A74,74,0,0,1,121.62,319a47.55,47.55,0,0,1-4.75,9.52c-1.54,2.43-4.38,3.59-6.87,4.93V335c-6.38-.38-12.63,1.77-19,1-8.77,2.09-17.68.62-26.52.95-5.19.2-10.27,1.47-15.54,1.12a122.54,122.54,0,0,0-15.45,0c-3.16.19-5.91-1.51-9.07-1.16-2.95.33-6.14.68-8.92-.09-3.25-.89-6.4-.72-9.61-.82A4.34,4.34,0,0,1,2,334c5.49-3.89,9.31-9.27,13-14.76,1-1.44,3-9.4,3-11.2,0-3.65.27-7.33-.07-11a39.7,39.7,0,0,0-3.38-13,71.57,71.57,0,0,0-3.93-7.83C9.92,275.1,10.15,274.08,10,273Z" transform="translate(-2 -3.96)"/><path class="cls-6" d="M302,37V7c1-.08.93.61,1,1.28.34,2.9,1.54,4.76,3.5,7.91A8.5,8.5,0,0,1,308,22a.77.77,0,0,0-1,.78c0,2.15,0,4.29,0,6.44a.77.77,0,0,0,1,.78v3.8c0,.69.11,1.26,1,1.2v3C306.51,38.75,304.44,36.57,302,37Z" transform="translate(-2 -3.96)"/><path class="cls-7" d="M309,38V35c.79,0,1.61.17,2.19-.67.45-.66,1.2-.21,1.81-.33a9.79,9.79,0,0,1,3,8c-2.05,0-3.83,1.7-6,1-.89.06-1-.51-1-1.2Z" transform="translate(-2 -3.96)"/><path class="cls-8" d="M308,30a.77.77,0,0,1-1-.78c0-2.15,0-4.29,0-6.44a.77.77,0,0,1,1-.78c1.44.28,1.84,1.8,3.17,2.43-1,2.09,1,3.62.83,5.57Z" transform="translate(-2 -3.96)"/><path class="cls-9" d="M308,30h4a5.34,5.34,0,0,1,1,4c-.61.12-1.36-.33-1.81.33-.58.84-1.4.67-2.19.67s-1-.51-1-1.2Z" transform="translate(-2 -3.96)"/><path class="cls-4" d="M293,20c.49,0,.93.06.79.66,0,.17-.51.23-.79.34Z" transform="translate(-2 -3.96)"/><path class="cls-10" d="M342,300a2.32,2.32,0,0,1,.47,0,47.1,47.1,0,0,0,5.5,13.54c.22.35,0,1,0,1.46-15.49,0-31,.16-46.46-.08-5.75-.1-11.31,1.46-17.07,1.15s-11.32-.07-17-.07H250c-.72-2.79,1.13-5.26,1-8s1.94-4.43,2.51-6.88c.78-3.37,2.39-6.55,3.68-9.8.08-.19.54-.24.82-.35,1.38.67,2.7,1.67,4.16,1.93,2.77.49,5.42,1.68,8.13,1.93,3,.28,5.89,1.87,9,1.14,2.38,2,5.47,1,8.2,1.76a45.24,45.24,0,0,0,8,1.2,57.21,57.21,0,0,1,8.07.88,27.76,27.76,0,0,0,9.41.08c3.33-.39,6.3,1.06,9.54,1.21C329.08,301.43,335.47,299.68,342,300Z" transform="translate(-2 -3.96)"/><path class="cls-11" d="M334,271c1.4,5,2.2,10.15,4,15.05a6,6,0,0,1,0,1.95H326c-3.82,0-7.66-.25-11.46.07S306.94,286.65,303,287c-4.07.36-7.94-1.74-12-1a.81.81,0,0,1-.49,0c-2.82-1.72-6.13-1.13-9.17-1.9-2.86-.73-5.8-1.3-8.7-1.81-4.32-.76-8.4-2.29-12.63-3.27-.17-1.93,1.44-3.44,1.09-5.53-.29-1.69,1.39-3,1.93-4.59s1.32-3.4,2-5.11c.19-.48.39-.88,1-.77,1.16,0,2.59-.44,3.44.08,3.36,2,7.26,1.62,10.82,2.78s7.42,1.16,11.12,2.05c2.28.55,4.68.16,7.09.95,2.18.71,4.81-.2,7,1.14,6.23-.7,12.3,1.53,18.54,1.05C327.33,270.79,330.68,271,334,271Z" transform="translate(-2 -3.96)"/><path class="cls-12" d="M334,271c-3.32,0-6.67-.21-10,.05-6.24.48-12.31-1.75-18.54-1.05-2.21-1.34-4.84-.43-7-1.14-2.41-.79-4.81-.4-7.09-.95-3.7-.89-7.58-.9-11.12-2.05s-7.46-.77-10.82-2.78c-.85-.52-2.28-.08-3.44-.08-.37-2.15.63-4.06,1.45-5.83a42.62,42.62,0,0,0,3.74-11.82c0-.15.53-.23.81-.35,1.16,0,2.79-.48,3.4.1,1.34,1.27,3.15.26,4.06,1.05,1.41,1.21,3,.32,4.16.92,2.16,1.08,4.58.31,6.56,1,5,1.85,10.25,2,15.31,2.63,5.59.66,11.26,1.91,17,1.31A82.66,82.66,0,0,1,331,252c.08,2-.18,4,.91,6.05.85,1.58-.84,3.92,1.09,5.46C332.32,266.15,334.26,268.43,334,271Z" transform="translate(-2 -3.96)"/><path class="cls-13" d="M260,279c4.23,1,8.31,2.51,12.63,3.27,2.9.51,5.84,1.08,8.7,1.81,3,.77,6.35.18,9.17,1.9a.81.81,0,0,0,.49,0c4.1-.74,8,1.36,12,1,3.91-.35,7.6,1.4,11.55,1.07S322.22,288,326,288h12c1.64,0,.59,2.14,1.91,2.41-.39,3.43,1.57,6.35,2.09,9.59-6.53-.32-12.92,1.43-19.49,1.13-3.24-.15-6.21-1.6-9.54-1.21a27.76,27.76,0,0,1-9.41-.08,57.21,57.21,0,0,0-8.07-.88,45.24,45.24,0,0,1-8-1.2c-2.73-.77-5.82.24-8.2-1.76-3.13.73-6-.86-9-1.14-2.71-.25-5.36-1.44-8.13-1.93-1.46-.26-2.78-1.26-4.16-1.93-.4-2.76.7-5.31,1.48-7.79C260,281.73,259.73,280.38,260,279Z" transform="translate(-2 -3.96)"/><path class="cls-14" d="M331,252a82.66,82.66,0,0,0-8.48.05c-5.77.6-11.44-.65-17-1.31-5.06-.6-10.34-.78-15.31-2.63-2-.73-4.4,0-6.56-1-1.2-.6-2.75.29-4.16-.92-.91-.79-2.72.22-4.06-1.05-.61-.58-2.24-.1-3.4-.1a25.65,25.65,0,0,1,.82-5.07c.47-2.18,2.19-3.69,2.3-6.05.09-2.06,1.22-4.07,1.88-6.1.16-.5.38-.89,1-.78,16.12,3.79,32.39,6.59,49,7,.28.12.82.24.82.35-.13,4.83,2.05,9.3,2.13,14.08C330,249.79,331.49,250.58,331,252Z" transform="translate(-2 -3.96)"/><path class="cls-15" d="M327,234c-16.61-.41-32.88-3.21-49-7a68.92,68.92,0,0,1,2.55-11.92,20.29,20.29,0,0,0,.43-3.79c.1-.67,0-1.37,1-1.29s1.86-.08,2.87.3a51.19,51.19,0,0,0,11.89,2.62c2.87.32,5.6,1.75,8.57,1.08,2,1.89,4.41.59,6.59,1s4.26,1.29,6.59,1a50.24,50.24,0,0,1,5.49,0c.28.11.81.25.8.33-.34,3.68,1.4,7.13,1.16,10.76C325.8,229.5,327.75,231.54,327,234Z" transform="translate(-2 -3.96)"/><path class="cls-16" d="M324,216a50.24,50.24,0,0,0-5.49,0c-2.33.26-4.41-.6-6.59-1s-4.63.88-6.59-1c-3,.67-5.7-.76-8.57-1.08a51.19,51.19,0,0,1-11.89-2.62c-1-.38-1.93-.11-2.87-.3-.44-2.43,1-4.58,1.24-6.94.22-1.95.64-4,.8-6a6.79,6.79,0,0,1,1-2.05,53.78,53.78,0,0,1,7.06.76c2.54.55,5.17,1.77,7.94,1.24,2.35,2,5.72,0,8.07,2,4.7-.38,9.21,1.72,13.93,1,.33.69,1,1.42.94,2.05C322.37,206.79,324.69,211.28,324,216Z" transform="translate(-2 -3.96)"/><path class="cls-17" d="M322,200c-4.72.72-9.23-1.38-13.93-1-2.35-2-5.72,0-8.07-2-2.77.53-5.4-.69-7.94-1.24A53.78,53.78,0,0,0,285,195c0-2.23-.32-4.54,1-6.56,1.13-1.73.79-3.69,1.06-5.57.24-1.71.4-3.61,1.93-4.87,4.24.23,8.19,2.24,12.5,2,1.55,1.93,4,.17,5.45,1.1,2.26,1.42,4.8.18,6.89,1.29,2.35,1.26,4.79.27,7.16.61C320.7,188.7,322.71,194.27,322,200Z" transform="translate(-2 -3.96)"/><path class="cls-18" d="M321,183c-2.37-.34-4.81.65-7.16-.61-2.09-1.11-4.63.13-6.89-1.29-1.49-.93-3.9.83-5.45-1.1-4.31.24-8.26-1.77-12.5-2,0-1.8.12-3.6,0-5.39-.33-4.17,1.55-8.11,1.22-12.27,0-.09.52-.23.8-.34.68.33,1.44,1,2,.93,2.65-.48,5.11.47,7.44,1.2s5,.09,6.92,1.07,4,0,5.56.89c2,1.1,4,.83,6,.91-.47,1.55,1.3,2.47,1.05,4.05s.14,3-.09,4.45C319.43,176.79,321.31,179.77,321,183Z" transform="translate(-2 -3.96)"/><path class="cls-19" d="M317,129c0,2.82-.63,5.83.15,8.42,1.17,3.89.59,7.73.85,11.58a86.17,86.17,0,0,0-10-1.83c-5.06-.82-10-2-15-3.17-.54-5,1.67-9.89,1-14.95-.13-1.07,1.48-1.75,1-3.05,2.93-.52,5.54,1.66,8.49,1,1.72,1.61,4.1,1.34,6.13,1.86C311.94,129.46,314.53,129,317,129Z" transform="translate(-2 -3.96)"/><path class="cls-20" d="M293,144c5,1.12,9.91,2.35,15,3.17A86.17,86.17,0,0,1,318,149c-.72,2.81,1.08,5.3,1,8s0,5.31,0,8c-2-.08-4,.19-6-.91-1.58-.86-3.56.16-5.56-.89s-4.55-.33-6.92-1.07-4.79-1.68-7.44-1.2c-.6.11-1.36-.6-2-.93-.72-4.72,1.34-9.24,1.05-13.94C292,145.39,292.67,144.69,293,144Z" transform="translate(-2 -3.96)"/><path class="cls-21" d="M315,100a7.36,7.36,0,0,1,1.06,3.57c-.16,4.47-.06,9-.06,13.43-1.92.17-3.43-1.32-5.5-1.13-1.57.14-3.17-1-5-1a21.26,21.26,0,0,1-4.94-1.11A16.57,16.57,0,0,0,297,113c-.51-2.3,1.4-4.15,1.09-6.53-.29-2.15-.5-4.43.84-6.55.45-.7.07-1.93.07-2.92.93.17,1.87-.23,2.84.3,3.16,1.74,7,1.11,10.23,2.64C312.88,100.32,314,100,315,100Z" transform="translate(-2 -3.96)"/><path class="cls-22" d="M297,113a16.57,16.57,0,0,1,3.58.79,21.26,21.26,0,0,0,4.94,1.11c1.81,0,3.41,1.11,5,1,2.07-.19,3.58,1.3,5.5,1.13.94-.07,1,.57,1,1.25V129c-2.47,0-5.06.46-7.38-.14-2-.52-4.41-.25-6.13-1.86-2.95.66-5.56-1.52-8.49-1-.52-2,1.21-3.54,1-5.52s-.3-3.8.91-5.54C297.26,114.5,297,113.66,297,113Z" transform="translate(-2 -3.96)"/><path class="cls-23" d="M315,100c-1,0-2.12.32-2.93-.06-3.27-1.53-7.07-.9-10.23-2.64-1-.53-1.91-.13-2.84-.3-.47-1.55,1.3-2.47,1.05-4s.19-3-.1-4.43c-.5-2.37,1.56-4.22,1.05-6.52.49,0,1.11-.2,1.45,0,3.52,2.34,7.44,3,11.55,3C315.71,89.91,314.76,95,315,100Z" transform="translate(-2 -3.96)"/><path class="cls-24" d="M309,38v3.8c0,.69.11,1.26,1,1.2,0,3.32-.67,6.82.2,9.9.77,2.77.55,5.41.8,8.1-3.35-.56-6.4-2.67-10-2,0-3.32.25-6.67-.06-10-.4-4.12,1.7-7.95,1.06-12C304.44,36.57,306.51,38.75,309,38Z" transform="translate(-2 -3.96)"/><path class="cls-25" d="M301,59c3.6-.67,6.65,1.44,10,2-.14.82,1,1,.95,1.55-.56,3.59,1.58,6.89,1.05,10.45-4.08.65-7.92-1.65-12-1Z" transform="translate(-2 -3.96)"/><path class="cls-26" d="M301,72c4.08-.65,7.92,1.65,12,1-.35,4.06,1.74,7.91,1,12-4.11,0-8-.63-11.55-3-.34-.23-1,0-1.45,0Z" transform="translate(-2 -3.96)"/></g></g></g></svg>