<?xml version="1.0" encoding="utf-8"?>
<!-- Generator: Adobe Illustrator 22.1.0, SVG Export Plug-In . SVG Version: 6.00 Build 0)  -->
<svg version="1.1" id="Calque_1" xmlns="http://www.w3.org/2000/svg" xmlns:xlink="http://www.w3.org/1999/xlink" x="0px" y="0px"
	 viewBox="0 0 16 16" style="enable-background:new 0 0 16 16;" xml:space="preserve">
<style type="text/css">
	.st0{fill:#FBF2D9;}
	.st1{fill:#FEFAED;}
	.st2{fill:#FEE784;}
	.st3{fill:#F7D461;}
	.st4{fill:#F5DA7B;}
	.st5{fill:#FDE67D;}
	.st6{fill:#F9DB68;}
	.st7{fill:#F8D76A;}
	.st8{fill:#F0D67F;}
	.st9{fill:#F3D876;}
	.st10{fill:#F5D763;}
	.st11{fill:#EEDA96;}
	.st12{fill:#FEE783;}
	.st13{fill:#EDD284;}
	.st14{fill:#F7D672;}
	.st15{fill:#F8DC6F;}
	.st16{fill:#F9DE6E;}
	.st17{fill:#F8DA6A;}
	.st18{fill:#ECD58C;}
	.st19{fill:#F8DC6D;}
	.st20{fill:#FCE376;}
</style>
<g>
	<g>
		<ellipse class="st0" cx="10.1" cy="1.5" rx="1.2" ry="0.2"/>
		<path class="st1" d="M9.3,1.4c0,0.1,0,0.2,0,0.3c-0.2,0-0.4,0-0.6,0c-0.1,0-0.2,0-0.3,0c0-0.1,0-0.2,0-0.3C8.7,1.4,9,1.4,9.3,1.4z
			"/>
		<path class="st2" d="M15.2,14.3c0,0.1,0,0.2,0,0.3c-0.4,0-0.7,0-1.1,0c0-0.3,0-0.6,0-0.8c0.1-0.3,0.4-0.6,0.3-1
			c-0.4-0.1-0.7-0.5-1.2-0.4c-0.3,0.3-0.6,0.5-0.7,0.9c0.2,0.4,0.4,0.6,0.9,0.5c-0.1,0.5-0.6,0.2-0.8,0.3c-0.5,0-0.9,0-1.4,0
			c-0.1,0-0.2,0-0.3,0c0-0.2-0.1-0.3-0.3-0.3c-0.4,0-0.7,0-1.1,0c-0.1,0-0.2,0-0.3,0c-0.1-0.5-0.6-0.2-0.8-0.3c-0.1,0-0.2,0-0.3,0
			c0-0.3-0.1-0.3-0.3-0.3c-0.4,0-0.9,0-1.3,0c-0.1,0-0.2,0-0.3,0c0-0.4-0.5-0.2-0.6-0.4c-0.1-0.2,0.1-0.5-0.2-0.7
			c-0.2,0-0.5,0-0.7,0c0-0.2-0.1-0.3-0.2-0.3c-0.2,0-0.4,0-0.3,0.3c-0.5,0-0.9,0.4-1.4,0.3c-0.1,0-0.2,0-0.3,0
			c0-0.2-0.1-0.3-0.3-0.3c-0.3,0-0.5,0-0.8,0c0-0.2-0.1-0.3-0.3-0.3c0-0.1,0-0.2,0-0.3c0-0.1,0-0.2,0-0.3c0.1,0,0.2-0.1,0.2-0.1
			c0-0.8,0-1.6,0-2.3c0,0-0.1-0.1-0.2-0.1c0-1.1,0-2.2,0-3.4c0.2,0,0.3,0,0.6,0c0-0.2,0-0.4,0-0.6C2.2,4.8,2.7,5.1,3,5.9
			c0.1,0,0.3,0,0.4,0c0,0.2-0.1,0.4,0.1,0.5c0.3,0,0.7,0.1,1-0.1c0-0.2,0-0.3,0-0.4C5,6,5.3,5.3,5.8,5.6c0.3,0.3,0.7,0.3,1,0.2
			c0.4-0.1,0.6,0.3,1,0.3c0.3,0,0.7-0.1,1,0.2c0.2,0.1,0.8,0.4,1-0.2c0.2,0,0.4,0,0.6,0c0,0.2,0,0.3,0,0.6c0.3,0,0.6,0,0.8,0
			c0.3,0.1,0.5,0.4,0.7,0.6c0.6,0,1.1,0,1.7,0c0.6-0.1,1,0.4,1.5,0.3C15.2,9.8,15.2,12.1,15.2,14.3z M3.4,8.1c-0.2,0-0.5,0-0.7,0
			C2.5,8.3,2.4,8.4,2.3,8.5c0,0.3,0,0.6,0,0.7c0.3,0.4,0.5,0.7,0.6,0.9c0.5,0,0.9,0,1.2,0C4.2,10,4.3,9.9,4.5,9.7c0-0.3,0-0.6,0-0.9
			c-0.2,0-0.2-0.4-0.5-0.4C3.9,8,3.6,8.2,3.4,8.1z M6.2,10.4c-0.2,0.1-0.4-0.1-0.5,0.1c-0.3,0.6,0.5,1,0.2,1.6
			c0.6,0,0.7,0.4,1.1,0.6c0.3-0.5,1-0.1,1.2-0.7c0-0.3,0-0.7,0-0.9c-0.4-0.4-0.7-0.8-1-1.1c-0.3,0.1-0.7-0.1-1,0.1
			C6.2,10.1,6.2,10.2,6.2,10.4z M12.4,9c-0.5-0.9-1.3-0.8-1.9-1.2c-0.4,0.3-0.9,0.3-1.2,0.7c0,0.5,0,1,0,1.3
			c0.3,0.3,0.5,0.6,0.7,0.8c0.7,0,1.4,0,2,0c0.1-0.1,0.3-0.3,0.4-0.4C12.4,9.8,12.4,9.3,12.4,9z M8.7,8.1c0-0.4,0-0.6-0.2-0.9
			C8.3,6.9,8,7,7.6,7.1c-0.1,0.3-0.1,0.7,0,1C8,8.1,8.3,8.1,8.7,8.1z"/>
		<path class="st3" d="M4.5,12.1c0.2,0,0.4,0,0.7,0c0.3,0.2,0.1,0.5,0.2,0.7c0.1,0.3,0.6,0,0.6,0.4c-0.3,0-0.5,0-0.8,0
			C5.1,13,5.1,12.9,5,12.7c-0.1,0-0.2-0.1-0.2-0.1c-0.6,0-1.3,0-1.9,0c-0.2,0-0.4,0-0.3-0.3C3,12.5,3.4,12,3.9,12.1
			C4.1,12.1,4.3,12.1,4.5,12.1z"/>
		<path class="st4" d="M0.8,8.7c0.1,0,0.2,0.1,0.2,0.1c0,0.8,0,1.6,0,2.3c0,0-0.1,0.1-0.2,0.1c0-0.2,0.1-0.5-0.3-0.6
			c0-0.2,0-0.4,0-0.6c0-0.5,0-0.9,0-1.4C0.7,8.7,0.7,8.7,0.8,8.7z"/>
		<path class="st5" d="M14.1,13.8c0,0.3,0,0.6,0,0.8c-0.1,0-0.2,0-0.3,0c0-0.2-0.1-0.3-0.3-0.3c-0.3,0-0.5,0-0.8,0
			c-0.1,0-0.2,0-0.3,0c0-0.1,0-0.2,0-0.3c0.3-0.1,0.7,0.3,0.8-0.3C13.5,13.8,13.8,13.8,14.1,13.8z"/>
		<path class="st6" d="M6.2,13.2c0.4,0,0.9,0,1.3,0c0.2,0,0.4,0,0.3,0.3c-0.4,0-0.9,0-1.3,0C6.3,13.5,6.2,13.4,6.2,13.2z"/>
		<path class="st7" d="M9.3,13.8c0.4,0,0.7,0,1.1,0c0.2,0,0.4,0,0.3,0.3c-0.4,0-0.7,0-1.1,0C9.4,14,9.3,14,9.3,13.8z"/>
		<path class="st8" d="M12.4,14c0,0.1,0,0.2,0,0.3c-0.4,0-0.7,0-1.1,0c-0.2,0-0.4,0-0.3-0.3C11.4,14,11.9,14,12.4,14z"/>
		<path class="st9" d="M1.1,12.1c0.3,0,0.5,0,0.8,0c0.2,0,0.3,0,0.3,0.3c-0.3,0-0.5,0-0.8,0C1.3,12.4,1.1,12.3,1.1,12.1z"/>
		<path class="st10" d="M12.6,14.3c0.3,0,0.5,0,0.8,0c0.2,0,0.3,0,0.3,0.3c-0.3,0-0.5,0-0.8,0C12.8,14.6,12.6,14.6,12.6,14.3z"/>
		<path class="st8" d="M14.1,14.6c0.4,0,0.7,0,1.1,0C14.8,15,14.4,15,14.1,14.6z"/>
		<path class="st11" d="M0.6,10.7c0.4,0,0.2,0.3,0.3,0.6c0,0.1,0,0.2,0,0.3C0.3,11.4,0.7,10.9,0.6,10.7z"/>
		<path class="st4" d="M8.2,13.5c0.3,0.1,0.7-0.3,0.8,0.3C8.7,13.7,8.3,14,8.2,13.5z"/>
		<path class="st4" d="M0.8,11.8c0.2,0,0.3,0.1,0.3,0.3C0.9,12.1,0.8,12,0.8,11.8z"/>
		<path class="st12" d="M10.4,6.2c-0.2,0-0.4,0-0.6,0c0-0.4-0.3-0.3-0.5-0.3C8.1,5.8,6.9,5,5.6,5.3c0,0-0.1,0-0.1,0
			C5.2,5,4.9,4.8,4.6,4.5C4,4.5,3.3,4.3,2.7,4.8c-0.4-0.5-1-0.2-1.3-0.6C1.5,3.9,1.7,3.6,2,3.7c0.4,0.1,0.5-0.3,0.8-0.3
			c0.3-0.1,0.7,0.3,0.8-0.3c0.2,0,0.3-0.1,0.3-0.3c0.1,0,0.2,0,0.3,0c0.2,0,0.5,0.1,0.6-0.3c0.1,0,0.2,0,0.3,0
			c0.3-0.1,0.7,0.3,0.8-0.3c0.1,0,0.2,0,0.3,0c0.3,0,0.5,0,0.8,0c0.2,0,0.3,0,0.3-0.3c0.1,0,0.2,0,0.3,0C8,2,8.3,2,8.7,2
			c0.7,0,1.5,0,2.2,0c0,0.3,0,0.5,0,0.8c0.2,0,0.4,0,0.6,0c0.2,0,0.3,0.1,0.3,0.3s0.1,0.3,0.3,0.3c0,0.1,0,0.2,0,0.3
			c0,0.2,0.1,0.3,0.3,0.3c0,0.2,0.1,0.3,0.3,0.3c0.3,0.1,0.5,0.3,0.6,0.6c0,0.2,0.1,0.3,0.3,0.3c0.1,0.5,0.7,0.6,0.8,1.1
			c0,0.2,0,0.3,0,0.5c-0.4,0.2-0.8,0.1-1-0.2c-0.2-0.3-0.4-0.3-0.7-0.3C11.9,6.2,11.1,6.2,10.4,6.2z M6.5,3.6
			c0.9,0.8,1.5,1.6,2.7,0.9c0.1-0.1,0.3,0,0.4,0c0.7-0.1,0.8-0.2,0.7-1.1C9.9,3.2,9.5,3.1,9.1,2.8c-0.5,0-1,0-1.5,0
			C7.4,3.2,7.1,3.3,6.5,3.6z"/>
		<path class="st6" d="M12.6,6.2c0.3,0,0.5,0,0.7,0.3c0.2,0.3,0.6,0.4,1,0.2c0-0.1,0-0.3,0-0.5C15,6.4,15.1,7,15.2,7.6
			c-0.6,0.1-1-0.3-1.5-0.3c-0.5,0.1-1.1,0-1.7,0c-0.3-0.1-0.4-0.5-0.7-0.6c0-0.4,0.3-0.2,0.6-0.3c0,0.1,0,0.2,0.1,0.2
			c0.2,0,0.2-0.1,0.2-0.2C12.3,6.4,12.6,6.6,12.6,6.2z"/>
		<path class="st13" d="M15.2,14.3c0-2.2,0-4.5,0-6.7c0.2,0,0.3,0.1,0.3,0.3c0,2,0,4,0,6C15.5,14,15.6,14.3,15.2,14.3z"/>
		<path class="st14" d="M11,2c-0.7,0-1.5,0-2.2,0c0-0.1,0-0.2,0-0.3c0.2,0,0.4,0,0.6,0c0.6,0,1.1,0,1.7,0C11,1.8,11,1.9,11,2z"/>
		<path class="st9" d="M11.5,2.8c-0.2,0-0.3,0-0.6,0c0-0.3,0-0.6,0-0.8C11.4,2.1,11.6,2.4,11.5,2.8z"/>
		<path class="st15" d="M12.6,4.2c-0.2,0-0.3-0.1-0.3-0.3C12.6,3.9,12.7,4,12.6,4.2z"/>
		<path class="st15" d="M12.4,3.9c-0.2,0-0.3-0.1-0.3-0.3C12.3,3.6,12.4,3.7,12.4,3.9z"/>
		<path class="st15" d="M12.1,3.4c-0.2,0-0.3-0.1-0.3-0.3C12,3.1,12.1,3.2,12.1,3.4z"/>
		<path class="st16" d="M13.5,5c-0.2,0-0.3-0.1-0.3-0.3C13.4,4.8,13.5,4.9,13.5,5z"/>
		<path class="st17" d="M1.4,4.2c0.3,0.4,1,0.1,1.3,0.6C3.3,4.3,4,4.5,4.6,4.5C4.9,4.8,5.2,5,5.4,5.3c0,0,0.1,0,0.1,0
			C6.9,5,8.1,5.8,9.3,5.9c0.2,0,0.5-0.1,0.5,0.3C9.6,6.8,9,6.5,8.8,6.4c-0.4-0.3-0.7-0.2-1-0.2c-0.4,0-0.6-0.4-1-0.3
			c-0.3,0.1-0.7,0.1-1-0.2C5.3,5.3,5,6,4.5,5.9c0-0.2,0-0.5,0-0.7C4.3,5,4.2,4.7,3.7,4.8C3.7,4.9,3.5,5.1,3.4,5.3c0,0.1,0,0.4,0,0.6
			c-0.1,0-0.3,0-0.4,0C2.7,5.1,2.2,4.8,1.4,4.8c-0.2,0-0.4,0-0.6,0c0-0.1,0-0.2,0-0.3C0.9,4.1,1.2,4.2,1.4,4.2z"/>
		<path class="st10" d="M7.3,2c0,0.2-0.1,0.3-0.3,0.3c-0.3,0-0.5,0-0.8,0C6.2,2,6.3,2,6.5,2C6.8,2,7,2,7.3,2z"/>
		<path class="st18" d="M8.7,1.7c0,0.1,0,0.2,0,0.3C8.3,2,8,2,7.6,2c0.1-0.5,0.6-0.2,0.8-0.3C8.5,1.7,8.6,1.7,8.7,1.7z"/>
		<path class="st15" d="M3.7,3.1C3.5,3.6,3.1,3.3,2.8,3.4C2.9,2.8,3.4,3.2,3.7,3.1z"/>
		<path class="st8" d="M5.9,2.2C5.8,2.8,5.3,2.4,5.1,2.5C5.2,2,5.6,2.3,5.9,2.2z"/>
		<path class="st7" d="M4.8,2.5c0,0.4-0.3,0.2-0.6,0.3C4.2,2.4,4.6,2.6,4.8,2.5z"/>
		<path class="st15" d="M3.9,2.8c0,0.2-0.1,0.3-0.3,0.3C3.6,2.9,3.7,2.8,3.9,2.8z"/>
		<path class="st14" d="M0.8,8.7c-0.1,0-0.2,0-0.3,0c0-1.1,0-2.3,0-3.4c0-0.2-0.1-0.5,0.3-0.5c0,0.2,0,0.4,0,0.6
			C0.8,6.5,0.8,7.6,0.8,8.7z"/>
		<path class="st19" d="M12.4,9c0,0.4,0,0.8,0,1.3c-0.1,0.1-0.3,0.3-0.4,0.4c-0.6,0-1.3,0-2,0c-0.2-0.2-0.4-0.5-0.7-0.8
			c0-0.3,0-0.8,0-1.3c0.3-0.4,0.8-0.5,1.2-0.7C11.1,8.1,11.9,8.1,12.4,9z M9.9,9.6c0.3,0.3,0.5,0.6,0.6,0.8c0.3,0,0.6,0,0.9,0
			c0.2-0.3,0.6-0.4,0.7-0.9c-0.3-0.2-0.6-0.4-1-0.7c-0.3,0-0.8,0-1.3,0C9.9,9.1,9.9,9.3,9.9,9.6z"/>
		<path class="st15" d="M6.2,10.4c0-0.1,0-0.3,0-0.4c0.3-0.3,0.6-0.1,1-0.1c0.3,0.3,0.6,0.7,1,1.1c0,0.2,0,0.6,0,0.9
			c-0.2,0.7-0.9,0.3-1.2,0.7C6.6,12.4,6.4,12,5.9,12c0.3-0.6-0.5-1-0.2-1.6C5.8,10.3,6,10.5,6.2,10.4c0,0.4,0,0.7,0,1
			c0.1,0.1,0.2,0.2,0.4,0.4c0.3,0,0.7,0.1,1-0.1C7.5,11,7.5,11,6.7,10.4C6.6,10.4,6.4,10.4,6.2,10.4z"/>
		<path class="st19" d="M3.9,8.4c0.3,0,0.3,0.3,0.5,0.4c0,0.4,0,0.7,0,0.9C4.3,9.9,4.2,10,4.1,10.1c-0.3,0-0.7,0-1.2,0
			C2.8,9.9,2.6,9.6,2.3,9.2c0-0.1,0-0.4,0-0.7c0.1-0.1,0.3-0.3,0.4-0.4c0.2,0,0.5,0,0.7,0c0,0.4-0.6,0.5-0.6,0.9
			C3,9.5,3.3,9.7,3.9,9.5C3.9,9.1,3.9,8.8,3.9,8.4z"/>
		<path class="st19" d="M14.1,13.8c-0.3,0-0.6,0-0.8,0c-0.4,0.1-0.7-0.2-0.9-0.5c0.1-0.4,0.5-0.6,0.7-0.9c0.5-0.1,0.8,0.3,1.2,0.4
			C14.5,13.2,14.2,13.4,14.1,13.8z"/>
		<path class="st5" d="M3.9,8.4c0,0.4,0,0.7,0,1C3.3,9.7,3,9.5,2.8,9c0-0.4,0.5-0.5,0.6-0.9C3.6,8.2,3.9,8,3.9,8.4z"/>
		<path class="st17" d="M8.7,8.1c-0.4,0-0.7,0-1.1,0c-0.1-0.4-0.1-0.7,0-1C8,7,8.3,6.9,8.5,7.2C8.8,7.5,8.7,7.7,8.7,8.1z"/>
		<path class="st17" d="M11.8,6.5c-0.2,0-0.5-0.1-0.6,0.3c-0.3,0-0.5,0-0.8,0c0-0.2,0-0.4,0-0.6c0.7,0,1.5,0,2.2,0
			c0,0.4-0.3,0.2-0.6,0.3C12,6.5,11.9,6.5,11.8,6.5z"/>
		<path class="st17" d="M4.5,5.9c0,0.1,0,0.3,0,0.4c-0.3,0.2-0.7,0.1-1,0.1C3.3,6.3,3.4,6.1,3.4,5.9C3.7,5.9,4.1,5.9,4.5,5.9z"/>
		<path class="st20" d="M0.8,5.3c0-0.2,0-0.4,0-0.6c0.2,0,0.4,0,0.6,0c0,0.2,0,0.3,0,0.6C1.2,5.3,1,5.3,0.8,5.3z"/>
		<path class="st16" d="M4.5,12.1c-0.2,0-0.4,0-0.6,0c0-0.3,0.2-0.3,0.3-0.3C4.4,11.8,4.5,11.9,4.5,12.1z"/>
		<path class="st16" d="M6.5,3.6c0.5-0.3,0.9-0.4,1.1-0.8c0.5,0,1,0,1.5,0c0.3,0.3,0.8,0.4,1.2,0.6c0.1,0.9,0,1-0.7,1.1
			c-0.1,0-0.3-0.1-0.4,0C8.1,5.2,7.4,4.4,6.5,3.6z M9.2,3.4C8.1,3.4,8.1,3.4,7.6,3.9c0.6,0,1.1,0,1.6,0C9.2,3.7,9.2,3.6,9.2,3.4z"/>
		<path class="st16" d="M11.8,6.5c0.1,0,0.2,0,0.3,0c0,0.1,0,0.3-0.2,0.2C11.9,6.7,11.8,6.5,11.8,6.5z"/>
		<path class="st5" d="M4.5,5.9c-0.4,0-0.7,0-1.1,0c0-0.2,0-0.5,0-0.6c0.2-0.2,0.3-0.4,0.4-0.5c0.5,0,0.6,0.3,0.7,0.4
			C4.5,5.4,4.5,5.7,4.5,5.9z"/>
		<path class="st12" d="M9.9,9.6c0-0.3,0-0.5,0-0.9c0.5,0,1,0,1.3,0c0.4,0.3,0.7,0.5,1,0.7c-0.1,0.5-0.5,0.6-0.7,0.9
			c-0.3,0-0.5,0-0.9,0C10.3,10.2,10.1,9.9,9.9,9.6z"/>
		<path class="st5" d="M6.2,10.4c0.1,0,0.3,0,0.5,0C7.5,11,7.5,11,7.6,11.6c-0.3,0.3-0.7,0.1-1,0.1c-0.1-0.1-0.2-0.2-0.4-0.4
			C6.2,11.1,6.2,10.7,6.2,10.4z"/>
		<path class="st12" d="M9.2,3.4c0,0.1,0,0.2,0,0.4c-0.5,0-1.1,0-1.6,0C8.1,3.4,8.1,3.4,9.2,3.4z"/>
	</g>
</g>
</svg>
