<svg xmlns="http://www.w3.org/2000/svg" viewBox="0 0 98.27 42.11"><defs><style>.cls-1{isolation:isolate;}.cls-2{fill:#eab61c;}</style></defs><title>Fichier 12</title><g id="Calque_2" data-name="Calque 2"><g id="Plan_de_travail_1" data-name="Plan de travail 1" class="cls-1"><g id="Calque_7_Image" data-name="Calque 7 Image"><path class="cls-2" d="M9.07,5.23A3.32,3.32,0,0,0,6,3.26,2.88,2.88,0,0,0,3,6.07C3,7.63,4.56,8.35,5.78,8.91L7,9.43c2.36,1,4.35,2.21,4.35,5.09a5.59,5.59,0,0,1-5.69,5.59A5.6,5.6,0,0,1,0,15.43l2-.55a3.72,3.72,0,0,0,3.62,3.36,3.64,3.64,0,0,0,3.72-3.53c0-2.11-1.65-2.83-3.33-3.6l-1.11-.48C2.76,9.67.94,8.59.94,6,.94,3.19,3.31,1.39,6,1.39A5.18,5.18,0,0,1,10.68,4.2Z"/><path class="cls-2" d="M16.06,14.81c0,1.9.21,3.53,2.54,3.53s2.55-1.63,2.55-3.53V8.52h1.91V15c0,3-1.12,5.08-4.46,5.08S14.14,18,14.14,15V8.52h1.92Z"/><path class="cls-2" d="M28.49,9.89h.05a3.77,3.77,0,0,1,3.21-1.68c3.12,0,3.84,2.25,3.84,4.9V19.8H33.67V13.44c0-1.82-.14-3.45-2.37-3.45-2.64,0-2.81,2.44-2.81,4.46V19.8H26.57V8.52h1.92Z"/><path class="cls-2" d="M41.59.67l6.58,15.2L54.77.67,58.44,19.8H56.38L54.05,7.56h0l-5.83,13-5.81-13h0L40,19.8H37.92Z"/><path class="cls-2" d="M71,19.8H69.12V18.24h-.05a4.73,4.73,0,0,1-3.89,1.87c-3.31,0-5.4-2.8-5.4-5.92s2-6,5.43-6a4.87,4.87,0,0,1,3.86,1.92h.05V8.52H71ZM61.75,14c0,2.21,1.3,4.3,3.7,4.3s3.77-2,3.77-4.27A3.77,3.77,0,0,0,65.42,10,3.82,3.82,0,0,0,61.75,14Z"/><path class="cls-2" d="M83,18.24h0A4.79,4.79,0,0,1,79,20.11c-3.31,0-5.4-2.8-5.4-5.92s2-6,5.43-6a4.87,4.87,0,0,1,3.86,1.92h0V0h1.92V19.8H83ZM75.6,14c0,2.21,1.3,4.3,3.7,4.3s3.76-2,3.76-4.27A3.76,3.76,0,0,0,79.27,10,3.82,3.82,0,0,0,75.6,14Z"/><path class="cls-2" d="M89.4,14.57a3.65,3.65,0,0,0,3.7,3.77A3.88,3.88,0,0,0,96.53,16l1.63.94A5.69,5.69,0,0,1,93,20.11c-3.36,0-5.52-2.56-5.52-5.8s1.95-6.1,5.47-6.1,5.55,3,5.36,6.36Zm6.84-1.63A3.43,3.43,0,0,0,92.93,10a3.55,3.55,0,0,0-3.43,2.95Z"/><path class="cls-2" d="M26.27,27.66a7.77,7.77,0,0,0-5.52-2.4,7.49,7.49,0,0,0,.05,15,7.92,7.92,0,0,0,5.47-2.4v2.5a9.3,9.3,0,0,1-5.4,1.77,9.36,9.36,0,1,1,0-18.72,8.74,8.74,0,0,1,5.4,1.78Z"/><path class="cls-2" d="M31.6,22v9.84l0,.05a3.8,3.8,0,0,1,3.22-1.68c3.12,0,3.84,2.25,3.84,4.9V41.8H36.78V35.44c0-1.82-.14-3.45-2.38-3.45-2.64,0-2.8,2.44-2.8,4.46V41.8H29.68V22Z"/><path class="cls-2" d="M43.31,36.57A3.65,3.65,0,0,0,47,40.34,3.88,3.88,0,0,0,50.44,38l1.63.94a5.7,5.7,0,0,1-5.21,3.16c-3.36,0-5.52-2.56-5.52-5.8s1.94-6.1,5.47-6.1,5.55,3,5.36,6.36Zm6.84-1.63A3.44,3.44,0,0,0,46.84,32a3.56,3.56,0,0,0-3.44,2.95Z"/><path class="cls-2" d="M55.76,36.57a3.66,3.66,0,0,0,3.7,3.77A3.86,3.86,0,0,0,62.89,38l1.63.94a5.69,5.69,0,0,1-5.2,3.16c-3.36,0-5.52-2.56-5.52-5.8s1.94-6.1,5.47-6.1,5.54,3,5.35,6.36Zm6.84-1.63A3.43,3.43,0,0,0,59.29,32a3.56,3.56,0,0,0-3.43,2.95Z"/><path class="cls-2" d="M71.82,33.14A1.79,1.79,0,0,0,70.28,32a1.36,1.36,0,0,0-1.39,1.24c0,1,1.3,1.42,2.62,2s2.61,1.34,2.61,3.24a3.68,3.68,0,0,1-3.81,3.67,4.06,4.06,0,0,1-4-2.85L68,38.54c.48,1.05,1,1.8,2.3,1.8a1.72,1.72,0,0,0,1.83-1.73c0-2.52-5.09-1.66-5.09-5.21a3.21,3.21,0,0,1,3.36-3.19,3.42,3.42,0,0,1,3,2.09Z"/><path class="cls-2" d="M77.8,36.57a3.65,3.65,0,0,0,3.69,3.77A3.86,3.86,0,0,0,84.92,38l1.64.94a5.7,5.7,0,0,1-5.21,3.16c-3.36,0-5.52-2.56-5.52-5.8s1.94-6.1,5.47-6.1,5.54,3,5.35,6.36Zm6.84-1.63A3.45,3.45,0,0,0,81.32,32a3.56,3.56,0,0,0-3.43,2.95Z"/></g></g></g></svg>