<svg id="Calque_1" data-name="Calque 1" xmlns="http://www.w3.org/2000/svg" viewBox="0 0 1920 447.97"><defs><style>.cls-1{fill:#fff;}.cls-2{isolation:isolate;}.cls-3{fill:#e9b903;}</style></defs><title>yolk</title><path class="cls-1" d="M708.86,526.12A112.08,112.08,0,0,0,725.22,521a87.9,87.9,0,0,0,38.5-31.62,86.91,86.91,0,0,0,13.13-31.2,88.79,88.79,0,0,0,0-35.28,110,110,0,0,0-5.17-16.35A87.91,87.91,0,0,0,740.06,368a86.9,86.9,0,0,0-31.2-13.12,97.53,97.53,0,0,0-17.64-1.72h-1.93v20.43a67.43,67.43,0,0,1,0,134v20.44h1.93A83.56,83.56,0,0,0,708.86,526.12Z" transform="translate(0 -352.03)"/><path class="cls-1" d="M610.76,474.7a87.94,87.94,0,0,0,31.63,38.51,87,87,0,0,0,31.19,13.12c.86.22,1.94.43,3,.65V507.83a67.42,67.42,0,0,1,0-134.46V354.44c-.86.21-1.93.43-3,.64a110,110,0,0,0-16.35,5.17,88,88,0,0,0-38.51,31.62,87.07,87.07,0,0,0-13.12,31.2,88.42,88.42,0,0,0,0,35.28A111.09,111.09,0,0,0,610.76,474.7Z" transform="translate(0 -352.03)"/><g class="cls-2"><path class="cls-3" d="M611.37,447.7v25.43H606.8V447.79l-20.49-41.58h5.18l15.59,32.25q.84,1.68,2.1,4.94h.19a48.35,48.35,0,0,1,2.28-4.85L628,406.21h5Z" transform="translate(0 -352.03)"/><path class="cls-3" d="M668,474.3q-14.17,0-22.6-9.43T637,440.37q0-16,8.66-25.64t23.63-9.64q13.54,0,21.92,9.27t8.37,24.29q0,16.61-8.58,26.13T668,474.3Zm.47-65a24.59,24.59,0,0,0-19.2,8.45q-7.54,8.44-7.54,22.12t7.14,22q7.14,8.19,19,8.19,12.42,0,19.65-8.09t7.23-22.57q0-14.17-7.07-22.14T668.49,409.29Z" transform="translate(0 -352.03)"/><path class="cls-3" d="M713.24,473.13V406.21h4.62v62.72H744.7v4.2Z" transform="translate(0 -352.03)"/><path class="cls-3" d="M791.46,473.13l-28.52-32a7.36,7.36,0,0,1-1.12-1.54h-.18v33.55H757V406.21h4.62v31.55h.18a7.7,7.7,0,0,1,1.22-1.63l27.06-29.92h6l-29.35,32.44,31.17,34.48Z" transform="translate(0 -352.03)"/></g><g class="cls-2"><path class="cls-3" d="M446.53,375.85h-.08v11.66h-1.64v-26.7h1.64v3.77h.08a7.28,7.28,0,0,1,2.81-3.12,7.68,7.68,0,0,1,4-1.09,6.61,6.61,0,0,1,5.44,2.4,10,10,0,0,1,2,6.53,11.58,11.58,0,0,1-2.24,7.41,7.18,7.18,0,0,1-5.92,2.83A6.45,6.45,0,0,1,446.53,375.85Zm-.08-6.81v2.31a6.89,6.89,0,0,0,1.74,4.72,5.74,5.74,0,0,0,4.55,2,5.38,5.38,0,0,0,4.55-2.4,10.43,10.43,0,0,0,1.75-6.31,8.52,8.52,0,0,0-1.6-5.45,5.22,5.22,0,0,0-4.29-2A6,6,0,0,0,448.2,364,7.76,7.76,0,0,0,446.45,369Z" transform="translate(0 -352.03)"/><path class="cls-3" d="M472.64,379.54a8,8,0,0,1-6.34-2.63,11.42,11.42,0,0,1,.11-14,8.43,8.43,0,0,1,6.42-2.57,7.84,7.84,0,0,1,6.18,2.55,10.28,10.28,0,0,1,2.27,7.07A10.11,10.11,0,0,1,479,376.9,8,8,0,0,1,472.64,379.54Zm.12-17.67a6.51,6.51,0,0,0-5.15,2.17,8.87,8.87,0,0,0-1.92,6.06,8.56,8.56,0,0,0,1.87,5.77,6.42,6.42,0,0,0,5.13,2.17,6.25,6.25,0,0,0,5.09-2.14,10.93,10.93,0,0,0,0-11.94A6.23,6.23,0,0,0,472.76,361.87Z" transform="translate(0 -352.03)"/><path class="cls-3" d="M501.31,379.1h-1.53l-4-13.79a10.24,10.24,0,0,1-.29-1.53h-.09a8.6,8.6,0,0,1-.36,1.5L490.6,379.1h-1.54l-5.52-18.29h1.83l4.25,14.59a9.87,9.87,0,0,1,.25,1.54H490a7.71,7.71,0,0,1,.34-1.54L495,360.81h1.13l4.14,14.59a9.62,9.62,0,0,1,.25,1.54h.14a5.69,5.69,0,0,1,.31-1.54l4.34-14.59H507Z" transform="translate(0 -352.03)"/><path class="cls-3" d="M511,370a9,9,0,0,0,1.74,5.89,5.83,5.83,0,0,0,4.78,2.12,9.75,9.75,0,0,0,6-2.26v1.75a10.74,10.74,0,0,1-6.34,2,7.17,7.17,0,0,1-5.72-2.53q-2.18-2.53-2.18-7.16a10.17,10.17,0,0,1,2.28-6.74,7.33,7.33,0,0,1,5.92-2.74,6.16,6.16,0,0,1,5.23,2.39,10.5,10.5,0,0,1,1.82,6.54V370Zm11.82-1.5a8.06,8.06,0,0,0-1.52-4.91,4.72,4.72,0,0,0-3.89-1.75,5.69,5.69,0,0,0-4.26,1.72,8.22,8.22,0,0,0-2.08,4.94Z" transform="translate(0 -352.03)"/><path class="cls-3" d="M537.66,362.53a3.2,3.2,0,0,0-1.93-.59,4.27,4.27,0,0,0-3.63,2.23,11.51,11.51,0,0,0-1.46,6.34v8.59H529V360.81h1.61v4.06h.07a6.59,6.59,0,0,1,2-3.25,4.64,4.64,0,0,1,3.14-1.16,4.81,4.81,0,0,1,1.83.32Z" transform="translate(0 -352.03)"/><path class="cls-3" d="M540.76,370a9,9,0,0,0,1.74,5.89,5.84,5.84,0,0,0,4.78,2.12,9.71,9.71,0,0,0,6-2.26v1.75a10.7,10.7,0,0,1-6.34,2,7.15,7.15,0,0,1-5.71-2.53c-1.46-1.69-2.18-4.08-2.18-7.16a10.17,10.17,0,0,1,2.28-6.74,7.31,7.31,0,0,1,5.91-2.74,6.18,6.18,0,0,1,5.24,2.39,10.56,10.56,0,0,1,1.82,6.54V370Zm11.82-1.5a8.06,8.06,0,0,0-1.51-4.91,4.72,4.72,0,0,0-3.9-1.75,5.72,5.72,0,0,0-4.26,1.72,8.34,8.34,0,0,0-2.08,4.94Z" transform="translate(0 -352.03)"/><path class="cls-3" d="M571.82,379.1v-3.32h-.08a6.65,6.65,0,0,1-2.64,2.75,7.69,7.69,0,0,1-4,1,6.9,6.9,0,0,1-5.5-2.46,10,10,0,0,1-2.14-6.8,10.7,10.7,0,0,1,2.33-7.17,7.57,7.57,0,0,1,6-2.74,6.07,6.07,0,0,1,5.85,3.37h.08V352h1.64V379.1Zm0-11.13a6.21,6.21,0,0,0-1.62-4.33,5.61,5.61,0,0,0-4.35-1.77,6,6,0,0,0-4.75,2.2,10.88,10.88,0,0,0-.19,11.91,5.36,5.36,0,0,0,4.35,2.06,6.11,6.11,0,0,0,4.84-1.93,6.9,6.9,0,0,0,1.72-4.73Z" transform="translate(0 -352.03)"/><path class="cls-3" d="M591.05,375.85H591v3.25h-1.65V352H591v12.55h.07a7.28,7.28,0,0,1,2.81-3.12,7.69,7.69,0,0,1,4-1.09,6.64,6.64,0,0,1,5.44,2.4,10,10,0,0,1,1.95,6.53,11.42,11.42,0,0,1-2.27,7.41,7.18,7.18,0,0,1-5.89,2.83A6.45,6.45,0,0,1,591.05,375.85ZM591,369v2.31a6.88,6.88,0,0,0,1.73,4.72,5.74,5.74,0,0,0,4.55,2,5.41,5.41,0,0,0,4.56-2.4,10.5,10.5,0,0,0,1.75-6.31,8.52,8.52,0,0,0-1.61-5.45,5.21,5.21,0,0,0-4.29-2,6,6,0,0,0-4.94,2.14A7.7,7.7,0,0,0,591,369Z" transform="translate(0 -352.03)"/><path class="cls-3" d="M614.28,382.83a10.8,10.8,0,0,1-2.21,3.66,4.26,4.26,0,0,1-3.13,1.2,3.71,3.71,0,0,1-1.42-.25V385.8a4.21,4.21,0,0,0,1.5.24q2.19,0,3.46-3l1.7-4.05-6.93-18.15h1.84l5.51,14.9a7.14,7.14,0,0,1,.25.73,3.94,3.94,0,0,0,.17.6h.07l.43-1.23,5.89-15h1.78Z" transform="translate(0 -352.03)"/></g><rect class="cls-1" y="410.48" width="1920" height="37.5"/></svg>